<?xml version="1.0" encoding="UTF-8" standalone="no"?>
<!DOCTYPE svg PUBLIC "-//W3C//DTD SVG 1.1//EN"
 "http://www.w3.org/Graphics/SVG/1.1/DTD/svg11.dtd">
<!-- Generated by graphviz version 2.42.4 (0)
 -->
<!-- Title: G Pages: 1 -->
<svg width="471pt" height="180pt"
 viewBox="0.00 0.00 471.00 180.00" xmlns="http://www.w3.org/2000/svg" xmlns:xlink="http://www.w3.org/1999/xlink">
<g id="graph0" class="graph" transform="scale(1 1) rotate(0) translate(18 162)">
<title>G</title>
<polygon fill="#101418" stroke="transparent" points="-18,18 -18,-162 453,-162 453,18 -18,18"/>
<!-- S_INIT -->
<g id="node1" class="node">
<title>S_INIT</title>
<path fill="#1a2028" stroke="#9aa4b2" stroke-width="1.2" d="M135,-144C135,-144 12,-144 12,-144 6,-144 0,-138 0,-132 0,-132 0,-120 0,-120 0,-114 6,-108 12,-108 12,-108 135,-108 135,-108 141,-108 147,-114 147,-120 147,-120 147,-132 147,-132 147,-138 141,-144 135,-144"/>
<text text-anchor="middle" x="73.5" y="-122.2" font-family="Helvetica,sans-Serif" font-size="16.00" fill="#e6edf3">Boot / Safe Pose</text>
</g>
<!-- S_100 -->
<g id="node2" class="node">
<title>S_100</title>
<path fill="#1a2028" stroke="#9aa4b2" stroke-width="1.2" d="M214,-36C214,-36 101,-36 101,-36 95,-36 89,-30 89,-24 89,-24 89,-12 89,-12 89,-6 95,0 101,0 101,0 214,0 214,0 220,0 226,-6 226,-12 226,-12 226,-24 226,-24 226,-30 220,-36 214,-36"/>
<text text-anchor="middle" x="157.5" y="-14.2" font-family="Helvetica,sans-Serif" font-size="16.00" fill="#e6edf3">Sense / Decide</text>
</g>
<!-- S_INIT&#45;&gt;S_100 -->
<g id="edge1" class="edge">
<title>S_INIT&#45;&gt;S_100</title>
<path fill="none" stroke="#9aa4b2" d="M87,-107.97C101,-90.3 123,-62.54 138.7,-42.73"/>
<polygon fill="#9aa4b2" stroke="#9aa4b2" points="140.98,-44.35 143.76,-36.34 136.6,-40.87 140.98,-44.35"/>
<text text-anchor="middle" x="139" y="-68.6" font-family="Helvetica,sans-Serif" font-size="13.00" fill="#94a3b8">entry</text>
</g>
<!-- S_100&#45;&gt;S_100 -->
<g id="edge2" class="edge">
<title>S_100&#45;&gt;S_100</title>
<path fill="none" stroke="#9aa4b2" d="M226.34,-28.09C246.44,-27.75 262,-24.38 262,-18 262,-12.52 250.51,-9.26 234.52,-8.23"/>
<polygon fill="#9aa4b2" stroke="#9aa4b2" points="234.45,-5.43 226.34,-7.91 234.23,-11.02 234.45,-5.43"/>
<text text-anchor="middle" x="348.5" y="-14.6" font-family="Helvetica,sans-Serif" font-size="13.00" fill="#94a3b8">if Touch_head_time &lt; 200</text>
</g>
<!-- S_200 -->
<g id="node3" class="node">
<title>S_200</title>
<path fill="#1a2028" stroke="#9aa4b2" stroke-width="1.2" d="M287.5,-144C287.5,-144 195.5,-144 195.5,-144 189.5,-144 183.5,-138 183.5,-132 183.5,-132 183.5,-120 183.5,-120 183.5,-114 189.5,-108 195.5,-108 195.5,-108 287.5,-108 287.5,-108 293.5,-108 299.5,-114 299.5,-120 299.5,-120 299.5,-132 299.5,-132 299.5,-138 293.5,-144 287.5,-144"/>
<text text-anchor="middle" x="241.5" y="-122.2" font-family="Helvetica,sans-Serif" font-size="16.00" fill="#e6edf3">Synchronize</text>
</g>
<!-- S_200&#45;&gt;S_100 -->
<g id="edge3" class="edge">
<title>S_200&#45;&gt;S_100</title>
<path fill="none" stroke="#9aa4b2" d="M228,-107.97C214,-90.3 192,-62.54 176.3,-42.73"/>
<polygon fill="#9aa4b2" stroke="#9aa4b2" points="178.4,-40.87 171.24,-36.34 174.02,-44.35 178.4,-40.87"/>
<text text-anchor="middle" x="213" y="-68.6" font-family="Helvetica,sans-Serif" font-size="13.00" fill="#94a3b8">go</text>
</g>
</g>
</svg>
