<?xml version="1.0" encoding="UTF-8" standalone="no"?>
<!DOCTYPE svg PUBLIC "-//W3C//DTD SVG 1.1//EN"
 "http://www.w3.org/Graphics/SVG/1.1/DTD/svg11.dtd">
<!-- Generated by graphviz version 2.42.4 (0)
 -->
<!-- Title: EmbodiedBehaviors Pages: 1 -->
<svg width="983pt" height="871pt"
 viewBox="0.00 0.00 983.00 871.00" xmlns="http://www.w3.org/2000/svg" xmlns:xlink="http://www.w3.org/1999/xlink">
<g id="graph0" class="graph" transform="scale(1 1) rotate(0) translate(18 853)">
<title>EmbodiedBehaviors</title>
<polygon fill="white" stroke="transparent" points="-18,18 -18,-853 965,-853 965,18 -18,18"/>
<!-- A -->
<g id="node1" class="node">
<title>A</title>
<path fill="white" stroke="#222222" stroke-width="1.4" d="M618,-835C618,-835 482,-835 482,-835 476,-835 470,-829 470,-823 470,-823 470,-811 470,-811 470,-805 476,-799 482,-799 482,-799 618,-799 618,-799 624,-799 630,-805 630,-811 630,-811 630,-823 630,-823 630,-829 624,-835 618,-835"/>
<text text-anchor="middle" x="550" y="-813.3" font-family="Helvetica,sans-Serif" font-size="14.00" fill="#111111">Boot And Safe Pose</text>
</g>
<!-- B -->
<g id="node2" class="node">
<title>B</title>
<path fill="white" stroke="#222222" stroke-width="1.4" d="M643.5,-740C643.5,-740 456.5,-740 456.5,-740 450.5,-740 444.5,-734 444.5,-728 444.5,-728 444.5,-716 444.5,-716 444.5,-710 450.5,-704 456.5,-704 456.5,-704 643.5,-704 643.5,-704 649.5,-704 655.5,-710 655.5,-716 655.5,-716 655.5,-728 655.5,-728 655.5,-734 649.5,-740 643.5,-740"/>
<text text-anchor="middle" x="550" y="-718.3" font-family="Helvetica,sans-Serif" font-size="14.00" fill="#111111">Embodied Monitoring Loop</text>
</g>
<!-- A&#45;&gt;B -->
<g id="edge1" class="edge">
<title>A&#45;&gt;B</title>
<path fill="none" stroke="#222222" stroke-width="1.4" d="M550,-798.94C550,-784.87 550,-764.69 550,-748.67"/>
<polygon fill="#222222" stroke="#222222" stroke-width="1.4" points="552.8,-748.26 550,-740.26 547.2,-748.26 552.8,-748.26"/>
</g>
<!-- C -->
<g id="node3" class="node">
<title>C</title>
<polygon fill="white" stroke="#222222" stroke-width="1.4" points="550,-645 378,-618 550,-591 722,-618 550,-645"/>
<text text-anchor="middle" x="550" y="-614.3" font-family="Helvetica,sans-Serif" font-size="14.00" fill="#111111">Body Or World Event?</text>
</g>
<!-- B&#45;&gt;C -->
<g id="edge2" class="edge">
<title>B&#45;&gt;C</title>
<path fill="none" stroke="#222222" stroke-width="1.4" d="M550,-703.7C550,-689.92 550,-670.21 550,-653.27"/>
<polygon fill="#222222" stroke="#222222" stroke-width="1.4" points="552.8,-653.22 550,-645.22 547.2,-653.22 552.8,-653.22"/>
</g>
<!-- D -->
<g id="node4" class="node">
<title>D</title>
<path fill="white" stroke="#222222" stroke-width="1.4" d="M124,-453C124,-453 12,-453 12,-453 6,-453 0,-447 0,-441 0,-441 0,-429 0,-429 0,-423 6,-417 12,-417 12,-417 124,-417 124,-417 130,-417 136,-423 136,-429 136,-429 136,-441 136,-441 136,-447 130,-453 124,-453"/>
<text text-anchor="middle" x="68" y="-431.3" font-family="Helvetica,sans-Serif" font-size="14.00" fill="#111111">Recover Posture</text>
</g>
<!-- C&#45;&gt;D -->
<g id="edge3" class="edge">
<title>C&#45;&gt;D</title>
<path fill="none" stroke="#222222" stroke-width="1.4" d="M421.67,-611.1C321.54,-604.37 192.24,-590.39 148,-562 110.92,-538.21 87.81,-490.44 76.46,-461.04"/>
<polygon fill="#222222" stroke="#222222" stroke-width="1.4" points="78.99,-459.79 73.57,-453.27 73.74,-461.75 78.99,-459.79"/>
<text text-anchor="middle" x="217.5" y="-550.8" font-family="Helvetica,sans-Serif" font-size="14.00" fill="#222222">fallen or overturned</text>
</g>
<!-- E -->
<g id="node5" class="node">
<title>E</title>
<path fill="white" stroke="#222222" stroke-width="1.4" d="M357,-518C357,-518 205,-518 205,-518 199,-518 193,-512 193,-506 193,-506 193,-494 193,-494 193,-488 199,-482 205,-482 205,-482 357,-482 357,-482 363,-482 369,-488 369,-494 369,-494 369,-506 369,-506 369,-512 363,-518 357,-518"/>
<text text-anchor="middle" x="281" y="-496.3" font-family="Helvetica,sans-Serif" font-size="14.00" fill="#111111">Pause Forward Motion</text>
</g>
<!-- C&#45;&gt;E -->
<g id="edge4" class="edge">
<title>C&#45;&gt;E</title>
<path fill="none" stroke="#222222" stroke-width="1.4" d="M459.22,-605.2C400.24,-595.92 330.17,-581.33 307,-562 296.12,-552.93 289.69,-538.48 285.95,-525.93"/>
<polygon fill="#222222" stroke="#222222" stroke-width="1.4" points="288.61,-525.04 283.86,-518.02 283.2,-526.47 288.61,-525.04"/>
<text text-anchor="middle" x="360" y="-550.8" font-family="Helvetica,sans-Serif" font-size="14.00" fill="#222222">obstacle ahead</text>
</g>
<!-- F -->
<g id="node6" class="node">
<title>F</title>
<path fill="white" stroke="#222222" stroke-width="1.4" d="M575,-323C575,-323 405,-323 405,-323 399,-323 393,-317 393,-311 393,-311 393,-299 393,-299 393,-293 399,-287 405,-287 405,-287 575,-287 575,-287 581,-287 587,-293 587,-299 587,-299 587,-311 587,-311 587,-317 581,-323 575,-323"/>
<text text-anchor="middle" x="490" y="-301.3" font-family="Helvetica,sans-Serif" font-size="14.00" fill="#111111">Social Contact Response</text>
</g>
<!-- C&#45;&gt;F -->
<g id="edge5" class="edge">
<title>C&#45;&gt;F</title>
<path fill="none" stroke="#222222" stroke-width="1.4" d="M523.71,-594.85C504.16,-576.54 479.05,-548.65 468,-518 444.76,-453.52 466.67,-371.35 480.56,-330.86"/>
<polygon fill="#222222" stroke="#222222" stroke-width="1.4" points="483.28,-331.58 483.3,-323.1 478,-329.71 483.28,-331.58"/>
<text text-anchor="middle" x="550" y="-496.3" font-family="Helvetica,sans-Serif" font-size="14.00" fill="#222222">touch or nearby person</text>
</g>
<!-- G -->
<g id="node7" class="node">
<title>G</title>
<path fill="white" stroke="#222222" stroke-width="1.4" d="M852.5,-518C852.5,-518 727.5,-518 727.5,-518 721.5,-518 715.5,-512 715.5,-506 715.5,-506 715.5,-494 715.5,-494 715.5,-488 721.5,-482 727.5,-482 727.5,-482 852.5,-482 852.5,-482 858.5,-482 864.5,-488 864.5,-494 864.5,-494 864.5,-506 864.5,-506 864.5,-512 858.5,-518 852.5,-518"/>
<text text-anchor="middle" x="790" y="-496.3" font-family="Helvetica,sans-Serif" font-size="14.00" fill="#111111">Roam Or Advance</text>
</g>
<!-- C&#45;&gt;G -->
<g id="edge6" class="edge">
<title>C&#45;&gt;G</title>
<path fill="none" stroke="#222222" stroke-width="1.4" d="M600.99,-598.91C627.4,-588.98 659.91,-575.89 688,-562 711.72,-550.27 737.28,-534.99 756.87,-522.65"/>
<polygon fill="#222222" stroke="#222222" stroke-width="1.4" points="758.55,-524.9 763.81,-518.25 755.55,-520.17 758.55,-524.9"/>
<text text-anchor="middle" x="781" y="-550.8" font-family="Helvetica,sans-Serif" font-size="14.00" fill="#222222">no immediate issue</text>
</g>
<!-- H -->
<g id="node8" class="node">
<title>H</title>
<path fill="white" stroke="#222222" stroke-width="1.4" d="M461,-36C461,-36 261,-36 261,-36 255,-36 249,-30 249,-24 249,-24 249,-12 249,-12 249,-6 255,0 261,0 261,0 461,0 461,0 467,0 473,-6 473,-12 473,-12 473,-24 473,-24 473,-30 467,-36 461,-36"/>
<text text-anchor="middle" x="361" y="-14.3" font-family="Helvetica,sans-Serif" font-size="14.00" fill="#111111">Resume Ordinary Monitoring</text>
</g>
<!-- D&#45;&gt;H -->
<g id="edge7" class="edge">
<title>D&#45;&gt;H</title>
<path fill="none" stroke="#222222" stroke-width="1.4" d="M65.78,-416.64C62.83,-392.06 58,-345.68 58,-306 58,-306 58,-306 58,-112 58,-71.95 155.95,-47.38 240.47,-33.63"/>
<polygon fill="#222222" stroke="#222222" stroke-width="1.4" points="241.15,-36.36 248.6,-32.34 240.26,-30.83 241.15,-36.36"/>
</g>
<!-- I -->
<g id="node9" class="node">
<title>I</title>
<path fill="white" stroke="#222222" stroke-width="1.4" d="M350,-388C350,-388 212,-388 212,-388 206,-388 200,-382 200,-376 200,-376 200,-364 200,-364 200,-358 206,-352 212,-352 212,-352 350,-352 350,-352 356,-352 362,-358 362,-364 362,-364 362,-376 362,-376 362,-382 356,-388 350,-388"/>
<text text-anchor="middle" x="281" y="-366.3" font-family="Helvetica,sans-Serif" font-size="14.00" fill="#111111">Scan Left And Right</text>
</g>
<!-- E&#45;&gt;I -->
<g id="edge8" class="edge">
<title>E&#45;&gt;I</title>
<path fill="none" stroke="#222222" stroke-width="1.4" d="M281,-481.74C281,-459.79 281,-421.72 281,-396.44"/>
<polygon fill="#222222" stroke="#222222" stroke-width="1.4" points="283.8,-396.4 281,-388.4 278.2,-396.4 283.8,-396.4"/>
</g>
<!-- F&#45;&gt;H -->
<g id="edge16" class="edge">
<title>F&#45;&gt;H</title>
<path fill="none" stroke="#222222" stroke-width="1.4" d="M503.57,-286.78C531.58,-248.97 589.84,-157.17 548,-95 529.51,-67.53 499.19,-49.98 468.3,-38.78"/>
<polygon fill="#222222" stroke="#222222" stroke-width="1.4" points="468.91,-36.03 460.44,-36.06 467.09,-41.32 468.91,-36.03"/>
</g>
<!-- N -->
<g id="node14" class="node">
<title>N</title>
<path fill="white" stroke="#222222" stroke-width="1.4" d="M935,-388C935,-388 757,-388 757,-388 751,-388 745,-382 745,-376 745,-376 745,-364 745,-364 745,-358 751,-352 757,-352 757,-352 935,-352 935,-352 941,-352 947,-358 947,-364 947,-364 947,-376 947,-376 947,-382 941,-388 935,-388"/>
<text text-anchor="middle" x="846" y="-366.3" font-family="Helvetica,sans-Serif" font-size="14.00" fill="#111111">Check Posture And Space</text>
</g>
<!-- G&#45;&gt;N -->
<g id="edge17" class="edge">
<title>G&#45;&gt;N</title>
<path fill="none" stroke="#222222" stroke-width="1.4" d="M797.55,-481.74C807.24,-459.6 824.1,-421.05 835.16,-395.78"/>
<polygon fill="#222222" stroke="#222222" stroke-width="1.4" points="837.75,-396.85 838.39,-388.4 832.62,-394.6 837.75,-396.85"/>
</g>
<!-- H&#45;&gt;C -->
<g id="edge19" class="edge">
<title>H&#45;&gt;C</title>
<path fill="none" stroke="#222222" stroke-width="1.4" d="M473.19,-32.8C558.03,-46.47 660,-71.36 660,-112 660,-501 660,-501 660,-501 660,-540.86 625.37,-572.51 594.97,-592.62"/>
<polygon fill="#222222" stroke="#222222" stroke-width="1.4" points="593.39,-590.3 588.16,-596.98 596.41,-595.02 593.39,-590.3"/>
</g>
<!-- J -->
<g id="node10" class="node">
<title>J</title>
<polygon fill="white" stroke="#222222" stroke-width="1.4" points="282,-258 152,-231 282,-204 412,-231 282,-258"/>
<text text-anchor="middle" x="282" y="-227.3" font-family="Helvetica,sans-Serif" font-size="14.00" fill="#111111">Open Direction?</text>
</g>
<!-- I&#45;&gt;J -->
<g id="edge9" class="edge">
<title>I&#45;&gt;J</title>
<path fill="none" stroke="#222222" stroke-width="1.4" d="M281.12,-351.93C281.28,-330.6 281.55,-293.62 281.75,-266.34"/>
<polygon fill="#222222" stroke="#222222" stroke-width="1.4" points="284.55,-266.24 281.81,-258.22 278.95,-266.2 284.55,-266.24"/>
</g>
<!-- K -->
<g id="node11" class="node">
<title>K</title>
<path fill="white" stroke="#222222" stroke-width="1.4" d="M186.5,-131C186.5,-131 125.5,-131 125.5,-131 119.5,-131 113.5,-125 113.5,-119 113.5,-119 113.5,-107 113.5,-107 113.5,-101 119.5,-95 125.5,-95 125.5,-95 186.5,-95 186.5,-95 192.5,-95 198.5,-101 198.5,-107 198.5,-107 198.5,-119 198.5,-119 198.5,-125 192.5,-131 186.5,-131"/>
<text text-anchor="middle" x="156" y="-109.3" font-family="Helvetica,sans-Serif" font-size="14.00" fill="#111111">Turn Left</text>
</g>
<!-- J&#45;&gt;K -->
<g id="edge10" class="edge">
<title>J&#45;&gt;K</title>
<path fill="none" stroke="#222222" stroke-width="1.4" d="M258.89,-208.72C236.81,-188.4 203.63,-157.85 180.95,-136.97"/>
<polygon fill="#222222" stroke="#222222" stroke-width="1.4" points="182.64,-134.72 174.85,-131.36 178.84,-138.84 182.64,-134.72"/>
<text text-anchor="middle" x="230" y="-163.8" font-family="Helvetica,sans-Serif" font-size="14.00" fill="#222222">left</text>
</g>
<!-- L -->
<g id="node12" class="node">
<title>L</title>
<path fill="white" stroke="#222222" stroke-width="1.4" d="M319,-131C319,-131 247,-131 247,-131 241,-131 235,-125 235,-119 235,-119 235,-107 235,-107 235,-101 241,-95 247,-95 247,-95 319,-95 319,-95 325,-95 331,-101 331,-107 331,-107 331,-119 331,-119 331,-125 325,-131 319,-131"/>
<text text-anchor="middle" x="283" y="-109.3" font-family="Helvetica,sans-Serif" font-size="14.00" fill="#111111">Turn Right</text>
</g>
<!-- J&#45;&gt;L -->
<g id="edge11" class="edge">
<title>J&#45;&gt;L</title>
<path fill="none" stroke="#222222" stroke-width="1.4" d="M282.22,-203.97C282.39,-184.74 282.61,-158.68 282.78,-139.57"/>
<polygon fill="#222222" stroke="#222222" stroke-width="1.4" points="285.58,-139.34 282.85,-131.32 279.98,-139.29 285.58,-139.34"/>
<text text-anchor="middle" x="300" y="-163.8" font-family="Helvetica,sans-Serif" font-size="14.00" fill="#222222">right</text>
</g>
<!-- M -->
<g id="node13" class="node">
<title>M</title>
<path fill="white" stroke="#222222" stroke-width="1.4" d="M518.5,-131C518.5,-131 379.5,-131 379.5,-131 373.5,-131 367.5,-125 367.5,-119 367.5,-119 367.5,-107 367.5,-107 367.5,-101 373.5,-95 379.5,-95 379.5,-95 518.5,-95 518.5,-95 524.5,-95 530.5,-101 530.5,-107 530.5,-107 530.5,-119 530.5,-119 530.5,-125 524.5,-131 518.5,-131"/>
<text text-anchor="middle" x="449" y="-109.3" font-family="Helvetica,sans-Serif" font-size="14.00" fill="#111111">Retry Or Back Away</text>
</g>
<!-- J&#45;&gt;M -->
<g id="edge12" class="edge">
<title>J&#45;&gt;M</title>
<path fill="none" stroke="#222222" stroke-width="1.4" d="M311.09,-209.79C340.89,-189.1 387.06,-157.02 417.66,-135.77"/>
<polygon fill="#222222" stroke="#222222" stroke-width="1.4" points="419.35,-138.01 424.32,-131.14 416.15,-133.41 419.35,-138.01"/>
<text text-anchor="middle" x="422" y="-163.8" font-family="Helvetica,sans-Serif" font-size="14.00" fill="#222222">still blocked</text>
</g>
<!-- K&#45;&gt;H -->
<g id="edge13" class="edge">
<title>K&#45;&gt;H</title>
<path fill="none" stroke="#222222" stroke-width="1.4" d="M193.6,-94.94C228.02,-79.33 279.04,-56.18 315.7,-39.55"/>
<polygon fill="#222222" stroke="#222222" stroke-width="1.4" points="317.16,-41.96 323.29,-36.11 314.85,-36.86 317.16,-41.96"/>
</g>
<!-- L&#45;&gt;H -->
<g id="edge14" class="edge">
<title>L&#45;&gt;H</title>
<path fill="none" stroke="#222222" stroke-width="1.4" d="M297.31,-94.94C309.65,-80.22 327.61,-58.81 341.31,-42.47"/>
<polygon fill="#222222" stroke="#222222" stroke-width="1.4" points="343.52,-44.19 346.52,-36.26 339.23,-40.59 343.52,-44.19"/>
</g>
<!-- M&#45;&gt;H -->
<g id="edge15" class="edge">
<title>M&#45;&gt;H</title>
<path fill="none" stroke="#222222" stroke-width="1.4" d="M432.86,-94.94C418.93,-80.22 398.67,-58.81 383.21,-42.47"/>
<polygon fill="#222222" stroke="#222222" stroke-width="1.4" points="384.87,-40.15 377.34,-36.26 380.8,-44 384.87,-40.15"/>
</g>
<!-- N&#45;&gt;C -->
<g id="edge18" class="edge">
<title>N&#45;&gt;C</title>
<path fill="none" stroke="#222222" stroke-width="1.4" d="M854.83,-388.03C873.84,-427.21 912.67,-523.35 858,-562 827.14,-583.82 738.79,-598.17 664.6,-606.73"/>
<polygon fill="#222222" stroke="#222222" stroke-width="1.4" points="664.18,-603.95 656.54,-607.64 664.81,-609.52 664.18,-603.95"/>
</g>
</g>
</svg>
