<?xml version="1.0" encoding="UTF-8" standalone="no"?>
<!DOCTYPE svg PUBLIC "-//W3C//DTD SVG 1.1//EN"
 "http://www.w3.org/Graphics/SVG/1.1/DTD/svg11.dtd">
<!-- Generated by graphviz version 2.42.4 (0)
 -->
<!-- Title: G Pages: 1 -->
<svg width="337pt" height="396pt"
 viewBox="0.00 0.00 336.50 396.00" xmlns="http://www.w3.org/2000/svg" xmlns:xlink="http://www.w3.org/1999/xlink">
<g id="graph0" class="graph" transform="scale(1 1) rotate(0) translate(18 378)">
<title>G</title>
<polygon fill="#101418" stroke="transparent" points="-18,18 -18,-378 318.5,-378 318.5,18 -18,18"/>
<!-- S_INIT -->
<g id="node1" class="node">
<title>S_INIT</title>
<path fill="#1a2028" stroke="#9aa4b2" stroke-width="1.2" d="M230,-360C230,-360 107,-360 107,-360 101,-360 95,-354 95,-348 95,-348 95,-336 95,-336 95,-330 101,-324 107,-324 107,-324 230,-324 230,-324 236,-324 242,-330 242,-336 242,-336 242,-348 242,-348 242,-354 236,-360 230,-360"/>
<text text-anchor="middle" x="168.5" y="-338.2" font-family="Helvetica,sans-Serif" font-size="16.00" fill="#e6edf3">Boot / Safe Pose</text>
</g>
<!-- S_100 -->
<g id="node2" class="node">
<title>S_100</title>
<path fill="#1a2028" stroke="#9aa4b2" stroke-width="1.2" d="M228.5,-252C228.5,-252 108.5,-252 108.5,-252 102.5,-252 96.5,-246 96.5,-240 96.5,-240 96.5,-228 96.5,-228 96.5,-222 102.5,-216 108.5,-216 108.5,-216 228.5,-216 228.5,-216 234.5,-216 240.5,-222 240.5,-228 240.5,-228 240.5,-240 240.5,-240 240.5,-246 234.5,-252 228.5,-252"/>
<text text-anchor="middle" x="168.5" y="-230.2" font-family="Helvetica,sans-Serif" font-size="16.00" fill="#e6edf3">Sense Fall State</text>
</g>
<!-- S_INIT&#45;&gt;S_100 -->
<g id="edge1" class="edge">
<title>S_INIT&#45;&gt;S_100</title>
<path fill="none" stroke="#9aa4b2" d="M168.5,-323.97C168.5,-306.84 168.5,-280.22 168.5,-260.56"/>
<polygon fill="#9aa4b2" stroke="#9aa4b2" points="171.3,-260.34 168.5,-252.34 165.7,-260.34 171.3,-260.34"/>
<text text-anchor="middle" x="186" y="-284.6" font-family="Helvetica,sans-Serif" font-size="13.00" fill="#94a3b8">entry</text>
</g>
<!-- S_1000 -->
<g id="node3" class="node">
<title>S_1000</title>
<path fill="#1a2028" stroke="#9aa4b2" stroke-width="1.2" d="M125,-144C125,-144 12,-144 12,-144 6,-144 0,-138 0,-132 0,-132 0,-120 0,-120 0,-114 6,-108 12,-108 12,-108 125,-108 125,-108 131,-108 137,-114 137,-120 137,-120 137,-132 137,-132 137,-138 131,-144 125,-144"/>
<text text-anchor="middle" x="68.5" y="-122.2" font-family="Helvetica,sans-Serif" font-size="16.00" fill="#e6edf3">Sense / Decide</text>
</g>
<!-- S_100&#45;&gt;S_1000 -->
<g id="edge2" class="edge">
<title>S_100&#45;&gt;S_1000</title>
<path fill="none" stroke="#9aa4b2" d="M96.3,-222.36C75.88,-215.65 55.87,-204.73 43.5,-187 35.85,-176.04 40.63,-162.38 47.98,-150.86"/>
<polygon fill="#9aa4b2" stroke="#9aa4b2" points="50.48,-152.17 52.79,-144.01 45.9,-148.95 50.48,-152.17"/>
<text text-anchor="middle" x="83.5" y="-176.6" font-family="Helvetica,sans-Serif" font-size="13.00" fill="#94a3b8">if round = 0</text>
</g>
<!-- S_1000&#45;&gt;S_100 -->
<g id="edge4" class="edge">
<title>S_1000&#45;&gt;S_100</title>
<path fill="none" stroke="#9aa4b2" d="M94.56,-144.1C105.71,-152.12 118.45,-162.27 128.5,-173 138.63,-183.82 147.95,-197.47 155.04,-209.02"/>
<polygon fill="#9aa4b2" stroke="#9aa4b2" points="152.64,-210.46 159.15,-215.89 157.44,-207.59 152.64,-210.46"/>
<text text-anchor="middle" x="149" y="-176.6" font-family="Helvetica,sans-Serif" font-size="13.00" fill="#94a3b8">go</text>
</g>
<!-- S_9000 -->
<g id="node4" class="node">
<title>S_9000</title>
<path fill="#1a2028" stroke="#9aa4b2" stroke-width="1.2" d="M167.5,-36C167.5,-36 109.5,-36 109.5,-36 103.5,-36 97.5,-30 97.5,-24 97.5,-24 97.5,-12 97.5,-12 97.5,-6 103.5,0 109.5,0 109.5,0 167.5,0 167.5,0 173.5,0 179.5,-6 179.5,-12 179.5,-12 179.5,-24 179.5,-24 179.5,-30 173.5,-36 167.5,-36"/>
<text text-anchor="middle" x="138.5" y="-14.2" font-family="Helvetica,sans-Serif" font-size="16.00" fill="#e6edf3">Recover</text>
</g>
<!-- S_1000&#45;&gt;S_9000 -->
<g id="edge3" class="edge">
<title>S_1000&#45;&gt;S_9000</title>
<path fill="none" stroke="#9aa4b2" d="M79.75,-107.97C91.31,-90.46 109.43,-63.02 122.49,-43.25"/>
<polygon fill="#9aa4b2" stroke="#9aa4b2" points="124.98,-44.56 127.05,-36.34 120.3,-41.47 124.98,-44.56"/>
<text text-anchor="middle" x="142" y="-68.6" font-family="Helvetica,sans-Serif" font-size="13.00" fill="#94a3b8">if stat = 1</text>
</g>
<!-- S_9000&#45;&gt;S_100 -->
<g id="edge5" class="edge">
<title>S_9000&#45;&gt;S_100</title>
<path fill="none" stroke="#9aa4b2" d="M162.17,-36.05C170.92,-43.78 179.83,-53.73 184.5,-65 204.22,-112.61 189.29,-174.11 178.01,-207.93"/>
<polygon fill="#9aa4b2" stroke="#9aa4b2" points="175.36,-207.04 175.39,-215.51 180.65,-208.87 175.36,-207.04"/>
<text text-anchor="middle" x="247.5" y="-122.6" font-family="Helvetica,sans-Serif" font-size="13.00" fill="#94a3b8">resume monitor</text>
</g>
</g>
</svg>
