<?xml version="1.0" encoding="UTF-8" standalone="no"?>
<!DOCTYPE svg PUBLIC "-//W3C//DTD SVG 1.1//EN"
 "http://www.w3.org/Graphics/SVG/1.1/DTD/svg11.dtd">
<!-- Generated by graphviz version 2.42.4 (0)
 -->
<!-- Title: Football Pages: 1 -->
<svg width="539pt" height="1305pt"
 viewBox="0.00 0.00 539.00 1305.00" xmlns="http://www.w3.org/2000/svg" xmlns:xlink="http://www.w3.org/1999/xlink">
<g id="graph0" class="graph" transform="scale(1 1) rotate(0) translate(18 1287)">
<title>Football</title>
<polygon fill="white" stroke="transparent" points="-18,18 -18,-1287 521,-1287 521,18 -18,18"/>
<!-- A -->
<g id="node1" class="node">
<title>A</title>
<path fill="white" stroke="#222222" stroke-width="1.4" d="M384.5,-1269C384.5,-1269 171.5,-1269 171.5,-1269 165.5,-1269 159.5,-1263 159.5,-1257 159.5,-1257 159.5,-1245 159.5,-1245 159.5,-1239 165.5,-1233 171.5,-1233 171.5,-1233 384.5,-1233 384.5,-1233 390.5,-1233 396.5,-1239 396.5,-1245 396.5,-1245 396.5,-1257 396.5,-1257 396.5,-1263 390.5,-1269 384.5,-1269"/>
<text text-anchor="middle" x="278" y="-1247.3" font-family="Helvetica,sans-Serif" font-size="14.00" fill="#111111">Boot / Initialize Mode Variables</text>
</g>
<!-- B -->
<g id="node2" class="node">
<title>B</title>
<path fill="white" stroke="#222222" stroke-width="1.4" d="M342,-1160C342,-1160 214,-1160 214,-1160 208,-1160 202,-1154 202,-1148 202,-1148 202,-1136 202,-1136 202,-1130 208,-1124 214,-1124 214,-1124 342,-1124 342,-1124 348,-1124 354,-1130 354,-1136 354,-1136 354,-1148 354,-1148 354,-1154 348,-1160 342,-1160"/>
<text text-anchor="middle" x="278" y="-1138.3" font-family="Helvetica,sans-Serif" font-size="14.00" fill="#111111">Main Monitor Loop</text>
</g>
<!-- A&#45;&gt;B -->
<g id="edge1" class="edge">
<title>A&#45;&gt;B</title>
<path fill="none" stroke="#222222" stroke-width="1.4" d="M278,-1232.81C278,-1215.34 278,-1188.08 278,-1168.18"/>
<polygon fill="#222222" stroke="#222222" stroke-width="1.4" points="280.8,-1168.15 278,-1160.15 275.2,-1168.15 280.8,-1168.15"/>
<text text-anchor="middle" x="296.5" y="-1192.8" font-family="Helvetica,sans-Serif" font-size="14.00" fill="#222222">entry</text>
</g>
<!-- C -->
<g id="node3" class="node">
<title>C</title>
<polygon fill="white" stroke="#222222" stroke-width="1.4" points="157,-1065 108,-1038 157,-1011 206,-1038 157,-1065"/>
<text text-anchor="middle" x="157" y="-1034.3" font-family="Helvetica,sans-Serif" font-size="14.00" fill="#111111">Fall?</text>
</g>
<!-- B&#45;&gt;C -->
<g id="edge2" class="edge">
<title>B&#45;&gt;C</title>
<path fill="none" stroke="#222222" stroke-width="1.4" d="M257.75,-1123.93C236.93,-1106.38 204.47,-1079.02 182.05,-1060.12"/>
<polygon fill="#222222" stroke="#222222" stroke-width="1.4" points="183.65,-1057.8 175.73,-1054.79 180.04,-1062.08 183.65,-1057.8"/>
</g>
<!-- R -->
<g id="node4" class="node">
<title>R</title>
<path fill="white" stroke="#222222" stroke-width="1.4" d="M300,-929C300,-929 244,-929 244,-929 238,-929 232,-923 232,-917 232,-917 232,-905 232,-905 232,-899 238,-893 244,-893 244,-893 300,-893 300,-893 306,-893 312,-899 312,-905 312,-905 312,-917 312,-917 312,-923 306,-929 300,-929"/>
<text text-anchor="middle" x="272" y="-907.3" font-family="Helvetica,sans-Serif" font-size="14.00" fill="#111111">Recover</text>
</g>
<!-- C&#45;&gt;R -->
<g id="edge3" class="edge">
<title>C&#45;&gt;R</title>
<path fill="none" stroke="#222222" stroke-width="1.4" d="M170.12,-1018.14C180.56,-1003.62 195.88,-983.33 211,-967 221.45,-955.72 233.92,-944.18 244.85,-934.61"/>
<polygon fill="#222222" stroke="#222222" stroke-width="1.4" points="246.87,-936.57 251.09,-929.21 243.2,-932.33 246.87,-936.57"/>
<text text-anchor="middle" x="230.5" y="-970.8" font-family="Helvetica,sans-Serif" font-size="14.00" fill="#222222">fallen</text>
</g>
<!-- D -->
<g id="node5" class="node">
<title>D</title>
<polygon fill="white" stroke="#222222" stroke-width="1.4" points="134,-938 78,-911 134,-884 190,-911 134,-938"/>
<text text-anchor="middle" x="134" y="-907.3" font-family="Helvetica,sans-Serif" font-size="14.00" fill="#111111">Mode</text>
</g>
<!-- C&#45;&gt;D -->
<g id="edge4" class="edge">
<title>C&#45;&gt;D</title>
<path fill="none" stroke="#222222" stroke-width="1.4" d="M140.51,-1019.73C131.99,-1009.6 122.48,-996.05 118,-982 113.74,-968.62 116.32,-953.47 120.56,-940.69"/>
<polygon fill="#222222" stroke="#222222" stroke-width="1.4" points="123.22,-941.55 123.36,-933.07 117.97,-939.62 123.22,-941.55"/>
<text text-anchor="middle" x="144" y="-970.8" font-family="Helvetica,sans-Serif" font-size="14.00" fill="#222222">upright</text>
</g>
<!-- R&#45;&gt;B -->
<g id="edge5" class="edge">
<title>R&#45;&gt;B</title>
<path fill="none" stroke="#222222" stroke-width="1.4" d="M272.45,-929.1C273.49,-969.04 276.1,-1068.62 277.34,-1115.64"/>
<polygon fill="#222222" stroke="#222222" stroke-width="1.4" points="274.54,-1115.86 277.55,-1123.79 280.14,-1115.72 274.54,-1115.86"/>
<text text-anchor="middle" x="338.5" y="-1034.3" font-family="Helvetica,sans-Serif" font-size="14.00" fill="#222222">resume main loop</text>
</g>
<!-- E -->
<g id="node6" class="node">
<title>E</title>
<path fill="white" stroke="#222222" stroke-width="1.4" d="M179,-811C179,-811 89,-811 89,-811 83,-811 77,-805 77,-799 77,-799 77,-787 77,-787 77,-781 83,-775 89,-775 89,-775 179,-775 179,-775 185,-775 191,-781 191,-787 191,-787 191,-799 191,-799 191,-805 185,-811 179,-811"/>
<text text-anchor="middle" x="134" y="-789.3" font-family="Helvetica,sans-Serif" font-size="14.00" fill="#111111">Search Block</text>
</g>
<!-- D&#45;&gt;E -->
<g id="edge6" class="edge">
<title>D&#45;&gt;E</title>
<path fill="none" stroke="#222222" stroke-width="1.4" d="M134,-883.97C134,-864.74 134,-838.68 134,-819.57"/>
<polygon fill="#222222" stroke="#222222" stroke-width="1.4" points="136.8,-819.32 134,-811.32 131.2,-819.32 136.8,-819.32"/>
<text text-anchor="middle" x="157" y="-843.8" font-family="Helvetica,sans-Serif" font-size="14.00" fill="#222222">search</text>
</g>
<!-- H -->
<g id="node9" class="node">
<title>H</title>
<path fill="white" stroke="#222222" stroke-width="1.4" d="M232.5,-480C232.5,-480 141.5,-480 141.5,-480 135.5,-480 129.5,-474 129.5,-468 129.5,-468 129.5,-456 129.5,-456 129.5,-450 135.5,-444 141.5,-444 141.5,-444 232.5,-444 232.5,-444 238.5,-444 244.5,-450 244.5,-456 244.5,-456 244.5,-468 244.5,-468 244.5,-474 238.5,-480 232.5,-480"/>
<text text-anchor="middle" x="187" y="-458.3" font-family="Helvetica,sans-Serif" font-size="14.00" fill="#111111">Pursuit Block</text>
</g>
<!-- D&#45;&gt;H -->
<g id="edge7" class="edge">
<title>D&#45;&gt;H</title>
<path fill="none" stroke="#222222" stroke-width="1.4" d="M166.2,-899.5C224.82,-879.41 343,-833.94 343,-794 343,-794 343,-794 343,-579 343,-531.08 295.02,-500.64 252.28,-483.02"/>
<polygon fill="#222222" stroke="#222222" stroke-width="1.4" points="253.11,-480.34 244.65,-479.98 251.04,-485.54 253.11,-480.34"/>
<text text-anchor="middle" x="368" y="-680.3" font-family="Helvetica,sans-Serif" font-size="14.00" fill="#222222">pursuit</text>
</g>
<!-- F -->
<g id="node7" class="node">
<title>F</title>
<path fill="white" stroke="#222222" stroke-width="1.4" d="M240.5,-702C240.5,-702 99.5,-702 99.5,-702 93.5,-702 87.5,-696 87.5,-690 87.5,-690 87.5,-678 87.5,-678 87.5,-672 93.5,-666 99.5,-666 99.5,-666 240.5,-666 240.5,-666 246.5,-666 252.5,-672 252.5,-678 252.5,-678 252.5,-690 252.5,-690 252.5,-696 246.5,-702 240.5,-702"/>
<text text-anchor="middle" x="170" y="-680.3" font-family="Helvetica,sans-Serif" font-size="14.00" fill="#111111">Scan Head Positions</text>
</g>
<!-- E&#45;&gt;F -->
<g id="edge8" class="edge">
<title>E&#45;&gt;F</title>
<path fill="none" stroke="#222222" stroke-width="1.4" d="M139.78,-774.81C145.69,-757.26 154.91,-729.84 161.62,-709.91"/>
<polygon fill="#222222" stroke="#222222" stroke-width="1.4" points="164.33,-710.62 164.23,-702.15 159.03,-708.84 164.33,-710.62"/>
<text text-anchor="middle" x="209.5" y="-734.8" font-family="Helvetica,sans-Serif" font-size="14.00" fill="#222222">rotate and scan</text>
</g>
<!-- G -->
<g id="node8" class="node">
<title>G</title>
<polygon fill="white" stroke="#222222" stroke-width="1.4" points="187,-607 86,-580 187,-553 288,-580 187,-607"/>
<text text-anchor="middle" x="187" y="-576.3" font-family="Helvetica,sans-Serif" font-size="14.00" fill="#111111">Ball Visible?</text>
</g>
<!-- F&#45;&gt;G -->
<g id="edge9" class="edge">
<title>F&#45;&gt;G</title>
<path fill="none" stroke="#222222" stroke-width="1.4" d="M172.88,-665.7C175.23,-651.63 178.6,-631.37 181.47,-614.19"/>
<polygon fill="#222222" stroke="#222222" stroke-width="1.4" points="184.27,-614.4 182.83,-606.05 178.75,-613.48 184.27,-614.4"/>
</g>
<!-- G&#45;&gt;H -->
<g id="edge11" class="edge">
<title>G&#45;&gt;H</title>
<path fill="none" stroke="#222222" stroke-width="1.4" d="M187,-552.97C187,-533.74 187,-507.68 187,-488.57"/>
<polygon fill="#222222" stroke="#222222" stroke-width="1.4" points="189.8,-488.32 187,-480.32 184.2,-488.32 189.8,-488.32"/>
<text text-anchor="middle" x="199.5" y="-512.8" font-family="Helvetica,sans-Serif" font-size="14.00" fill="#222222">yes</text>
</g>
<!-- M -->
<g id="node14" class="node">
<title>M</title>
<path fill="white" stroke="#222222" stroke-width="1.4" d="M370,-36C370,-36 186,-36 186,-36 180,-36 174,-30 174,-24 174,-24 174,-12 174,-12 174,-6 180,0 186,0 186,0 370,0 370,0 376,0 382,-6 382,-12 382,-12 382,-24 382,-24 382,-30 376,-36 370,-36"/>
<text text-anchor="middle" x="278" y="-14.3" font-family="Helvetica,sans-Serif" font-size="14.00" fill="#111111">Wait / Return To Main Loop</text>
</g>
<!-- G&#45;&gt;M -->
<g id="edge10" class="edge">
<title>G&#45;&gt;M</title>
<path fill="none" stroke="#222222" stroke-width="1.4" d="M221.52,-561.99C254.75,-542.9 300,-508.55 300,-463 300,-463 300,-463 300,-112 300,-88.44 293.23,-62.41 287.2,-43.89"/>
<polygon fill="#222222" stroke="#222222" stroke-width="1.4" points="289.82,-42.88 284.6,-36.2 284.51,-44.67 289.82,-42.88"/>
<text text-anchor="middle" x="309" y="-290.8" font-family="Helvetica,sans-Serif" font-size="14.00" fill="#222222">no</text>
</g>
<!-- I -->
<g id="node10" class="node">
<title>I</title>
<polygon fill="white" stroke="#222222" stroke-width="1.4" points="118,-385 0,-358 118,-331 236,-358 118,-385"/>
<text text-anchor="middle" x="118" y="-354.3" font-family="Helvetica,sans-Serif" font-size="14.00" fill="#111111">Tracking Lost?</text>
</g>
<!-- H&#45;&gt;I -->
<g id="edge12" class="edge">
<title>H&#45;&gt;I</title>
<path fill="none" stroke="#222222" stroke-width="1.4" d="M175.3,-443.7C165.11,-428.64 150.13,-406.5 138.04,-388.63"/>
<polygon fill="#222222" stroke="#222222" stroke-width="1.4" points="140.2,-386.83 133.4,-381.77 135.57,-389.96 140.2,-386.83"/>
</g>
<!-- I&#45;&gt;E -->
<g id="edge13" class="edge">
<title>I&#45;&gt;E</title>
<path fill="none" stroke="#222222" stroke-width="1.4" d="M84.95,-377.44C58.22,-395.06 25,-424.34 25,-461 25,-685 25,-685 25,-685 25,-723.42 59.91,-752.62 90.22,-770.74"/>
<polygon fill="#222222" stroke="#222222" stroke-width="1.4" points="89.07,-773.31 97.4,-774.88 91.87,-768.46 89.07,-773.31"/>
<text text-anchor="middle" x="37.5" y="-576.3" font-family="Helvetica,sans-Serif" font-size="14.00" fill="#222222">yes</text>
</g>
<!-- J -->
<g id="node11" class="node">
<title>J</title>
<polygon fill="white" stroke="#222222" stroke-width="1.4" points="118,-258 15,-231 118,-204 221,-231 118,-258"/>
<text text-anchor="middle" x="118" y="-227.3" font-family="Helvetica,sans-Serif" font-size="14.00" fill="#111111">Kick Range?</text>
</g>
<!-- I&#45;&gt;J -->
<g id="edge14" class="edge">
<title>I&#45;&gt;J</title>
<path fill="none" stroke="#222222" stroke-width="1.4" d="M118,-330.8C118,-312.05 118,-286.63 118,-266.27"/>
<polygon fill="#222222" stroke="#222222" stroke-width="1.4" points="120.8,-266.17 118,-258.17 115.2,-266.17 120.8,-266.17"/>
<text text-anchor="middle" x="127" y="-290.8" font-family="Helvetica,sans-Serif" font-size="14.00" fill="#222222">no</text>
</g>
<!-- K -->
<g id="node12" class="node">
<title>K</title>
<path fill="white" stroke="#222222" stroke-width="1.4" d="M233,-131C233,-131 203,-131 203,-131 197,-131 191,-125 191,-119 191,-119 191,-107 191,-107 191,-101 197,-95 203,-95 203,-95 233,-95 233,-95 239,-95 245,-101 245,-107 245,-107 245,-119 245,-119 245,-125 239,-131 233,-131"/>
<text text-anchor="middle" x="218" y="-109.3" font-family="Helvetica,sans-Serif" font-size="14.00" fill="#111111">Kick</text>
</g>
<!-- J&#45;&gt;K -->
<g id="edge15" class="edge">
<title>J&#45;&gt;K</title>
<path fill="none" stroke="#222222" stroke-width="1.4" d="M136.34,-208.72C153.72,-188.57 179.75,-158.37 197.73,-137.51"/>
<polygon fill="#222222" stroke="#222222" stroke-width="1.4" points="199.93,-139.25 203.04,-131.36 195.69,-135.59 199.93,-139.25"/>
<text text-anchor="middle" x="189.5" y="-163.8" font-family="Helvetica,sans-Serif" font-size="14.00" fill="#222222">yes</text>
</g>
<!-- L -->
<g id="node13" class="node">
<title>L</title>
<path fill="white" stroke="#222222" stroke-width="1.4" d="M142.5,-131C142.5,-131 45.5,-131 45.5,-131 39.5,-131 33.5,-125 33.5,-119 33.5,-119 33.5,-107 33.5,-107 33.5,-101 39.5,-95 45.5,-95 45.5,-95 142.5,-95 142.5,-95 148.5,-95 154.5,-101 154.5,-107 154.5,-107 154.5,-119 154.5,-119 154.5,-125 148.5,-131 142.5,-131"/>
<text text-anchor="middle" x="94" y="-109.3" font-family="Helvetica,sans-Serif" font-size="14.00" fill="#111111">Approach Ball</text>
</g>
<!-- J&#45;&gt;L -->
<g id="edge16" class="edge">
<title>J&#45;&gt;L</title>
<path fill="none" stroke="#222222" stroke-width="1.4" d="M112.85,-205.12C108.83,-185.66 103.25,-158.73 99.21,-139.19"/>
<polygon fill="#222222" stroke="#222222" stroke-width="1.4" points="101.95,-138.59 97.58,-131.32 96.46,-139.72 101.95,-138.59"/>
<text text-anchor="middle" x="115" y="-163.8" font-family="Helvetica,sans-Serif" font-size="14.00" fill="#222222">no</text>
</g>
<!-- K&#45;&gt;M -->
<g id="edge17" class="edge">
<title>K&#45;&gt;M</title>
<path fill="none" stroke="#222222" stroke-width="1.4" d="M229,-94.94C238.33,-80.48 251.83,-59.57 262.29,-43.35"/>
<polygon fill="#222222" stroke="#222222" stroke-width="1.4" points="264.88,-44.5 266.86,-36.26 260.17,-41.47 264.88,-44.5"/>
</g>
<!-- L&#45;&gt;M -->
<g id="edge18" class="edge">
<title>L&#45;&gt;M</title>
<path fill="none" stroke="#222222" stroke-width="1.4" d="M127.75,-94.94C158.52,-79.39 204.05,-56.38 236.93,-39.76"/>
<polygon fill="#222222" stroke="#222222" stroke-width="1.4" points="238.28,-42.21 244.15,-36.11 235.75,-37.22 238.28,-42.21"/>
</g>
<!-- M&#45;&gt;B -->
<g id="edge19" class="edge">
<title>M&#45;&gt;B</title>
<path fill="none" stroke="#222222" stroke-width="1.4" d="M382.19,-35.92C421.99,-48.87 458,-71.73 458,-112 458,-1039 458,-1039 458,-1039 458,-1087.06 408.83,-1112.75 361.89,-1126.32"/>
<polygon fill="#222222" stroke="#222222" stroke-width="1.4" points="361.04,-1123.64 354.08,-1128.47 362.53,-1129.04 361.04,-1123.64"/>
<text text-anchor="middle" x="480.5" y="-576.3" font-family="Helvetica,sans-Serif" font-size="14.00" fill="#222222">repeat</text>
</g>
</g>
</svg>
