<?xml version="1.0" encoding="UTF-8" standalone="no"?>
<!DOCTYPE svg PUBLIC "-//W3C//DTD SVG 1.1//EN"
 "http://www.w3.org/Graphics/SVG/1.1/DTD/svg11.dtd">
<!-- Generated by graphviz version 2.42.4 (0)
 -->
<!-- Title: G Pages: 1 -->
<svg width="635pt" height="526pt"
 viewBox="0.00 0.00 634.50 526.00" xmlns="http://www.w3.org/2000/svg" xmlns:xlink="http://www.w3.org/1999/xlink">
<g id="graph0" class="graph" transform="scale(1 1) rotate(0) translate(18 508)">
<title>G</title>
<polygon fill="#101418" stroke="transparent" points="-18,18 -18,-508 616.5,-508 616.5,18 -18,18"/>
<!-- S_INIT -->
<g id="node1" class="node">
<title>S_INIT</title>
<path fill="#1a2028" stroke="#9aa4b2" stroke-width="1.2" d="M135,-252C135,-252 12,-252 12,-252 6,-252 0,-246 0,-240 0,-240 0,-228 0,-228 0,-222 6,-216 12,-216 12,-216 135,-216 135,-216 141,-216 147,-222 147,-228 147,-228 147,-240 147,-240 147,-246 141,-252 135,-252"/>
<text text-anchor="middle" x="73.5" y="-230.2" font-family="Helvetica,sans-Serif" font-size="16.00" fill="#e6edf3">Boot / Safe Pose</text>
</g>
<!-- S_100 -->
<g id="node2" class="node">
<title>S_100</title>
<path fill="#1a2028" stroke="#9aa4b2" stroke-width="1.2" d="M312,-144C312,-144 211,-144 211,-144 205,-144 199,-138 199,-132 199,-132 199,-120 199,-120 199,-114 205,-108 211,-108 211,-108 312,-108 312,-108 318,-108 324,-114 324,-120 324,-120 324,-132 324,-132 324,-138 318,-144 312,-144"/>
<text text-anchor="middle" x="261.5" y="-122.2" font-family="Helvetica,sans-Serif" font-size="16.00" fill="#e6edf3">Forward Walk</text>
</g>
<!-- S_INIT&#45;&gt;S_100 -->
<g id="edge1" class="edge">
<title>S_INIT&#45;&gt;S_100</title>
<path fill="none" stroke="#9aa4b2" d="M94.5,-215.89C110.79,-203.1 134.27,-185.71 156.5,-173 173.13,-163.49 192.1,-154.63 209.3,-147.27"/>
<polygon fill="#9aa4b2" stroke="#9aa4b2" points="210.77,-149.69 217.06,-144 208.6,-144.53 210.77,-149.69"/>
<text text-anchor="middle" x="174" y="-176.6" font-family="Helvetica,sans-Serif" font-size="13.00" fill="#94a3b8">entry</text>
</g>
<!-- S_110 -->
<g id="node3" class="node">
<title>S_110</title>
<path fill="#1a2028" stroke="#9aa4b2" stroke-width="1.2" d="M318,-36C318,-36 205,-36 205,-36 199,-36 193,-30 193,-24 193,-24 193,-12 193,-12 193,-6 199,0 205,0 205,0 318,0 318,0 324,0 330,-6 330,-12 330,-12 330,-24 330,-24 330,-30 324,-36 318,-36"/>
<text text-anchor="middle" x="261.5" y="-14.2" font-family="Helvetica,sans-Serif" font-size="16.00" fill="#e6edf3">Sense / Decide</text>
</g>
<!-- S_100&#45;&gt;S_110 -->
<g id="edge2" class="edge">
<title>S_100&#45;&gt;S_110</title>
<path fill="none" stroke="#9aa4b2" d="M209.49,-107.96C196.46,-101.08 184.06,-91.68 176.5,-79 166.7,-62.56 179.57,-49.45 198.02,-39.73"/>
<polygon fill="#9aa4b2" stroke="#9aa4b2" points="199.65,-42.06 205.63,-36.04 197.21,-37.02 199.65,-42.06"/>
<text text-anchor="middle" x="237.5" y="-68.6" font-family="Helvetica,sans-Serif" font-size="13.00" fill="#94a3b8">next labeled block</text>
</g>
<!-- S_110&#45;&gt;S_100 -->
<g id="edge3" class="edge">
<title>S_110&#45;&gt;S_100</title>
<path fill="none" stroke="#9aa4b2" d="M283.15,-36.43C291.14,-44.22 299.28,-54.11 303.5,-65 308.7,-78.4 301.11,-91.67 291.02,-102.31"/>
<polygon fill="#9aa4b2" stroke="#9aa4b2" points="289.02,-100.35 285.22,-107.93 292.91,-104.37 289.02,-100.35"/>
<text text-anchor="middle" x="363.5" y="-68.6" font-family="Helvetica,sans-Serif" font-size="13.00" fill="#94a3b8">if Distance &gt; 200</text>
</g>
<!-- S_120 -->
<g id="node4" class="node">
<title>S_120</title>
<path fill="#1a2028" stroke="#9aa4b2" stroke-width="1.2" d="M341,-490C341,-490 254,-490 254,-490 248,-490 242,-484 242,-478 242,-478 242,-466 242,-466 242,-460 248,-454 254,-454 254,-454 341,-454 341,-454 347,-454 353,-460 353,-466 353,-466 353,-478 353,-478 353,-484 347,-490 341,-490"/>
<text text-anchor="middle" x="297.5" y="-468.2" font-family="Helvetica,sans-Serif" font-size="16.00" fill="#e6edf3">Action Loop</text>
</g>
<!-- S_130 -->
<g id="node5" class="node">
<title>S_130</title>
<path fill="#1a2028" stroke="#9aa4b2" stroke-width="1.2" d="M263,-317C263,-317 176,-317 176,-317 170,-317 164,-311 164,-305 164,-305 164,-293 164,-293 164,-287 170,-281 176,-281 176,-281 263,-281 263,-281 269,-281 275,-287 275,-293 275,-293 275,-305 275,-305 275,-311 269,-317 263,-317"/>
<text text-anchor="middle" x="219.5" y="-295.2" font-family="Helvetica,sans-Serif" font-size="16.00" fill="#e6edf3">Action Loop</text>
</g>
<!-- S_120&#45;&gt;S_130 -->
<g id="edge4" class="edge">
<title>S_120&#45;&gt;S_130</title>
<path fill="none" stroke="#9aa4b2" d="M244.45,-453.85C231.43,-447 219.07,-437.64 211.5,-425 193.17,-394.4 201.61,-351.7 210.05,-324.96"/>
<polygon fill="#9aa4b2" stroke="#9aa4b2" points="212.76,-325.68 212.63,-317.21 207.44,-323.91 212.76,-325.68"/>
<text text-anchor="middle" x="269.5" y="-414.6" font-family="Helvetica,sans-Serif" font-size="13.00" fill="#94a3b8">if Distance &gt; 200</text>
</g>
<!-- S_140 -->
<g id="node6" class="node">
<title>S_140</title>
<path fill="#1a2028" stroke="#9aa4b2" stroke-width="1.2" d="M420,-382C420,-382 333,-382 333,-382 327,-382 321,-376 321,-370 321,-370 321,-358 321,-358 321,-352 327,-346 333,-346 333,-346 420,-346 420,-346 426,-346 432,-352 432,-358 432,-358 432,-370 432,-370 432,-376 426,-382 420,-382"/>
<text text-anchor="middle" x="376.5" y="-360.2" font-family="Helvetica,sans-Serif" font-size="16.00" fill="#e6edf3">Action Loop</text>
</g>
<!-- S_120&#45;&gt;S_140 -->
<g id="edge5" class="edge">
<title>S_120&#45;&gt;S_140</title>
<path fill="none" stroke="#9aa4b2" d="M312.8,-453.91C320.2,-445.41 329.07,-434.87 336.5,-425 345.15,-413.52 354.09,-400.26 361.32,-389.13"/>
<polygon fill="#9aa4b2" stroke="#9aa4b2" points="363.82,-390.41 365.8,-382.17 359.12,-387.38 363.82,-390.41"/>
<text text-anchor="middle" x="414" y="-414.6" font-family="Helvetica,sans-Serif" font-size="13.00" fill="#94a3b8">else Distance &gt; 200</text>
</g>
<!-- S_130&#45;&gt;S_100 -->
<g id="edge6" class="edge">
<title>S_130&#45;&gt;S_100</title>
<path fill="none" stroke="#9aa4b2" d="M222.99,-280.98C226.46,-264.36 232.03,-238.37 237.5,-216 242.79,-194.36 249.42,-169.93 254.38,-152.15"/>
<polygon fill="#9aa4b2" stroke="#9aa4b2" points="257.2,-152.46 256.66,-144 251.81,-150.95 257.2,-152.46"/>
<text text-anchor="middle" x="246" y="-230.6" font-family="Helvetica,sans-Serif" font-size="13.00" fill="#94a3b8">go</text>
</g>
<!-- S_160 -->
<g id="node7" class="node">
<title>S_160</title>
<path fill="#1a2028" stroke="#9aa4b2" stroke-width="1.2" d="M372,-252C372,-252 285,-252 285,-252 279,-252 273,-246 273,-240 273,-240 273,-228 273,-228 273,-222 279,-216 285,-216 285,-216 372,-216 372,-216 378,-216 384,-222 384,-228 384,-228 384,-240 384,-240 384,-246 378,-252 372,-252"/>
<text text-anchor="middle" x="328.5" y="-230.2" font-family="Helvetica,sans-Serif" font-size="16.00" fill="#e6edf3">Action Loop</text>
</g>
<!-- S_140&#45;&gt;S_160 -->
<g id="edge7" class="edge">
<title>S_140&#45;&gt;S_160</title>
<path fill="none" stroke="#9aa4b2" d="M346.86,-345.79C336.89,-338.33 326.93,-328.62 321.5,-317 313.18,-299.2 315.82,-276.87 320.04,-260"/>
<polygon fill="#9aa4b2" stroke="#9aa4b2" points="322.76,-260.67 322.2,-252.21 317.37,-259.17 322.76,-260.67"/>
<text text-anchor="middle" x="379.5" y="-295.6" font-family="Helvetica,sans-Serif" font-size="13.00" fill="#94a3b8">if Distance &gt; 200</text>
</g>
<!-- S_170 -->
<g id="node8" class="node">
<title>S_170</title>
<path fill="#1a2028" stroke="#9aa4b2" stroke-width="1.2" d="M524,-252C524,-252 437,-252 437,-252 431,-252 425,-246 425,-240 425,-240 425,-228 425,-228 425,-222 431,-216 437,-216 437,-216 524,-216 524,-216 530,-216 536,-222 536,-228 536,-228 536,-240 536,-240 536,-246 530,-252 524,-252"/>
<text text-anchor="middle" x="480.5" y="-230.2" font-family="Helvetica,sans-Serif" font-size="16.00" fill="#e6edf3">Action Loop</text>
</g>
<!-- S_140&#45;&gt;S_170 -->
<g id="edge8" class="edge">
<title>S_140&#45;&gt;S_170</title>
<path fill="none" stroke="#9aa4b2" d="M408.12,-345.81C420.03,-338.18 432.98,-328.34 442.5,-317 456.54,-300.27 466.55,-277.48 472.76,-260.18"/>
<polygon fill="#9aa4b2" stroke="#9aa4b2" points="475.55,-260.65 475.5,-252.17 470.26,-258.83 475.55,-260.65"/>
<text text-anchor="middle" x="531" y="-295.6" font-family="Helvetica,sans-Serif" font-size="13.00" fill="#94a3b8">else Distance &gt; 200</text>
</g>
<!-- S_160&#45;&gt;S_100 -->
<g id="edge9" class="edge">
<title>S_160&#45;&gt;S_100</title>
<path fill="none" stroke="#9aa4b2" d="M317.74,-215.97C306.67,-198.46 289.33,-171.02 276.83,-151.25"/>
<polygon fill="#9aa4b2" stroke="#9aa4b2" points="279.1,-149.61 272.46,-144.34 274.37,-152.6 279.1,-149.61"/>
<text text-anchor="middle" x="308" y="-176.6" font-family="Helvetica,sans-Serif" font-size="13.00" fill="#94a3b8">go</text>
</g>
<!-- S_170&#45;&gt;S_100 -->
<g id="edge10" class="edge">
<title>S_170&#45;&gt;S_100</title>
<path fill="none" stroke="#9aa4b2" d="M445.31,-215.97C406.95,-197.4 345.56,-167.69 304.4,-147.76"/>
<polygon fill="#9aa4b2" stroke="#9aa4b2" points="305.38,-145.13 296.96,-144.16 302.94,-150.17 305.38,-145.13"/>
<text text-anchor="middle" x="393" y="-176.6" font-family="Helvetica,sans-Serif" font-size="13.00" fill="#94a3b8">go</text>
</g>
</g>
</svg>
