<?xml version="1.0" encoding="UTF-8" standalone="no"?>
<!DOCTYPE svg PUBLIC "-//W3C//DTD SVG 1.1//EN"
 "http://www.w3.org/Graphics/SVG/1.1/DTD/svg11.dtd">
<!-- Generated by graphviz version 2.42.4 (0)
 -->
<!-- Title: G Pages: 1 -->
<svg width="729pt" height="936pt"
 viewBox="0.00 0.00 729.00 936.00" xmlns="http://www.w3.org/2000/svg" xmlns:xlink="http://www.w3.org/1999/xlink">
<g id="graph0" class="graph" transform="scale(1 1) rotate(0) translate(18 918)">
<title>G</title>
<polygon fill="#101418" stroke="transparent" points="-18,18 -18,-918 711,-918 711,18 -18,18"/>
<!-- S_INIT -->
<g id="node1" class="node">
<title>S_INIT</title>
<path fill="#1a2028" stroke="#9aa4b2" stroke-width="1.2" d="M481.5,-900C481.5,-900 358.5,-900 358.5,-900 352.5,-900 346.5,-894 346.5,-888 346.5,-888 346.5,-876 346.5,-876 346.5,-870 352.5,-864 358.5,-864 358.5,-864 481.5,-864 481.5,-864 487.5,-864 493.5,-870 493.5,-876 493.5,-876 493.5,-888 493.5,-888 493.5,-894 487.5,-900 481.5,-900"/>
<text text-anchor="middle" x="420" y="-878.2" font-family="Helvetica,sans-Serif" font-size="16.00" fill="#e6edf3">Boot / Safe Pose</text>
</g>
<!-- S_100 -->
<g id="node2" class="node">
<title>S_100</title>
<path fill="#1a2028" stroke="#9aa4b2" stroke-width="1.2" d="M501,-792C501,-792 339,-792 339,-792 333,-792 327,-786 327,-780 327,-780 327,-768 327,-768 327,-762 333,-756 339,-756 339,-756 501,-756 501,-756 507,-756 513,-762 513,-768 513,-768 513,-780 513,-780 513,-786 507,-792 501,-792"/>
<text text-anchor="middle" x="420" y="-770.2" font-family="Helvetica,sans-Serif" font-size="16.00" fill="#e6edf3">Repeat Forward Walk</text>
</g>
<!-- S_INIT&#45;&gt;S_100 -->
<g id="edge1" class="edge">
<title>S_INIT&#45;&gt;S_100</title>
<path fill="none" stroke="#9aa4b2" d="M420,-863.97C420,-846.84 420,-820.22 420,-800.56"/>
<polygon fill="#9aa4b2" stroke="#9aa4b2" points="422.8,-800.34 420,-792.34 417.2,-800.34 422.8,-800.34"/>
<text text-anchor="middle" x="437.5" y="-824.6" font-family="Helvetica,sans-Serif" font-size="13.00" fill="#94a3b8">entry</text>
</g>
<!-- S_110 -->
<g id="node3" class="node">
<title>S_110</title>
<path fill="#1a2028" stroke="#9aa4b2" stroke-width="1.2" d="M396.5,-684C396.5,-684 283.5,-684 283.5,-684 277.5,-684 271.5,-678 271.5,-672 271.5,-672 271.5,-660 271.5,-660 271.5,-654 277.5,-648 283.5,-648 283.5,-648 396.5,-648 396.5,-648 402.5,-648 408.5,-654 408.5,-660 408.5,-660 408.5,-672 408.5,-672 408.5,-678 402.5,-684 396.5,-684"/>
<text text-anchor="middle" x="340" y="-662.2" font-family="Helvetica,sans-Serif" font-size="16.00" fill="#e6edf3">Sense / Decide</text>
</g>
<!-- S_100&#45;&gt;S_110 -->
<g id="edge2" class="edge">
<title>S_100&#45;&gt;S_110</title>
<path fill="none" stroke="#9aa4b2" d="M370.21,-755.82C357.49,-748.92 345.34,-739.54 338,-727 331.94,-716.65 331.73,-703.48 333.34,-692.12"/>
<polygon fill="#9aa4b2" stroke="#9aa4b2" points="336.1,-692.61 334.77,-684.23 330.59,-691.6 336.1,-692.61"/>
<text text-anchor="middle" x="404.5" y="-716.6" font-family="Helvetica,sans-Serif" font-size="13.00" fill="#94a3b8">continue to monitor</text>
</g>
<!-- S_110&#45;&gt;S_110 -->
<g id="edge5" class="edge">
<title>S_110&#45;&gt;S_110</title>
<path fill="none" stroke="#9aa4b2" d="M408.84,-676.09C428.94,-675.75 444.5,-672.38 444.5,-666 444.5,-660.52 433.01,-657.26 417.02,-656.23"/>
<polygon fill="#9aa4b2" stroke="#9aa4b2" points="416.95,-653.43 408.84,-655.91 416.73,-659.02 416.95,-653.43"/>
<text text-anchor="middle" x="453" y="-662.6" font-family="Helvetica,sans-Serif" font-size="13.00" fill="#94a3b8">go</text>
</g>
<!-- S_120 -->
<g id="node4" class="node">
<title>S_120</title>
<path fill="#1a2028" stroke="#9aa4b2" stroke-width="1.2" d="M285,-576C285,-576 193,-576 193,-576 187,-576 181,-570 181,-564 181,-564 181,-552 181,-552 181,-546 187,-540 193,-540 193,-540 285,-540 285,-540 291,-540 297,-546 297,-552 297,-552 297,-564 297,-564 297,-570 291,-576 285,-576"/>
<text text-anchor="middle" x="239" y="-554.2" font-family="Helvetica,sans-Serif" font-size="16.00" fill="#e6edf3">Synchronize</text>
</g>
<!-- S_110&#45;&gt;S_120 -->
<g id="edge3" class="edge">
<title>S_110&#45;&gt;S_120</title>
<path fill="none" stroke="#9aa4b2" d="M271.4,-655.5C249.76,-648.91 228.1,-637.78 215,-619 207.4,-608.1 211.97,-594.45 219.07,-582.92"/>
<polygon fill="#9aa4b2" stroke="#9aa4b2" points="221.55,-584.25 223.73,-576.06 216.92,-581.1 221.55,-584.25"/>
<text text-anchor="middle" x="273" y="-608.6" font-family="Helvetica,sans-Serif" font-size="13.00" fill="#94a3b8">if Distance &lt; 300</text>
</g>
<!-- S_110&#45;&gt;S_120 -->
<g id="edge4" class="edge">
<title>S_110&#45;&gt;S_120</title>
<path fill="none" stroke="#9aa4b2" d="M343.23,-647.73C344.66,-634.86 344.45,-617.43 336,-605 328.2,-593.53 316.74,-584.85 304.41,-578.29"/>
<polygon fill="#9aa4b2" stroke="#9aa4b2" points="305.48,-575.7 297.07,-574.68 303.01,-580.72 305.48,-575.7"/>
<text text-anchor="middle" x="374" y="-608.6" font-family="Helvetica,sans-Serif" font-size="13.00" fill="#94a3b8">if t &gt; 100</text>
</g>
<!-- S_130 -->
<g id="node5" class="node">
<title>S_130</title>
<path fill="#1a2028" stroke="#9aa4b2" stroke-width="1.2" d="M312.5,-468C312.5,-468 165.5,-468 165.5,-468 159.5,-468 153.5,-462 153.5,-456 153.5,-456 153.5,-444 153.5,-444 153.5,-438 159.5,-432 165.5,-432 165.5,-432 312.5,-432 312.5,-432 318.5,-432 324.5,-438 324.5,-444 324.5,-444 324.5,-456 324.5,-456 324.5,-462 318.5,-468 312.5,-468"/>
<text text-anchor="middle" x="239" y="-446.2" font-family="Helvetica,sans-Serif" font-size="16.00" fill="#e6edf3">Head Scan Position</text>
</g>
<!-- S_120&#45;&gt;S_130 -->
<g id="edge6" class="edge">
<title>S_120&#45;&gt;S_130</title>
<path fill="none" stroke="#9aa4b2" d="M239,-539.97C239,-522.84 239,-496.22 239,-476.56"/>
<polygon fill="#9aa4b2" stroke="#9aa4b2" points="241.8,-476.34 239,-468.34 236.2,-476.34 241.8,-476.34"/>
<text text-anchor="middle" x="300" y="-500.6" font-family="Helvetica,sans-Serif" font-size="13.00" fill="#94a3b8">next labeled block</text>
</g>
<!-- S_131 -->
<g id="node6" class="node">
<title>S_131</title>
<path fill="#1a2028" stroke="#9aa4b2" stroke-width="1.2" d="M320.5,-360C320.5,-360 207.5,-360 207.5,-360 201.5,-360 195.5,-354 195.5,-348 195.5,-348 195.5,-336 195.5,-336 195.5,-330 201.5,-324 207.5,-324 207.5,-324 320.5,-324 320.5,-324 326.5,-324 332.5,-330 332.5,-336 332.5,-336 332.5,-348 332.5,-348 332.5,-354 326.5,-360 320.5,-360"/>
<text text-anchor="middle" x="264" y="-338.2" font-family="Helvetica,sans-Serif" font-size="16.00" fill="#e6edf3">Sense / Decide</text>
</g>
<!-- S_130&#45;&gt;S_131 -->
<g id="edge7" class="edge">
<title>S_130&#45;&gt;S_131</title>
<path fill="none" stroke="#9aa4b2" d="M243.02,-431.97C247.07,-414.76 253.39,-387.98 258.03,-368.29"/>
<polygon fill="#9aa4b2" stroke="#9aa4b2" points="260.8,-368.77 259.91,-360.34 255.35,-367.48 260.8,-368.77"/>
<text text-anchor="middle" x="314" y="-392.6" font-family="Helvetica,sans-Serif" font-size="13.00" fill="#94a3b8">next labeled block</text>
</g>
<!-- S_131&#45;&gt;S_131 -->
<g id="edge9" class="edge">
<title>S_131&#45;&gt;S_131</title>
<path fill="none" stroke="#9aa4b2" d="M332.84,-347.05C352.94,-346.87 368.5,-345.19 368.5,-342 368.5,-339.26 357.01,-337.63 341.02,-337.12"/>
<polygon fill="#9aa4b2" stroke="#9aa4b2" points="340.9,-334.31 332.84,-336.95 340.79,-339.91 340.9,-334.31"/>
<text text-anchor="middle" x="397.5" y="-338.6" font-family="Helvetica,sans-Serif" font-size="13.00" fill="#94a3b8">if d &lt; dd</text>
</g>
<!-- S_131&#45;&gt;S_131 -->
<g id="edge10" class="edge">
<title>S_131&#45;&gt;S_131</title>
<path fill="none" stroke="#9aa4b2" d="M332.6,-351.32C379.03,-353.76 426.5,-350.65 426.5,-342 426.5,-333.86 384.43,-330.63 340.76,-332.31"/>
<polygon fill="#9aa4b2" stroke="#9aa4b2" points="340.46,-329.52 332.6,-332.68 340.72,-335.11 340.46,-329.52"/>
<text text-anchor="middle" x="435" y="-338.6" font-family="Helvetica,sans-Serif" font-size="13.00" fill="#94a3b8">go</text>
</g>
<!-- S_132 -->
<g id="node7" class="node">
<title>S_132</title>
<path fill="#1a2028" stroke="#9aa4b2" stroke-width="1.2" d="M372.5,-252C372.5,-252 259.5,-252 259.5,-252 253.5,-252 247.5,-246 247.5,-240 247.5,-240 247.5,-228 247.5,-228 247.5,-222 253.5,-216 259.5,-216 259.5,-216 372.5,-216 372.5,-216 378.5,-216 384.5,-222 384.5,-228 384.5,-228 384.5,-240 384.5,-240 384.5,-246 378.5,-252 372.5,-252"/>
<text text-anchor="middle" x="316" y="-230.2" font-family="Helvetica,sans-Serif" font-size="16.00" fill="#e6edf3">Sense / Decide</text>
</g>
<!-- S_131&#45;&gt;S_132 -->
<g id="edge8" class="edge">
<title>S_131&#45;&gt;S_132</title>
<path fill="none" stroke="#9aa4b2" d="M272.35,-323.97C280.87,-306.61 294.17,-279.5 303.85,-259.77"/>
<polygon fill="#9aa4b2" stroke="#9aa4b2" points="306.48,-260.76 307.49,-252.34 301.46,-258.29 306.48,-260.76"/>
<text text-anchor="middle" x="329.5" y="-284.6" font-family="Helvetica,sans-Serif" font-size="13.00" fill="#94a3b8">if Wait = 0</text>
</g>
<!-- S_132&#45;&gt;S_100 -->
<g id="edge14" class="edge">
<title>S_132&#45;&gt;S_100</title>
<path fill="none" stroke="#9aa4b2" d="M384.66,-246.27C436.59,-259.18 499,-286.11 499,-341 499,-667 499,-667 499,-667 499,-695.56 492.7,-703.83 476,-727 469.61,-735.87 461.11,-744.01 452.67,-750.9"/>
<polygon fill="#9aa4b2" stroke="#9aa4b2" points="450.83,-748.78 446.26,-755.92 454.28,-753.19 450.83,-748.78"/>
<text text-anchor="middle" x="507.5" y="-500.6" font-family="Helvetica,sans-Serif" font-size="13.00" fill="#94a3b8">go</text>
</g>
<!-- S_133 -->
<g id="node8" class="node">
<title>S_133</title>
<path fill="#1a2028" stroke="#9aa4b2" stroke-width="1.2" d="M184.5,-144C184.5,-144 97.5,-144 97.5,-144 91.5,-144 85.5,-138 85.5,-132 85.5,-132 85.5,-120 85.5,-120 85.5,-114 91.5,-108 97.5,-108 97.5,-108 184.5,-108 184.5,-108 190.5,-108 196.5,-114 196.5,-120 196.5,-120 196.5,-132 196.5,-132 196.5,-138 190.5,-144 184.5,-144"/>
<text text-anchor="middle" x="141" y="-122.2" font-family="Helvetica,sans-Serif" font-size="16.00" fill="#e6edf3">Action Loop</text>
</g>
<!-- S_132&#45;&gt;S_133 -->
<g id="edge13" class="edge">
<title>S_132&#45;&gt;S_133</title>
<path fill="none" stroke="#9aa4b2" d="M273.45,-215.84C255.53,-207.96 234.76,-197.93 217,-187 199.12,-176 180.6,-161.45 166.32,-149.44"/>
<polygon fill="#9aa4b2" stroke="#9aa4b2" points="167.98,-147.18 160.07,-144.12 164.35,-151.44 167.98,-147.18"/>
<text text-anchor="middle" x="254.5" y="-176.6" font-family="Helvetica,sans-Serif" font-size="13.00" fill="#94a3b8">if dd &lt; 300</text>
</g>
<!-- S_200 -->
<g id="node9" class="node">
<title>S_200</title>
<path fill="#1a2028" stroke="#9aa4b2" stroke-width="1.2" d="M332.5,-144C332.5,-144 245.5,-144 245.5,-144 239.5,-144 233.5,-138 233.5,-132 233.5,-132 233.5,-120 233.5,-120 233.5,-114 239.5,-108 245.5,-108 245.5,-108 332.5,-108 332.5,-108 338.5,-108 344.5,-114 344.5,-120 344.5,-120 344.5,-132 344.5,-132 344.5,-138 338.5,-144 332.5,-144"/>
<text text-anchor="middle" x="289" y="-122.2" font-family="Helvetica,sans-Serif" font-size="16.00" fill="#e6edf3">Action Loop</text>
</g>
<!-- S_132&#45;&gt;S_200 -->
<g id="edge11" class="edge">
<title>S_132&#45;&gt;S_200</title>
<path fill="none" stroke="#9aa4b2" d="M311.66,-215.97C307.28,-198.76 300.46,-171.98 295.44,-152.29"/>
<polygon fill="#9aa4b2" stroke="#9aa4b2" points="298.11,-151.4 293.42,-144.34 292.68,-152.78 298.11,-151.4"/>
<text text-anchor="middle" x="344.5" y="-176.6" font-family="Helvetica,sans-Serif" font-size="13.00" fill="#94a3b8">if pan &lt; &#45;20</text>
</g>
<!-- S_300 -->
<g id="node11" class="node">
<title>S_300</title>
<path fill="#1a2028" stroke="#9aa4b2" stroke-width="1.2" d="M479.5,-144C479.5,-144 392.5,-144 392.5,-144 386.5,-144 380.5,-138 380.5,-132 380.5,-132 380.5,-120 380.5,-120 380.5,-114 386.5,-108 392.5,-108 392.5,-108 479.5,-108 479.5,-108 485.5,-108 491.5,-114 491.5,-120 491.5,-120 491.5,-132 491.5,-132 491.5,-138 485.5,-144 479.5,-144"/>
<text text-anchor="middle" x="436" y="-122.2" font-family="Helvetica,sans-Serif" font-size="16.00" fill="#e6edf3">Action Loop</text>
</g>
<!-- S_132&#45;&gt;S_300 -->
<g id="edge12" class="edge">
<title>S_132&#45;&gt;S_300</title>
<path fill="none" stroke="#9aa4b2" d="M351.43,-215.86C365.27,-208.17 380.74,-198.28 393,-187 404.25,-176.65 414.35,-162.93 421.93,-151.21"/>
<polygon fill="#9aa4b2" stroke="#9aa4b2" points="424.43,-152.49 426.31,-144.23 419.69,-149.52 424.43,-152.49"/>
<text text-anchor="middle" x="442.5" y="-176.6" font-family="Helvetica,sans-Serif" font-size="13.00" fill="#94a3b8">if pan &gt; 20</text>
</g>
<!-- S_133&#45;&gt;S_130 -->
<g id="edge15" class="edge">
<title>S_133&#45;&gt;S_130</title>
<path fill="none" stroke="#9aa4b2" d="M141.04,-144.07C141.67,-183.54 146.42,-283.62 177,-360 186.7,-384.23 204.07,-408.31 217.96,-425.3"/>
<polygon fill="#9aa4b2" stroke="#9aa4b2" points="216.01,-427.33 223.29,-431.68 220.31,-423.74 216.01,-427.33"/>
<text text-anchor="middle" x="166.5" y="-284.6" font-family="Helvetica,sans-Serif" font-size="13.00" fill="#94a3b8">go</text>
</g>
<!-- S_210 -->
<g id="node10" class="node">
<title>S_210</title>
<path fill="#1a2028" stroke="#9aa4b2" stroke-width="1.2" d="M205.5,-36C205.5,-36 118.5,-36 118.5,-36 112.5,-36 106.5,-30 106.5,-24 106.5,-24 106.5,-12 106.5,-12 106.5,-6 112.5,0 118.5,0 118.5,0 205.5,0 205.5,0 211.5,0 217.5,-6 217.5,-12 217.5,-12 217.5,-24 217.5,-24 217.5,-30 211.5,-36 205.5,-36"/>
<text text-anchor="middle" x="162" y="-14.2" font-family="Helvetica,sans-Serif" font-size="16.00" fill="#e6edf3">Action Loop</text>
</g>
<!-- S_200&#45;&gt;S_210 -->
<g id="edge16" class="edge">
<title>S_200&#45;&gt;S_210</title>
<path fill="none" stroke="#9aa4b2" d="M268.6,-107.97C247.06,-90 213.01,-61.57 189.2,-41.7"/>
<polygon fill="#9aa4b2" stroke="#9aa4b2" points="190.71,-39.32 182.78,-36.34 187.12,-43.62 190.71,-39.32"/>
<text text-anchor="middle" x="295" y="-68.6" font-family="Helvetica,sans-Serif" font-size="13.00" fill="#94a3b8">next labeled block</text>
</g>
<!-- S_210&#45;&gt;S_100 -->
<g id="edge17" class="edge">
<title>S_210&#45;&gt;S_100</title>
<path fill="none" stroke="#9aa4b2" d="M106.25,-31.15C59.39,-45.03 0,-72.9 0,-125 0,-667 0,-667 0,-667 0,-732.49 194.42,-757.93 318.71,-767.51"/>
<polygon fill="#9aa4b2" stroke="#9aa4b2" points="318.6,-770.31 326.79,-768.12 319.02,-764.72 318.6,-770.31"/>
<text text-anchor="middle" x="58" y="-392.6" font-family="Helvetica,sans-Serif" font-size="13.00" fill="#94a3b8">if Distance &gt; 300</text>
</g>
<!-- S_210&#45;&gt;S_210 -->
<g id="edge18" class="edge">
<title>S_210&#45;&gt;S_210</title>
<path fill="none" stroke="#9aa4b2" d="M217.84,-28.12C237.53,-28.28 253.5,-24.91 253.5,-18 253.5,-12.06 241.7,-8.74 225.89,-8.02"/>
<polygon fill="#9aa4b2" stroke="#9aa4b2" points="225.89,-5.22 217.84,-7.88 225.79,-10.82 225.89,-5.22"/>
<text text-anchor="middle" x="262" y="-14.6" font-family="Helvetica,sans-Serif" font-size="13.00" fill="#94a3b8">go</text>
</g>
<!-- S_310 -->
<g id="node12" class="node">
<title>S_310</title>
<path fill="#1a2028" stroke="#9aa4b2" stroke-width="1.2" d="M509.5,-36C509.5,-36 422.5,-36 422.5,-36 416.5,-36 410.5,-30 410.5,-24 410.5,-24 410.5,-12 410.5,-12 410.5,-6 416.5,0 422.5,0 422.5,0 509.5,0 509.5,0 515.5,0 521.5,-6 521.5,-12 521.5,-12 521.5,-24 521.5,-24 521.5,-30 515.5,-36 509.5,-36"/>
<text text-anchor="middle" x="466" y="-14.2" font-family="Helvetica,sans-Serif" font-size="16.00" fill="#e6edf3">Action Loop</text>
</g>
<!-- S_300&#45;&gt;S_310 -->
<g id="edge19" class="edge">
<title>S_300&#45;&gt;S_310</title>
<path fill="none" stroke="#9aa4b2" d="M429.09,-108C425.13,-95.73 421.88,-78.94 427,-65 429.97,-56.89 435.08,-49.23 440.64,-42.57"/>
<polygon fill="#9aa4b2" stroke="#9aa4b2" points="443.03,-44.1 446.28,-36.27 438.86,-40.36 443.03,-44.1"/>
<text text-anchor="middle" x="488" y="-68.6" font-family="Helvetica,sans-Serif" font-size="13.00" fill="#94a3b8">next labeled block</text>
</g>
<!-- S_310&#45;&gt;S_100 -->
<g id="edge20" class="edge">
<title>S_310&#45;&gt;S_100</title>
<path fill="none" stroke="#9aa4b2" d="M513.71,-36.19C528.18,-43.28 543.11,-52.77 554,-65 572.99,-86.33 577,-96.44 577,-125 577,-667 577,-667 577,-667 577,-710.5 535.09,-737.35 494.58,-753.14"/>
<polygon fill="#9aa4b2" stroke="#9aa4b2" points="493.55,-750.53 487.04,-755.96 495.51,-755.77 493.55,-750.53"/>
<text text-anchor="middle" x="635" y="-392.6" font-family="Helvetica,sans-Serif" font-size="13.00" fill="#94a3b8">if Distance &gt; 300</text>
</g>
<!-- S_310&#45;&gt;S_310 -->
<g id="edge21" class="edge">
<title>S_310&#45;&gt;S_310</title>
<path fill="none" stroke="#9aa4b2" d="M521.84,-28.12C541.53,-28.28 557.5,-24.91 557.5,-18 557.5,-12.06 545.7,-8.74 529.89,-8.02"/>
<polygon fill="#9aa4b2" stroke="#9aa4b2" points="529.89,-5.22 521.84,-7.88 529.79,-10.82 529.89,-5.22"/>
<text text-anchor="middle" x="566" y="-14.6" font-family="Helvetica,sans-Serif" font-size="13.00" fill="#94a3b8">go</text>
</g>
</g>
</svg>
