<?xml version="1.0" encoding="UTF-8" standalone="no"?>
<!DOCTYPE svg PUBLIC "-//W3C//DTD SVG 1.1//EN"
 "http://www.w3.org/Graphics/SVG/1.1/DTD/svg11.dtd">
<!-- Generated by graphviz version 2.42.4 (0)
 -->
<!-- Title: G Pages: 1 -->
<svg width="559pt" height="720pt"
 viewBox="0.00 0.00 559.00 720.00" xmlns="http://www.w3.org/2000/svg" xmlns:xlink="http://www.w3.org/1999/xlink">
<g id="graph0" class="graph" transform="scale(1 1) rotate(0) translate(18 702)">
<title>G</title>
<polygon fill="#101418" stroke="transparent" points="-18,18 -18,-702 541,-702 541,18 -18,18"/>
<!-- S_INIT -->
<g id="node1" class="node">
<title>S_INIT</title>
<path fill="#1a2028" stroke="#9aa4b2" stroke-width="1.2" d="M261.5,-684C261.5,-684 138.5,-684 138.5,-684 132.5,-684 126.5,-678 126.5,-672 126.5,-672 126.5,-660 126.5,-660 126.5,-654 132.5,-648 138.5,-648 138.5,-648 261.5,-648 261.5,-648 267.5,-648 273.5,-654 273.5,-660 273.5,-660 273.5,-672 273.5,-672 273.5,-678 267.5,-684 261.5,-684"/>
<text text-anchor="middle" x="200" y="-662.2" font-family="Helvetica,sans-Serif" font-size="16.00" fill="#e6edf3">Boot / Safe Pose</text>
</g>
<!-- S_100 -->
<g id="node2" class="node">
<title>S_100</title>
<path fill="#1a2028" stroke="#9aa4b2" stroke-width="1.2" d="M281,-576C281,-576 119,-576 119,-576 113,-576 107,-570 107,-564 107,-564 107,-552 107,-552 107,-546 113,-540 119,-540 119,-540 281,-540 281,-540 287,-540 293,-546 293,-552 293,-552 293,-564 293,-564 293,-570 287,-576 281,-576"/>
<text text-anchor="middle" x="200" y="-554.2" font-family="Helvetica,sans-Serif" font-size="16.00" fill="#e6edf3">Repeat Forward Walk</text>
</g>
<!-- S_INIT&#45;&gt;S_100 -->
<g id="edge1" class="edge">
<title>S_INIT&#45;&gt;S_100</title>
<path fill="none" stroke="#9aa4b2" d="M200,-647.97C200,-630.84 200,-604.22 200,-584.56"/>
<polygon fill="#9aa4b2" stroke="#9aa4b2" points="202.8,-584.34 200,-576.34 197.2,-584.34 202.8,-584.34"/>
<text text-anchor="middle" x="217.5" y="-608.6" font-family="Helvetica,sans-Serif" font-size="13.00" fill="#94a3b8">entry</text>
</g>
<!-- S_110 -->
<g id="node3" class="node">
<title>S_110</title>
<path fill="#1a2028" stroke="#9aa4b2" stroke-width="1.2" d="M256.5,-468C256.5,-468 143.5,-468 143.5,-468 137.5,-468 131.5,-462 131.5,-456 131.5,-456 131.5,-444 131.5,-444 131.5,-438 137.5,-432 143.5,-432 143.5,-432 256.5,-432 256.5,-432 262.5,-432 268.5,-438 268.5,-444 268.5,-444 268.5,-456 268.5,-456 268.5,-462 262.5,-468 256.5,-468"/>
<text text-anchor="middle" x="200" y="-446.2" font-family="Helvetica,sans-Serif" font-size="16.00" fill="#e6edf3">Sense / Decide</text>
</g>
<!-- S_100&#45;&gt;S_110 -->
<g id="edge2" class="edge">
<title>S_100&#45;&gt;S_110</title>
<path fill="none" stroke="#9aa4b2" d="M200,-539.97C200,-522.84 200,-496.22 200,-476.56"/>
<polygon fill="#9aa4b2" stroke="#9aa4b2" points="202.8,-476.34 200,-468.34 197.2,-476.34 202.8,-476.34"/>
<text text-anchor="middle" x="266.5" y="-500.6" font-family="Helvetica,sans-Serif" font-size="13.00" fill="#94a3b8">continue to monitor</text>
</g>
<!-- S_110&#45;&gt;S_110 -->
<g id="edge4" class="edge">
<title>S_110&#45;&gt;S_110</title>
<path fill="none" stroke="#9aa4b2" d="M268.84,-460.09C288.94,-459.75 304.5,-456.38 304.5,-450 304.5,-444.52 293.01,-441.26 277.02,-440.23"/>
<polygon fill="#9aa4b2" stroke="#9aa4b2" points="276.95,-437.43 268.84,-439.91 276.73,-443.02 276.95,-437.43"/>
<text text-anchor="middle" x="313" y="-446.6" font-family="Helvetica,sans-Serif" font-size="13.00" fill="#94a3b8">go</text>
</g>
<!-- S_120 -->
<g id="node4" class="node">
<title>S_120</title>
<path fill="#1a2028" stroke="#9aa4b2" stroke-width="1.2" d="M246,-360C246,-360 154,-360 154,-360 148,-360 142,-354 142,-348 142,-348 142,-336 142,-336 142,-330 148,-324 154,-324 154,-324 246,-324 246,-324 252,-324 258,-330 258,-336 258,-336 258,-348 258,-348 258,-354 252,-360 246,-360"/>
<text text-anchor="middle" x="200" y="-338.2" font-family="Helvetica,sans-Serif" font-size="16.00" fill="#e6edf3">Synchronize</text>
</g>
<!-- S_110&#45;&gt;S_120 -->
<g id="edge3" class="edge">
<title>S_110&#45;&gt;S_120</title>
<path fill="none" stroke="#9aa4b2" d="M200,-431.97C200,-414.84 200,-388.22 200,-368.56"/>
<polygon fill="#9aa4b2" stroke="#9aa4b2" points="202.8,-368.34 200,-360.34 197.2,-368.34 202.8,-368.34"/>
<text text-anchor="middle" x="258" y="-392.6" font-family="Helvetica,sans-Serif" font-size="13.00" fill="#94a3b8">if Distance &lt; 300</text>
</g>
<!-- S_130 -->
<g id="node5" class="node">
<title>S_130</title>
<path fill="#1a2028" stroke="#9aa4b2" stroke-width="1.2" d="M243.5,-252C243.5,-252 156.5,-252 156.5,-252 150.5,-252 144.5,-246 144.5,-240 144.5,-240 144.5,-228 144.5,-228 144.5,-222 150.5,-216 156.5,-216 156.5,-216 243.5,-216 243.5,-216 249.5,-216 255.5,-222 255.5,-228 255.5,-228 255.5,-240 255.5,-240 255.5,-246 249.5,-252 243.5,-252"/>
<text text-anchor="middle" x="200" y="-230.2" font-family="Helvetica,sans-Serif" font-size="16.00" fill="#e6edf3">Action Loop</text>
</g>
<!-- S_120&#45;&gt;S_130 -->
<g id="edge5" class="edge">
<title>S_120&#45;&gt;S_130</title>
<path fill="none" stroke="#9aa4b2" d="M200,-323.97C200,-306.84 200,-280.22 200,-260.56"/>
<polygon fill="#9aa4b2" stroke="#9aa4b2" points="202.8,-260.34 200,-252.34 197.2,-260.34 202.8,-260.34"/>
<text text-anchor="middle" x="261" y="-284.6" font-family="Helvetica,sans-Serif" font-size="13.00" fill="#94a3b8">next labeled block</text>
</g>
<!-- S_130&#45;&gt;S_130 -->
<g id="edge8" class="edge">
<title>S_130&#45;&gt;S_130</title>
<path fill="none" stroke="#9aa4b2" d="M255.84,-244.12C275.53,-244.28 291.5,-240.91 291.5,-234 291.5,-228.06 279.7,-224.74 263.89,-224.02"/>
<polygon fill="#9aa4b2" stroke="#9aa4b2" points="263.89,-221.22 255.84,-223.88 263.79,-226.82 263.89,-221.22"/>
<text text-anchor="middle" x="300" y="-230.6" font-family="Helvetica,sans-Serif" font-size="13.00" fill="#94a3b8">go</text>
</g>
<!-- S_200 -->
<g id="node6" class="node">
<title>S_200</title>
<path fill="#1a2028" stroke="#9aa4b2" stroke-width="1.2" d="M154.5,-144C154.5,-144 67.5,-144 67.5,-144 61.5,-144 55.5,-138 55.5,-132 55.5,-132 55.5,-120 55.5,-120 55.5,-114 61.5,-108 67.5,-108 67.5,-108 154.5,-108 154.5,-108 160.5,-108 166.5,-114 166.5,-120 166.5,-120 166.5,-132 166.5,-132 166.5,-138 160.5,-144 154.5,-144"/>
<text text-anchor="middle" x="111" y="-122.2" font-family="Helvetica,sans-Serif" font-size="16.00" fill="#e6edf3">Action Loop</text>
</g>
<!-- S_130&#45;&gt;S_200 -->
<g id="edge6" class="edge">
<title>S_130&#45;&gt;S_200</title>
<path fill="none" stroke="#9aa4b2" d="M144.39,-219.06C128.26,-212.16 112.46,-201.96 103,-187 96.49,-176.71 97.51,-163.44 100.58,-152"/>
<polygon fill="#9aa4b2" stroke="#9aa4b2" points="103.35,-152.53 103.1,-144.06 98.01,-150.84 103.35,-152.53"/>
<text text-anchor="middle" x="161" y="-176.6" font-family="Helvetica,sans-Serif" font-size="13.00" fill="#94a3b8">if Distance &gt; 300</text>
</g>
<!-- S_300 -->
<g id="node8" class="node">
<title>S_300</title>
<path fill="#1a2028" stroke="#9aa4b2" stroke-width="1.2" d="M306.5,-144C306.5,-144 219.5,-144 219.5,-144 213.5,-144 207.5,-138 207.5,-132 207.5,-132 207.5,-120 207.5,-120 207.5,-114 213.5,-108 219.5,-108 219.5,-108 306.5,-108 306.5,-108 312.5,-108 318.5,-114 318.5,-120 318.5,-120 318.5,-132 318.5,-132 318.5,-138 312.5,-144 306.5,-144"/>
<text text-anchor="middle" x="263" y="-122.2" font-family="Helvetica,sans-Serif" font-size="16.00" fill="#e6edf3">Action Loop</text>
</g>
<!-- S_130&#45;&gt;S_300 -->
<g id="edge7" class="edge">
<title>S_130&#45;&gt;S_300</title>
<path fill="none" stroke="#9aa4b2" d="M210.12,-215.97C220.53,-198.46 236.84,-171.02 248.59,-151.25"/>
<polygon fill="#9aa4b2" stroke="#9aa4b2" points="251.01,-152.65 252.69,-144.34 246.2,-149.79 251.01,-152.65"/>
<text text-anchor="middle" x="294" y="-176.6" font-family="Helvetica,sans-Serif" font-size="13.00" fill="#94a3b8">if Distance &gt; 300</text>
</g>
<!-- S_210 -->
<g id="node7" class="node">
<title>S_210</title>
<path fill="#1a2028" stroke="#9aa4b2" stroke-width="1.2" d="M107.5,-36C107.5,-36 20.5,-36 20.5,-36 14.5,-36 8.5,-30 8.5,-24 8.5,-24 8.5,-12 8.5,-12 8.5,-6 14.5,0 20.5,0 20.5,0 107.5,0 107.5,0 113.5,0 119.5,-6 119.5,-12 119.5,-12 119.5,-24 119.5,-24 119.5,-30 113.5,-36 107.5,-36"/>
<text text-anchor="middle" x="64" y="-14.2" font-family="Helvetica,sans-Serif" font-size="16.00" fill="#e6edf3">Action Loop</text>
</g>
<!-- S_200&#45;&gt;S_210 -->
<g id="edge9" class="edge">
<title>S_200&#45;&gt;S_210</title>
<path fill="none" stroke="#9aa4b2" d="M103.45,-107.97C95.75,-90.61 83.73,-63.5 74.98,-43.77"/>
<polygon fill="#9aa4b2" stroke="#9aa4b2" points="77.49,-42.52 71.69,-36.34 72.37,-44.79 77.49,-42.52"/>
<text text-anchor="middle" x="152" y="-68.6" font-family="Helvetica,sans-Serif" font-size="13.00" fill="#94a3b8">next labeled block</text>
</g>
<!-- S_210&#45;&gt;S_100 -->
<g id="edge10" class="edge">
<title>S_210&#45;&gt;S_100</title>
<path fill="none" stroke="#9aa4b2" d="M45.49,-36.21C26.59,-55.75 0,-89.53 0,-125 0,-451 0,-451 0,-451 0,-500.89 49.19,-527.37 98.78,-541.38"/>
<polygon fill="#9aa4b2" stroke="#9aa4b2" points="98.28,-544.15 106.73,-543.53 99.74,-538.74 98.28,-544.15"/>
<text text-anchor="middle" x="58" y="-284.6" font-family="Helvetica,sans-Serif" font-size="13.00" fill="#94a3b8">if Distance &gt; 300</text>
</g>
<!-- S_210&#45;&gt;S_210 -->
<g id="edge11" class="edge">
<title>S_210&#45;&gt;S_210</title>
<path fill="none" stroke="#9aa4b2" d="M119.84,-28.12C139.53,-28.28 155.5,-24.91 155.5,-18 155.5,-12.06 143.7,-8.74 127.89,-8.02"/>
<polygon fill="#9aa4b2" stroke="#9aa4b2" points="127.89,-5.22 119.84,-7.88 127.79,-10.82 127.89,-5.22"/>
<text text-anchor="middle" x="164" y="-14.6" font-family="Helvetica,sans-Serif" font-size="13.00" fill="#94a3b8">go</text>
</g>
<!-- S_310 -->
<g id="node9" class="node">
<title>S_310</title>
<path fill="#1a2028" stroke="#9aa4b2" stroke-width="1.2" d="M324.5,-36C324.5,-36 237.5,-36 237.5,-36 231.5,-36 225.5,-30 225.5,-24 225.5,-24 225.5,-12 225.5,-12 225.5,-6 231.5,0 237.5,0 237.5,0 324.5,0 324.5,0 330.5,0 336.5,-6 336.5,-12 336.5,-12 336.5,-24 336.5,-24 336.5,-30 330.5,-36 324.5,-36"/>
<text text-anchor="middle" x="281" y="-14.2" font-family="Helvetica,sans-Serif" font-size="16.00" fill="#e6edf3">Action Loop</text>
</g>
<!-- S_300&#45;&gt;S_310 -->
<g id="edge12" class="edge">
<title>S_300&#45;&gt;S_310</title>
<path fill="none" stroke="#9aa4b2" d="M258.27,-107.97C255.63,-95.84 253.51,-79.23 257,-65 258.83,-57.55 262.1,-49.96 265.64,-43.16"/>
<polygon fill="#9aa4b2" stroke="#9aa4b2" points="268.12,-44.47 269.55,-36.12 263.22,-41.76 268.12,-44.47"/>
<text text-anchor="middle" x="318" y="-68.6" font-family="Helvetica,sans-Serif" font-size="13.00" fill="#94a3b8">next labeled block</text>
</g>
<!-- S_310&#45;&gt;S_100 -->
<g id="edge13" class="edge">
<title>S_310&#45;&gt;S_100</title>
<path fill="none" stroke="#9aa4b2" d="M336.52,-34.56C353.54,-41.57 371.14,-51.42 384,-65 403.64,-85.73 407,-96.44 407,-125 407,-451 407,-451 407,-451 407,-503.42 353.76,-529.94 301.27,-543.34"/>
<polygon fill="#9aa4b2" stroke="#9aa4b2" points="300.32,-540.69 293.21,-545.3 301.64,-546.13 300.32,-540.69"/>
<text text-anchor="middle" x="465" y="-284.6" font-family="Helvetica,sans-Serif" font-size="13.00" fill="#94a3b8">if Distance &gt; 300</text>
</g>
<!-- S_310&#45;&gt;S_310 -->
<g id="edge14" class="edge">
<title>S_310&#45;&gt;S_310</title>
<path fill="none" stroke="#9aa4b2" d="M336.84,-28.12C356.53,-28.28 372.5,-24.91 372.5,-18 372.5,-12.06 360.7,-8.74 344.89,-8.02"/>
<polygon fill="#9aa4b2" stroke="#9aa4b2" points="344.89,-5.22 336.84,-7.88 344.79,-10.82 344.89,-5.22"/>
<text text-anchor="middle" x="381" y="-14.6" font-family="Helvetica,sans-Serif" font-size="13.00" fill="#94a3b8">go</text>
</g>
</g>
</svg>
