<?xml version="1.0" encoding="UTF-8" standalone="no"?>
<!DOCTYPE svg PUBLIC "-//W3C//DTD SVG 1.1//EN"
 "http://www.w3.org/Graphics/SVG/1.1/DTD/svg11.dtd">
<!-- Generated by graphviz version 2.42.4 (0)
 -->
<!-- Title: G Pages: 1 -->
<svg width="287pt" height="288pt"
 viewBox="0.00 0.00 287.00 288.00" xmlns="http://www.w3.org/2000/svg" xmlns:xlink="http://www.w3.org/1999/xlink">
<g id="graph0" class="graph" transform="scale(1 1) rotate(0) translate(18 270)">
<title>G</title>
<polygon fill="#101418" stroke="transparent" points="-18,18 -18,-270 269,-270 269,18 -18,18"/>
<!-- S_INIT -->
<g id="node1" class="node">
<title>S_INIT</title>
<path fill="#1a2028" stroke="#9aa4b2" stroke-width="1.2" d="M156.5,-252C156.5,-252 33.5,-252 33.5,-252 27.5,-252 21.5,-246 21.5,-240 21.5,-240 21.5,-228 21.5,-228 21.5,-222 27.5,-216 33.5,-216 33.5,-216 156.5,-216 156.5,-216 162.5,-216 168.5,-222 168.5,-228 168.5,-228 168.5,-240 168.5,-240 168.5,-246 162.5,-252 156.5,-252"/>
<text text-anchor="middle" x="95" y="-230.2" font-family="Helvetica,sans-Serif" font-size="16.00" fill="#e6edf3">Boot / Safe Pose</text>
</g>
<!-- S_100 -->
<g id="node2" class="node">
<title>S_100</title>
<path fill="#1a2028" stroke="#9aa4b2" stroke-width="1.2" d="M155,-144C155,-144 35,-144 35,-144 29,-144 23,-138 23,-132 23,-132 23,-120 23,-120 23,-114 29,-108 35,-108 35,-108 155,-108 155,-108 161,-108 167,-114 167,-120 167,-120 167,-132 167,-132 167,-138 161,-144 155,-144"/>
<text text-anchor="middle" x="95" y="-122.2" font-family="Helvetica,sans-Serif" font-size="16.00" fill="#e6edf3">Sense Fall State</text>
</g>
<!-- S_INIT&#45;&gt;S_100 -->
<g id="edge1" class="edge">
<title>S_INIT&#45;&gt;S_100</title>
<path fill="none" stroke="#9aa4b2" d="M95,-215.97C95,-198.84 95,-172.22 95,-152.56"/>
<polygon fill="#9aa4b2" stroke="#9aa4b2" points="97.8,-152.34 95,-144.34 92.2,-152.34 97.8,-152.34"/>
<text text-anchor="middle" x="112.5" y="-176.6" font-family="Helvetica,sans-Serif" font-size="13.00" fill="#94a3b8">entry</text>
</g>
<!-- S_100&#45;&gt;S_100 -->
<g id="edge3" class="edge">
<title>S_100&#45;&gt;S_100</title>
<path fill="none" stroke="#9aa4b2" d="M167.17,-136.07C187.44,-135.63 203,-132.28 203,-126 203,-120.61 191.51,-117.37 175.42,-116.28"/>
<polygon fill="#9aa4b2" stroke="#9aa4b2" points="175.29,-113.48 167.17,-115.93 175.05,-119.07 175.29,-113.48"/>
<text text-anchor="middle" x="227" y="-122.6" font-family="Helvetica,sans-Serif" font-size="13.00" fill="#94a3b8">upright</text>
</g>
<!-- S_9000 -->
<g id="node3" class="node">
<title>S_9000</title>
<path fill="#1a2028" stroke="#9aa4b2" stroke-width="1.2" d="M178,-36C178,-36 12,-36 12,-36 6,-36 0,-30 0,-24 0,-24 0,-12 0,-12 0,-6 6,0 12,0 12,0 178,0 178,0 184,0 190,-6 190,-12 190,-12 190,-24 190,-24 190,-30 184,-36 178,-36"/>
<text text-anchor="middle" x="95" y="-14.2" font-family="Helvetica,sans-Serif" font-size="16.00" fill="#e6edf3">Happy Hug Response</text>
</g>
<!-- S_100&#45;&gt;S_9000 -->
<g id="edge2" class="edge">
<title>S_100&#45;&gt;S_9000</title>
<path fill="none" stroke="#9aa4b2" d="M95,-107.97C95,-90.84 95,-64.22 95,-44.56"/>
<polygon fill="#9aa4b2" stroke="#9aa4b2" points="97.8,-44.34 95,-36.34 92.2,-44.34 97.8,-44.34"/>
<text text-anchor="middle" x="134.5" y="-68.6" font-family="Helvetica,sans-Serif" font-size="13.00" fill="#94a3b8">if stat &lt;&gt; 0</text>
</g>
</g>
</svg>
