<?xml version="1.0" encoding="UTF-8" standalone="no"?>
<!DOCTYPE svg PUBLIC "-//W3C//DTD SVG 1.1//EN"
 "http://www.w3.org/Graphics/SVG/1.1/DTD/svg11.dtd">
<!-- Generated by graphviz version 2.42.4 (0)
 -->
<!-- Title: G Pages: 1 -->
<svg width="2163pt" height="1044pt"
 viewBox="0.00 0.00 2162.50 1044.00" xmlns="http://www.w3.org/2000/svg" xmlns:xlink="http://www.w3.org/1999/xlink">
<g id="graph0" class="graph" transform="scale(1 1) rotate(0) translate(18 1026)">
<title>G</title>
<polygon fill="#101418" stroke="transparent" points="-18,18 -18,-1026 2144.5,-1026 2144.5,18 -18,18"/>
<!-- S_INIT -->
<g id="node1" class="node">
<title>S_INIT</title>
<path fill="#1a2028" stroke="#9aa4b2" stroke-width="1.2" d="M1108,-1008C1108,-1008 985,-1008 985,-1008 979,-1008 973,-1002 973,-996 973,-996 973,-984 973,-984 973,-978 979,-972 985,-972 985,-972 1108,-972 1108,-972 1114,-972 1120,-978 1120,-984 1120,-984 1120,-996 1120,-996 1120,-1002 1114,-1008 1108,-1008"/>
<text text-anchor="middle" x="1046.5" y="-986.2" font-family="Helvetica,sans-Serif" font-size="16.00" fill="#e6edf3">Boot / Safe Pose</text>
</g>
<!-- S_100 -->
<g id="node2" class="node">
<title>S_100</title>
<path fill="#1a2028" stroke="#9aa4b2" stroke-width="1.2" d="M1106.5,-900C1106.5,-900 986.5,-900 986.5,-900 980.5,-900 974.5,-894 974.5,-888 974.5,-888 974.5,-876 974.5,-876 974.5,-870 980.5,-864 986.5,-864 986.5,-864 1106.5,-864 1106.5,-864 1112.5,-864 1118.5,-870 1118.5,-876 1118.5,-876 1118.5,-888 1118.5,-888 1118.5,-894 1112.5,-900 1106.5,-900"/>
<text text-anchor="middle" x="1046.5" y="-878.2" font-family="Helvetica,sans-Serif" font-size="16.00" fill="#e6edf3">Sense Fall State</text>
</g>
<!-- S_INIT&#45;&gt;S_100 -->
<g id="edge1" class="edge">
<title>S_INIT&#45;&gt;S_100</title>
<path fill="none" stroke="#9aa4b2" d="M1046.5,-971.97C1046.5,-954.84 1046.5,-928.22 1046.5,-908.56"/>
<polygon fill="#9aa4b2" stroke="#9aa4b2" points="1049.3,-908.34 1046.5,-900.34 1043.7,-908.34 1049.3,-908.34"/>
<text text-anchor="middle" x="1064" y="-932.6" font-family="Helvetica,sans-Serif" font-size="13.00" fill="#94a3b8">entry</text>
</g>
<!-- S_100&#45;&gt;S_100 -->
<g id="edge8" class="edge">
<title>S_100&#45;&gt;S_100</title>
<path fill="none" stroke="#9aa4b2" d="M1118.67,-892.07C1138.94,-891.63 1154.5,-888.28 1154.5,-882 1154.5,-876.61 1143.01,-873.37 1126.92,-872.28"/>
<polygon fill="#9aa4b2" stroke="#9aa4b2" points="1126.79,-869.48 1118.67,-871.93 1126.55,-875.07 1126.79,-869.48"/>
<text text-anchor="middle" x="1178.5" y="-878.6" font-family="Helvetica,sans-Serif" font-size="13.00" fill="#94a3b8">upright</text>
</g>
<!-- S_1000 -->
<g id="node3" class="node">
<title>S_1000</title>
<path fill="#1a2028" stroke="#9aa4b2" stroke-width="1.2" d="M728.5,-792C728.5,-792 636.5,-792 636.5,-792 630.5,-792 624.5,-786 624.5,-780 624.5,-780 624.5,-768 624.5,-768 624.5,-762 630.5,-756 636.5,-756 636.5,-756 728.5,-756 728.5,-756 734.5,-756 740.5,-762 740.5,-768 740.5,-768 740.5,-780 740.5,-780 740.5,-786 734.5,-792 728.5,-792"/>
<text text-anchor="middle" x="682.5" y="-770.2" font-family="Helvetica,sans-Serif" font-size="16.00" fill="#e6edf3">Synchronize</text>
</g>
<!-- S_100&#45;&gt;S_1000 -->
<g id="edge7" class="edge">
<title>S_100&#45;&gt;S_1000</title>
<path fill="none" stroke="#9aa4b2" d="M974.23,-880.24C885.43,-877.82 741.59,-868.65 701.5,-835 691.37,-826.5 686.57,-812.62 684.33,-800.35"/>
<polygon fill="#9aa4b2" stroke="#9aa4b2" points="687.06,-799.71 683.15,-792.2 681.52,-800.52 687.06,-799.71"/>
<text text-anchor="middle" x="734.5" y="-824.6" font-family="Helvetica,sans-Serif" font-size="13.00" fill="#94a3b8">if ball = 0</text>
</g>
<!-- S_2000 -->
<g id="node14" class="node">
<title>S_2000</title>
<path fill="#1a2028" stroke="#9aa4b2" stroke-width="1.2" d="M1219,-792C1219,-792 1106,-792 1106,-792 1100,-792 1094,-786 1094,-780 1094,-780 1094,-768 1094,-768 1094,-762 1100,-756 1106,-756 1106,-756 1219,-756 1219,-756 1225,-756 1231,-762 1231,-768 1231,-768 1231,-780 1231,-780 1231,-786 1225,-792 1219,-792"/>
<text text-anchor="middle" x="1162.5" y="-770.2" font-family="Helvetica,sans-Serif" font-size="16.00" fill="#e6edf3">Sense / Decide</text>
</g>
<!-- S_100&#45;&gt;S_2000 -->
<g id="edge3" class="edge">
<title>S_100&#45;&gt;S_2000</title>
<path fill="none" stroke="#9aa4b2" d="M1118.65,-873.83C1143.29,-867.53 1168.41,-855.98 1183.5,-835 1191.13,-824.39 1187.21,-810.76 1180.79,-799.17"/>
<polygon fill="#9aa4b2" stroke="#9aa4b2" points="1183.12,-797.61 1176.55,-792.26 1178.35,-800.54 1183.12,-797.61"/>
<text text-anchor="middle" x="1221.5" y="-824.6" font-family="Helvetica,sans-Serif" font-size="13.00" fill="#94a3b8">if ball = 1</text>
</g>
<!-- S_3000 -->
<g id="node17" class="node">
<title>S_3000</title>
<path fill="#1a2028" stroke="#9aa4b2" stroke-width="1.2" d="M1488,-792C1488,-792 1375,-792 1375,-792 1369,-792 1363,-786 1363,-780 1363,-780 1363,-768 1363,-768 1363,-762 1369,-756 1375,-756 1375,-756 1488,-756 1488,-756 1494,-756 1500,-762 1500,-768 1500,-768 1500,-780 1500,-780 1500,-786 1494,-792 1488,-792"/>
<text text-anchor="middle" x="1431.5" y="-770.2" font-family="Helvetica,sans-Serif" font-size="16.00" fill="#e6edf3">Sense / Decide</text>
</g>
<!-- S_100&#45;&gt;S_3000 -->
<g id="edge4" class="edge">
<title>S_100&#45;&gt;S_3000</title>
<path fill="none" stroke="#9aa4b2" d="M1118.55,-878.31C1206.01,-873.88 1347.28,-862.58 1391.5,-835 1404.82,-826.69 1414.69,-812.13 1421.29,-799.43"/>
<polygon fill="#9aa4b2" stroke="#9aa4b2" points="1423.81,-800.65 1424.8,-792.23 1418.78,-798.19 1423.81,-800.65"/>
<text text-anchor="middle" x="1444" y="-824.6" font-family="Helvetica,sans-Serif" font-size="13.00" fill="#94a3b8">if bang = 1</text>
</g>
<!-- S_4000 -->
<g id="node19" class="node">
<title>S_4000</title>
<path fill="#1a2028" stroke="#9aa4b2" stroke-width="1.2" d="M1729.5,-792C1729.5,-792 1637.5,-792 1637.5,-792 1631.5,-792 1625.5,-786 1625.5,-780 1625.5,-780 1625.5,-768 1625.5,-768 1625.5,-762 1631.5,-756 1637.5,-756 1637.5,-756 1729.5,-756 1729.5,-756 1735.5,-756 1741.5,-762 1741.5,-768 1741.5,-768 1741.5,-780 1741.5,-780 1741.5,-786 1735.5,-792 1729.5,-792"/>
<text text-anchor="middle" x="1683.5" y="-770.2" font-family="Helvetica,sans-Serif" font-size="16.00" fill="#e6edf3">Synchronize</text>
</g>
<!-- S_100&#45;&gt;S_4000 -->
<g id="edge5" class="edge">
<title>S_100&#45;&gt;S_4000</title>
<path fill="none" stroke="#9aa4b2" d="M1118.52,-880.94C1251.43,-879.89 1529.73,-873.05 1617.5,-835 1636.06,-826.95 1652.86,-811.5 1664.87,-798.29"/>
<polygon fill="#9aa4b2" stroke="#9aa4b2" points="1667.19,-799.89 1670.36,-792.03 1662.98,-796.19 1667.19,-799.89"/>
<text text-anchor="middle" x="1680" y="-824.6" font-family="Helvetica,sans-Serif" font-size="13.00" fill="#94a3b8">if amae = 1</text>
</g>
<!-- S_5000 -->
<g id="node20" class="node">
<title>S_5000</title>
<path fill="#1a2028" stroke="#9aa4b2" stroke-width="1.2" d="M1881.5,-792C1881.5,-792 1789.5,-792 1789.5,-792 1783.5,-792 1777.5,-786 1777.5,-780 1777.5,-780 1777.5,-768 1777.5,-768 1777.5,-762 1783.5,-756 1789.5,-756 1789.5,-756 1881.5,-756 1881.5,-756 1887.5,-756 1893.5,-762 1893.5,-768 1893.5,-768 1893.5,-780 1893.5,-780 1893.5,-786 1887.5,-792 1881.5,-792"/>
<text text-anchor="middle" x="1835.5" y="-770.2" font-family="Helvetica,sans-Serif" font-size="16.00" fill="#e6edf3">Synchronize</text>
</g>
<!-- S_100&#45;&gt;S_5000 -->
<g id="edge6" class="edge">
<title>S_100&#45;&gt;S_5000</title>
<path fill="none" stroke="#9aa4b2" d="M1118.55,-880.19C1294.86,-877.71 1737.8,-868.19 1795.5,-835 1809.2,-827.12 1819.11,-812.42 1825.64,-799.55"/>
<polygon fill="#9aa4b2" stroke="#9aa4b2" points="1828.21,-800.67 1829.1,-792.24 1823.15,-798.28 1828.21,-800.67"/>
<text text-anchor="middle" x="1850" y="-824.6" font-family="Helvetica,sans-Serif" font-size="13.00" fill="#94a3b8">if nade = 1</text>
</g>
<!-- S_9000 -->
<g id="node21" class="node">
<title>S_9000</title>
<path fill="#1a2028" stroke="#9aa4b2" stroke-width="1.2" d="M2063.5,-792C2063.5,-792 2005.5,-792 2005.5,-792 1999.5,-792 1993.5,-786 1993.5,-780 1993.5,-780 1993.5,-768 1993.5,-768 1993.5,-762 1999.5,-756 2005.5,-756 2005.5,-756 2063.5,-756 2063.5,-756 2069.5,-756 2075.5,-762 2075.5,-768 2075.5,-768 2075.5,-780 2075.5,-780 2075.5,-786 2069.5,-792 2063.5,-792"/>
<text text-anchor="middle" x="2034.5" y="-770.2" font-family="Helvetica,sans-Serif" font-size="16.00" fill="#e6edf3">Recover</text>
</g>
<!-- S_100&#45;&gt;S_9000 -->
<g id="edge2" class="edge">
<title>S_100&#45;&gt;S_9000</title>
<path fill="none" stroke="#9aa4b2" d="M1118.63,-880.42C1344.66,-878.25 2026.09,-868.91 2058.5,-835 2067.96,-825.1 2062.94,-811 2055.11,-798.96"/>
<polygon fill="#9aa4b2" stroke="#9aa4b2" points="2057.18,-797.04 2050.25,-792.15 2052.62,-800.29 2057.18,-797.04"/>
<text text-anchor="middle" x="2095.5" y="-824.6" font-family="Helvetica,sans-Serif" font-size="13.00" fill="#94a3b8">if fall = 1</text>
</g>
<!-- S_1100 -->
<g id="node4" class="node">
<title>S_1100</title>
<path fill="#1a2028" stroke="#9aa4b2" stroke-width="1.2" d="M651,-684C651,-684 538,-684 538,-684 532,-684 526,-678 526,-672 526,-672 526,-660 526,-660 526,-654 532,-648 538,-648 538,-648 651,-648 651,-648 657,-648 663,-654 663,-660 663,-660 663,-672 663,-672 663,-678 657,-684 651,-684"/>
<text text-anchor="middle" x="594.5" y="-662.2" font-family="Helvetica,sans-Serif" font-size="16.00" fill="#e6edf3">Sense / Decide</text>
</g>
<!-- S_1000&#45;&gt;S_1100 -->
<g id="edge9" class="edge">
<title>S_1000&#45;&gt;S_1100</title>
<path fill="none" stroke="#9aa4b2" d="M668.36,-755.97C653.69,-738.3 630.65,-710.54 614.2,-690.73"/>
<polygon fill="#9aa4b2" stroke="#9aa4b2" points="616.16,-688.71 608.9,-684.34 611.85,-692.28 616.16,-688.71"/>
<text text-anchor="middle" x="705.5" y="-716.6" font-family="Helvetica,sans-Serif" font-size="13.00" fill="#94a3b8">next labeled block</text>
</g>
<!-- S_1100&#45;&gt;S_100 -->
<g id="edge12" class="edge">
<title>S_1100&#45;&gt;S_100</title>
<path fill="none" stroke="#9aa4b2" d="M588.01,-684.37C579.59,-710.11 568.32,-758.88 589.5,-792 629.35,-854.33 845.85,-873.03 966.02,-878.62"/>
<polygon fill="#9aa4b2" stroke="#9aa4b2" points="966.03,-881.42 974.14,-878.99 966.28,-875.83 966.03,-881.42"/>
<text text-anchor="middle" x="598" y="-770.6" font-family="Helvetica,sans-Serif" font-size="13.00" fill="#94a3b8">go</text>
</g>
<!-- S_1200 -->
<g id="node5" class="node">
<title>S_1200</title>
<path fill="#1a2028" stroke="#9aa4b2" stroke-width="1.2" d="M453,-576C453,-576 340,-576 340,-576 334,-576 328,-570 328,-564 328,-564 328,-552 328,-552 328,-546 334,-540 340,-540 340,-540 453,-540 453,-540 459,-540 465,-546 465,-552 465,-552 465,-564 465,-564 465,-570 459,-576 453,-576"/>
<text text-anchor="middle" x="396.5" y="-554.2" font-family="Helvetica,sans-Serif" font-size="16.00" fill="#e6edf3">Sense / Decide</text>
</g>
<!-- S_1100&#45;&gt;S_1200 -->
<g id="edge11" class="edge">
<title>S_1100&#45;&gt;S_1200</title>
<path fill="none" stroke="#9aa4b2" d="M525.79,-657.16C477.12,-650.1 417.72,-637.87 401.5,-619 393.44,-609.62 391.76,-596.1 392.29,-584.27"/>
<polygon fill="#9aa4b2" stroke="#9aa4b2" points="395.1,-584.24 393,-576.03 389.52,-583.76 395.1,-584.24"/>
<text text-anchor="middle" x="490.5" y="-608.6" font-family="Helvetica,sans-Serif" font-size="13.00" fill="#94a3b8">if Touch_head_press &lt; 300</text>
</g>
<!-- S_1300 -->
<g id="node6" class="node">
<title>S_1300</title>
<path fill="#1a2028" stroke="#9aa4b2" stroke-width="1.2" d="M400,-468C400,-468 287,-468 287,-468 281,-468 275,-462 275,-456 275,-456 275,-444 275,-444 275,-438 281,-432 287,-432 287,-432 400,-432 400,-432 406,-432 412,-438 412,-444 412,-444 412,-456 412,-456 412,-462 406,-468 400,-468"/>
<text text-anchor="middle" x="343.5" y="-446.2" font-family="Helvetica,sans-Serif" font-size="16.00" fill="#e6edf3">Sense / Decide</text>
</g>
<!-- S_1100&#45;&gt;S_1300 -->
<g id="edge10" class="edge">
<title>S_1100&#45;&gt;S_1300</title>
<path fill="none" stroke="#9aa4b2" d="M593.64,-647.91C592.55,-635.6 590.08,-618.8 584.5,-605 578.63,-590.49 573.13,-589.06 564.5,-576 541.59,-541.33 547.96,-521.64 514.5,-497 487.23,-476.92 451.76,-465.6 420.2,-459.23"/>
<polygon fill="#9aa4b2" stroke="#9aa4b2" points="420.65,-456.46 412.27,-457.71 419.6,-461.96 420.65,-456.46"/>
<text text-anchor="middle" x="658" y="-554.6" font-family="Helvetica,sans-Serif" font-size="13.00" fill="#94a3b8">if head = Touch_head_press</text>
</g>
<!-- S_1200&#45;&gt;S_100 -->
<g id="edge14" class="edge">
<title>S_1200&#45;&gt;S_100</title>
<path fill="none" stroke="#9aa4b2" d="M388.69,-576.17C384.24,-588.51 380.61,-605.32 386.5,-619 445.33,-755.57 552.85,-806.13 619.5,-835 679.93,-861.18 860.28,-873.13 966.27,-878.03"/>
<polygon fill="#9aa4b2" stroke="#9aa4b2" points="966.28,-880.83 974.4,-878.39 966.54,-875.24 966.28,-880.83"/>
<text text-anchor="middle" x="465" y="-716.6" font-family="Helvetica,sans-Serif" font-size="13.00" fill="#94a3b8">go</text>
</g>
<!-- S_1200&#45;&gt;S_1300 -->
<g id="edge13" class="edge">
<title>S_1200&#45;&gt;S_1300</title>
<path fill="none" stroke="#9aa4b2" d="M365.51,-539.79C355.28,-532.38 345.09,-522.7 339.5,-511 334.41,-500.34 334.6,-487.38 336.4,-476.24"/>
<polygon fill="#9aa4b2" stroke="#9aa4b2" points="339.19,-476.54 338.02,-468.14 333.7,-475.43 339.19,-476.54"/>
<text text-anchor="middle" x="424.5" y="-500.6" font-family="Helvetica,sans-Serif" font-size="13.00" fill="#94a3b8">if Touch_head_press &lt; 30</text>
</g>
<!-- S_1300&#45;&gt;S_100 -->
<g id="edge16" class="edge">
<title>S_1300&#45;&gt;S_100</title>
<path fill="none" stroke="#9aa4b2" d="M332.93,-468.01C319.33,-492.08 298.66,-537.46 309.5,-576 342.44,-693.07 377.33,-723.03 477.5,-792 518.7,-820.37 532.98,-822.85 581.5,-835 713.79,-868.12 872.84,-877.58 966.47,-880.17"/>
<polygon fill="#9aa4b2" stroke="#9aa4b2" points="966.42,-882.97 974.49,-880.38 966.56,-877.37 966.42,-882.97"/>
<text text-anchor="middle" x="364" y="-662.6" font-family="Helvetica,sans-Serif" font-size="13.00" fill="#94a3b8">go</text>
</g>
<!-- S_1400 -->
<g id="node7" class="node">
<title>S_1400</title>
<path fill="#1a2028" stroke="#9aa4b2" stroke-width="1.2" d="M400,-360C400,-360 287,-360 287,-360 281,-360 275,-354 275,-348 275,-348 275,-336 275,-336 275,-330 281,-324 287,-324 287,-324 400,-324 400,-324 406,-324 412,-330 412,-336 412,-336 412,-348 412,-348 412,-354 406,-360 400,-360"/>
<text text-anchor="middle" x="343.5" y="-338.2" font-family="Helvetica,sans-Serif" font-size="16.00" fill="#e6edf3">Sense / Decide</text>
</g>
<!-- S_1300&#45;&gt;S_1400 -->
<g id="edge15" class="edge">
<title>S_1300&#45;&gt;S_1400</title>
<path fill="none" stroke="#9aa4b2" d="M343.5,-431.97C343.5,-414.84 343.5,-388.22 343.5,-368.56"/>
<polygon fill="#9aa4b2" stroke="#9aa4b2" points="346.3,-368.34 343.5,-360.34 340.7,-368.34 346.3,-368.34"/>
<text text-anchor="middle" x="401.5" y="-392.6" font-family="Helvetica,sans-Serif" font-size="13.00" fill="#94a3b8">if Distance &gt; 200</text>
</g>
<!-- S_1400&#45;&gt;S_100 -->
<g id="edge18" class="edge">
<title>S_1400&#45;&gt;S_100</title>
<path fill="none" stroke="#9aa4b2" d="M279.5,-360.04C237.57,-375.52 190.5,-403.11 190.5,-449 190.5,-775 190.5,-775 190.5,-775 190.5,-852.71 753.32,-874.09 966.22,-879.4"/>
<polygon fill="#9aa4b2" stroke="#9aa4b2" points="966.19,-882.2 974.26,-879.6 966.33,-876.6 966.19,-882.2"/>
<text text-anchor="middle" x="199" y="-608.6" font-family="Helvetica,sans-Serif" font-size="13.00" fill="#94a3b8">go</text>
</g>
<!-- S_1500 -->
<g id="node8" class="node">
<title>S_1500</title>
<path fill="#1a2028" stroke="#9aa4b2" stroke-width="1.2" d="M460,-252C460,-252 347,-252 347,-252 341,-252 335,-246 335,-240 335,-240 335,-228 335,-228 335,-222 341,-216 347,-216 347,-216 460,-216 460,-216 466,-216 472,-222 472,-228 472,-228 472,-240 472,-240 472,-246 466,-252 460,-252"/>
<text text-anchor="middle" x="403.5" y="-230.2" font-family="Helvetica,sans-Serif" font-size="16.00" fill="#e6edf3">Sense / Decide</text>
</g>
<!-- S_1400&#45;&gt;S_1500 -->
<g id="edge17" class="edge">
<title>S_1400&#45;&gt;S_1500</title>
<path fill="none" stroke="#9aa4b2" d="M353.14,-323.97C363.01,-306.53 378.45,-279.26 389.63,-259.51"/>
<polygon fill="#9aa4b2" stroke="#9aa4b2" points="392.18,-260.68 393.68,-252.34 387.31,-257.92 392.18,-260.68"/>
<text text-anchor="middle" x="445.5" y="-284.6" font-family="Helvetica,sans-Serif" font-size="13.00" fill="#94a3b8">if Cdt_npixel &lt; 1000</text>
</g>
<!-- S_1500&#45;&gt;S_100 -->
<g id="edge23" class="edge">
<title>S_1500&#45;&gt;S_100</title>
<path fill="none" stroke="#9aa4b2" d="M463.71,-252.1C483.43,-259.27 504.8,-268.82 522.5,-281 650.32,-368.91 681.09,-404.43 756.5,-540 822.83,-659.24 742.18,-741.45 841.5,-835 859.64,-852.09 916.82,-864.04 966.2,-871.47"/>
<polygon fill="#9aa4b2" stroke="#9aa4b2" points="966.04,-874.28 974.36,-872.67 966.85,-868.74 966.04,-874.28"/>
<text text-anchor="middle" x="781" y="-554.6" font-family="Helvetica,sans-Serif" font-size="13.00" fill="#94a3b8">go</text>
</g>
<!-- S_1510 -->
<g id="node9" class="node">
<title>S_1510</title>
<path fill="#1a2028" stroke="#9aa4b2" stroke-width="1.2" d="M555.5,-144C555.5,-144 463.5,-144 463.5,-144 457.5,-144 451.5,-138 451.5,-132 451.5,-132 451.5,-120 451.5,-120 451.5,-114 457.5,-108 463.5,-108 463.5,-108 555.5,-108 555.5,-108 561.5,-108 567.5,-114 567.5,-120 567.5,-120 567.5,-132 567.5,-132 567.5,-138 561.5,-144 555.5,-144"/>
<text text-anchor="middle" x="509.5" y="-122.2" font-family="Helvetica,sans-Serif" font-size="16.00" fill="#e6edf3">Synchronize</text>
</g>
<!-- S_1500&#45;&gt;S_1510 -->
<g id="edge19" class="edge">
<title>S_1500&#45;&gt;S_1510</title>
<path fill="none" stroke="#9aa4b2" d="M420.53,-215.97C438.35,-198.15 466.44,-170.06 486.29,-150.21"/>
<polygon fill="#9aa4b2" stroke="#9aa4b2" points="488.48,-151.98 492.16,-144.34 484.52,-148.02 488.48,-151.98"/>
<text text-anchor="middle" x="501.5" y="-176.6" font-family="Helvetica,sans-Serif" font-size="13.00" fill="#94a3b8">if cntr &gt; 10</text>
</g>
<!-- S_1530 -->
<g id="node11" class="node">
<title>S_1530</title>
<path fill="#1a2028" stroke="#9aa4b2" stroke-width="1.2" d="M107,-144C107,-144 12,-144 12,-144 6,-144 0,-138 0,-132 0,-132 0,-120 0,-120 0,-114 6,-108 12,-108 12,-108 107,-108 107,-108 113,-108 119,-114 119,-120 119,-120 119,-132 119,-132 119,-138 113,-144 107,-144"/>
<text text-anchor="middle" x="59.5" y="-122.2" font-family="Helvetica,sans-Serif" font-size="16.00" fill="#e6edf3">Idle Thought</text>
</g>
<!-- S_1500&#45;&gt;S_1530 -->
<g id="edge20" class="edge">
<title>S_1500&#45;&gt;S_1530</title>
<path fill="none" stroke="#9aa4b2" d="M346.8,-215.97C318.2,-207.35 282.99,-196.69 251.5,-187 208.03,-173.63 159.09,-158.33 121.51,-146.53"/>
<polygon fill="#9aa4b2" stroke="#9aa4b2" points="122.14,-143.8 113.67,-144.07 120.46,-149.14 122.14,-143.8"/>
<text text-anchor="middle" x="287.5" y="-176.6" font-family="Helvetica,sans-Serif" font-size="13.00" fill="#94a3b8">if rand = 1</text>
</g>
<!-- S_1540 -->
<g id="node12" class="node">
<title>S_1540</title>
<path fill="#1a2028" stroke="#9aa4b2" stroke-width="1.2" d="M375.5,-144C375.5,-144 223.5,-144 223.5,-144 217.5,-144 211.5,-138 211.5,-132 211.5,-132 211.5,-120 211.5,-120 211.5,-114 217.5,-108 223.5,-108 223.5,-108 375.5,-108 375.5,-108 381.5,-108 387.5,-114 387.5,-120 387.5,-120 387.5,-132 387.5,-132 387.5,-138 381.5,-144 375.5,-144"/>
<text text-anchor="middle" x="299.5" y="-122.2" font-family="Helvetica,sans-Serif" font-size="16.00" fill="#e6edf3">Baby Sway Forward</text>
</g>
<!-- S_1500&#45;&gt;S_1540 -->
<g id="edge21" class="edge">
<title>S_1500&#45;&gt;S_1540</title>
<path fill="none" stroke="#9aa4b2" d="M378.75,-216C367.71,-207.85 354.87,-197.57 344.5,-187 333.77,-176.07 323.41,-162.52 315.33,-151.07"/>
<polygon fill="#9aa4b2" stroke="#9aa4b2" points="317.47,-149.24 310.62,-144.25 312.86,-152.42 317.47,-149.24"/>
<text text-anchor="middle" x="380.5" y="-176.6" font-family="Helvetica,sans-Serif" font-size="13.00" fill="#94a3b8">if rand = 2</text>
</g>
<!-- S_1550 -->
<g id="node13" class="node">
<title>S_1550</title>
<path fill="#1a2028" stroke="#9aa4b2" stroke-width="1.2" d="M795,-144C795,-144 630,-144 630,-144 624,-144 618,-138 618,-132 618,-132 618,-120 618,-120 618,-114 624,-108 630,-108 630,-108 795,-108 795,-108 801,-108 807,-114 807,-120 807,-120 807,-132 807,-132 807,-138 801,-144 795,-144"/>
<text text-anchor="middle" x="712.5" y="-122.2" font-family="Helvetica,sans-Serif" font-size="16.00" fill="#e6edf3">Baby Sway Backward</text>
</g>
<!-- S_1500&#45;&gt;S_1550 -->
<g id="edge22" class="edge">
<title>S_1500&#45;&gt;S_1550</title>
<path fill="none" stroke="#9aa4b2" d="M459.11,-215.98C486.18,-207.54 519.13,-197.03 548.5,-187 585.95,-174.21 627.85,-158.87 659.92,-146.9"/>
<polygon fill="#9aa4b2" stroke="#9aa4b2" points="660.93,-149.51 667.44,-144.08 658.97,-144.26 660.93,-149.51"/>
<text text-anchor="middle" x="621.5" y="-176.6" font-family="Helvetica,sans-Serif" font-size="13.00" fill="#94a3b8">if rand = 3</text>
</g>
<!-- S_1520 -->
<g id="node10" class="node">
<title>S_1520</title>
<path fill="#1a2028" stroke="#9aa4b2" stroke-width="1.2" d="M784.5,-36C784.5,-36 594.5,-36 594.5,-36 588.5,-36 582.5,-30 582.5,-24 582.5,-24 582.5,-12 582.5,-12 582.5,-6 588.5,0 594.5,0 594.5,0 784.5,0 784.5,0 790.5,0 796.5,-6 796.5,-12 796.5,-12 796.5,-24 796.5,-24 796.5,-30 790.5,-36 784.5,-36"/>
<text text-anchor="middle" x="689.5" y="-14.2" font-family="Helvetica,sans-Serif" font-size="16.00" fill="#e6edf3">It sleeps until it is set up</text>
</g>
<!-- S_1510&#45;&gt;S_1520 -->
<g id="edge24" class="edge">
<title>S_1510&#45;&gt;S_1520</title>
<path fill="none" stroke="#9aa4b2" d="M538.42,-107.97C569.69,-89.56 619.58,-60.18 653.39,-40.26"/>
<polygon fill="#9aa4b2" stroke="#9aa4b2" points="654.88,-42.64 660.35,-36.16 652.04,-37.81 654.88,-42.64"/>
<text text-anchor="middle" x="671.5" y="-68.6" font-family="Helvetica,sans-Serif" font-size="13.00" fill="#94a3b8">next labeled block</text>
</g>
<!-- S_1520&#45;&gt;S_100 -->
<g id="edge25" class="edge">
<title>S_1520&#45;&gt;S_100</title>
<path fill="none" stroke="#9aa4b2" d="M776.07,-36.07C822.19,-50.75 869.5,-77.4 869.5,-125 869.5,-775 869.5,-775 869.5,-775 869.5,-823.77 919.58,-850.65 966.46,-865.13"/>
<polygon fill="#9aa4b2" stroke="#9aa4b2" points="965.79,-867.85 974.25,-867.43 967.37,-862.48 965.79,-867.85"/>
<text text-anchor="middle" x="952" y="-446.6" font-family="Helvetica,sans-Serif" font-size="13.00" fill="#94a3b8">if Touch_head_time &gt; 80</text>
</g>
<!-- S_1520&#45;&gt;S_1520 -->
<g id="edge26" class="edge">
<title>S_1520&#45;&gt;S_1520</title>
<path fill="none" stroke="#9aa4b2" d="M796.76,-27.67C817.66,-26.55 832.5,-23.33 832.5,-18 832.5,-13.38 821.34,-10.34 804.75,-8.88"/>
<polygon fill="#9aa4b2" stroke="#9aa4b2" points="804.94,-6.09 796.76,-8.33 804.55,-11.68 804.94,-6.09"/>
<text text-anchor="middle" x="841" y="-14.6" font-family="Helvetica,sans-Serif" font-size="13.00" fill="#94a3b8">go</text>
</g>
<!-- S_1530&#45;&gt;S_100 -->
<g id="edge27" class="edge">
<title>S_1530&#45;&gt;S_100</title>
<path fill="none" stroke="#9aa4b2" d="M55.03,-144.12C50,-164.97 42.5,-201.32 42.5,-233 42.5,-775 42.5,-775 42.5,-775 42.5,-867.67 727.74,-879.57 966.01,-880.91"/>
<polygon fill="#9aa4b2" stroke="#9aa4b2" points="966.28,-883.71 974.29,-880.95 966.31,-878.11 966.28,-883.71"/>
<text text-anchor="middle" x="51" y="-500.6" font-family="Helvetica,sans-Serif" font-size="13.00" fill="#94a3b8">go</text>
</g>
<!-- S_1540&#45;&gt;S_100 -->
<g id="edge28" class="edge">
<title>S_1540&#45;&gt;S_100</title>
<path fill="none" stroke="#9aa4b2" d="M211.48,-143.65C164.6,-158.17 116.5,-184.81 116.5,-233 116.5,-775 116.5,-775 116.5,-775 116.5,-860.18 740.28,-876.93 966.11,-880.21"/>
<polygon fill="#9aa4b2" stroke="#9aa4b2" points="966.26,-883.01 974.3,-880.33 966.34,-877.41 966.26,-883.01"/>
<text text-anchor="middle" x="125" y="-500.6" font-family="Helvetica,sans-Serif" font-size="13.00" fill="#94a3b8">go</text>
</g>
<!-- S_1550&#45;&gt;S_100 -->
<g id="edge29" class="edge">
<title>S_1550&#45;&gt;S_100</title>
<path fill="none" stroke="#9aa4b2" d="M807.15,-134.81C918.82,-146.7 1089.5,-174.44 1089.5,-233 1089.5,-397 1089.5,-397 1089.5,-397 1089.5,-515.07 1022.11,-531.57 1002.5,-648 999.84,-663.78 1001.76,-668.02 1002.5,-684 1005.61,-751.33 994.33,-771.35 1016.5,-835 1019.13,-842.54 1023.24,-850.07 1027.59,-856.78"/>
<polygon fill="#9aa4b2" stroke="#9aa4b2" points="1025.52,-858.7 1032.35,-863.72 1030.13,-855.53 1025.52,-858.7"/>
<text text-anchor="middle" x="1076" y="-500.6" font-family="Helvetica,sans-Serif" font-size="13.00" fill="#94a3b8">go</text>
</g>
<!-- S_2000&#45;&gt;S_100 -->
<g id="edge30" class="edge">
<title>S_2000&#45;&gt;S_100</title>
<path fill="none" stroke="#9aa4b2" d="M1093.79,-784.83C1072.53,-791.46 1051.35,-802.53 1038.5,-821 1031.43,-831.16 1032.56,-844.68 1035.84,-856.31"/>
<polygon fill="#9aa4b2" stroke="#9aa4b2" points="1033.21,-857.28 1038.38,-864 1038.53,-855.52 1033.21,-857.28"/>
<text text-anchor="middle" x="1106.5" y="-824.6" font-family="Helvetica,sans-Serif" font-size="13.00" fill="#94a3b8">if Cdt_npixel &lt; 1000</text>
</g>
<!-- S_2100 -->
<g id="node15" class="node">
<title>S_2100</title>
<path fill="#1a2028" stroke="#9aa4b2" stroke-width="1.2" d="M1094,-684C1094,-684 1033,-684 1033,-684 1027,-684 1021,-678 1021,-672 1021,-672 1021,-660 1021,-660 1021,-654 1027,-648 1033,-648 1033,-648 1094,-648 1094,-648 1100,-648 1106,-654 1106,-660 1106,-660 1106,-672 1106,-672 1106,-678 1100,-684 1094,-684"/>
<text text-anchor="middle" x="1063.5" y="-662.2" font-family="Helvetica,sans-Serif" font-size="16.00" fill="#e6edf3">Left Kick</text>
</g>
<!-- S_2000&#45;&gt;S_2100 -->
<g id="edge31" class="edge">
<title>S_2000&#45;&gt;S_2100</title>
<path fill="none" stroke="#9aa4b2" d="M1113.39,-755.86C1099.63,-748.87 1085.88,-739.43 1076.5,-727 1069.01,-717.07 1065.65,-703.73 1064.2,-692.15"/>
<polygon fill="#9aa4b2" stroke="#9aa4b2" points="1066.98,-691.81 1063.46,-684.1 1061.41,-692.32 1066.98,-691.81"/>
<text text-anchor="middle" x="1130.5" y="-716.6" font-family="Helvetica,sans-Serif" font-size="13.00" fill="#94a3b8">if Head_pan &gt; 0</text>
</g>
<!-- S_2200 -->
<g id="node16" class="node">
<title>S_2200</title>
<path fill="#1a2028" stroke="#9aa4b2" stroke-width="1.2" d="M1363.5,-684C1363.5,-684 1289.5,-684 1289.5,-684 1283.5,-684 1277.5,-678 1277.5,-672 1277.5,-672 1277.5,-660 1277.5,-660 1277.5,-654 1283.5,-648 1289.5,-648 1289.5,-648 1363.5,-648 1363.5,-648 1369.5,-648 1375.5,-654 1375.5,-660 1375.5,-660 1375.5,-672 1375.5,-672 1375.5,-678 1369.5,-684 1363.5,-684"/>
<text text-anchor="middle" x="1326.5" y="-662.2" font-family="Helvetica,sans-Serif" font-size="16.00" fill="#e6edf3">Right Kick</text>
</g>
<!-- S_2000&#45;&gt;S_2200 -->
<g id="edge32" class="edge">
<title>S_2000&#45;&gt;S_2200</title>
<path fill="none" stroke="#9aa4b2" d="M1177.53,-755.86C1189.55,-742.88 1207.35,-725.26 1225.5,-713 1240.04,-703.17 1257.03,-694.52 1272.87,-687.44"/>
<polygon fill="#9aa4b2" stroke="#9aa4b2" points="1274.33,-689.86 1280.54,-684.09 1272.09,-684.73 1274.33,-689.86"/>
<text text-anchor="middle" x="1289" y="-716.6" font-family="Helvetica,sans-Serif" font-size="13.00" fill="#94a3b8">else Head_pan &gt; 0</text>
</g>
<!-- S_2100&#45;&gt;S_100 -->
<g id="edge33" class="edge">
<title>S_2100&#45;&gt;S_100</title>
<path fill="none" stroke="#9aa4b2" d="M1057.77,-684.3C1048.75,-712.52 1031.65,-770.43 1025.5,-821 1024.75,-827.18 1024.18,-828.92 1025.5,-835 1027.06,-842.15 1029.83,-849.53 1032.85,-856.22"/>
<polygon fill="#9aa4b2" stroke="#9aa4b2" points="1030.47,-857.72 1036.47,-863.7 1035.51,-855.28 1030.47,-857.72"/>
<text text-anchor="middle" x="1046" y="-770.6" font-family="Helvetica,sans-Serif" font-size="13.00" fill="#94a3b8">go</text>
</g>
<!-- S_2200&#45;&gt;S_100 -->
<g id="edge34" class="edge">
<title>S_2200&#45;&gt;S_100</title>
<path fill="none" stroke="#9aa4b2" d="M1344.43,-684.26C1354.45,-696.07 1363.77,-712.21 1357.5,-727 1350.26,-744.07 1340.03,-742.33 1327.5,-756 1296.98,-789.32 1302.04,-811.4 1263.5,-835 1222.54,-860.08 1169.99,-871.64 1126.86,-876.9"/>
<polygon fill="#9aa4b2" stroke="#9aa4b2" points="1126.27,-874.15 1118.65,-877.84 1126.91,-879.71 1126.27,-874.15"/>
<text text-anchor="middle" x="1336" y="-770.6" font-family="Helvetica,sans-Serif" font-size="13.00" fill="#94a3b8">go</text>
</g>
<!-- S_3000&#45;&gt;S_100 -->
<g id="edge36" class="edge">
<title>S_3000&#45;&gt;S_100</title>
<path fill="none" stroke="#9aa4b2" d="M1409.44,-792C1390.39,-805.81 1361.57,-824.62 1333.5,-835 1266.37,-859.82 1185.53,-871.26 1126.78,-876.52"/>
<polygon fill="#9aa4b2" stroke="#9aa4b2" points="1126.37,-873.75 1118.64,-877.23 1126.85,-879.33 1126.37,-873.75"/>
<text text-anchor="middle" x="1371" y="-824.6" font-family="Helvetica,sans-Serif" font-size="13.00" fill="#94a3b8">go</text>
</g>
<!-- S_3100 -->
<g id="node18" class="node">
<title>S_3100</title>
<path fill="#1a2028" stroke="#9aa4b2" stroke-width="1.2" d="M1544.5,-684C1544.5,-684 1452.5,-684 1452.5,-684 1446.5,-684 1440.5,-678 1440.5,-672 1440.5,-672 1440.5,-660 1440.5,-660 1440.5,-654 1446.5,-648 1452.5,-648 1452.5,-648 1544.5,-648 1544.5,-648 1550.5,-648 1556.5,-654 1556.5,-660 1556.5,-660 1556.5,-672 1556.5,-672 1556.5,-678 1550.5,-684 1544.5,-684"/>
<text text-anchor="middle" x="1498.5" y="-662.2" font-family="Helvetica,sans-Serif" font-size="16.00" fill="#e6edf3">Synchronize</text>
</g>
<!-- S_3000&#45;&gt;S_3100 -->
<g id="edge35" class="edge">
<title>S_3000&#45;&gt;S_3100</title>
<path fill="none" stroke="#9aa4b2" d="M1442.26,-755.97C1453.33,-738.46 1470.67,-711.02 1483.17,-691.25"/>
<polygon fill="#9aa4b2" stroke="#9aa4b2" points="1485.63,-692.6 1487.54,-684.34 1480.9,-689.61 1485.63,-692.6"/>
<text text-anchor="middle" x="1505" y="-716.6" font-family="Helvetica,sans-Serif" font-size="13.00" fill="#94a3b8">if cntb &gt; 3</text>
</g>
<!-- S_3100&#45;&gt;S_100 -->
<g id="edge37" class="edge">
<title>S_3100&#45;&gt;S_100</title>
<path fill="none" stroke="#9aa4b2" d="M1525.49,-684.19C1534.92,-691.77 1544.41,-701.56 1549.5,-713 1573.97,-768.03 1541.64,-803.18 1490.5,-835 1431.61,-871.65 1237.96,-879.54 1126.82,-880.97"/>
<polygon fill="#9aa4b2" stroke="#9aa4b2" points="1126.6,-878.17 1118.64,-881.06 1126.67,-883.77 1126.6,-878.17"/>
<text text-anchor="middle" x="1566" y="-770.6" font-family="Helvetica,sans-Serif" font-size="13.00" fill="#94a3b8">go</text>
</g>
<!-- S_4000&#45;&gt;S_100 -->
<g id="edge38" class="edge">
<title>S_4000&#45;&gt;S_100</title>
<path fill="none" stroke="#9aa4b2" d="M1649.71,-792.13C1616.3,-808.93 1568.86,-832.41 1559.5,-835 1480.31,-856.92 1250.44,-871.07 1127.04,-877.32"/>
<polygon fill="#9aa4b2" stroke="#9aa4b2" points="1126.56,-874.54 1118.71,-877.73 1126.84,-880.13 1126.56,-874.54"/>
<text text-anchor="middle" x="1599" y="-824.6" font-family="Helvetica,sans-Serif" font-size="13.00" fill="#94a3b8">go</text>
</g>
<!-- S_5000&#45;&gt;S_100 -->
<g id="edge39" class="edge">
<title>S_5000&#45;&gt;S_100</title>
<path fill="none" stroke="#9aa4b2" d="M1812.23,-792.09C1791.43,-806.35 1759.53,-825.77 1728.5,-835 1617.94,-867.9 1282.03,-877.36 1126.76,-880.01"/>
<polygon fill="#9aa4b2" stroke="#9aa4b2" points="1126.56,-877.21 1118.61,-880.14 1126.65,-882.81 1126.56,-877.21"/>
<text text-anchor="middle" x="1772" y="-824.6" font-family="Helvetica,sans-Serif" font-size="13.00" fill="#94a3b8">go</text>
</g>
<!-- S_9000&#45;&gt;S_100 -->
<g id="edge40" class="edge">
<title>S_9000&#45;&gt;S_100</title>
<path fill="none" stroke="#9aa4b2" d="M2003.81,-792.14C1976.55,-806.43 1935.15,-825.87 1896.5,-835 1751.84,-869.19 1309.7,-878.05 1126.9,-880.28"/>
<polygon fill="#9aa4b2" stroke="#9aa4b2" points="1126.62,-877.48 1118.65,-880.38 1126.69,-883.08 1126.62,-877.48"/>
<text text-anchor="middle" x="1993.5" y="-824.6" font-family="Helvetica,sans-Serif" font-size="13.00" fill="#94a3b8">resume monitor</text>
</g>
</g>
</svg>
