<?xml version="1.0" encoding="UTF-8" standalone="no"?>
<!DOCTYPE svg PUBLIC "-//W3C//DTD SVG 1.1//EN"
 "http://www.w3.org/Graphics/SVG/1.1/DTD/svg11.dtd">
<!-- Generated by graphviz version 2.42.4 (0)
 -->
<!-- Title: G Pages: 1 -->
<svg width="1269pt" height="520pt"
 viewBox="0.00 0.00 1268.50 520.00" xmlns="http://www.w3.org/2000/svg" xmlns:xlink="http://www.w3.org/1999/xlink">
<g id="graph0" class="graph" transform="scale(1 1) rotate(0) translate(18 502)">
<title>G</title>
<polygon fill="#101418" stroke="transparent" points="-18,18 -18,-502 1250.5,-502 1250.5,18 -18,18"/>
<!-- S_INIT -->
<g id="node1" class="node">
<title>S_INIT</title>
<path fill="#1a2028" stroke="#9aa4b2" stroke-width="1.2" d="M1004,-484C1004,-484 881,-484 881,-484 875,-484 869,-478 869,-472 869,-472 869,-460 869,-460 869,-454 875,-448 881,-448 881,-448 1004,-448 1004,-448 1010,-448 1016,-454 1016,-460 1016,-460 1016,-472 1016,-472 1016,-478 1010,-484 1004,-484"/>
<text text-anchor="middle" x="942.5" y="-462.2" font-family="Helvetica,sans-Serif" font-size="16.00" fill="#e6edf3">Boot / Safe Pose</text>
</g>
<!-- S_100 -->
<g id="node2" class="node">
<title>S_100</title>
<path fill="#1a2028" stroke="#9aa4b2" stroke-width="1.2" d="M1002.5,-376C1002.5,-376 882.5,-376 882.5,-376 876.5,-376 870.5,-370 870.5,-364 870.5,-364 870.5,-352 870.5,-352 870.5,-346 876.5,-340 882.5,-340 882.5,-340 1002.5,-340 1002.5,-340 1008.5,-340 1014.5,-346 1014.5,-352 1014.5,-352 1014.5,-364 1014.5,-364 1014.5,-370 1008.5,-376 1002.5,-376"/>
<text text-anchor="middle" x="942.5" y="-354.2" font-family="Helvetica,sans-Serif" font-size="16.00" fill="#e6edf3">Sense Fall State</text>
</g>
<!-- S_INIT&#45;&gt;S_100 -->
<g id="edge4" class="edge">
<title>S_INIT&#45;&gt;S_100</title>
<path fill="none" stroke="#9aa4b2" d="M942.5,-447.97C942.5,-430.84 942.5,-404.22 942.5,-384.56"/>
<polygon fill="#9aa4b2" stroke="#9aa4b2" points="945.3,-384.34 942.5,-376.34 939.7,-384.34 945.3,-384.34"/>
<text text-anchor="middle" x="960" y="-408.6" font-family="Helvetica,sans-Serif" font-size="13.00" fill="#94a3b8">entry</text>
</g>
<!-- S_1000 -->
<g id="node3" class="node">
<title>S_1000</title>
<path fill="#1a2028" stroke="#9aa4b2" stroke-width="1.2" d="M772,-144C772,-144 685,-144 685,-144 679,-144 673,-138 673,-132 673,-132 673,-120 673,-120 673,-114 679,-108 685,-108 685,-108 772,-108 772,-108 778,-108 784,-114 784,-120 784,-120 784,-132 784,-132 784,-138 778,-144 772,-144"/>
<text text-anchor="middle" x="728.5" y="-122.2" font-family="Helvetica,sans-Serif" font-size="16.00" fill="#e6edf3">Action Loop</text>
</g>
<!-- S_100&#45;&gt;S_1000 -->
<g id="edge5" class="edge">
<title>S_100&#45;&gt;S_1000</title>
<path fill="none" stroke="#9aa4b2" d="M926.42,-339.71C888.44,-298.9 793.21,-196.55 750.19,-150.31"/>
<polygon fill="#9aa4b2" stroke="#9aa4b2" points="751.98,-148.12 744.48,-144.17 747.88,-151.94 751.98,-148.12"/>
<text text-anchor="middle" x="897" y="-238.6" font-family="Helvetica,sans-Serif" font-size="13.00" fill="#94a3b8">if mode = 0</text>
</g>
<!-- S_2000 -->
<g id="node4" class="node">
<title>S_2000</title>
<path fill="#1a2028" stroke="#9aa4b2" stroke-width="1.2" d="M377.5,-260C377.5,-260 341.5,-260 341.5,-260 335.5,-260 329.5,-254 329.5,-248 329.5,-248 329.5,-236 329.5,-236 329.5,-230 335.5,-224 341.5,-224 341.5,-224 377.5,-224 377.5,-224 383.5,-224 389.5,-230 389.5,-236 389.5,-236 389.5,-248 389.5,-248 389.5,-254 383.5,-260 377.5,-260"/>
<text text-anchor="middle" x="359.5" y="-238.2" font-family="Helvetica,sans-Serif" font-size="16.00" fill="#e6edf3">Mode</text>
</g>
<!-- S_100&#45;&gt;S_2000 -->
<g id="edge6" class="edge">
<title>S_100&#45;&gt;S_2000</title>
<path fill="none" stroke="#9aa4b2" d="M870.49,-353.42C791.22,-348.35 660.43,-336.67 550.5,-311 495.94,-298.26 435.38,-275.07 397.38,-259.36"/>
<polygon fill="#9aa4b2" stroke="#9aa4b2" points="398.09,-256.62 389.63,-256.12 395.93,-261.78 398.09,-256.62"/>
<text text-anchor="middle" x="590" y="-300.6" font-family="Helvetica,sans-Serif" font-size="13.00" fill="#94a3b8">if mode = 1</text>
</g>
<!-- S_100_CHECK -->
<g id="node10" class="node">
<title>S_100_CHECK</title>
<path fill="#1a2028" stroke="#9aa4b2" stroke-width="1.2" d="M1003.81,-262.55C1003.81,-262.55 974.19,-247.45 974.19,-247.45 968.85,-244.73 968.85,-239.27 974.19,-236.55 974.19,-236.55 1003.81,-221.45 1003.81,-221.45 1009.15,-218.73 1019.85,-218.73 1025.19,-221.45 1025.19,-221.45 1054.81,-236.55 1054.81,-236.55 1060.15,-239.27 1060.15,-244.73 1054.81,-247.45 1054.81,-247.45 1025.19,-262.55 1025.19,-262.55 1019.85,-265.27 1009.15,-265.27 1003.81,-262.55"/>
<text text-anchor="middle" x="1014.5" y="-238.2" font-family="Helvetica,sans-Serif" font-size="16.00" fill="#e6edf3">Fall?</text>
</g>
<!-- S_100&#45;&gt;S_100_CHECK -->
<g id="edge1" class="edge">
<title>S_100&#45;&gt;S_100_CHECK</title>
<path fill="none" stroke="#9aa4b2" d="M965.11,-339.93C974.35,-331.99 984.49,-321.89 991.5,-311 998.8,-299.65 1004.04,-285.74 1007.66,-273.46"/>
<polygon fill="#9aa4b2" stroke="#9aa4b2" points="1010.38,-274.12 1009.8,-265.67 1004.98,-272.64 1010.38,-274.12"/>
</g>
<!-- S_1000&#45;&gt;S_100 -->
<g id="edge7" class="edge">
<title>S_1000&#45;&gt;S_100</title>
<path fill="none" stroke="#9aa4b2" d="M714.62,-144.18C693.62,-172.39 658.97,-229.28 686.5,-268 726.02,-323.58 802.84,-344.75 862.07,-352.66"/>
<polygon fill="#9aa4b2" stroke="#9aa4b2" points="862.02,-355.48 870.3,-353.69 862.71,-349.92 862.02,-355.48"/>
<text text-anchor="middle" x="746" y="-238.6" font-family="Helvetica,sans-Serif" font-size="13.00" fill="#94a3b8">if Cdt_npixel &lt; 32</text>
</g>
<!-- S_2000&#45;&gt;S_1000 -->
<g id="edge8" class="edge">
<title>S_2000&#45;&gt;S_1000</title>
<path fill="none" stroke="#9aa4b2" d="M389.68,-226.44C426.54,-208.82 486.89,-180.59 510.5,-173 572.65,-153.03 590.68,-157.75 654.5,-144 657.83,-143.28 661.25,-142.53 664.7,-141.77"/>
<polygon fill="#9aa4b2" stroke="#9aa4b2" points="665.58,-144.45 672.78,-139.97 664.36,-138.98 665.58,-144.45"/>
<text text-anchor="middle" x="570" y="-176.6" font-family="Helvetica,sans-Serif" font-size="13.00" fill="#94a3b8">if Cdt_npixel &lt; 32</text>
</g>
<!-- S_2210 -->
<g id="node5" class="node">
<title>S_2210</title>
<path fill="#1a2028" stroke="#9aa4b2" stroke-width="1.2" d="M73,-144C73,-144 12,-144 12,-144 6,-144 0,-138 0,-132 0,-132 0,-120 0,-120 0,-114 6,-108 12,-108 12,-108 73,-108 73,-108 79,-108 85,-114 85,-120 85,-120 85,-132 85,-132 85,-138 79,-144 73,-144"/>
<text text-anchor="middle" x="42.5" y="-122.2" font-family="Helvetica,sans-Serif" font-size="16.00" fill="#e6edf3">Left Kick</text>
</g>
<!-- S_2000&#45;&gt;S_2210 -->
<g id="edge10" class="edge">
<title>S_2000&#45;&gt;S_2210</title>
<path fill="none" stroke="#9aa4b2" d="M329.16,-237.98C266.18,-231.26 123.77,-213.51 83.5,-187 70.38,-178.36 60.32,-163.92 53.45,-151.38"/>
<polygon fill="#9aa4b2" stroke="#9aa4b2" points="55.93,-150.09 49.77,-144.27 50.96,-152.66 55.93,-150.09"/>
<text text-anchor="middle" x="137.5" y="-176.6" font-family="Helvetica,sans-Serif" font-size="13.00" fill="#94a3b8">if Head_pan &gt; 0</text>
</g>
<!-- S_2220 -->
<g id="node6" class="node">
<title>S_2220</title>
<path fill="#1a2028" stroke="#9aa4b2" stroke-width="1.2" d="M207.5,-144C207.5,-144 133.5,-144 133.5,-144 127.5,-144 121.5,-138 121.5,-132 121.5,-132 121.5,-120 121.5,-120 121.5,-114 127.5,-108 133.5,-108 133.5,-108 207.5,-108 207.5,-108 213.5,-108 219.5,-114 219.5,-120 219.5,-120 219.5,-132 219.5,-132 219.5,-138 213.5,-144 207.5,-144"/>
<text text-anchor="middle" x="170.5" y="-122.2" font-family="Helvetica,sans-Serif" font-size="16.00" fill="#e6edf3">Right Kick</text>
</g>
<!-- S_2000&#45;&gt;S_2220 -->
<g id="edge11" class="edge">
<title>S_2000&#45;&gt;S_2220</title>
<path fill="none" stroke="#9aa4b2" d="M329.25,-235.12C298.06,-227.9 249.22,-213.24 214.5,-187 201.84,-177.43 191.19,-163.22 183.55,-151.03"/>
<polygon fill="#9aa4b2" stroke="#9aa4b2" points="185.92,-149.55 179.4,-144.14 181.13,-152.44 185.92,-149.55"/>
<text text-anchor="middle" x="278" y="-176.6" font-family="Helvetica,sans-Serif" font-size="13.00" fill="#94a3b8">else Head_pan &gt; 0</text>
</g>
<!-- S_2300 -->
<g id="node7" class="node">
<title>S_2300</title>
<path fill="#1a2028" stroke="#9aa4b2" stroke-width="1.2" d="M625,-144C625,-144 268,-144 268,-144 262,-144 256,-138 256,-132 256,-132 256,-120 256,-120 256,-114 262,-108 268,-108 268,-108 625,-108 625,-108 631,-108 637,-114 637,-120 637,-120 637,-132 637,-132 637,-138 631,-144 625,-144"/>
<text text-anchor="middle" x="446.5" y="-122.2" font-family="Helvetica,sans-Serif" font-size="16.00" fill="#e6edf3">It approaches a ball by the angle of the head</text>
</g>
<!-- S_2000&#45;&gt;S_2300 -->
<g id="edge9" class="edge">
<title>S_2000&#45;&gt;S_2300</title>
<path fill="none" stroke="#9aa4b2" d="M353.31,-223.74C349.22,-209.14 346.15,-188.21 355.5,-173 361.89,-162.61 371.43,-154.48 381.97,-148.15"/>
<polygon fill="#9aa4b2" stroke="#9aa4b2" points="383.38,-150.57 389.01,-144.24 380.66,-145.67 383.38,-150.57"/>
<text text-anchor="middle" x="412.5" y="-176.6" font-family="Helvetica,sans-Serif" font-size="13.00" fill="#94a3b8">if Head_tilt &gt; &#45;58</text>
</g>
<!-- S_2900 -->
<g id="node8" class="node">
<title>S_2900</title>
<path fill="#1a2028" stroke="#9aa4b2" stroke-width="1.2" d="M388.5,-36C388.5,-36 296.5,-36 296.5,-36 290.5,-36 284.5,-30 284.5,-24 284.5,-24 284.5,-12 284.5,-12 284.5,-6 290.5,0 296.5,0 296.5,0 388.5,0 388.5,0 394.5,0 400.5,-6 400.5,-12 400.5,-12 400.5,-24 400.5,-24 400.5,-30 394.5,-36 388.5,-36"/>
<text text-anchor="middle" x="342.5" y="-14.2" font-family="Helvetica,sans-Serif" font-size="16.00" fill="#e6edf3">Synchronize</text>
</g>
<!-- S_2210&#45;&gt;S_2900 -->
<g id="edge12" class="edge">
<title>S_2210&#45;&gt;S_2900</title>
<path fill="none" stroke="#9aa4b2" d="M85.16,-109.93C138.03,-91.24 228.26,-59.36 286.61,-38.75"/>
<polygon fill="#9aa4b2" stroke="#9aa4b2" points="287.66,-41.35 294.27,-36.04 285.8,-36.07 287.66,-41.35"/>
<text text-anchor="middle" x="219" y="-68.6" font-family="Helvetica,sans-Serif" font-size="13.00" fill="#94a3b8">go</text>
</g>
<!-- S_2220&#45;&gt;S_2900 -->
<g id="edge13" class="edge">
<title>S_2220&#45;&gt;S_2900</title>
<path fill="none" stroke="#9aa4b2" d="M198.13,-107.97C227.89,-89.63 275.28,-60.42 307.59,-40.51"/>
<polygon fill="#9aa4b2" stroke="#9aa4b2" points="309.31,-42.75 314.65,-36.16 306.37,-37.98 309.31,-42.75"/>
<text text-anchor="middle" x="276" y="-68.6" font-family="Helvetica,sans-Serif" font-size="13.00" fill="#94a3b8">go</text>
</g>
<!-- S_2300&#45;&gt;S_2900 -->
<g id="edge14" class="edge">
<title>S_2300&#45;&gt;S_2900</title>
<path fill="none" stroke="#9aa4b2" d="M429.79,-107.97C412.31,-90.15 384.74,-62.06 365.28,-42.21"/>
<polygon fill="#9aa4b2" stroke="#9aa4b2" points="367.11,-40.09 359.51,-36.34 363.12,-44.01 367.11,-40.09"/>
<text text-anchor="middle" x="462.5" y="-68.6" font-family="Helvetica,sans-Serif" font-size="13.00" fill="#94a3b8">next labeled block</text>
</g>
<!-- S_2900&#45;&gt;S_100 -->
<g id="edge15" class="edge">
<title>S_2900&#45;&gt;S_100</title>
<path fill="none" stroke="#9aa4b2" d="M400.61,-19.1C564.12,-20.36 1024.51,-30.84 1150.5,-108 1152.95,-109.5 1265.68,-207.53 1221.5,-268 1176.41,-329.71 1088.08,-349.64 1022.83,-355.57"/>
<polygon fill="#9aa4b2" stroke="#9aa4b2" points="1022.33,-352.8 1014.59,-356.26 1022.79,-358.38 1022.33,-352.8"/>
<text text-anchor="middle" x="1224" y="-176.6" font-family="Helvetica,sans-Serif" font-size="13.00" fill="#94a3b8">go</text>
</g>
<!-- S_9000 -->
<g id="node9" class="node">
<title>S_9000</title>
<path fill="#1a2028" stroke="#9aa4b2" stroke-width="1.2" d="M1120.5,-144C1120.5,-144 1062.5,-144 1062.5,-144 1056.5,-144 1050.5,-138 1050.5,-132 1050.5,-132 1050.5,-120 1050.5,-120 1050.5,-114 1056.5,-108 1062.5,-108 1062.5,-108 1120.5,-108 1120.5,-108 1126.5,-108 1132.5,-114 1132.5,-120 1132.5,-120 1132.5,-132 1132.5,-132 1132.5,-138 1126.5,-144 1120.5,-144"/>
<text text-anchor="middle" x="1091.5" y="-122.2" font-family="Helvetica,sans-Serif" font-size="16.00" fill="#e6edf3">Recover</text>
</g>
<!-- S_9000&#45;&gt;S_100 -->
<g id="edge16" class="edge">
<title>S_9000&#45;&gt;S_100</title>
<path fill="none" stroke="#9aa4b2" d="M1098.05,-144.2C1100.96,-152.72 1104.05,-163.26 1105.5,-173 1111.88,-215.87 1108.22,-232.4 1083.5,-268 1061.88,-299.12 1025.5,-321.69 995.11,-336.31"/>
<polygon fill="#9aa4b2" stroke="#9aa4b2" points="993.59,-333.93 987.53,-339.86 995.96,-339 993.59,-333.93"/>
<text text-anchor="middle" x="1159.5" y="-238.6" font-family="Helvetica,sans-Serif" font-size="13.00" fill="#94a3b8">resume monitor</text>
</g>
<!-- S_100_CHECK&#45;&gt;S_100 -->
<g id="edge3" class="edge">
<title>S_100_CHECK&#45;&gt;S_100</title>
<path fill="none" stroke="#9aa4b2" d="M986.1,-253.83C967.75,-262.48 945.35,-276.58 934.5,-297 928.86,-307.6 929.85,-320.69 932.68,-331.94"/>
<polygon fill="#9aa4b2" stroke="#9aa4b2" points="930.03,-332.87 934.99,-339.74 935.4,-331.28 930.03,-332.87"/>
<text text-anchor="middle" x="958.5" y="-300.6" font-family="Helvetica,sans-Serif" font-size="13.00" fill="#94a3b8">upright</text>
</g>
<!-- S_100_CHECK&#45;&gt;S_9000 -->
<g id="edge2" class="edge">
<title>S_100_CHECK&#45;&gt;S_9000</title>
<path fill="none" stroke="#9aa4b2" d="M1027.21,-222.18C1040.34,-202.74 1060.86,-172.36 1075.18,-151.16"/>
<polygon fill="#9aa4b2" stroke="#9aa4b2" points="1077.62,-152.55 1079.78,-144.36 1072.98,-149.42 1077.62,-152.55"/>
<text text-anchor="middle" x="1078" y="-176.6" font-family="Helvetica,sans-Serif" font-size="13.00" fill="#94a3b8">fallen</text>
</g>
</g>
</svg>
