<?xml version="1.0" encoding="UTF-8" standalone="no"?>
<!DOCTYPE svg PUBLIC "-//W3C//DTD SVG 1.1//EN"
 "http://www.w3.org/Graphics/SVG/1.1/DTD/svg11.dtd">
<!-- Generated by graphviz version 2.42.4 (0)
 -->
<!-- Title: G Pages: 1 -->
<svg width="789pt" height="181pt"
 viewBox="0.00 0.00 789.00 180.77" xmlns="http://www.w3.org/2000/svg" xmlns:xlink="http://www.w3.org/1999/xlink">
<g id="graph0" class="graph" transform="scale(1 1) rotate(0) translate(18 162.77)">
<title>G</title>
<polygon fill="#101418" stroke="transparent" points="-18,18 -18,-162.77 771,-162.77 771,18 -18,18"/>
<!-- S_INIT -->
<g id="node1" class="node">
<title>S_INIT</title>
<path fill="#1a2028" stroke="#9aa4b2" stroke-width="1.2" d="M516.5,-144.77C516.5,-144.77 393.5,-144.77 393.5,-144.77 387.5,-144.77 381.5,-138.77 381.5,-132.77 381.5,-132.77 381.5,-120.77 381.5,-120.77 381.5,-114.77 387.5,-108.77 393.5,-108.77 393.5,-108.77 516.5,-108.77 516.5,-108.77 522.5,-108.77 528.5,-114.77 528.5,-120.77 528.5,-120.77 528.5,-132.77 528.5,-132.77 528.5,-138.77 522.5,-144.77 516.5,-144.77"/>
<text text-anchor="middle" x="455" y="-122.97" font-family="Helvetica,sans-Serif" font-size="16.00" fill="#e6edf3">Boot / Safe Pose</text>
</g>
<!-- S_9000 -->
<g id="node2" class="node">
<title>S_9000</title>
<path fill="#1a2028" stroke="#9aa4b2" stroke-width="1.2" d="M70,-36.38C70,-36.38 12,-36.38 12,-36.38 6,-36.38 0,-30.38 0,-24.38 0,-24.38 0,-12.38 0,-12.38 0,-6.38 6,-0.38 12,-0.38 12,-0.38 70,-0.38 70,-0.38 76,-0.38 82,-6.38 82,-12.38 82,-12.38 82,-24.38 82,-24.38 82,-30.38 76,-36.38 70,-36.38"/>
<text text-anchor="middle" x="41" y="-14.58" font-family="Helvetica,sans-Serif" font-size="16.00" fill="#e6edf3">Recover</text>
</g>
<!-- S_INIT&#45;&gt;S_9000 -->
<g id="edge1" class="edge">
<title>S_INIT&#45;&gt;S_9000</title>
<path fill="none" stroke="#9aa4b2" d="M381.44,-121.52C293.31,-115.5 151.59,-102.6 104,-79.77 86.27,-71.27 70.33,-55.87 58.92,-42.75"/>
<polygon fill="#9aa4b2" stroke="#9aa4b2" points="60.98,-40.85 53.69,-36.53 56.7,-44.46 60.98,-40.85"/>
<text text-anchor="middle" x="179" y="-69.37" font-family="Helvetica,sans-Serif" font-size="13.00" fill="#94a3b8">on Gsensor_status &amp; 1</text>
</g>
<!-- S_BREAK -->
<g id="node3" class="node">
<title>S_BREAK</title>
<ellipse fill="none" stroke="#9aa4b2" stroke-width="1.2" cx="249" cy="-18.38" rx="62.87" ry="18.27"/>
<text text-anchor="middle" x="249" y="-14.58" font-family="Helvetica,sans-Serif" font-size="16.00" fill="#e6edf3">S_BREAK</text>
</g>
<!-- S_INIT&#45;&gt;S_BREAK -->
<g id="edge2" class="edge">
<title>S_INIT&#45;&gt;S_BREAK</title>
<path fill="none" stroke="#9aa4b2" d="M381.38,-122.24C345.37,-117.03 303.54,-105.34 274,-79.77 263.75,-70.9 257.63,-57.16 254.01,-45.03"/>
<polygon fill="#9aa4b2" stroke="#9aa4b2" points="256.63,-43.99 251.88,-36.97 251.21,-45.42 256.63,-43.99"/>
<text text-anchor="middle" x="332" y="-69.37" font-family="Helvetica,sans-Serif" font-size="13.00" fill="#94a3b8">if &lt; Distance 300</text>
</g>
<!-- S_THEN -->
<g id="node4" class="node">
<title>S_THEN</title>
<ellipse fill="none" stroke="#9aa4b2" stroke-width="1.2" cx="565" cy="-18.38" rx="55.72" ry="18.27"/>
<text text-anchor="middle" x="565" y="-14.58" font-family="Helvetica,sans-Serif" font-size="16.00" fill="#e6edf3">S_THEN</text>
</g>
<!-- S_INIT&#45;&gt;S_THEN -->
<g id="edge3" class="edge">
<title>S_INIT&#45;&gt;S_THEN</title>
<path fill="none" stroke="#9aa4b2" d="M423.47,-108.52C406.28,-96.84 390.61,-80.85 402,-65.77 414.91,-48.67 465.87,-36.02 507.42,-28.28"/>
<polygon fill="#9aa4b2" stroke="#9aa4b2" points="507.95,-31.03 515.32,-26.85 506.95,-25.52 507.95,-31.03"/>
<text text-anchor="middle" x="431" y="-69.37" font-family="Helvetica,sans-Serif" font-size="13.00" fill="#94a3b8">if &gt; d dd</text>
</g>
<!-- S_INIT&#45;&gt;S_THEN -->
<g id="edge4" class="edge">
<title>S_INIT&#45;&gt;S_THEN</title>
<path fill="none" stroke="#9aa4b2" d="M466.11,-108.67C474.77,-96.05 487.55,-78.86 501,-65.77 510.68,-56.35 522.38,-47.31 533.11,-39.76"/>
<polygon fill="#9aa4b2" stroke="#9aa4b2" points="534.99,-41.87 539.99,-35.02 531.82,-37.25 534.99,-41.87"/>
<text text-anchor="middle" x="540.5" y="-69.37" font-family="Helvetica,sans-Serif" font-size="13.00" fill="#94a3b8">if &lt; pan &#45;15</text>
</g>
<!-- S_INIT&#45;&gt;S_THEN -->
<g id="edge5" class="edge">
<title>S_INIT&#45;&gt;S_THEN</title>
<path fill="none" stroke="#9aa4b2" d="M528.66,-116.21C550.36,-109.58 571.8,-98.44 585,-79.77 592.6,-69.02 588.78,-55.18 582.53,-43.46"/>
<polygon fill="#9aa4b2" stroke="#9aa4b2" points="584.89,-41.95 578.41,-36.49 580.07,-44.8 584.89,-41.95"/>
<text text-anchor="middle" x="626.5" y="-69.37" font-family="Helvetica,sans-Serif" font-size="13.00" fill="#94a3b8">if &gt; pan 15</text>
</g>
<!-- S_INIT&#45;&gt;S_THEN -->
<g id="edge6" class="edge">
<title>S_INIT&#45;&gt;S_THEN</title>
<path fill="none" stroke="#9aa4b2" d="M528.75,-120.02C584.69,-113.94 654.94,-102.04 673,-79.77 692.44,-55.8 656.06,-39.72 620.39,-30.22"/>
<polygon fill="#9aa4b2" stroke="#9aa4b2" points="620.77,-27.43 612.33,-28.18 619.4,-32.86 620.77,-27.43"/>
<text text-anchor="middle" x="715.5" y="-69.37" font-family="Helvetica,sans-Serif" font-size="13.00" fill="#94a3b8">if &lt; dd 300</text>
</g>
<!-- S_9000&#45;&gt;S_9000 -->
<g id="edge7" class="edge">
<title>S_9000&#45;&gt;S_9000</title>
<path fill="none" stroke="#9aa4b2" d="M82.19,-28.31C101.3,-29.39 118,-26.08 118,-18.38 118,-11.83 105.89,-8.46 90.5,-8.27"/>
<polygon fill="#9aa4b2" stroke="#9aa4b2" points="90.13,-5.48 82.19,-8.46 90.26,-11.07 90.13,-5.48"/>
<text text-anchor="middle" x="143" y="-14.98" font-family="Helvetica,sans-Serif" font-size="13.00" fill="#94a3b8">resume</text>
</g>
</g>
</svg>
