<?xml version="1.0" encoding="UTF-8" standalone="no"?>
<!DOCTYPE svg PUBLIC "-//W3C//DTD SVG 1.1//EN"
 "http://www.w3.org/Graphics/SVG/1.1/DTD/svg11.dtd">
<!-- Generated by graphviz version 2.42.4 (0)
 -->
<!-- Title: G Pages: 1 -->
<svg width="1051pt" height="829pt"
 viewBox="0.00 0.00 1050.93 828.77" xmlns="http://www.w3.org/2000/svg" xmlns:xlink="http://www.w3.org/1999/xlink">
<g id="graph0" class="graph" transform="scale(1 1) rotate(0) translate(18 810.77)">
<title>G</title>
<polygon fill="#101418" stroke="transparent" points="-18,18 -18,-810.77 1032.93,-810.77 1032.93,18 -18,18"/>
<!-- S_INIT -->
<g id="node1" class="node">
<title>S_INIT</title>
<path fill="#1a2028" stroke="#9aa4b2" stroke-width="1.2" d="M813.93,-792.77C813.93,-792.77 783.93,-792.77 783.93,-792.77 777.93,-792.77 771.93,-786.77 771.93,-780.77 771.93,-780.77 771.93,-768.77 771.93,-768.77 771.93,-762.77 777.93,-756.77 783.93,-756.77 783.93,-756.77 813.93,-756.77 813.93,-756.77 819.93,-756.77 825.93,-762.77 825.93,-768.77 825.93,-768.77 825.93,-780.77 825.93,-780.77 825.93,-786.77 819.93,-792.77 813.93,-792.77"/>
<text text-anchor="middle" x="798.93" y="-770.97" font-family="Helvetica,sans-Serif" font-size="16.00" fill="#e6edf3">Boot</text>
</g>
<!-- S_100 -->
<g id="node2" class="node">
<title>S_100</title>
<path fill="#1a2028" stroke="#9aa4b2" stroke-width="1.2" d="M879.93,-684.77C879.93,-684.77 717.93,-684.77 717.93,-684.77 711.93,-684.77 705.93,-678.77 705.93,-672.77 705.93,-672.77 705.93,-660.77 705.93,-660.77 705.93,-654.77 711.93,-648.77 717.93,-648.77 717.93,-648.77 879.93,-648.77 879.93,-648.77 885.93,-648.77 891.93,-654.77 891.93,-660.77 891.93,-660.77 891.93,-672.77 891.93,-672.77 891.93,-678.77 885.93,-684.77 879.93,-684.77"/>
<text text-anchor="middle" x="798.93" y="-662.97" font-family="Helvetica,sans-Serif" font-size="16.00" fill="#e6edf3">Repeat Forward Walk</text>
</g>
<!-- S_INIT&#45;&gt;S_100 -->
<g id="edge1" class="edge">
<title>S_INIT&#45;&gt;S_100</title>
<path fill="none" stroke="#9aa4b2" d="M798.93,-756.74C798.93,-739.61 798.93,-712.99 798.93,-693.33"/>
<polygon fill="#9aa4b2" stroke="#9aa4b2" points="801.73,-693.11 798.93,-685.11 796.13,-693.11 801.73,-693.11"/>
<text text-anchor="middle" x="816.43" y="-717.37" font-family="Helvetica,sans-Serif" font-size="13.00" fill="#94a3b8">entry</text>
</g>
<!-- S_110 -->
<g id="node3" class="node">
<title>S_110</title>
<path fill="#1a2028" stroke="#9aa4b2" stroke-width="1.2" d="M855.43,-576.77C855.43,-576.77 742.43,-576.77 742.43,-576.77 736.43,-576.77 730.43,-570.77 730.43,-564.77 730.43,-564.77 730.43,-552.77 730.43,-552.77 730.43,-546.77 736.43,-540.77 742.43,-540.77 742.43,-540.77 855.43,-540.77 855.43,-540.77 861.43,-540.77 867.43,-546.77 867.43,-552.77 867.43,-552.77 867.43,-564.77 867.43,-564.77 867.43,-570.77 861.43,-576.77 855.43,-576.77"/>
<text text-anchor="middle" x="798.93" y="-554.97" font-family="Helvetica,sans-Serif" font-size="16.00" fill="#e6edf3">Sense / Decide</text>
</g>
<!-- S_100&#45;&gt;S_110 -->
<g id="edge2" class="edge">
<title>S_100&#45;&gt;S_110</title>
<path fill="none" stroke="#9aa4b2" d="M798.93,-648.74C798.93,-631.61 798.93,-604.99 798.93,-585.33"/>
<polygon fill="#9aa4b2" stroke="#9aa4b2" points="801.73,-585.11 798.93,-577.11 796.13,-585.11 801.73,-585.11"/>
<text text-anchor="middle" x="865.43" y="-609.37" font-family="Helvetica,sans-Serif" font-size="13.00" fill="#94a3b8">continue to monitor</text>
</g>
<!-- S_120 -->
<g id="node4" class="node">
<title>S_120</title>
<path fill="#1a2028" stroke="#9aa4b2" stroke-width="1.2" d="M648.93,-468.77C648.93,-468.77 556.93,-468.77 556.93,-468.77 550.93,-468.77 544.93,-462.77 544.93,-456.77 544.93,-456.77 544.93,-444.77 544.93,-444.77 544.93,-438.77 550.93,-432.77 556.93,-432.77 556.93,-432.77 648.93,-432.77 648.93,-432.77 654.93,-432.77 660.93,-438.77 660.93,-444.77 660.93,-444.77 660.93,-456.77 660.93,-456.77 660.93,-462.77 654.93,-468.77 648.93,-468.77"/>
<text text-anchor="middle" x="602.93" y="-446.97" font-family="Helvetica,sans-Serif" font-size="16.00" fill="#e6edf3">Synchronize</text>
</g>
<!-- S_110&#45;&gt;S_120 -->
<g id="edge6" class="edge">
<title>S_110&#45;&gt;S_120</title>
<path fill="none" stroke="#9aa4b2" d="M757.58,-540.74C738.77,-532.58 716.41,-522.31 696.93,-511.77 675.44,-500.14 652.28,-485.39 634.33,-473.42"/>
<polygon fill="#9aa4b2" stroke="#9aa4b2" points="635.68,-470.96 627.48,-468.82 632.56,-475.6 635.68,-470.96"/>
<text text-anchor="middle" x="743.93" y="-501.37" font-family="Helvetica,sans-Serif" font-size="13.00" fill="#94a3b8">else &gt;= t 100</text>
</g>
<!-- S_THEN -->
<g id="node9" class="node">
<title>S_THEN</title>
<ellipse fill="none" stroke="#9aa4b2" stroke-width="1.2" cx="538.93" cy="-234.38" rx="55.72" ry="18.27"/>
<text text-anchor="middle" x="538.93" y="-230.58" font-family="Helvetica,sans-Serif" font-size="16.00" fill="#e6edf3">S_THEN</text>
</g>
<!-- S_110&#45;&gt;S_THEN -->
<g id="edge3" class="edge">
<title>S_110&#45;&gt;S_THEN</title>
<path fill="none" stroke="#9aa4b2" d="M800.49,-540.65C805.02,-486.49 815.86,-320.18 781.93,-281.77 758.65,-255.41 665.74,-243.8 601.79,-238.85"/>
<polygon fill="#9aa4b2" stroke="#9aa4b2" points="601.94,-236.05 593.75,-238.25 601.52,-241.63 601.94,-236.05"/>
<text text-anchor="middle" x="863.93" y="-393.37" font-family="Helvetica,sans-Serif" font-size="13.00" fill="#94a3b8">if &lt; Distance 300</text>
</g>
<!-- S_BREAK -->
<g id="node10" class="node">
<title>S_BREAK</title>
<ellipse fill="none" stroke="#9aa4b2" stroke-width="1.2" cx="62.93" cy="-234.38" rx="62.87" ry="18.27"/>
<text text-anchor="middle" x="62.93" y="-230.58" font-family="Helvetica,sans-Serif" font-size="16.00" fill="#e6edf3">S_BREAK</text>
</g>
<!-- S_110&#45;&gt;S_BREAK -->
<g id="edge4" class="edge">
<title>S_110&#45;&gt;S_BREAK</title>
<path fill="none" stroke="#9aa4b2" d="M742.77,-540.74C687.48,-523.65 600.82,-496.03 526.93,-468.77 337.53,-398.89 265.68,-420.49 106.93,-295.77 94.48,-285.99 83.9,-271.81 76.24,-259.65"/>
<polygon fill="#9aa4b2" stroke="#9aa4b2" points="78.61,-258.16 72.07,-252.77 73.82,-261.06 78.61,-258.16"/>
<text text-anchor="middle" x="343.93" y="-393.37" font-family="Helvetica,sans-Serif" font-size="13.00" fill="#94a3b8">if &lt;&gt; dd 0</text>
</g>
<!-- S_CALL -->
<g id="node11" class="node">
<title>S_CALL</title>
<ellipse fill="none" stroke="#9aa4b2" stroke-width="1.2" cx="847.93" cy="-234.38" rx="53.98" ry="18.27"/>
<text text-anchor="middle" x="847.93" y="-230.58" font-family="Helvetica,sans-Serif" font-size="16.00" fill="#e6edf3">S_CALL</text>
</g>
<!-- S_110&#45;&gt;S_CALL -->
<g id="edge5" class="edge">
<title>S_110&#45;&gt;S_CALL</title>
<path fill="none" stroke="#9aa4b2" d="M822.79,-540.72C855.93,-515.33 914.29,-464.06 935.93,-403.77 955.81,-348.39 905.25,-288.42 872.77,-257.16"/>
<polygon fill="#9aa4b2" stroke="#9aa4b2" points="874.68,-255.11 866.94,-251.66 870.84,-259.18 874.68,-255.11"/>
<text text-anchor="middle" x="977.43" y="-393.37" font-family="Helvetica,sans-Serif" font-size="13.00" fill="#94a3b8">if &gt;= t 100</text>
</g>
<!-- S_130 -->
<g id="node5" class="node">
<title>S_130</title>
<path fill="#1a2028" stroke="#9aa4b2" stroke-width="1.2" d="M561.43,-360.77C561.43,-360.77 448.43,-360.77 448.43,-360.77 442.43,-360.77 436.43,-354.77 436.43,-348.77 436.43,-348.77 436.43,-336.77 436.43,-336.77 436.43,-330.77 442.43,-324.77 448.43,-324.77 448.43,-324.77 561.43,-324.77 561.43,-324.77 567.43,-324.77 573.43,-330.77 573.43,-336.77 573.43,-336.77 573.43,-348.77 573.43,-348.77 573.43,-354.77 567.43,-360.77 561.43,-360.77"/>
<text text-anchor="middle" x="504.93" y="-338.97" font-family="Helvetica,sans-Serif" font-size="16.00" fill="#e6edf3">Sense / Decide</text>
</g>
<!-- S_120&#45;&gt;S_130 -->
<g id="edge7" class="edge">
<title>S_120&#45;&gt;S_130</title>
<path fill="none" stroke="#9aa4b2" d="M587.19,-432.74C570.78,-415 544.96,-387.07 526.63,-367.24"/>
<polygon fill="#9aa4b2" stroke="#9aa4b2" points="528.45,-365.08 520.96,-361.11 524.34,-368.89 528.45,-365.08"/>
<text text-anchor="middle" x="620.93" y="-393.37" font-family="Helvetica,sans-Serif" font-size="13.00" fill="#94a3b8">next labeled block</text>
</g>
<!-- S_133 -->
<g id="node6" class="node">
<title>S_133</title>
<path fill="#1a2028" stroke="#9aa4b2" stroke-width="1.2" d="M293.43,-252.38C293.43,-252.38 206.43,-252.38 206.43,-252.38 200.43,-252.38 194.43,-246.38 194.43,-240.38 194.43,-240.38 194.43,-228.38 194.43,-228.38 194.43,-222.38 200.43,-216.38 206.43,-216.38 206.43,-216.38 293.43,-216.38 293.43,-216.38 299.43,-216.38 305.43,-222.38 305.43,-228.38 305.43,-228.38 305.43,-240.38 305.43,-240.38 305.43,-246.38 299.43,-252.38 293.43,-252.38"/>
<text text-anchor="middle" x="249.93" y="-230.58" font-family="Helvetica,sans-Serif" font-size="16.00" fill="#e6edf3">Action Loop</text>
</g>
<!-- S_130&#45;&gt;S_133 -->
<g id="edge13" class="edge">
<title>S_130&#45;&gt;S_133</title>
<path fill="none" stroke="#9aa4b2" d="M436.16,-335.49C376.91,-328.79 297.21,-316.27 272.93,-295.77 262.56,-287.01 256.85,-273.03 253.72,-260.73"/>
<polygon fill="#9aa4b2" stroke="#9aa4b2" points="256.38,-259.78 251.93,-252.56 250.91,-260.97 256.38,-259.78"/>
<text text-anchor="middle" x="319.93" y="-285.37" font-family="Helvetica,sans-Serif" font-size="13.00" fill="#94a3b8">else &lt; dd 300</text>
</g>
<!-- S_130&#45;&gt;S_THEN -->
<g id="edge8" class="edge">
<title>S_130&#45;&gt;S_THEN</title>
<path fill="none" stroke="#9aa4b2" d="M549.56,-324.77C561.93,-317.75 573.89,-308.26 580.93,-295.77 588.51,-282.32 579.56,-268.1 568.01,-256.84"/>
<polygon fill="#9aa4b2" stroke="#9aa4b2" points="569.61,-254.52 561.8,-251.25 565.86,-258.68 569.61,-254.52"/>
<text text-anchor="middle" x="612.93" y="-285.37" font-family="Helvetica,sans-Serif" font-size="13.00" fill="#94a3b8">if &gt; d dd</text>
</g>
<!-- S_130&#45;&gt;S_THEN -->
<g id="edge9" class="edge">
<title>S_130&#45;&gt;S_THEN</title>
<path fill="none" stroke="#9aa4b2" d="M436.31,-331.84C397.92,-323.23 361.37,-307.9 380.93,-281.77 393.26,-265.3 441.66,-252.69 481.67,-244.8"/>
<polygon fill="#9aa4b2" stroke="#9aa4b2" points="482.22,-247.55 489.55,-243.29 481.17,-242.05 482.22,-247.55"/>
<text text-anchor="middle" x="420.43" y="-285.37" font-family="Helvetica,sans-Serif" font-size="13.00" fill="#94a3b8">if &lt; pan &#45;15</text>
</g>
<!-- S_130&#45;&gt;S_THEN -->
<g id="edge11" class="edge">
<title>S_130&#45;&gt;S_THEN</title>
<path fill="none" stroke="#9aa4b2" d="M498.31,-324.69C494.57,-312.39 491.6,-295.6 496.93,-281.77 500.34,-272.92 506.31,-264.72 512.69,-257.74"/>
<polygon fill="#9aa4b2" stroke="#9aa4b2" points="515.01,-259.37 518.61,-251.7 511.01,-255.46 515.01,-259.37"/>
<text text-anchor="middle" x="534.43" y="-285.37" font-family="Helvetica,sans-Serif" font-size="13.00" fill="#94a3b8">if &gt; pan 15</text>
</g>
<!-- S_130&#45;&gt;S_BREAK -->
<g id="edge10" class="edge">
<title>S_130&#45;&gt;S_BREAK</title>
<path fill="none" stroke="#9aa4b2" d="M436.21,-337.65C345.22,-331.42 190.17,-317.94 137.93,-295.77 117.65,-287.16 98.37,-271.41 84.44,-258.15"/>
<polygon fill="#9aa4b2" stroke="#9aa4b2" points="86.1,-255.87 78.43,-252.27 82.19,-259.87 86.1,-255.87"/>
<text text-anchor="middle" x="195.93" y="-285.37" font-family="Helvetica,sans-Serif" font-size="13.00" fill="#94a3b8">if &gt; Distance 500</text>
</g>
<!-- S_130&#45;&gt;S_CALL -->
<g id="edge12" class="edge">
<title>S_130&#45;&gt;S_CALL</title>
<path fill="none" stroke="#9aa4b2" d="M560.04,-324.68C627.05,-303.89 738.96,-269.19 801.69,-249.73"/>
<polygon fill="#9aa4b2" stroke="#9aa4b2" points="802.65,-252.36 809.46,-247.32 800.99,-247.01 802.65,-252.36"/>
<text text-anchor="middle" x="735.43" y="-285.37" font-family="Helvetica,sans-Serif" font-size="13.00" fill="#94a3b8">if &lt; dd 300</text>
</g>
<!-- S_200 -->
<g id="node7" class="node">
<title>S_200</title>
<path fill="#1a2028" stroke="#9aa4b2" stroke-width="1.2" d="M293.43,-144C293.43,-144 206.43,-144 206.43,-144 200.43,-144 194.43,-138 194.43,-132 194.43,-132 194.43,-120 194.43,-120 194.43,-114 200.43,-108 206.43,-108 206.43,-108 293.43,-108 293.43,-108 299.43,-108 305.43,-114 305.43,-120 305.43,-120 305.43,-132 305.43,-132 305.43,-138 299.43,-144 293.43,-144"/>
<text text-anchor="middle" x="249.93" y="-122.2" font-family="Helvetica,sans-Serif" font-size="16.00" fill="#e6edf3">Action Loop</text>
</g>
<!-- S_133&#45;&gt;S_200 -->
<g id="edge14" class="edge">
<title>S_133&#45;&gt;S_200</title>
<path fill="none" stroke="#9aa4b2" d="M249.93,-216.29C249.93,-199 249.93,-172.07 249.93,-152.3"/>
<polygon fill="#9aa4b2" stroke="#9aa4b2" points="252.73,-152.05 249.93,-144.05 247.13,-152.05 252.73,-152.05"/>
<text text-anchor="middle" x="310.93" y="-176.6" font-family="Helvetica,sans-Serif" font-size="13.00" fill="#94a3b8">next labeled block</text>
</g>
<!-- S_300 -->
<g id="node8" class="node">
<title>S_300</title>
<path fill="#1a2028" stroke="#9aa4b2" stroke-width="1.2" d="M293.43,-36C293.43,-36 206.43,-36 206.43,-36 200.43,-36 194.43,-30 194.43,-24 194.43,-24 194.43,-12 194.43,-12 194.43,-6 200.43,0 206.43,0 206.43,0 293.43,0 293.43,0 299.43,0 305.43,-6 305.43,-12 305.43,-12 305.43,-24 305.43,-24 305.43,-30 299.43,-36 293.43,-36"/>
<text text-anchor="middle" x="249.93" y="-14.2" font-family="Helvetica,sans-Serif" font-size="16.00" fill="#e6edf3">Action Loop</text>
</g>
<!-- S_200&#45;&gt;S_300 -->
<g id="edge15" class="edge">
<title>S_200&#45;&gt;S_300</title>
<path fill="none" stroke="#9aa4b2" d="M249.93,-107.97C249.93,-90.84 249.93,-64.22 249.93,-44.56"/>
<polygon fill="#9aa4b2" stroke="#9aa4b2" points="252.73,-44.34 249.93,-36.34 247.13,-44.34 252.73,-44.34"/>
<text text-anchor="middle" x="310.93" y="-68.6" font-family="Helvetica,sans-Serif" font-size="13.00" fill="#94a3b8">next labeled block</text>
</g>
</g>
</svg>
