<?xml version="1.0" encoding="UTF-8" standalone="no"?>
<!DOCTYPE svg PUBLIC "-//W3C//DTD SVG 1.1//EN"
 "http://www.w3.org/Graphics/SVG/1.1/DTD/svg11.dtd">
<!-- Generated by graphviz version 2.42.4 (0)
 -->
<!-- Title: G Pages: 1 -->
<svg width="1137pt" height="290pt"
 viewBox="0.00 0.00 1137.00 289.54" xmlns="http://www.w3.org/2000/svg" xmlns:xlink="http://www.w3.org/1999/xlink">
<g id="graph0" class="graph" transform="scale(1 1) rotate(0) translate(18 271.54)">
<title>G</title>
<polygon fill="#101418" stroke="transparent" points="-18,18 -18,-271.54 1119,-271.54 1119,18 -18,18"/>
<!-- S_INIT -->
<g id="node1" class="node">
<title>S_INIT</title>
<path fill="#1a2028" stroke="#9aa4b2" stroke-width="1.2" d="M452.5,-253.54C452.5,-253.54 329.5,-253.54 329.5,-253.54 323.5,-253.54 317.5,-247.54 317.5,-241.54 317.5,-241.54 317.5,-229.54 317.5,-229.54 317.5,-223.54 323.5,-217.54 329.5,-217.54 329.5,-217.54 452.5,-217.54 452.5,-217.54 458.5,-217.54 464.5,-223.54 464.5,-229.54 464.5,-229.54 464.5,-241.54 464.5,-241.54 464.5,-247.54 458.5,-253.54 452.5,-253.54"/>
<text text-anchor="middle" x="391" y="-231.74" font-family="Helvetica,sans-Serif" font-size="16.00" fill="#e6edf3">Boot / Safe Pose</text>
</g>
<!-- S_100 -->
<g id="node2" class="node">
<title>S_100</title>
<path fill="#1a2028" stroke="#9aa4b2" stroke-width="1.2" d="M174,-145.15C174,-145.15 12,-145.15 12,-145.15 6,-145.15 0,-139.15 0,-133.15 0,-133.15 0,-121.15 0,-121.15 0,-115.15 6,-109.15 12,-109.15 12,-109.15 174,-109.15 174,-109.15 180,-109.15 186,-115.15 186,-121.15 186,-121.15 186,-133.15 186,-133.15 186,-139.15 180,-145.15 174,-145.15"/>
<text text-anchor="middle" x="93" y="-123.35" font-family="Helvetica,sans-Serif" font-size="16.00" fill="#e6edf3">Repeat Forward Walk</text>
</g>
<!-- S_INIT&#45;&gt;S_100 -->
<g id="edge2" class="edge">
<title>S_INIT&#45;&gt;S_100</title>
<path fill="none" stroke="#9aa4b2" d="M317.32,-228.84C271.65,-223.1 212.79,-211.58 165,-188.54 145.89,-179.32 127.61,-163.88 114.25,-150.92"/>
<polygon fill="#9aa4b2" stroke="#9aa4b2" points="116.12,-148.83 108.47,-145.17 112.17,-152.8 116.12,-148.83"/>
<text text-anchor="middle" x="211.5" y="-178.14" font-family="Helvetica,sans-Serif" font-size="13.00" fill="#94a3b8">else = Back 0</text>
</g>
<!-- S_CALL -->
<g id="node8" class="node">
<title>S_CALL</title>
<ellipse fill="none" stroke="#9aa4b2" stroke-width="1.2" cx="276" cy="-127.15" rx="53.98" ry="18.27"/>
<text text-anchor="middle" x="276" y="-123.35" font-family="Helvetica,sans-Serif" font-size="16.00" fill="#e6edf3">S_CALL</text>
</g>
<!-- S_INIT&#45;&gt;S_CALL -->
<g id="edge1" class="edge">
<title>S_INIT&#45;&gt;S_CALL</title>
<path fill="none" stroke="#9aa4b2" d="M317.2,-221.29C299.54,-214.48 282.71,-204.16 272,-188.54 265.12,-178.5 265.28,-165.18 267.53,-153.6"/>
<polygon fill="#9aa4b2" stroke="#9aa4b2" points="270.32,-153.98 269.46,-145.55 264.87,-152.68 270.32,-153.98"/>
<text text-anchor="middle" x="309" y="-178.14" font-family="Helvetica,sans-Serif" font-size="13.00" fill="#94a3b8">if = Back 0</text>
</g>
<!-- S_THEN -->
<g id="node9" class="node">
<title>S_THEN</title>
<ellipse fill="none" stroke="#9aa4b2" stroke-width="1.2" cx="511" cy="-127.15" rx="55.72" ry="18.27"/>
<text text-anchor="middle" x="511" y="-123.35" font-family="Helvetica,sans-Serif" font-size="16.00" fill="#e6edf3">S_THEN</text>
</g>
<!-- S_INIT&#45;&gt;S_THEN -->
<g id="edge3" class="edge">
<title>S_INIT&#45;&gt;S_THEN</title>
<path fill="none" stroke="#9aa4b2" d="M384.53,-217.5C380.8,-204.57 378.37,-186.98 387,-174.54 401.53,-153.58 426.76,-142.08 450.69,-135.77"/>
<polygon fill="#9aa4b2" stroke="#9aa4b2" points="451.62,-138.43 458.73,-133.82 450.3,-132.98 451.62,-138.43"/>
<text text-anchor="middle" x="426.5" y="-178.14" font-family="Helvetica,sans-Serif" font-size="13.00" fill="#94a3b8">if &lt; pan &#45;15</text>
</g>
<!-- S_INIT&#45;&gt;S_THEN -->
<g id="edge4" class="edge">
<title>S_INIT&#45;&gt;S_THEN</title>
<path fill="none" stroke="#9aa4b2" d="M428.86,-217.42C443.07,-209.86 458.73,-200.05 471,-188.54 482.01,-178.2 491.49,-164.28 498.46,-152.41"/>
<polygon fill="#9aa4b2" stroke="#9aa4b2" points="500.96,-153.67 502.46,-145.33 496.08,-150.91 500.96,-153.67"/>
<text text-anchor="middle" x="520.5" y="-178.14" font-family="Helvetica,sans-Serif" font-size="13.00" fill="#94a3b8">if &gt; pan 15</text>
</g>
<!-- S_INIT&#45;&gt;S_THEN -->
<g id="edge5" class="edge">
<title>S_INIT&#45;&gt;S_THEN</title>
<path fill="none" stroke="#9aa4b2" d="M464.96,-224.4C507.16,-216.93 554.16,-205.16 567,-188.54 578.26,-173.95 563.99,-158.75 547.04,-147.24"/>
<polygon fill="#9aa4b2" stroke="#9aa4b2" points="548.45,-144.82 540.2,-142.87 545.43,-149.54 548.45,-144.82"/>
<text text-anchor="middle" x="609.5" y="-178.14" font-family="Helvetica,sans-Serif" font-size="13.00" fill="#94a3b8">if &lt; dd 300</text>
</g>
<!-- S_BREAK -->
<g id="node10" class="node">
<title>S_BREAK</title>
<ellipse fill="none" stroke="#9aa4b2" stroke-width="1.2" cx="93" cy="-18.38" rx="62.87" ry="18.27"/>
<text text-anchor="middle" x="93" y="-14.58" font-family="Helvetica,sans-Serif" font-size="16.00" fill="#e6edf3">S_BREAK</text>
</g>
<!-- S_100&#45;&gt;S_BREAK -->
<g id="edge6" class="edge">
<title>S_100&#45;&gt;S_BREAK</title>
<path fill="none" stroke="#9aa4b2" d="M93,-109C93,-91.67 93,-64.69 93,-44.86"/>
<polygon fill="#9aa4b2" stroke="#9aa4b2" points="95.8,-44.85 93,-36.85 90.2,-44.85 95.8,-44.85"/>
<text text-anchor="middle" x="151" y="-69.37" font-family="Helvetica,sans-Serif" font-size="13.00" fill="#94a3b8">if &lt; Distance 300</text>
</g>
<!-- S_200 -->
<g id="node3" class="node">
<title>S_200</title>
<path fill="#1a2028" stroke="#9aa4b2" stroke-width="1.2" d="M816.5,-253.54C816.5,-253.54 669.5,-253.54 669.5,-253.54 663.5,-253.54 657.5,-247.54 657.5,-241.54 657.5,-241.54 657.5,-229.54 657.5,-229.54 657.5,-223.54 663.5,-217.54 669.5,-217.54 669.5,-217.54 816.5,-217.54 816.5,-217.54 822.5,-217.54 828.5,-223.54 828.5,-229.54 828.5,-229.54 828.5,-241.54 828.5,-241.54 828.5,-247.54 822.5,-253.54 816.5,-253.54"/>
<text text-anchor="middle" x="743" y="-231.74" font-family="Helvetica,sans-Serif" font-size="16.00" fill="#e6edf3">Head Scan Position</text>
</g>
<!-- S_300 -->
<g id="node4" class="node">
<title>S_300</title>
<path fill="#1a2028" stroke="#9aa4b2" stroke-width="1.2" d="M799.5,-145.15C799.5,-145.15 686.5,-145.15 686.5,-145.15 680.5,-145.15 674.5,-139.15 674.5,-133.15 674.5,-133.15 674.5,-121.15 674.5,-121.15 674.5,-115.15 680.5,-109.15 686.5,-109.15 686.5,-109.15 799.5,-109.15 799.5,-109.15 805.5,-109.15 811.5,-115.15 811.5,-121.15 811.5,-121.15 811.5,-133.15 811.5,-133.15 811.5,-139.15 805.5,-145.15 799.5,-145.15"/>
<text text-anchor="middle" x="743" y="-123.35" font-family="Helvetica,sans-Serif" font-size="16.00" fill="#e6edf3">Sense / Decide</text>
</g>
<!-- S_200&#45;&gt;S_300 -->
<g id="edge7" class="edge">
<title>S_200&#45;&gt;S_300</title>
<path fill="none" stroke="#9aa4b2" d="M743,-217.45C743,-200.15 743,-173.22 743,-153.45"/>
<polygon fill="#9aa4b2" stroke="#9aa4b2" points="745.8,-153.2 743,-145.2 740.2,-153.2 745.8,-153.2"/>
<text text-anchor="middle" x="804" y="-178.14" font-family="Helvetica,sans-Serif" font-size="13.00" fill="#94a3b8">next labeled block</text>
</g>
<!-- S_300&#45;&gt;S_300 -->
<g id="edge8" class="edge">
<title>S_300&#45;&gt;S_300</title>
<path fill="none" stroke="#9aa4b2" d="M811.84,-137.25C831.94,-136.9 847.5,-133.54 847.5,-127.15 847.5,-121.67 836.01,-118.41 820.02,-117.39"/>
<polygon fill="#9aa4b2" stroke="#9aa4b2" points="819.95,-114.58 811.84,-117.06 819.73,-120.18 819.95,-114.58"/>
<text text-anchor="middle" x="876.5" y="-123.75" font-family="Helvetica,sans-Serif" font-size="13.00" fill="#94a3b8">if &lt; d dd</text>
</g>
<!-- S_400 -->
<g id="node5" class="node">
<title>S_400</title>
<path fill="#1a2028" stroke="#9aa4b2" stroke-width="1.2" d="M1022.5,-253.54C1022.5,-253.54 935.5,-253.54 935.5,-253.54 929.5,-253.54 923.5,-247.54 923.5,-241.54 923.5,-241.54 923.5,-229.54 923.5,-229.54 923.5,-223.54 929.5,-217.54 935.5,-217.54 935.5,-217.54 1022.5,-217.54 1022.5,-217.54 1028.5,-217.54 1034.5,-223.54 1034.5,-229.54 1034.5,-229.54 1034.5,-241.54 1034.5,-241.54 1034.5,-247.54 1028.5,-253.54 1022.5,-253.54"/>
<text text-anchor="middle" x="979" y="-231.74" font-family="Helvetica,sans-Serif" font-size="16.00" fill="#e6edf3">Action Loop</text>
</g>
<!-- S_500 -->
<g id="node6" class="node">
<title>S_500</title>
<path fill="#1a2028" stroke="#9aa4b2" stroke-width="1.2" d="M1022.5,-145.15C1022.5,-145.15 935.5,-145.15 935.5,-145.15 929.5,-145.15 923.5,-139.15 923.5,-133.15 923.5,-133.15 923.5,-121.15 923.5,-121.15 923.5,-115.15 929.5,-109.15 935.5,-109.15 935.5,-109.15 1022.5,-109.15 1022.5,-109.15 1028.5,-109.15 1034.5,-115.15 1034.5,-121.15 1034.5,-121.15 1034.5,-133.15 1034.5,-133.15 1034.5,-139.15 1028.5,-145.15 1022.5,-145.15"/>
<text text-anchor="middle" x="979" y="-123.35" font-family="Helvetica,sans-Serif" font-size="16.00" fill="#e6edf3">Action Loop</text>
</g>
<!-- S_400&#45;&gt;S_500 -->
<g id="edge9" class="edge">
<title>S_400&#45;&gt;S_500</title>
<path fill="none" stroke="#9aa4b2" d="M979,-217.45C979,-200.15 979,-173.22 979,-153.45"/>
<polygon fill="#9aa4b2" stroke="#9aa4b2" points="981.8,-153.2 979,-145.2 976.2,-153.2 981.8,-153.2"/>
<text text-anchor="middle" x="1040" y="-178.14" font-family="Helvetica,sans-Serif" font-size="13.00" fill="#94a3b8">next labeled block</text>
</g>
<!-- S_600 -->
<g id="node7" class="node">
<title>S_600</title>
<path fill="#1a2028" stroke="#9aa4b2" stroke-width="1.2" d="M1022.5,-36.38C1022.5,-36.38 935.5,-36.38 935.5,-36.38 929.5,-36.38 923.5,-30.38 923.5,-24.38 923.5,-24.38 923.5,-12.38 923.5,-12.38 923.5,-6.38 929.5,-0.38 935.5,-0.38 935.5,-0.38 1022.5,-0.38 1022.5,-0.38 1028.5,-0.38 1034.5,-6.38 1034.5,-12.38 1034.5,-12.38 1034.5,-24.38 1034.5,-24.38 1034.5,-30.38 1028.5,-36.38 1022.5,-36.38"/>
<text text-anchor="middle" x="979" y="-14.58" font-family="Helvetica,sans-Serif" font-size="16.00" fill="#e6edf3">Action Loop</text>
</g>
<!-- S_500&#45;&gt;S_600 -->
<g id="edge10" class="edge">
<title>S_500&#45;&gt;S_600</title>
<path fill="none" stroke="#9aa4b2" d="M979,-109C979,-91.57 979,-64.37 979,-44.51"/>
<polygon fill="#9aa4b2" stroke="#9aa4b2" points="981.8,-44.5 979,-36.5 976.2,-44.5 981.8,-44.5"/>
<text text-anchor="middle" x="1040" y="-69.37" font-family="Helvetica,sans-Serif" font-size="13.00" fill="#94a3b8">next labeled block</text>
</g>
</g>
</svg>
