<?xml version="1.0" encoding="UTF-8" standalone="no"?>
<!DOCTYPE svg PUBLIC "-//W3C//DTD SVG 1.1//EN"
 "http://www.w3.org/Graphics/SVG/1.1/DTD/svg11.dtd">
<!-- Generated by graphviz version 2.42.4 (0)
 -->
<!-- Title: G Pages: 1 -->
<svg width="2630pt" height="397pt"
 viewBox="0.00 0.00 2630.00 396.77" xmlns="http://www.w3.org/2000/svg" xmlns:xlink="http://www.w3.org/1999/xlink">
<g id="graph0" class="graph" transform="scale(1 1) rotate(0) translate(18 378.77)">
<title>G</title>
<polygon fill="#101418" stroke="transparent" points="-18,18 -18,-378.77 2612,-378.77 2612,18 -18,18"/>
<!-- S_INIT -->
<g id="node1" class="node">
<title>S_INIT</title>
<path fill="#1a2028" stroke="#9aa4b2" stroke-width="1.2" d="M1154,-360.77C1154,-360.77 1031,-360.77 1031,-360.77 1025,-360.77 1019,-354.77 1019,-348.77 1019,-348.77 1019,-336.77 1019,-336.77 1019,-330.77 1025,-324.77 1031,-324.77 1031,-324.77 1154,-324.77 1154,-324.77 1160,-324.77 1166,-330.77 1166,-336.77 1166,-336.77 1166,-348.77 1166,-348.77 1166,-354.77 1160,-360.77 1154,-360.77"/>
<text text-anchor="middle" x="1092.5" y="-338.97" font-family="Helvetica,sans-Serif" font-size="16.00" fill="#e6edf3">Boot / Safe Pose</text>
</g>
<!-- S_9000 -->
<g id="node19" class="node">
<title>S_9000</title>
<path fill="#1a2028" stroke="#9aa4b2" stroke-width="1.2" d="M1156,-252.77C1156,-252.77 1029,-252.77 1029,-252.77 1023,-252.77 1017,-246.77 1017,-240.77 1017,-240.77 1017,-228.77 1017,-228.77 1017,-222.77 1023,-216.77 1029,-216.77 1029,-216.77 1156,-216.77 1156,-216.77 1162,-216.77 1168,-222.77 1168,-228.77 1168,-228.77 1168,-240.77 1168,-240.77 1168,-246.77 1162,-252.77 1156,-252.77"/>
<text text-anchor="middle" x="1092.5" y="-230.97" font-family="Helvetica,sans-Serif" font-size="16.00" fill="#e6edf3">Resume Listener</text>
</g>
<!-- S_INIT&#45;&gt;S_9000 -->
<g id="edge1" class="edge">
<title>S_INIT&#45;&gt;S_9000</title>
<path fill="none" stroke="#9aa4b2" d="M1018.94,-340.22C888.8,-336.72 629.03,-326 601.5,-295.77 597.31,-291.17 597.31,-286.37 601.5,-281.77 628.32,-252.32 875.63,-241.38 1008.68,-237.6"/>
<polygon fill="#9aa4b2" stroke="#9aa4b2" points="1008.96,-240.39 1016.88,-237.37 1008.81,-234.79 1008.96,-240.39"/>
<text text-anchor="middle" x="659.5" y="-285.37" font-family="Helvetica,sans-Serif" font-size="13.00" fill="#94a3b8">on = Melody_id 9</text>
</g>
<!-- S_INIT&#45;&gt;S_9000 -->
<g id="edge2" class="edge">
<title>S_INIT&#45;&gt;S_9000</title>
<path fill="none" stroke="#9aa4b2" d="M1018.9,-342.42C930.98,-341.44 791.58,-333.72 758.5,-295.77 724.04,-256.24 899.07,-242.67 1008.86,-238.07"/>
<polygon fill="#9aa4b2" stroke="#9aa4b2" points="1009.1,-240.87 1016.98,-237.75 1008.87,-235.27 1009.1,-240.87"/>
<text text-anchor="middle" x="820.5" y="-285.37" font-family="Helvetica,sans-Serif" font-size="13.00" fill="#94a3b8">on = Melody_id 17</text>
</g>
<!-- S_INIT&#45;&gt;S_9000 -->
<g id="edge3" class="edge">
<title>S_INIT&#45;&gt;S_9000</title>
<path fill="none" stroke="#9aa4b2" d="M1018.7,-330.72C978.89,-323.09 935.5,-311.47 923.5,-295.77 896.16,-259.99 953.66,-245.49 1008.86,-239.64"/>
<polygon fill="#9aa4b2" stroke="#9aa4b2" points="1009.29,-242.41 1016.98,-238.84 1008.74,-236.84 1009.29,-242.41"/>
<text text-anchor="middle" x="985.5" y="-285.37" font-family="Helvetica,sans-Serif" font-size="13.00" fill="#94a3b8">on = Melody_id 25</text>
</g>
<!-- S_INIT&#45;&gt;S_9000 -->
<g id="edge4" class="edge">
<title>S_INIT&#45;&gt;S_9000</title>
<path fill="none" stroke="#9aa4b2" d="M1090.36,-324.71C1089.1,-312.71 1087.87,-296.27 1088.5,-281.77 1088.79,-275.01 1089.33,-267.71 1089.91,-260.96"/>
<polygon fill="#9aa4b2" stroke="#9aa4b2" points="1092.72,-261.01 1090.67,-252.79 1087.14,-260.5 1092.72,-261.01"/>
<text text-anchor="middle" x="1155" y="-285.37" font-family="Helvetica,sans-Serif" font-size="13.00" fill="#94a3b8">on = Melody_id 163</text>
</g>
<!-- S_INIT&#45;&gt;S_9000 -->
<g id="edge5" class="edge">
<title>S_INIT&#45;&gt;S_9000</title>
<path fill="none" stroke="#9aa4b2" d="M1166.27,-333.35C1189.34,-326.84 1212.42,-315.49 1226.5,-295.77 1245.03,-269.82 1213.45,-254.9 1176.31,-246.43"/>
<polygon fill="#9aa4b2" stroke="#9aa4b2" points="1176.72,-243.66 1168.32,-244.72 1175.55,-249.13 1176.72,-243.66"/>
<text text-anchor="middle" x="1299" y="-285.37" font-family="Helvetica,sans-Serif" font-size="13.00" fill="#94a3b8">on = Melody_id 168</text>
</g>
<!-- S_INIT&#45;&gt;S_9000 -->
<g id="edge6" class="edge">
<title>S_INIT&#45;&gt;S_9000</title>
<path fill="none" stroke="#9aa4b2" d="M1166.06,-340.19C1240.49,-336.86 1348.23,-326.67 1374.5,-295.77 1402.02,-263.39 1268.97,-247.57 1176.25,-240.58"/>
<polygon fill="#9aa4b2" stroke="#9aa4b2" points="1176.43,-237.79 1168.25,-240 1176.02,-243.37 1176.43,-237.79"/>
<text text-anchor="middle" x="1445" y="-285.37" font-family="Helvetica,sans-Serif" font-size="13.00" fill="#94a3b8">on = Melody_id 193</text>
</g>
<!-- S_INIT&#45;&gt;S_9000 -->
<g id="edge7" class="edge">
<title>S_INIT&#45;&gt;S_9000</title>
<path fill="none" stroke="#9aa4b2" d="M1166.03,-342.44C1300.7,-342.39 1568.92,-335.67 1520.5,-281.77 1497.95,-256.67 1294.21,-244.09 1176.15,-238.86"/>
<polygon fill="#9aa4b2" stroke="#9aa4b2" points="1176.26,-236.06 1168.15,-238.51 1176.02,-241.65 1176.26,-236.06"/>
<text text-anchor="middle" x="1593" y="-285.37" font-family="Helvetica,sans-Serif" font-size="13.00" fill="#94a3b8">on = Melody_id 200</text>
</g>
<!-- S_start -->
<g id="node2" class="node">
<title>S_start</title>
<path fill="#1a2028" stroke="#9aa4b2" stroke-width="1.2" d="M1956.5,-252.77C1956.5,-252.77 1924.5,-252.77 1924.5,-252.77 1918.5,-252.77 1912.5,-246.77 1912.5,-240.77 1912.5,-240.77 1912.5,-228.77 1912.5,-228.77 1912.5,-222.77 1918.5,-216.77 1924.5,-216.77 1924.5,-216.77 1956.5,-216.77 1956.5,-216.77 1962.5,-216.77 1968.5,-222.77 1968.5,-228.77 1968.5,-228.77 1968.5,-240.77 1968.5,-240.77 1968.5,-246.77 1962.5,-252.77 1956.5,-252.77"/>
<text text-anchor="middle" x="1940.5" y="-230.97" font-family="Helvetica,sans-Serif" font-size="16.00" fill="#e6edf3">Start</text>
</g>
<!-- S_100 -->
<g id="node3" class="node">
<title>S_100</title>
<path fill="#1a2028" stroke="#9aa4b2" stroke-width="1.2" d="M1997,-144.77C1997,-144.77 1884,-144.77 1884,-144.77 1878,-144.77 1872,-138.77 1872,-132.77 1872,-132.77 1872,-120.77 1872,-120.77 1872,-114.77 1878,-108.77 1884,-108.77 1884,-108.77 1997,-108.77 1997,-108.77 2003,-108.77 2009,-114.77 2009,-120.77 2009,-120.77 2009,-132.77 2009,-132.77 2009,-138.77 2003,-144.77 1997,-144.77"/>
<text text-anchor="middle" x="1940.5" y="-122.97" font-family="Helvetica,sans-Serif" font-size="16.00" fill="#e6edf3">Sense / Decide</text>
</g>
<!-- S_start&#45;&gt;S_100 -->
<g id="edge8" class="edge">
<title>S_start&#45;&gt;S_100</title>
<path fill="none" stroke="#9aa4b2" d="M1940.5,-216.74C1940.5,-199.61 1940.5,-172.99 1940.5,-153.33"/>
<polygon fill="#9aa4b2" stroke="#9aa4b2" points="1943.3,-153.11 1940.5,-145.11 1937.7,-153.11 1943.3,-153.11"/>
<text text-anchor="middle" x="2001.5" y="-177.37" font-family="Helvetica,sans-Serif" font-size="13.00" fill="#94a3b8">next labeled block</text>
</g>
<!-- S_100&#45;&gt;S_100 -->
<g id="edge10" class="edge">
<title>S_100&#45;&gt;S_100</title>
<path fill="none" stroke="#9aa4b2" d="M2009.34,-136.86C2029.44,-136.52 2045,-133.15 2045,-126.77 2045,-121.29 2033.51,-118.03 2017.52,-117"/>
<polygon fill="#9aa4b2" stroke="#9aa4b2" points="2017.45,-114.2 2009.34,-116.67 2017.23,-119.79 2017.45,-114.2"/>
<text text-anchor="middle" x="2053.5" y="-123.37" font-family="Helvetica,sans-Serif" font-size="13.00" fill="#94a3b8">go</text>
</g>
<!-- S_THEN -->
<g id="node20" class="node">
<title>S_THEN</title>
<ellipse fill="none" stroke="#9aa4b2" stroke-width="1.2" cx="1004.5" cy="-18.38" rx="55.72" ry="18.27"/>
<text text-anchor="middle" x="1004.5" y="-14.58" font-family="Helvetica,sans-Serif" font-size="16.00" fill="#e6edf3">S_THEN</text>
</g>
<!-- S_100&#45;&gt;S_THEN -->
<g id="edge9" class="edge">
<title>S_100&#45;&gt;S_THEN</title>
<path fill="none" stroke="#9aa4b2" d="M1880.5,-108.72C1829.16,-94.85 1753.07,-75.95 1685.5,-65.77 1460.41,-31.85 1189.7,-22.72 1068.56,-20.27"/>
<polygon fill="#9aa4b2" stroke="#9aa4b2" points="1068.5,-17.47 1060.45,-20.11 1068.39,-23.07 1068.5,-17.47"/>
<text text-anchor="middle" x="1810.5" y="-69.37" font-family="Helvetica,sans-Serif" font-size="13.00" fill="#94a3b8">if = Melody_id 1</text>
</g>
<!-- S_200 -->
<g id="node4" class="node">
<title>S_200</title>
<path fill="#1a2028" stroke="#9aa4b2" stroke-width="1.2" d="M125,-144.77C125,-144.77 12,-144.77 12,-144.77 6,-144.77 0,-138.77 0,-132.77 0,-132.77 0,-120.77 0,-120.77 0,-114.77 6,-108.77 12,-108.77 12,-108.77 125,-108.77 125,-108.77 131,-108.77 137,-114.77 137,-120.77 137,-120.77 137,-132.77 137,-132.77 137,-138.77 131,-144.77 125,-144.77"/>
<text text-anchor="middle" x="68.5" y="-122.97" font-family="Helvetica,sans-Serif" font-size="16.00" fill="#e6edf3">Sense / Decide</text>
</g>
<!-- S_200&#45;&gt;S_200 -->
<g id="edge12" class="edge">
<title>S_200&#45;&gt;S_200</title>
<path fill="none" stroke="#9aa4b2" d="M137.34,-136.86C157.44,-136.52 173,-133.15 173,-126.77 173,-121.29 161.51,-118.03 145.52,-117"/>
<polygon fill="#9aa4b2" stroke="#9aa4b2" points="145.45,-114.2 137.34,-116.67 145.23,-119.79 145.45,-114.2"/>
<text text-anchor="middle" x="181.5" y="-123.37" font-family="Helvetica,sans-Serif" font-size="13.00" fill="#94a3b8">go</text>
</g>
<!-- S_200&#45;&gt;S_THEN -->
<g id="edge11" class="edge">
<title>S_200&#45;&gt;S_THEN</title>
<path fill="none" stroke="#9aa4b2" d="M127.78,-108.71C178.5,-94.82 253.69,-75.92 320.5,-65.77 546.82,-31.4 819.15,-22.49 940.62,-20.19"/>
<polygon fill="#9aa4b2" stroke="#9aa4b2" points="940.8,-22.98 948.75,-20.04 940.7,-17.38 940.8,-22.98"/>
<text text-anchor="middle" x="374.5" y="-69.37" font-family="Helvetica,sans-Serif" font-size="13.00" fill="#94a3b8">if = Melody_id 1</text>
</g>
<!-- S_300 -->
<g id="node5" class="node">
<title>S_300</title>
<path fill="#1a2028" stroke="#9aa4b2" stroke-width="1.2" d="M333,-144.77C333,-144.77 220,-144.77 220,-144.77 214,-144.77 208,-138.77 208,-132.77 208,-132.77 208,-120.77 208,-120.77 208,-114.77 214,-108.77 220,-108.77 220,-108.77 333,-108.77 333,-108.77 339,-108.77 345,-114.77 345,-120.77 345,-120.77 345,-132.77 345,-132.77 345,-138.77 339,-144.77 333,-144.77"/>
<text text-anchor="middle" x="276.5" y="-122.97" font-family="Helvetica,sans-Serif" font-size="16.00" fill="#e6edf3">Sense / Decide</text>
</g>
<!-- S_300&#45;&gt;S_300 -->
<g id="edge14" class="edge">
<title>S_300&#45;&gt;S_300</title>
<path fill="none" stroke="#9aa4b2" d="M345.34,-136.86C365.44,-136.52 381,-133.15 381,-126.77 381,-121.29 369.51,-118.03 353.52,-117"/>
<polygon fill="#9aa4b2" stroke="#9aa4b2" points="353.45,-114.2 345.34,-116.67 353.23,-119.79 353.45,-114.2"/>
<text text-anchor="middle" x="389.5" y="-123.37" font-family="Helvetica,sans-Serif" font-size="13.00" fill="#94a3b8">go</text>
</g>
<!-- S_300&#45;&gt;S_THEN -->
<g id="edge13" class="edge">
<title>S_300&#45;&gt;S_THEN</title>
<path fill="none" stroke="#9aa4b2" d="M329.29,-108.73C373.91,-95.01 439.75,-76.32 498.5,-65.77 656.06,-37.48 844.49,-25.99 940.86,-21.7"/>
<polygon fill="#9aa4b2" stroke="#9aa4b2" points="941.18,-24.48 949.05,-21.34 940.93,-18.89 941.18,-24.48"/>
<text text-anchor="middle" x="552.5" y="-69.37" font-family="Helvetica,sans-Serif" font-size="13.00" fill="#94a3b8">if = Melody_id 1</text>
</g>
<!-- S_400 -->
<g id="node6" class="node">
<title>S_400</title>
<path fill="#1a2028" stroke="#9aa4b2" stroke-width="1.2" d="M541,-144.77C541,-144.77 428,-144.77 428,-144.77 422,-144.77 416,-138.77 416,-132.77 416,-132.77 416,-120.77 416,-120.77 416,-114.77 422,-108.77 428,-108.77 428,-108.77 541,-108.77 541,-108.77 547,-108.77 553,-114.77 553,-120.77 553,-120.77 553,-132.77 553,-132.77 553,-138.77 547,-144.77 541,-144.77"/>
<text text-anchor="middle" x="484.5" y="-122.97" font-family="Helvetica,sans-Serif" font-size="16.00" fill="#e6edf3">Sense / Decide</text>
</g>
<!-- S_400&#45;&gt;S_400 -->
<g id="edge16" class="edge">
<title>S_400&#45;&gt;S_400</title>
<path fill="none" stroke="#9aa4b2" d="M553.34,-136.86C573.44,-136.52 589,-133.15 589,-126.77 589,-121.29 577.51,-118.03 561.52,-117"/>
<polygon fill="#9aa4b2" stroke="#9aa4b2" points="561.45,-114.2 553.34,-116.67 561.23,-119.79 561.45,-114.2"/>
<text text-anchor="middle" x="597.5" y="-123.37" font-family="Helvetica,sans-Serif" font-size="13.00" fill="#94a3b8">go</text>
</g>
<!-- S_400&#45;&gt;S_THEN -->
<g id="edge15" class="edge">
<title>S_400&#45;&gt;S_THEN</title>
<path fill="none" stroke="#9aa4b2" d="M528.48,-108.66C564.73,-95.17 617.77,-76.85 665.5,-65.77 761,-43.61 874.26,-30.74 942.69,-24.4"/>
<polygon fill="#9aa4b2" stroke="#9aa4b2" points="943.1,-27.17 950.81,-23.66 942.59,-21.59 943.1,-27.17"/>
<text text-anchor="middle" x="719.5" y="-69.37" font-family="Helvetica,sans-Serif" font-size="13.00" fill="#94a3b8">if = Melody_id 1</text>
</g>
<!-- S_500 -->
<g id="node7" class="node">
<title>S_500</title>
<path fill="#1a2028" stroke="#9aa4b2" stroke-width="1.2" d="M749,-144.77C749,-144.77 636,-144.77 636,-144.77 630,-144.77 624,-138.77 624,-132.77 624,-132.77 624,-120.77 624,-120.77 624,-114.77 630,-108.77 636,-108.77 636,-108.77 749,-108.77 749,-108.77 755,-108.77 761,-114.77 761,-120.77 761,-120.77 761,-132.77 761,-132.77 761,-138.77 755,-144.77 749,-144.77"/>
<text text-anchor="middle" x="692.5" y="-122.97" font-family="Helvetica,sans-Serif" font-size="16.00" fill="#e6edf3">Sense / Decide</text>
</g>
<!-- S_500&#45;&gt;S_500 -->
<g id="edge18" class="edge">
<title>S_500&#45;&gt;S_500</title>
<path fill="none" stroke="#9aa4b2" d="M761.34,-136.86C781.44,-136.52 797,-133.15 797,-126.77 797,-121.29 785.51,-118.03 769.52,-117"/>
<polygon fill="#9aa4b2" stroke="#9aa4b2" points="769.45,-114.2 761.34,-116.67 769.23,-119.79 769.45,-114.2"/>
<text text-anchor="middle" x="805.5" y="-123.37" font-family="Helvetica,sans-Serif" font-size="13.00" fill="#94a3b8">go</text>
</g>
<!-- S_500&#45;&gt;S_THEN -->
<g id="edge17" class="edge">
<title>S_500&#45;&gt;S_THEN</title>
<path fill="none" stroke="#9aa4b2" d="M722.24,-108.52C746.02,-95.32 780.56,-77.44 812.5,-65.77 857,-49.51 909.4,-37.29 948.2,-29.48"/>
<polygon fill="#9aa4b2" stroke="#9aa4b2" points="948.97,-32.19 956.27,-27.88 947.88,-26.69 948.97,-32.19"/>
<text text-anchor="middle" x="866.5" y="-69.37" font-family="Helvetica,sans-Serif" font-size="13.00" fill="#94a3b8">if = Melody_id 1</text>
</g>
<!-- S_600 -->
<g id="node8" class="node">
<title>S_600</title>
<path fill="#1a2028" stroke="#9aa4b2" stroke-width="1.2" d="M957,-144.77C957,-144.77 844,-144.77 844,-144.77 838,-144.77 832,-138.77 832,-132.77 832,-132.77 832,-120.77 832,-120.77 832,-114.77 838,-108.77 844,-108.77 844,-108.77 957,-108.77 957,-108.77 963,-108.77 969,-114.77 969,-120.77 969,-120.77 969,-132.77 969,-132.77 969,-138.77 963,-144.77 957,-144.77"/>
<text text-anchor="middle" x="900.5" y="-122.97" font-family="Helvetica,sans-Serif" font-size="16.00" fill="#e6edf3">Sense / Decide</text>
</g>
<!-- S_600&#45;&gt;S_600 -->
<g id="edge20" class="edge">
<title>S_600&#45;&gt;S_600</title>
<path fill="none" stroke="#9aa4b2" d="M969.34,-136.86C989.44,-136.52 1005,-133.15 1005,-126.77 1005,-121.29 993.51,-118.03 977.52,-117"/>
<polygon fill="#9aa4b2" stroke="#9aa4b2" points="977.45,-114.2 969.34,-116.67 977.23,-119.79 977.45,-114.2"/>
<text text-anchor="middle" x="1013.5" y="-123.37" font-family="Helvetica,sans-Serif" font-size="13.00" fill="#94a3b8">go</text>
</g>
<!-- S_600&#45;&gt;S_THEN -->
<g id="edge19" class="edge">
<title>S_600&#45;&gt;S_THEN</title>
<path fill="none" stroke="#9aa4b2" d="M909.75,-108.56C917.06,-95.88 928.09,-78.67 940.5,-65.77 949.78,-56.11 961.29,-47.08 971.98,-39.59"/>
<polygon fill="#9aa4b2" stroke="#9aa4b2" points="973.82,-41.73 978.86,-34.91 970.67,-37.1 973.82,-41.73"/>
<text text-anchor="middle" x="994.5" y="-69.37" font-family="Helvetica,sans-Serif" font-size="13.00" fill="#94a3b8">if = Melody_id 1</text>
</g>
<!-- S_700 -->
<g id="node9" class="node">
<title>S_700</title>
<path fill="#1a2028" stroke="#9aa4b2" stroke-width="1.2" d="M1165,-144.77C1165,-144.77 1052,-144.77 1052,-144.77 1046,-144.77 1040,-138.77 1040,-132.77 1040,-132.77 1040,-120.77 1040,-120.77 1040,-114.77 1046,-108.77 1052,-108.77 1052,-108.77 1165,-108.77 1165,-108.77 1171,-108.77 1177,-114.77 1177,-120.77 1177,-120.77 1177,-132.77 1177,-132.77 1177,-138.77 1171,-144.77 1165,-144.77"/>
<text text-anchor="middle" x="1108.5" y="-122.97" font-family="Helvetica,sans-Serif" font-size="16.00" fill="#e6edf3">Sense / Decide</text>
</g>
<!-- S_700&#45;&gt;S_700 -->
<g id="edge22" class="edge">
<title>S_700&#45;&gt;S_700</title>
<path fill="none" stroke="#9aa4b2" d="M1177.34,-136.86C1197.44,-136.52 1213,-133.15 1213,-126.77 1213,-121.29 1201.51,-118.03 1185.52,-117"/>
<polygon fill="#9aa4b2" stroke="#9aa4b2" points="1185.45,-114.2 1177.34,-116.67 1185.23,-119.79 1185.45,-114.2"/>
<text text-anchor="middle" x="1221.5" y="-123.37" font-family="Helvetica,sans-Serif" font-size="13.00" fill="#94a3b8">go</text>
</g>
<!-- S_700&#45;&gt;S_THEN -->
<g id="edge21" class="edge">
<title>S_700&#45;&gt;S_THEN</title>
<path fill="none" stroke="#9aa4b2" d="M1093.4,-108.66C1082.52,-96.49 1067.38,-79.87 1053.5,-65.77 1045.51,-57.65 1036.52,-49.01 1028.45,-41.41"/>
<polygon fill="#9aa4b2" stroke="#9aa4b2" points="1030.24,-39.25 1022.48,-35.83 1026.41,-43.34 1030.24,-39.25"/>
<text text-anchor="middle" x="1120.5" y="-69.37" font-family="Helvetica,sans-Serif" font-size="13.00" fill="#94a3b8">if = Melody_id 1</text>
</g>
<!-- S_800 -->
<g id="node10" class="node">
<title>S_800</title>
<path fill="#1a2028" stroke="#9aa4b2" stroke-width="1.2" d="M1373,-144.77C1373,-144.77 1260,-144.77 1260,-144.77 1254,-144.77 1248,-138.77 1248,-132.77 1248,-132.77 1248,-120.77 1248,-120.77 1248,-114.77 1254,-108.77 1260,-108.77 1260,-108.77 1373,-108.77 1373,-108.77 1379,-108.77 1385,-114.77 1385,-120.77 1385,-120.77 1385,-132.77 1385,-132.77 1385,-138.77 1379,-144.77 1373,-144.77"/>
<text text-anchor="middle" x="1316.5" y="-122.97" font-family="Helvetica,sans-Serif" font-size="16.00" fill="#e6edf3">Sense / Decide</text>
</g>
<!-- S_800&#45;&gt;S_800 -->
<g id="edge24" class="edge">
<title>S_800&#45;&gt;S_800</title>
<path fill="none" stroke="#9aa4b2" d="M1385.34,-136.86C1405.44,-136.52 1421,-133.15 1421,-126.77 1421,-121.29 1409.51,-118.03 1393.52,-117"/>
<polygon fill="#9aa4b2" stroke="#9aa4b2" points="1393.45,-114.2 1385.34,-116.67 1393.23,-119.79 1393.45,-114.2"/>
<text text-anchor="middle" x="1429.5" y="-123.37" font-family="Helvetica,sans-Serif" font-size="13.00" fill="#94a3b8">go</text>
</g>
<!-- S_800&#45;&gt;S_THEN -->
<g id="edge23" class="edge">
<title>S_800&#45;&gt;S_THEN</title>
<path fill="none" stroke="#9aa4b2" d="M1282.98,-108.73C1256.47,-95.72 1218.26,-78.01 1183.5,-65.77 1142.26,-51.24 1094.23,-39.04 1058.32,-30.81"/>
<polygon fill="#9aa4b2" stroke="#9aa4b2" points="1058.81,-28.05 1050.38,-29.01 1057.57,-33.51 1058.81,-28.05"/>
<text text-anchor="middle" x="1271.5" y="-69.37" font-family="Helvetica,sans-Serif" font-size="13.00" fill="#94a3b8">if = Melody_id 1</text>
</g>
<!-- S_900 -->
<g id="node11" class="node">
<title>S_900</title>
<path fill="#1a2028" stroke="#9aa4b2" stroke-width="1.2" d="M1581,-144.77C1581,-144.77 1468,-144.77 1468,-144.77 1462,-144.77 1456,-138.77 1456,-132.77 1456,-132.77 1456,-120.77 1456,-120.77 1456,-114.77 1462,-108.77 1468,-108.77 1468,-108.77 1581,-108.77 1581,-108.77 1587,-108.77 1593,-114.77 1593,-120.77 1593,-120.77 1593,-132.77 1593,-132.77 1593,-138.77 1587,-144.77 1581,-144.77"/>
<text text-anchor="middle" x="1524.5" y="-122.97" font-family="Helvetica,sans-Serif" font-size="16.00" fill="#e6edf3">Sense / Decide</text>
</g>
<!-- S_900&#45;&gt;S_900 -->
<g id="edge26" class="edge">
<title>S_900&#45;&gt;S_900</title>
<path fill="none" stroke="#9aa4b2" d="M1593.34,-136.86C1613.44,-136.52 1629,-133.15 1629,-126.77 1629,-121.29 1617.51,-118.03 1601.52,-117"/>
<polygon fill="#9aa4b2" stroke="#9aa4b2" points="1601.45,-114.2 1593.34,-116.67 1601.23,-119.79 1601.45,-114.2"/>
<text text-anchor="middle" x="1637.5" y="-123.37" font-family="Helvetica,sans-Serif" font-size="13.00" fill="#94a3b8">go</text>
</g>
<!-- S_900&#45;&gt;S_THEN -->
<g id="edge25" class="edge">
<title>S_900&#45;&gt;S_THEN</title>
<path fill="none" stroke="#9aa4b2" d="M1477.86,-108.65C1439.76,-95.24 1384.26,-77.04 1334.5,-65.77 1242.11,-44.84 1132.89,-31.71 1066.18,-24.96"/>
<polygon fill="#9aa4b2" stroke="#9aa4b2" points="1066.1,-22.14 1057.86,-24.13 1065.54,-27.71 1066.1,-22.14"/>
<text text-anchor="middle" x="1441.5" y="-69.37" font-family="Helvetica,sans-Serif" font-size="13.00" fill="#94a3b8">if = Melody_id 1</text>
</g>
<!-- S_1000 -->
<g id="node12" class="node">
<title>S_1000</title>
<path fill="#1a2028" stroke="#9aa4b2" stroke-width="1.2" d="M1789,-144.77C1789,-144.77 1676,-144.77 1676,-144.77 1670,-144.77 1664,-138.77 1664,-132.77 1664,-132.77 1664,-120.77 1664,-120.77 1664,-114.77 1670,-108.77 1676,-108.77 1676,-108.77 1789,-108.77 1789,-108.77 1795,-108.77 1801,-114.77 1801,-120.77 1801,-120.77 1801,-132.77 1801,-132.77 1801,-138.77 1795,-144.77 1789,-144.77"/>
<text text-anchor="middle" x="1732.5" y="-122.97" font-family="Helvetica,sans-Serif" font-size="16.00" fill="#e6edf3">Sense / Decide</text>
</g>
<!-- S_1000&#45;&gt;S_1000 -->
<g id="edge28" class="edge">
<title>S_1000&#45;&gt;S_1000</title>
<path fill="none" stroke="#9aa4b2" d="M1801.34,-136.86C1821.44,-136.52 1837,-133.15 1837,-126.77 1837,-121.29 1825.51,-118.03 1809.52,-117"/>
<polygon fill="#9aa4b2" stroke="#9aa4b2" points="1809.45,-114.2 1801.34,-116.67 1809.23,-119.79 1809.45,-114.2"/>
<text text-anchor="middle" x="1845.5" y="-123.37" font-family="Helvetica,sans-Serif" font-size="13.00" fill="#94a3b8">go</text>
</g>
<!-- S_1000&#45;&gt;S_THEN -->
<g id="edge27" class="edge">
<title>S_1000&#45;&gt;S_THEN</title>
<path fill="none" stroke="#9aa4b2" d="M1677.78,-108.65C1631.94,-94.97 1564.56,-76.38 1504.5,-65.77 1348.93,-38.28 1163.06,-26.46 1067.75,-21.91"/>
<polygon fill="#9aa4b2" stroke="#9aa4b2" points="1067.77,-19.11 1059.64,-21.53 1067.5,-24.7 1067.77,-19.11"/>
<text text-anchor="middle" x="1622.5" y="-69.37" font-family="Helvetica,sans-Serif" font-size="13.00" fill="#94a3b8">if = Melody_id 1</text>
</g>
<!-- S_2000 -->
<g id="node13" class="node">
<title>S_2000</title>
<path fill="#1a2028" stroke="#9aa4b2" stroke-width="1.2" d="M2427,-252.77C2427,-252.77 2314,-252.77 2314,-252.77 2308,-252.77 2302,-246.77 2302,-240.77 2302,-240.77 2302,-228.77 2302,-228.77 2302,-222.77 2308,-216.77 2314,-216.77 2314,-216.77 2427,-216.77 2427,-216.77 2433,-216.77 2439,-222.77 2439,-228.77 2439,-228.77 2439,-240.77 2439,-240.77 2439,-246.77 2433,-252.77 2427,-252.77"/>
<text text-anchor="middle" x="2370.5" y="-230.97" font-family="Helvetica,sans-Serif" font-size="16.00" fill="#e6edf3">Sense / Decide</text>
</g>
<!-- S_2000&#45;&gt;S_2000 -->
<g id="edge29" class="edge">
<title>S_2000&#45;&gt;S_2000</title>
<path fill="none" stroke="#9aa4b2" d="M2439.34,-244.86C2459.44,-244.52 2475,-241.15 2475,-234.77 2475,-229.29 2463.51,-226.03 2447.52,-225"/>
<polygon fill="#9aa4b2" stroke="#9aa4b2" points="2447.45,-222.2 2439.34,-224.67 2447.23,-227.79 2447.45,-222.2"/>
<text text-anchor="middle" x="2534.5" y="-231.37" font-family="Helvetica,sans-Serif" font-size="13.00" fill="#94a3b8">if &lt;&gt; Melody_id 9</text>
</g>
<!-- S_3000 -->
<g id="node14" class="node">
<title>S_3000</title>
<path fill="#1a2028" stroke="#9aa4b2" stroke-width="1.2" d="M1834.5,-360.77C1834.5,-360.77 1742.5,-360.77 1742.5,-360.77 1736.5,-360.77 1730.5,-354.77 1730.5,-348.77 1730.5,-348.77 1730.5,-336.77 1730.5,-336.77 1730.5,-330.77 1736.5,-324.77 1742.5,-324.77 1742.5,-324.77 1834.5,-324.77 1834.5,-324.77 1840.5,-324.77 1846.5,-330.77 1846.5,-336.77 1846.5,-336.77 1846.5,-348.77 1846.5,-348.77 1846.5,-354.77 1840.5,-360.77 1834.5,-360.77"/>
<text text-anchor="middle" x="1788.5" y="-338.97" font-family="Helvetica,sans-Serif" font-size="16.00" fill="#e6edf3">Synchronize</text>
</g>
<!-- S_3000&#45;&gt;S_start -->
<g id="edge30" class="edge">
<title>S_3000&#45;&gt;S_start</title>
<path fill="none" stroke="#9aa4b2" d="M1812.92,-324.74C1839.1,-306.48 1880.75,-277.44 1909.29,-257.53"/>
<polygon fill="#9aa4b2" stroke="#9aa4b2" points="1910.93,-259.81 1915.89,-252.93 1907.72,-255.21 1910.93,-259.81"/>
<text text-anchor="middle" x="1883" y="-285.37" font-family="Helvetica,sans-Serif" font-size="13.00" fill="#94a3b8">go</text>
</g>
<!-- S_3100 -->
<g id="node15" class="node">
<title>S_3100</title>
<path fill="#1a2028" stroke="#9aa4b2" stroke-width="1.2" d="M1986.5,-360.77C1986.5,-360.77 1894.5,-360.77 1894.5,-360.77 1888.5,-360.77 1882.5,-354.77 1882.5,-348.77 1882.5,-348.77 1882.5,-336.77 1882.5,-336.77 1882.5,-330.77 1888.5,-324.77 1894.5,-324.77 1894.5,-324.77 1986.5,-324.77 1986.5,-324.77 1992.5,-324.77 1998.5,-330.77 1998.5,-336.77 1998.5,-336.77 1998.5,-348.77 1998.5,-348.77 1998.5,-354.77 1992.5,-360.77 1986.5,-360.77"/>
<text text-anchor="middle" x="1940.5" y="-338.97" font-family="Helvetica,sans-Serif" font-size="16.00" fill="#e6edf3">Synchronize</text>
</g>
<!-- S_3100&#45;&gt;S_start -->
<g id="edge31" class="edge">
<title>S_3100&#45;&gt;S_start</title>
<path fill="none" stroke="#9aa4b2" d="M1940.5,-324.74C1940.5,-307.61 1940.5,-280.99 1940.5,-261.33"/>
<polygon fill="#9aa4b2" stroke="#9aa4b2" points="1943.3,-261.11 1940.5,-253.11 1937.7,-261.11 1943.3,-261.11"/>
<text text-anchor="middle" x="1949" y="-285.37" font-family="Helvetica,sans-Serif" font-size="13.00" fill="#94a3b8">go</text>
</g>
<!-- S_3200 -->
<g id="node16" class="node">
<title>S_3200</title>
<path fill="#1a2028" stroke="#9aa4b2" stroke-width="1.2" d="M2138.5,-360.77C2138.5,-360.77 2046.5,-360.77 2046.5,-360.77 2040.5,-360.77 2034.5,-354.77 2034.5,-348.77 2034.5,-348.77 2034.5,-336.77 2034.5,-336.77 2034.5,-330.77 2040.5,-324.77 2046.5,-324.77 2046.5,-324.77 2138.5,-324.77 2138.5,-324.77 2144.5,-324.77 2150.5,-330.77 2150.5,-336.77 2150.5,-336.77 2150.5,-348.77 2150.5,-348.77 2150.5,-354.77 2144.5,-360.77 2138.5,-360.77"/>
<text text-anchor="middle" x="2092.5" y="-338.97" font-family="Helvetica,sans-Serif" font-size="16.00" fill="#e6edf3">Synchronize</text>
</g>
<!-- S_3200&#45;&gt;S_start -->
<g id="edge32" class="edge">
<title>S_3200&#45;&gt;S_start</title>
<path fill="none" stroke="#9aa4b2" d="M2068.08,-324.74C2041.9,-306.48 2000.25,-277.44 1971.71,-257.53"/>
<polygon fill="#9aa4b2" stroke="#9aa4b2" points="1973.28,-255.21 1965.11,-252.93 1970.07,-259.81 1973.28,-255.21"/>
<text text-anchor="middle" x="2034" y="-285.37" font-family="Helvetica,sans-Serif" font-size="13.00" fill="#94a3b8">go</text>
</g>
<!-- S_4000 -->
<g id="node17" class="node">
<title>S_4000</title>
<path fill="#1a2028" stroke="#9aa4b2" stroke-width="1.2" d="M2338.5,-360.77C2338.5,-360.77 2198.5,-360.77 2198.5,-360.77 2192.5,-360.77 2186.5,-354.77 2186.5,-348.77 2186.5,-348.77 2186.5,-336.77 2186.5,-336.77 2186.5,-330.77 2192.5,-324.77 2198.5,-324.77 2198.5,-324.77 2338.5,-324.77 2338.5,-324.77 2344.5,-324.77 2350.5,-330.77 2350.5,-336.77 2350.5,-336.77 2350.5,-348.77 2350.5,-348.77 2350.5,-354.77 2344.5,-360.77 2338.5,-360.77"/>
<text text-anchor="middle" x="2268.5" y="-338.97" font-family="Helvetica,sans-Serif" font-size="16.00" fill="#e6edf3">Load Stored Poses</text>
</g>
<!-- S_4000&#45;&gt;S_2000 -->
<g id="edge33" class="edge">
<title>S_4000&#45;&gt;S_2000</title>
<path fill="none" stroke="#9aa4b2" d="M2284.89,-324.74C2302.04,-306.92 2329.07,-278.83 2348.16,-258.98"/>
<polygon fill="#9aa4b2" stroke="#9aa4b2" points="2350.28,-260.82 2353.81,-253.11 2346.25,-256.93 2350.28,-260.82"/>
<text text-anchor="middle" x="2334" y="-285.37" font-family="Helvetica,sans-Serif" font-size="13.00" fill="#94a3b8">go</text>
</g>
<!-- S_5000 -->
<g id="node18" class="node">
<title>S_5000</title>
<path fill="#1a2028" stroke="#9aa4b2" stroke-width="1.2" d="M2546.5,-360.77C2546.5,-360.77 2398.5,-360.77 2398.5,-360.77 2392.5,-360.77 2386.5,-354.77 2386.5,-348.77 2386.5,-348.77 2386.5,-336.77 2386.5,-336.77 2386.5,-330.77 2392.5,-324.77 2398.5,-324.77 2398.5,-324.77 2546.5,-324.77 2546.5,-324.77 2552.5,-324.77 2558.5,-330.77 2558.5,-336.77 2558.5,-336.77 2558.5,-348.77 2558.5,-348.77 2558.5,-354.77 2552.5,-360.77 2546.5,-360.77"/>
<text text-anchor="middle" x="2472.5" y="-338.97" font-family="Helvetica,sans-Serif" font-size="16.00" fill="#e6edf3">Save Current Poses</text>
</g>
<!-- S_5000&#45;&gt;S_2000 -->
<g id="edge34" class="edge">
<title>S_5000&#45;&gt;S_2000</title>
<path fill="none" stroke="#9aa4b2" d="M2456.11,-324.74C2438.96,-306.92 2411.93,-278.83 2392.84,-258.98"/>
<polygon fill="#9aa4b2" stroke="#9aa4b2" points="2394.75,-256.93 2387.19,-253.11 2390.72,-260.82 2394.75,-256.93"/>
<text text-anchor="middle" x="2436" y="-285.37" font-family="Helvetica,sans-Serif" font-size="13.00" fill="#94a3b8">go</text>
</g>
<!-- S_9000&#45;&gt;S_9000 -->
<g id="edge35" class="edge">
<title>S_9000&#45;&gt;S_9000</title>
<path fill="none" stroke="#9aa4b2" d="M1168.06,-244.82C1188.47,-244.29 1204,-240.94 1204,-234.77 1204,-229.47 1192.53,-226.25 1176.36,-225.11"/>
<polygon fill="#9aa4b2" stroke="#9aa4b2" points="1176.19,-222.3 1168.06,-224.72 1175.92,-227.89 1176.19,-222.3"/>
<text text-anchor="middle" x="1229" y="-231.37" font-family="Helvetica,sans-Serif" font-size="13.00" fill="#94a3b8">resume</text>
</g>
</g>
</svg>
