<?xml version="1.0" encoding="UTF-8" standalone="no"?>
<!DOCTYPE svg PUBLIC "-//W3C//DTD SVG 1.1//EN"
 "http://www.w3.org/Graphics/SVG/1.1/DTD/svg11.dtd">
<!-- Generated by graphviz version 2.42.4 (0)
 -->
<!-- Title: Move Pages: 1 -->
<svg width="285pt" height="469pt"
 viewBox="0.00 0.00 284.80 468.80" xmlns="http://www.w3.org/2000/svg" xmlns:xlink="http://www.w3.org/1999/xlink">
<g id="graph0" class="graph" transform="scale(1 1) rotate(0) translate(14.4 454.4)">
<title>Move</title>
<polygon fill="white" stroke="transparent" points="-14.4,14.4 -14.4,-454.4 270.4,-454.4 270.4,14.4 -14.4,14.4"/>
<!-- init -->
<g id="node1" class="node">
<title>init</title>
<path fill="white" stroke="#222222" stroke-width="1.4" d="M141.5,-440C141.5,-440 28.5,-440 28.5,-440 22.5,-440 16.5,-434 16.5,-428 16.5,-428 16.5,-416 16.5,-416 16.5,-410 22.5,-404 28.5,-404 28.5,-404 141.5,-404 141.5,-404 147.5,-404 153.5,-410 153.5,-416 153.5,-416 153.5,-428 153.5,-428 153.5,-434 147.5,-440 141.5,-440"/>
<text text-anchor="middle" x="85" y="-418.3" font-family="Helvetica,sans-Serif" font-size="14.00" fill="#111111">Boot / Safe Pose</text>
</g>
<!-- walk -->
<g id="node2" class="node">
<title>walk</title>
<path fill="white" stroke="#222222" stroke-width="1.4" d="M158,-339C158,-339 12,-339 12,-339 6,-339 0,-333 0,-327 0,-327 0,-315 0,-315 0,-309 6,-303 12,-303 12,-303 158,-303 158,-303 164,-303 170,-309 170,-315 170,-315 170,-327 170,-327 170,-333 164,-339 158,-339"/>
<text text-anchor="middle" x="85" y="-317.3" font-family="Helvetica,sans-Serif" font-size="14.00" fill="#111111">Repeat Forward Walk</text>
</g>
<!-- init&#45;&gt;walk -->
<g id="edge1" class="edge">
<title>init&#45;&gt;walk</title>
<path fill="none" stroke="#222222" stroke-width="1.4" d="M85,-403.76C85,-388.14 85,-364.94 85,-347.24"/>
<polygon fill="#222222" stroke="#222222" stroke-width="1.4" points="87.8,-347.05 85,-339.05 82.2,-347.05 87.8,-347.05"/>
<text text-anchor="middle" x="103.5" y="-367.8" font-family="Helvetica,sans-Serif" font-size="14.00" fill="#222222">entry</text>
</g>
<!-- sense -->
<g id="node3" class="node">
<title>sense</title>
<path fill="white" stroke="#222222" stroke-width="1.4" d="M140,-238C140,-238 30,-238 30,-238 24,-238 18,-232 18,-226 18,-226 18,-214 18,-214 18,-208 24,-202 30,-202 30,-202 140,-202 140,-202 146,-202 152,-208 152,-214 152,-214 152,-226 152,-226 152,-232 146,-238 140,-238"/>
<text text-anchor="middle" x="85" y="-216.3" font-family="Helvetica,sans-Serif" font-size="14.00" fill="#111111">Sense Fall State</text>
</g>
<!-- walk&#45;&gt;sense -->
<g id="edge2" class="edge">
<title>walk&#45;&gt;sense</title>
<path fill="none" stroke="#222222" stroke-width="1.4" d="M85,-302.76C85,-287.14 85,-263.94 85,-246.24"/>
<polygon fill="#222222" stroke="#222222" stroke-width="1.4" points="87.8,-246.05 85,-238.05 82.2,-246.05 87.8,-246.05"/>
<text text-anchor="middle" x="153.5" y="-266.8" font-family="Helvetica,sans-Serif" font-size="14.00" fill="#222222">continue to monitor</text>
</g>
<!-- check -->
<g id="node4" class="node">
<title>check</title>
<polygon fill="white" stroke="#222222" stroke-width="1.4" points="48,-137 6.78,-119 48,-101 89.22,-119 48,-137"/>
<text text-anchor="middle" x="48" y="-115.3" font-family="Helvetica,sans-Serif" font-size="14.00" fill="#111111">Fall?</text>
</g>
<!-- sense&#45;&gt;check -->
<g id="edge3" class="edge">
<title>sense&#45;&gt;check</title>
<path fill="none" stroke="#222222" stroke-width="1.4" d="M64.74,-201.76C58.09,-194.82 51.5,-186.27 48,-177 44.12,-166.73 43.6,-154.66 44.26,-144.27"/>
<polygon fill="#222222" stroke="#222222" stroke-width="1.4" points="47.08,-144.25 45.05,-136.02 41.5,-143.72 47.08,-144.25"/>
</g>
<!-- check&#45;&gt;sense -->
<g id="edge5" class="edge">
<title>check&#45;&gt;sense</title>
<path fill="none" stroke="#222222" stroke-width="1.4" d="M53.53,-134.79C59.38,-150.46 68.73,-175.47 75.72,-194.17"/>
<polygon fill="#222222" stroke="#222222" stroke-width="1.4" points="73.13,-195.24 78.56,-201.76 78.38,-193.28 73.13,-195.24"/>
<text text-anchor="middle" x="94" y="-165.8" font-family="Helvetica,sans-Serif" font-size="14.00" fill="#222222">upright</text>
</g>
<!-- recover -->
<g id="node5" class="node">
<title>recover</title>
<path fill="white" stroke="#222222" stroke-width="1.4" d="M132,-36C132,-36 76,-36 76,-36 70,-36 64,-30 64,-24 64,-24 64,-12 64,-12 64,-6 70,0 76,0 76,0 132,0 132,0 138,0 144,-6 144,-12 144,-12 144,-24 144,-24 144,-30 138,-36 132,-36"/>
<text text-anchor="middle" x="104" y="-14.3" font-family="Helvetica,sans-Serif" font-size="14.00" fill="#111111">Recover</text>
</g>
<!-- check&#45;&gt;recover -->
<g id="edge4" class="edge">
<title>check&#45;&gt;recover</title>
<path fill="none" stroke="#222222" stroke-width="1.4" d="M55.79,-104.23C64.69,-88.5 79.42,-62.45 90.27,-43.28"/>
<polygon fill="#222222" stroke="#222222" stroke-width="1.4" points="92.71,-44.65 94.21,-36.31 87.83,-41.89 92.71,-44.65"/>
<text text-anchor="middle" x="98.5" y="-64.8" font-family="Helvetica,sans-Serif" font-size="14.00" fill="#222222">fallen</text>
</g>
<!-- recover&#45;&gt;sense -->
<g id="edge6" class="edge">
<title>recover&#45;&gt;sense</title>
<path fill="none" stroke="#222222" stroke-width="1.4" d="M115.86,-36.18C120.23,-43.49 124.69,-52.32 127,-61 174.49,-239.22 136.47,-159.55 129,-177 126.01,-183.99 121.22,-190.37 115.89,-195.92"/>
<polygon fill="#222222" stroke="#222222" stroke-width="1.4" points="113.78,-194.07 109.94,-201.63 117.65,-198.11 113.78,-194.07"/>
<text text-anchor="middle" x="200.5" y="-115.3" font-family="Helvetica,sans-Serif" font-size="14.00" fill="#222222">resume monitor</text>
</g>
</g>
</svg>
