<?xml version="1.0" encoding="UTF-8" standalone="no"?>
<!DOCTYPE svg PUBLIC "-//W3C//DTD SVG 1.1//EN"
 "http://www.w3.org/Graphics/SVG/1.1/DTD/svg11.dtd">
<!-- Generated by graphviz version 2.42.4 (0)
 -->
<!-- Title: G Pages: 1 -->
<svg width="649pt" height="288pt"
 viewBox="0.00 0.00 648.50 288.00" xmlns="http://www.w3.org/2000/svg" xmlns:xlink="http://www.w3.org/1999/xlink">
<g id="graph0" class="graph" transform="scale(1 1) rotate(0) translate(18 270)">
<title>G</title>
<polygon fill="#101418" stroke="transparent" points="-18,18 -18,-270 630.5,-270 630.5,18 -18,18"/>
<!-- S_INIT -->
<g id="node1" class="node">
<title>S_INIT</title>
<path fill="#1a2028" stroke="#9aa4b2" stroke-width="1.2" d="M356.5,-252C356.5,-252 233.5,-252 233.5,-252 227.5,-252 221.5,-246 221.5,-240 221.5,-240 221.5,-228 221.5,-228 221.5,-222 227.5,-216 233.5,-216 233.5,-216 356.5,-216 356.5,-216 362.5,-216 368.5,-222 368.5,-228 368.5,-228 368.5,-240 368.5,-240 368.5,-246 362.5,-252 356.5,-252"/>
<text text-anchor="middle" x="295" y="-230.2" font-family="Helvetica,sans-Serif" font-size="16.00" fill="#e6edf3">Boot / Safe Pose</text>
</g>
<!-- S_100 -->
<g id="node2" class="node">
<title>S_100</title>
<path fill="#1a2028" stroke="#9aa4b2" stroke-width="1.2" d="M330,-144C330,-144 260,-144 260,-144 254,-144 248,-138 248,-132 248,-132 248,-120 248,-120 248,-114 254,-108 260,-108 260,-108 330,-108 330,-108 336,-108 342,-114 342,-120 342,-120 342,-132 342,-132 342,-138 336,-144 330,-144"/>
<text text-anchor="middle" x="295" y="-122.2" font-family="Helvetica,sans-Serif" font-size="16.00" fill="#e6edf3">MainLoop</text>
</g>
<!-- S_INIT&#45;&gt;S_100 -->
<g id="edge1" class="edge">
<title>S_INIT&#45;&gt;S_100</title>
<path fill="none" stroke="#9aa4b2" d="M295,-215.97C295,-198.84 295,-172.22 295,-152.56"/>
<polygon fill="#9aa4b2" stroke="#9aa4b2" points="297.8,-152.34 295,-144.34 292.2,-152.34 297.8,-152.34"/>
<text text-anchor="middle" x="312.5" y="-176.6" font-family="Helvetica,sans-Serif" font-size="13.00" fill="#94a3b8">entry</text>
</g>
<!-- S_100&#45;&gt;S_100 -->
<g id="edge5" class="edge">
<title>S_100&#45;&gt;S_100</title>
<path fill="none" stroke="#9aa4b2" d="M342.35,-136.05C361.69,-136.68 378,-133.33 378,-126 378,-119.76 366.17,-116.4 350.72,-115.93"/>
<polygon fill="#9aa4b2" stroke="#9aa4b2" points="350.34,-113.13 342.35,-115.95 350.35,-118.73 350.34,-113.13"/>
<text text-anchor="middle" x="386.5" y="-122.6" font-family="Helvetica,sans-Serif" font-size="13.00" fill="#94a3b8">go</text>
</g>
<!-- S_120 -->
<g id="node3" class="node">
<title>S_120</title>
<path fill="#1a2028" stroke="#9aa4b2" stroke-width="1.2" d="M170,-36C170,-36 12,-36 12,-36 6,-36 0,-30 0,-24 0,-24 0,-12 0,-12 0,-6 6,0 12,0 12,0 170,0 170,0 176,0 182,-6 182,-12 182,-12 182,-24 182,-24 182,-30 176,-36 170,-36"/>
<text text-anchor="middle" x="91" y="-14.2" font-family="Helvetica,sans-Serif" font-size="16.00" fill="#e6edf3">Clear Light Playback</text>
</g>
<!-- S_100&#45;&gt;S_120 -->
<g id="edge2" class="edge">
<title>S_100&#45;&gt;S_120</title>
<path fill="none" stroke="#9aa4b2" d="M247.88,-123.9C178.89,-121.18 55.58,-111.74 28,-79 16.4,-65.23 29.26,-51.28 46.31,-40.3"/>
<polygon fill="#9aa4b2" stroke="#9aa4b2" points="47.88,-42.62 53.28,-36.09 44.98,-37.83 47.88,-42.62"/>
<text text-anchor="middle" x="84" y="-68.6" font-family="Helvetica,sans-Serif" font-size="13.00" fill="#94a3b8">if Light_busy &gt; 0</text>
</g>
<!-- S_1000 -->
<g id="node4" class="node">
<title>S_1000</title>
<path fill="#1a2028" stroke="#9aa4b2" stroke-width="1.2" d="M350.5,-36C350.5,-36 237.5,-36 237.5,-36 231.5,-36 225.5,-30 225.5,-24 225.5,-24 225.5,-12 225.5,-12 225.5,-6 231.5,0 237.5,0 237.5,0 350.5,0 350.5,0 356.5,0 362.5,-6 362.5,-12 362.5,-12 362.5,-24 362.5,-24 362.5,-30 356.5,-36 350.5,-36"/>
<text text-anchor="middle" x="294" y="-14.2" font-family="Helvetica,sans-Serif" font-size="16.00" fill="#e6edf3">Sense / Decide</text>
</g>
<!-- S_100&#45;&gt;S_1000 -->
<g id="edge3" class="edge">
<title>S_100&#45;&gt;S_1000</title>
<path fill="none" stroke="#9aa4b2" d="M264.84,-107.9C254.69,-100.45 244.54,-90.72 239,-79 232.25,-64.73 241.87,-51.49 254.85,-41.09"/>
<polygon fill="#9aa4b2" stroke="#9aa4b2" points="256.67,-43.23 261.44,-36.23 253.34,-38.73 256.67,-43.23"/>
<text text-anchor="middle" x="271" y="-68.6" font-family="Helvetica,sans-Serif" font-size="13.00" fill="#94a3b8">if ote = 0</text>
</g>
<!-- S_2000 -->
<g id="node5" class="node">
<title>S_2000</title>
<path fill="#1a2028" stroke="#9aa4b2" stroke-width="1.2" d="M600.5,-36C600.5,-36 513.5,-36 513.5,-36 507.5,-36 501.5,-30 501.5,-24 501.5,-24 501.5,-12 501.5,-12 501.5,-6 507.5,0 513.5,0 513.5,0 600.5,0 600.5,0 606.5,0 612.5,-6 612.5,-12 612.5,-12 612.5,-24 612.5,-24 612.5,-30 606.5,-36 600.5,-36"/>
<text text-anchor="middle" x="557" y="-14.2" font-family="Helvetica,sans-Serif" font-size="16.00" fill="#e6edf3">Action Loop</text>
</g>
<!-- S_100&#45;&gt;S_2000 -->
<g id="edge4" class="edge">
<title>S_100&#45;&gt;S_2000</title>
<path fill="none" stroke="#9aa4b2" d="M342.22,-111.1C369.39,-102.68 403.98,-91.22 434,-79 462.62,-67.35 493.9,-52.05 517.76,-39.82"/>
<polygon fill="#9aa4b2" stroke="#9aa4b2" points="519.08,-42.28 524.91,-36.13 516.52,-37.31 519.08,-42.28"/>
<text text-anchor="middle" x="497" y="-68.6" font-family="Helvetica,sans-Serif" font-size="13.00" fill="#94a3b8">if ote = 1</text>
</g>
<!-- S_120&#45;&gt;S_100 -->
<g id="edge6" class="edge">
<title>S_120&#45;&gt;S_100</title>
<path fill="none" stroke="#9aa4b2" d="M124.03,-36.16C159.72,-54.71 216.59,-84.26 254.84,-104.13"/>
<polygon fill="#9aa4b2" stroke="#9aa4b2" points="253.83,-106.77 262.22,-107.97 256.42,-101.8 253.83,-106.77"/>
<text text-anchor="middle" x="214.5" y="-68.6" font-family="Helvetica,sans-Serif" font-size="13.00" fill="#94a3b8">go</text>
</g>
<!-- S_1000&#45;&gt;S_100 -->
<g id="edge7" class="edge">
<title>S_1000&#45;&gt;S_100</title>
<path fill="none" stroke="#9aa4b2" d="M300.55,-36.2C303.46,-44.72 306.55,-55.26 308,-65 309.73,-76.59 307.57,-89.3 304.55,-100.02"/>
<polygon fill="#9aa4b2" stroke="#9aa4b2" points="301.84,-99.31 302.12,-107.78 307.18,-100.98 301.84,-99.31"/>
<text text-anchor="middle" x="367" y="-68.6" font-family="Helvetica,sans-Serif" font-size="13.00" fill="#94a3b8">if Distance &gt; 500</text>
</g>
<!-- S_2000&#45;&gt;S_100 -->
<g id="edge8" class="edge">
<title>S_2000&#45;&gt;S_100</title>
<path fill="none" stroke="#9aa4b2" d="M556.2,-36.02C554.62,-49.64 550.18,-68.2 538,-79 510.79,-103.13 413.2,-115.47 350.28,-121.05"/>
<polygon fill="#9aa4b2" stroke="#9aa4b2" points="349.75,-118.29 342.02,-121.77 350.23,-123.87 349.75,-118.29"/>
<text text-anchor="middle" x="557.5" y="-68.6" font-family="Helvetica,sans-Serif" font-size="13.00" fill="#94a3b8">go</text>
</g>
</g>
</svg>
