<?xml version="1.0" encoding="UTF-8" standalone="no"?>
<!DOCTYPE svg PUBLIC "-//W3C//DTD SVG 1.1//EN"
 "http://www.w3.org/Graphics/SVG/1.1/DTD/svg11.dtd">
<!-- Generated by graphviz version 2.42.4 (0)
 -->
<!-- Title: G Pages: 1 -->
<svg width="309pt" height="180pt"
 viewBox="0.00 0.00 309.00 180.00" xmlns="http://www.w3.org/2000/svg" xmlns:xlink="http://www.w3.org/1999/xlink">
<g id="graph0" class="graph" transform="scale(1 1) rotate(0) translate(18 162)">
<title>G</title>
<polygon fill="#101418" stroke="transparent" points="-18,18 -18,-162 291,-162 291,18 -18,18"/>
<!-- S_INIT -->
<g id="node1" class="node">
<title>S_INIT</title>
<path fill="#1a2028" stroke="#9aa4b2" stroke-width="1.2" d="M56,-144C56,-144 26,-144 26,-144 20,-144 14,-138 14,-132 14,-132 14,-120 14,-120 14,-114 20,-108 26,-108 26,-108 56,-108 56,-108 62,-108 68,-114 68,-120 68,-120 68,-132 68,-132 68,-138 62,-144 56,-144"/>
<text text-anchor="middle" x="41" y="-122.2" font-family="Helvetica,sans-Serif" font-size="16.00" fill="#e6edf3">Boot</text>
</g>
<!-- S_200 -->
<g id="node3" class="node">
<title>S_200</title>
<path fill="#1a2028" stroke="#9aa4b2" stroke-width="1.2" d="M70,-36C70,-36 12,-36 12,-36 6,-36 0,-30 0,-24 0,-24 0,-12 0,-12 0,-6 6,0 12,0 12,0 70,0 70,0 76,0 82,-6 82,-12 82,-12 82,-24 82,-24 82,-30 76,-36 70,-36"/>
<text text-anchor="middle" x="41" y="-14.2" font-family="Helvetica,sans-Serif" font-size="16.00" fill="#e6edf3">Recover</text>
</g>
<!-- S_INIT&#45;&gt;S_200 -->
<g id="edge1" class="edge">
<title>S_INIT&#45;&gt;S_200</title>
<path fill="none" stroke="#9aa4b2" d="M41,-107.97C41,-90.84 41,-64.22 41,-44.56"/>
<polygon fill="#9aa4b2" stroke="#9aa4b2" points="43.8,-44.34 41,-36.34 38.2,-44.34 43.8,-44.34"/>
<text text-anchor="middle" x="116" y="-68.6" font-family="Helvetica,sans-Serif" font-size="13.00" fill="#94a3b8">on Gsensor_status &amp; 1</text>
</g>
<!-- S_100 -->
<g id="node2" class="node">
<title>S_100</title>
<path fill="#1a2028" stroke="#9aa4b2" stroke-width="1.2" d="M208,-144C208,-144 116,-144 116,-144 110,-144 104,-138 104,-132 104,-132 104,-120 104,-120 104,-114 110,-108 116,-108 116,-108 208,-108 208,-108 214,-108 220,-114 220,-120 220,-120 220,-132 220,-132 220,-138 214,-144 208,-144"/>
<text text-anchor="middle" x="162" y="-122.2" font-family="Helvetica,sans-Serif" font-size="16.00" fill="#e6edf3">Synchronize</text>
</g>
<!-- S_100&#45;&gt;S_100 -->
<g id="edge2" class="edge">
<title>S_100&#45;&gt;S_100</title>
<path fill="none" stroke="#9aa4b2" d="M220.29,-136.12C240.09,-136.18 256,-132.8 256,-126 256,-120.15 244.25,-116.84 228.38,-116.06"/>
<polygon fill="#9aa4b2" stroke="#9aa4b2" points="228.35,-113.26 220.29,-115.88 228.23,-118.85 228.35,-113.26"/>
<text text-anchor="middle" x="264.5" y="-122.6" font-family="Helvetica,sans-Serif" font-size="13.00" fill="#94a3b8">go</text>
</g>
<!-- S_200&#45;&gt;S_200 -->
<g id="edge3" class="edge">
<title>S_200&#45;&gt;S_200</title>
<path fill="none" stroke="#9aa4b2" d="M82.19,-27.92C101.3,-29.01 118,-25.7 118,-18 118,-11.44 105.89,-8.07 90.5,-7.88"/>
<polygon fill="#9aa4b2" stroke="#9aa4b2" points="90.13,-5.09 82.19,-8.08 90.26,-10.69 90.13,-5.09"/>
<text text-anchor="middle" x="143" y="-14.6" font-family="Helvetica,sans-Serif" font-size="13.00" fill="#94a3b8">resume</text>
</g>
</g>
</svg>
