<?xml version="1.0" encoding="UTF-8" standalone="no"?>
<!DOCTYPE svg PUBLIC "-//W3C//DTD SVG 1.1//EN"
 "http://www.w3.org/Graphics/SVG/1.1/DTD/svg11.dtd">
<!-- Generated by graphviz version 2.42.4 (0)
 -->
<!-- Title: G Pages: 1 -->
<svg width="441pt" height="504pt"
 viewBox="0.00 0.00 440.50 504.00" xmlns="http://www.w3.org/2000/svg" xmlns:xlink="http://www.w3.org/1999/xlink">
<g id="graph0" class="graph" transform="scale(1 1) rotate(0) translate(18 486)">
<title>G</title>
<polygon fill="#101418" stroke="transparent" points="-18,18 -18,-486 422.5,-486 422.5,18 -18,18"/>
<!-- S_INIT -->
<g id="node1" class="node">
<title>S_INIT</title>
<path fill="#1a2028" stroke="#9aa4b2" stroke-width="1.2" d="M195,-468C195,-468 72,-468 72,-468 66,-468 60,-462 60,-456 60,-456 60,-444 60,-444 60,-438 66,-432 72,-432 72,-432 195,-432 195,-432 201,-432 207,-438 207,-444 207,-444 207,-456 207,-456 207,-462 201,-468 195,-468"/>
<text text-anchor="middle" x="133.5" y="-446.2" font-family="Helvetica,sans-Serif" font-size="16.00" fill="#e6edf3">Boot / Safe Pose</text>
</g>
<!-- S_100 -->
<g id="node2" class="node">
<title>S_100</title>
<path fill="#1a2028" stroke="#9aa4b2" stroke-width="1.2" d="M199,-360C199,-360 86,-360 86,-360 80,-360 74,-354 74,-348 74,-348 74,-336 74,-336 74,-330 80,-324 86,-324 86,-324 199,-324 199,-324 205,-324 211,-330 211,-336 211,-336 211,-348 211,-348 211,-354 205,-360 199,-360"/>
<text text-anchor="middle" x="142.5" y="-338.2" font-family="Helvetica,sans-Serif" font-size="16.00" fill="#e6edf3">Sense / Decide</text>
</g>
<!-- S_INIT&#45;&gt;S_100 -->
<g id="edge1" class="edge">
<title>S_INIT&#45;&gt;S_100</title>
<path fill="none" stroke="#9aa4b2" d="M134.95,-431.97C136.4,-414.84 138.66,-388.22 140.33,-368.56"/>
<polygon fill="#9aa4b2" stroke="#9aa4b2" points="143.14,-368.55 141.03,-360.34 137.56,-368.08 143.14,-368.55"/>
<text text-anchor="middle" x="157" y="-392.6" font-family="Helvetica,sans-Serif" font-size="13.00" fill="#94a3b8">entry</text>
</g>
<!-- S_110 -->
<g id="node3" class="node">
<title>S_110</title>
<path fill="#1a2028" stroke="#9aa4b2" stroke-width="1.2" d="M125,-252C125,-252 12,-252 12,-252 6,-252 0,-246 0,-240 0,-240 0,-228 0,-228 0,-222 6,-216 12,-216 12,-216 125,-216 125,-216 131,-216 137,-222 137,-228 137,-228 137,-240 137,-240 137,-246 131,-252 125,-252"/>
<text text-anchor="middle" x="68.5" y="-230.2" font-family="Helvetica,sans-Serif" font-size="16.00" fill="#e6edf3">Sense / Decide</text>
</g>
<!-- S_100&#45;&gt;S_110 -->
<g id="edge2" class="edge">
<title>S_100&#45;&gt;S_110</title>
<path fill="none" stroke="#9aa4b2" d="M99.4,-323.98C87.22,-316.93 75.41,-307.43 68.5,-295 62.73,-284.62 62.1,-271.6 63.17,-260.34"/>
<polygon fill="#9aa4b2" stroke="#9aa4b2" points="65.98,-260.44 64.27,-252.14 60.43,-259.7 65.98,-260.44"/>
<text text-anchor="middle" x="129" y="-284.6" font-family="Helvetica,sans-Serif" font-size="13.00" fill="#94a3b8">if Sound_busy &gt; 0</text>
</g>
<!-- S_120 -->
<g id="node4" class="node">
<title>S_120</title>
<path fill="#1a2028" stroke="#9aa4b2" stroke-width="1.2" d="M112.5,-144C112.5,-144 20.5,-144 20.5,-144 14.5,-144 8.5,-138 8.5,-132 8.5,-132 8.5,-120 8.5,-120 8.5,-114 14.5,-108 20.5,-108 20.5,-108 112.5,-108 112.5,-108 118.5,-108 124.5,-114 124.5,-120 124.5,-120 124.5,-132 124.5,-132 124.5,-138 118.5,-144 112.5,-144"/>
<text text-anchor="middle" x="66.5" y="-122.2" font-family="Helvetica,sans-Serif" font-size="16.00" fill="#e6edf3">Synchronize</text>
</g>
<!-- S_110&#45;&gt;S_120 -->
<g id="edge3" class="edge">
<title>S_110&#45;&gt;S_120</title>
<path fill="none" stroke="#9aa4b2" d="M64.75,-215.62C63.09,-207.05 61.32,-196.53 60.5,-187 59.51,-175.56 60.47,-162.91 61.89,-152.19"/>
<polygon fill="#9aa4b2" stroke="#9aa4b2" points="64.69,-152.38 63.1,-144.06 59.16,-151.56 64.69,-152.38"/>
<text text-anchor="middle" x="116.5" y="-176.6" font-family="Helvetica,sans-Serif" font-size="13.00" fill="#94a3b8">if Light_busy &gt; 0</text>
</g>
<!-- S_130 -->
<g id="node5" class="node">
<title>S_130</title>
<path fill="#1a2028" stroke="#9aa4b2" stroke-width="1.2" d="M199,-36C199,-36 86,-36 86,-36 80,-36 74,-30 74,-24 74,-24 74,-12 74,-12 74,-6 80,0 86,0 86,0 199,0 199,0 205,0 211,-6 211,-12 211,-12 211,-24 211,-24 211,-30 205,-36 199,-36"/>
<text text-anchor="middle" x="142.5" y="-14.2" font-family="Helvetica,sans-Serif" font-size="16.00" fill="#e6edf3">Sense / Decide</text>
</g>
<!-- S_120&#45;&gt;S_130 -->
<g id="edge4" class="edge">
<title>S_120&#45;&gt;S_130</title>
<path fill="none" stroke="#9aa4b2" d="M62.6,-107.81C60.67,-95.14 60.12,-77.94 67.5,-65 73.17,-55.07 81.93,-47.02 91.49,-40.59"/>
<polygon fill="#9aa4b2" stroke="#9aa4b2" points="93.25,-42.79 98.57,-36.19 90.29,-38.04 93.25,-42.79"/>
<text text-anchor="middle" x="128.5" y="-68.6" font-family="Helvetica,sans-Serif" font-size="13.00" fill="#94a3b8">next labeled block</text>
</g>
<!-- S_130&#45;&gt;S_100 -->
<g id="edge5" class="edge">
<title>S_130&#45;&gt;S_100</title>
<path fill="none" stroke="#9aa4b2" d="M170.01,-36.09C179.62,-43.65 189.3,-53.46 194.5,-65 236.49,-158.2 236.49,-201.8 194.5,-295 190.44,-304.01 183.64,-311.98 176.28,-318.63"/>
<polygon fill="#9aa4b2" stroke="#9aa4b2" points="174.32,-316.62 170.01,-323.91 177.93,-320.9 174.32,-316.62"/>
<text text-anchor="middle" x="315.5" y="-176.6" font-family="Helvetica,sans-Serif" font-size="13.00" fill="#94a3b8">if Touch_head_press &lt; 300</text>
</g>
<!-- S_200 -->
<g id="node6" class="node">
<title>S_200</title>
<path fill="#1a2028" stroke="#9aa4b2" stroke-width="1.2" d="M368,-468C368,-468 255,-468 255,-468 249,-468 243,-462 243,-456 243,-456 243,-444 243,-444 243,-438 249,-432 255,-432 255,-432 368,-432 368,-432 374,-432 380,-438 380,-444 380,-444 380,-456 380,-456 380,-462 374,-468 368,-468"/>
<text text-anchor="middle" x="311.5" y="-446.2" font-family="Helvetica,sans-Serif" font-size="16.00" fill="#e6edf3">Sense / Decide</text>
</g>
<!-- S_200&#45;&gt;S_100 -->
<g id="edge7" class="edge">
<title>S_200&#45;&gt;S_100</title>
<path fill="none" stroke="#9aa4b2" d="M284.35,-431.97C255.11,-413.63 208.54,-384.42 176.8,-364.51"/>
<polygon fill="#9aa4b2" stroke="#9aa4b2" points="178.13,-362.04 169.87,-360.16 175.16,-366.79 178.13,-362.04"/>
<text text-anchor="middle" x="246" y="-392.6" font-family="Helvetica,sans-Serif" font-size="13.00" fill="#94a3b8">go</text>
</g>
<!-- S_300 -->
<g id="node7" class="node">
<title>S_300</title>
<path fill="#1a2028" stroke="#9aa4b2" stroke-width="1.2" d="M355,-360C355,-360 268,-360 268,-360 262,-360 256,-354 256,-348 256,-348 256,-336 256,-336 256,-330 262,-324 268,-324 268,-324 355,-324 355,-324 361,-324 367,-330 367,-336 367,-336 367,-348 367,-348 367,-354 361,-360 355,-360"/>
<text text-anchor="middle" x="311.5" y="-338.2" font-family="Helvetica,sans-Serif" font-size="16.00" fill="#e6edf3">Action Loop</text>
</g>
<!-- S_200&#45;&gt;S_300 -->
<g id="edge6" class="edge">
<title>S_200&#45;&gt;S_300</title>
<path fill="none" stroke="#9aa4b2" d="M311.5,-431.97C311.5,-414.84 311.5,-388.22 311.5,-368.56"/>
<polygon fill="#9aa4b2" stroke="#9aa4b2" points="314.3,-368.34 311.5,-360.34 308.7,-368.34 314.3,-368.34"/>
<text text-anchor="middle" x="347" y="-392.6" font-family="Helvetica,sans-Serif" font-size="13.00" fill="#94a3b8">if cont &gt; 2</text>
</g>
</g>
</svg>
