<?xml version="1.0" encoding="UTF-8" standalone="no"?>
<!DOCTYPE svg PUBLIC "-//W3C//DTD SVG 1.1//EN"
 "http://www.w3.org/Graphics/SVG/1.1/DTD/svg11.dtd">
<!-- Generated by graphviz version 2.42.4 (0)
 -->
<!-- Title: G Pages: 1 -->
<svg width="366pt" height="396pt"
 viewBox="0.00 0.00 365.50 396.00" xmlns="http://www.w3.org/2000/svg" xmlns:xlink="http://www.w3.org/1999/xlink">
<g id="graph0" class="graph" transform="scale(1 1) rotate(0) translate(18 378)">
<title>G</title>
<polygon fill="#101418" stroke="transparent" points="-18,18 -18,-378 347.5,-378 347.5,18 -18,18"/>
<!-- S_INIT -->
<g id="node1" class="node">
<title>S_INIT</title>
<path fill="#1a2028" stroke="#9aa4b2" stroke-width="1.2" d="M277,-360C277,-360 154,-360 154,-360 148,-360 142,-354 142,-348 142,-348 142,-336 142,-336 142,-330 148,-324 154,-324 154,-324 277,-324 277,-324 283,-324 289,-330 289,-336 289,-336 289,-348 289,-348 289,-354 283,-360 277,-360"/>
<text text-anchor="middle" x="215.5" y="-338.2" font-family="Helvetica,sans-Serif" font-size="16.00" fill="#e6edf3">Boot / Safe Pose</text>
</g>
<!-- S_100 -->
<g id="node2" class="node">
<title>S_100</title>
<path fill="#1a2028" stroke="#9aa4b2" stroke-width="1.2" d="M287,-252C287,-252 144,-252 144,-252 138,-252 132,-246 132,-240 132,-240 132,-228 132,-228 132,-222 138,-216 144,-216 144,-216 287,-216 287,-216 293,-216 299,-222 299,-228 299,-228 299,-240 299,-240 299,-246 293,-252 287,-252"/>
<text text-anchor="middle" x="215.5" y="-230.2" font-family="Helvetica,sans-Serif" font-size="16.00" fill="#e6edf3">Slow Forward Walk</text>
</g>
<!-- S_INIT&#45;&gt;S_100 -->
<g id="edge1" class="edge">
<title>S_INIT&#45;&gt;S_100</title>
<path fill="none" stroke="#9aa4b2" d="M215.5,-323.97C215.5,-306.84 215.5,-280.22 215.5,-260.56"/>
<polygon fill="#9aa4b2" stroke="#9aa4b2" points="218.3,-260.34 215.5,-252.34 212.7,-260.34 218.3,-260.34"/>
<text text-anchor="middle" x="233" y="-284.6" font-family="Helvetica,sans-Serif" font-size="13.00" fill="#94a3b8">entry</text>
</g>
<!-- S_200 -->
<g id="node3" class="node">
<title>S_200</title>
<path fill="#1a2028" stroke="#9aa4b2" stroke-width="1.2" d="M125,-144C125,-144 12,-144 12,-144 6,-144 0,-138 0,-132 0,-132 0,-120 0,-120 0,-114 6,-108 12,-108 12,-108 125,-108 125,-108 131,-108 137,-114 137,-120 137,-120 137,-132 137,-132 137,-138 131,-144 125,-144"/>
<text text-anchor="middle" x="68.5" y="-122.2" font-family="Helvetica,sans-Serif" font-size="16.00" fill="#e6edf3">Sense / Decide</text>
</g>
<!-- S_100&#45;&gt;S_200 -->
<g id="edge2" class="edge">
<title>S_100&#45;&gt;S_200</title>
<path fill="none" stroke="#9aa4b2" d="M191.88,-215.97C166.74,-197.84 126.86,-169.08 99.28,-149.19"/>
<polygon fill="#9aa4b2" stroke="#9aa4b2" points="100.67,-146.75 92.55,-144.34 97.4,-151.29 100.67,-146.75"/>
<text text-anchor="middle" x="212.5" y="-176.6" font-family="Helvetica,sans-Serif" font-size="13.00" fill="#94a3b8">next labeled block</text>
</g>
<!-- S_200&#45;&gt;S_200 -->
<g id="edge4" class="edge">
<title>S_200&#45;&gt;S_200</title>
<path fill="none" stroke="#9aa4b2" d="M137.34,-136.09C157.44,-135.75 173,-132.38 173,-126 173,-120.52 161.51,-117.26 145.52,-116.23"/>
<polygon fill="#9aa4b2" stroke="#9aa4b2" points="145.45,-113.43 137.34,-115.91 145.23,-119.02 145.45,-113.43"/>
<text text-anchor="middle" x="240.5" y="-122.6" font-family="Helvetica,sans-Serif" font-size="13.00" fill="#94a3b8">else Distance &lt; 500</text>
</g>
<!-- S_300 -->
<g id="node4" class="node">
<title>S_300</title>
<path fill="#1a2028" stroke="#9aa4b2" stroke-width="1.2" d="M259,-36C259,-36 172,-36 172,-36 166,-36 160,-30 160,-24 160,-24 160,-12 160,-12 160,-6 166,0 172,0 172,0 259,0 259,0 265,0 271,-6 271,-12 271,-12 271,-24 271,-24 271,-30 265,-36 259,-36"/>
<text text-anchor="middle" x="215.5" y="-14.2" font-family="Helvetica,sans-Serif" font-size="16.00" fill="#e6edf3">Action Loop</text>
</g>
<!-- S_200&#45;&gt;S_300 -->
<g id="edge3" class="edge">
<title>S_200&#45;&gt;S_300</title>
<path fill="none" stroke="#9aa4b2" d="M92.12,-107.97C117.26,-89.84 157.14,-61.08 184.72,-41.19"/>
<polygon fill="#9aa4b2" stroke="#9aa4b2" points="186.6,-43.29 191.45,-36.34 183.33,-38.75 186.6,-43.29"/>
<text text-anchor="middle" x="209.5" y="-68.6" font-family="Helvetica,sans-Serif" font-size="13.00" fill="#94a3b8">if Distance &lt; 500</text>
</g>
<!-- S_300&#45;&gt;S_100 -->
<g id="edge5" class="edge">
<title>S_300&#45;&gt;S_100</title>
<path fill="none" stroke="#9aa4b2" d="M244.95,-36.13C267.83,-51.51 297.33,-76.49 307.5,-108 318.82,-143.05 307.55,-160 282.5,-187 274.08,-196.08 263.56,-204.34 253.37,-211.27"/>
<polygon fill="#9aa4b2" stroke="#9aa4b2" points="251.54,-209.12 246.4,-215.85 254.62,-213.8 251.54,-209.12"/>
<text text-anchor="middle" x="321" y="-122.6" font-family="Helvetica,sans-Serif" font-size="13.00" fill="#94a3b8">go</text>
</g>
</g>
</svg>
