<?xml version="1.0" encoding="UTF-8" standalone="no"?>
<!DOCTYPE svg PUBLIC "-//W3C//DTD SVG 1.1//EN"
 "http://www.w3.org/Graphics/SVG/1.1/DTD/svg11.dtd">
<!-- Generated by graphviz version 2.42.4 (0)
 -->
<!-- Title: G Pages: 1 -->
<svg width="224pt" height="288pt"
 viewBox="0.00 0.00 223.82 288.00" xmlns="http://www.w3.org/2000/svg" xmlns:xlink="http://www.w3.org/1999/xlink">
<g id="graph0" class="graph" transform="scale(1 1) rotate(0) translate(18 270)">
<title>G</title>
<polygon fill="#101418" stroke="transparent" points="-18,18 -18,-270 205.82,-270 205.82,18 -18,18"/>
<!-- S_INIT -->
<g id="node1" class="node">
<title>S_INIT</title>
<path fill="#1a2028" stroke="#9aa4b2" stroke-width="1.2" d="M156.32,-252C156.32,-252 33.32,-252 33.32,-252 27.32,-252 21.32,-246 21.32,-240 21.32,-240 21.32,-228 21.32,-228 21.32,-222 27.32,-216 33.32,-216 33.32,-216 156.32,-216 156.32,-216 162.32,-216 168.32,-222 168.32,-228 168.32,-228 168.32,-240 168.32,-240 168.32,-246 162.32,-252 156.32,-252"/>
<text text-anchor="middle" x="94.82" y="-230.2" font-family="Helvetica,sans-Serif" font-size="16.00" fill="#e6edf3">Boot / Safe Pose</text>
</g>
<!-- S_100 -->
<g id="node2" class="node">
<title>S_100</title>
<path fill="#1a2028" stroke="#9aa4b2" stroke-width="1.2" d="M175.82,-144C175.82,-144 13.82,-144 13.82,-144 7.82,-144 1.82,-138 1.82,-132 1.82,-132 1.82,-120 1.82,-120 1.82,-114 7.82,-108 13.82,-108 13.82,-108 175.82,-108 175.82,-108 181.82,-108 187.82,-114 187.82,-120 187.82,-120 187.82,-132 187.82,-132 187.82,-138 181.82,-144 175.82,-144"/>
<text text-anchor="middle" x="94.82" y="-122.2" font-family="Helvetica,sans-Serif" font-size="16.00" fill="#e6edf3">Repeat Forward Walk</text>
</g>
<!-- S_INIT&#45;&gt;S_100 -->
<g id="edge1" class="edge">
<title>S_INIT&#45;&gt;S_100</title>
<path fill="none" stroke="#9aa4b2" d="M94.82,-215.97C94.82,-198.84 94.82,-172.22 94.82,-152.56"/>
<polygon fill="#9aa4b2" stroke="#9aa4b2" points="97.62,-152.34 94.82,-144.34 92.02,-152.34 97.62,-152.34"/>
<text text-anchor="middle" x="112.32" y="-176.6" font-family="Helvetica,sans-Serif" font-size="13.00" fill="#94a3b8">entry</text>
</g>
<!-- S_200 -->
<g id="node3" class="node">
<title>S_200</title>
<path fill="#1a2028" stroke="#9aa4b2" stroke-width="1.2" d="M140.82,-36C140.82,-36 48.82,-36 48.82,-36 42.82,-36 36.82,-30 36.82,-24 36.82,-24 36.82,-12 36.82,-12 36.82,-6 42.82,0 48.82,0 48.82,0 140.82,0 140.82,0 146.82,0 152.82,-6 152.82,-12 152.82,-12 152.82,-24 152.82,-24 152.82,-30 146.82,-36 140.82,-36"/>
<text text-anchor="middle" x="94.82" y="-14.2" font-family="Helvetica,sans-Serif" font-size="16.00" fill="#e6edf3">Synchronize</text>
</g>
<!-- S_100&#45;&gt;S_200 -->
<g id="edge2" class="edge">
<title>S_100&#45;&gt;S_200</title>
<path fill="none" stroke="#9aa4b2" d="M37.33,-107.76C24.08,-100.97 11.61,-91.67 3.82,-79 -7.09,-61.26 8.19,-47.69 29.16,-37.98"/>
<polygon fill="#9aa4b2" stroke="#9aa4b2" points="30.53,-40.43 36.78,-34.7 28.32,-35.29 30.53,-40.43"/>
<text text-anchor="middle" x="70.32" y="-68.6" font-family="Helvetica,sans-Serif" font-size="13.00" fill="#94a3b8">continue to monitor</text>
</g>
<!-- S_200&#45;&gt;S_100 -->
<g id="edge3" class="edge">
<title>S_200&#45;&gt;S_100</title>
<path fill="none" stroke="#9aa4b2" d="M121.67,-36.01C135.69,-47.22 148.64,-62.78 141.82,-79 138.23,-87.54 132.19,-95.29 125.62,-101.89"/>
<polygon fill="#9aa4b2" stroke="#9aa4b2" points="123.42,-100.11 119.48,-107.62 127.24,-104.2 123.42,-100.11"/>
<text text-anchor="middle" x="151.32" y="-68.6" font-family="Helvetica,sans-Serif" font-size="13.00" fill="#94a3b8">go</text>
</g>
</g>
</svg>
