<?xml version="1.0" encoding="UTF-8" standalone="no"?>
<!DOCTYPE svg PUBLIC "-//W3C//DTD SVG 1.1//EN"
 "http://www.w3.org/Graphics/SVG/1.1/DTD/svg11.dtd">
<!-- Generated by graphviz version 2.42.4 (0)
 -->
<!-- Title: G Pages: 1 -->
<svg width="392pt" height="180pt"
 viewBox="0.00 0.00 392.00 180.00" xmlns="http://www.w3.org/2000/svg" xmlns:xlink="http://www.w3.org/1999/xlink">
<g id="graph0" class="graph" transform="scale(1 1) rotate(0) translate(18 162)">
<title>G</title>
<polygon fill="#101418" stroke="transparent" points="-18,18 -18,-162 374,-162 374,18 -18,18"/>
<!-- S_INIT -->
<g id="node1" class="node">
<title>S_INIT</title>
<path fill="#1a2028" stroke="#9aa4b2" stroke-width="1.2" d="M135,-144C135,-144 12,-144 12,-144 6,-144 0,-138 0,-132 0,-132 0,-120 0,-120 0,-114 6,-108 12,-108 12,-108 135,-108 135,-108 141,-108 147,-114 147,-120 147,-120 147,-132 147,-132 147,-138 141,-144 135,-144"/>
<text text-anchor="middle" x="73.5" y="-122.2" font-family="Helvetica,sans-Serif" font-size="16.00" fill="#e6edf3">Boot / Safe Pose</text>
</g>
<!-- S_100 -->
<g id="node2" class="node">
<title>S_100</title>
<path fill="#1a2028" stroke="#9aa4b2" stroke-width="1.2" d="M130,-36C130,-36 17,-36 17,-36 11,-36 5,-30 5,-24 5,-24 5,-12 5,-12 5,-6 11,0 17,0 17,0 130,0 130,0 136,0 142,-6 142,-12 142,-12 142,-24 142,-24 142,-30 136,-36 130,-36"/>
<text text-anchor="middle" x="73.5" y="-14.2" font-family="Helvetica,sans-Serif" font-size="16.00" fill="#e6edf3">Sense / Decide</text>
</g>
<!-- S_INIT&#45;&gt;S_100 -->
<g id="edge1" class="edge">
<title>S_INIT&#45;&gt;S_100</title>
<path fill="none" stroke="#9aa4b2" d="M73.5,-107.97C73.5,-90.84 73.5,-64.22 73.5,-44.56"/>
<polygon fill="#9aa4b2" stroke="#9aa4b2" points="76.3,-44.34 73.5,-36.34 70.7,-44.34 76.3,-44.34"/>
<text text-anchor="middle" x="91" y="-68.6" font-family="Helvetica,sans-Serif" font-size="13.00" fill="#94a3b8">entry</text>
</g>
<!-- S_100&#45;&gt;S_100 -->
<g id="edge2" class="edge">
<title>S_100&#45;&gt;S_100</title>
<path fill="none" stroke="#9aa4b2" d="M142.34,-28.09C162.44,-27.75 178,-24.38 178,-18 178,-12.52 166.51,-9.26 150.52,-8.23"/>
<polygon fill="#9aa4b2" stroke="#9aa4b2" points="150.45,-5.43 142.34,-7.91 150.23,-11.02 150.45,-5.43"/>
<text text-anchor="middle" x="267" y="-14.6" font-family="Helvetica,sans-Serif" font-size="13.00" fill="#94a3b8">if Touch_head_press &lt; 200</text>
</g>
<!-- S_200 -->
<g id="node3" class="node">
<title>S_200</title>
<path fill="#1a2028" stroke="#9aa4b2" stroke-width="1.2" d="M287.5,-144C287.5,-144 195.5,-144 195.5,-144 189.5,-144 183.5,-138 183.5,-132 183.5,-132 183.5,-120 183.5,-120 183.5,-114 189.5,-108 195.5,-108 195.5,-108 287.5,-108 287.5,-108 293.5,-108 299.5,-114 299.5,-120 299.5,-120 299.5,-132 299.5,-132 299.5,-138 293.5,-144 287.5,-144"/>
<text text-anchor="middle" x="241.5" y="-122.2" font-family="Helvetica,sans-Serif" font-size="16.00" fill="#e6edf3">Synchronize</text>
</g>
</g>
</svg>
