<?xml version="1.0" encoding="UTF-8" standalone="no"?>
<!DOCTYPE svg PUBLIC "-//W3C//DTD SVG 1.1//EN"
 "http://www.w3.org/Graphics/SVG/1.1/DTD/svg11.dtd">
<!-- Generated by graphviz version 2.42.4 (0)
 -->
<!-- Title: G Pages: 1 -->
<svg width="231pt" height="288pt"
 viewBox="0.00 0.00 231.00 288.00" xmlns="http://www.w3.org/2000/svg" xmlns:xlink="http://www.w3.org/1999/xlink">
<g id="graph0" class="graph" transform="scale(1 1) rotate(0) translate(18 270)">
<title>G</title>
<polygon fill="#101418" stroke="transparent" points="-18,18 -18,-270 213,-270 213,18 -18,18"/>
<!-- S_INIT -->
<g id="node1" class="node">
<title>S_INIT</title>
<path fill="#1a2028" stroke="#9aa4b2" stroke-width="1.2" d="M135,-252C135,-252 12,-252 12,-252 6,-252 0,-246 0,-240 0,-240 0,-228 0,-228 0,-222 6,-216 12,-216 12,-216 135,-216 135,-216 141,-216 147,-222 147,-228 147,-228 147,-240 147,-240 147,-246 141,-252 135,-252"/>
<text text-anchor="middle" x="73.5" y="-230.2" font-family="Helvetica,sans-Serif" font-size="16.00" fill="#e6edf3">Boot / Safe Pose</text>
</g>
<!-- S_100 -->
<g id="node2" class="node">
<title>S_100</title>
<path fill="#1a2028" stroke="#9aa4b2" stroke-width="1.2" d="M130,-144C130,-144 17,-144 17,-144 11,-144 5,-138 5,-132 5,-132 5,-120 5,-120 5,-114 11,-108 17,-108 17,-108 130,-108 130,-108 136,-108 142,-114 142,-120 142,-120 142,-132 142,-132 142,-138 136,-144 130,-144"/>
<text text-anchor="middle" x="73.5" y="-122.2" font-family="Helvetica,sans-Serif" font-size="16.00" fill="#e6edf3">Sense / Decide</text>
</g>
<!-- S_INIT&#45;&gt;S_100 -->
<g id="edge1" class="edge">
<title>S_INIT&#45;&gt;S_100</title>
<path fill="none" stroke="#9aa4b2" d="M73.5,-215.97C73.5,-198.84 73.5,-172.22 73.5,-152.56"/>
<polygon fill="#9aa4b2" stroke="#9aa4b2" points="76.3,-152.34 73.5,-144.34 70.7,-152.34 76.3,-152.34"/>
<text text-anchor="middle" x="91" y="-176.6" font-family="Helvetica,sans-Serif" font-size="13.00" fill="#94a3b8">entry</text>
</g>
<!-- S_100&#45;&gt;S_100 -->
<g id="edge3" class="edge">
<title>S_100&#45;&gt;S_100</title>
<path fill="none" stroke="#9aa4b2" d="M142.34,-136.09C162.44,-135.75 178,-132.38 178,-126 178,-120.52 166.51,-117.26 150.52,-116.23"/>
<polygon fill="#9aa4b2" stroke="#9aa4b2" points="150.45,-113.43 142.34,-115.91 150.23,-119.02 150.45,-113.43"/>
<text text-anchor="middle" x="186.5" y="-122.6" font-family="Helvetica,sans-Serif" font-size="13.00" fill="#94a3b8">go</text>
</g>
<!-- S_1000 -->
<g id="node3" class="node">
<title>S_1000</title>
<path fill="#1a2028" stroke="#9aa4b2" stroke-width="1.2" d="M130,-36C130,-36 17,-36 17,-36 11,-36 5,-30 5,-24 5,-24 5,-12 5,-12 5,-6 11,0 17,0 17,0 130,0 130,0 136,0 142,-6 142,-12 142,-12 142,-24 142,-24 142,-30 136,-36 130,-36"/>
<text text-anchor="middle" x="73.5" y="-14.2" font-family="Helvetica,sans-Serif" font-size="16.00" fill="#e6edf3">Sense / Decide</text>
</g>
<!-- S_100&#45;&gt;S_1000 -->
<g id="edge2" class="edge">
<title>S_100&#45;&gt;S_1000</title>
<path fill="none" stroke="#9aa4b2" d="M73.5,-107.97C73.5,-90.84 73.5,-64.22 73.5,-44.56"/>
<polygon fill="#9aa4b2" stroke="#9aa4b2" points="76.3,-44.34 73.5,-36.34 70.7,-44.34 76.3,-44.34"/>
<text text-anchor="middle" x="133" y="-68.6" font-family="Helvetica,sans-Serif" font-size="13.00" fill="#94a3b8">if Cdt_npixel &gt; 32</text>
</g>
</g>
</svg>
