<?xml version="1.0" encoding="UTF-8" standalone="no"?>
<!DOCTYPE svg PUBLIC "-//W3C//DTD SVG 1.1//EN"
 "http://www.w3.org/Graphics/SVG/1.1/DTD/svg11.dtd">
<!-- Generated by graphviz version 2.42.4 (0)
 -->
<!-- Title: G Pages: 1 -->
<svg width="180pt" height="412pt"
 viewBox="0.00 0.00 180.00 412.00" xmlns="http://www.w3.org/2000/svg" xmlns:xlink="http://www.w3.org/1999/xlink">
<g id="graph0" class="graph" transform="scale(1 1) rotate(0) translate(18 394)">
<title>G</title>
<polygon fill="#101418" stroke="transparent" points="-18,18 -18,-394 162,-394 162,18 -18,18"/>
<!-- S_INIT -->
<g id="node1" class="node">
<title>S_INIT</title>
<path fill="#1a2028" stroke="#9aa4b2" stroke-width="1.2" d="M87,-376C87,-376 57,-376 57,-376 51,-376 45,-370 45,-364 45,-364 45,-352 45,-352 45,-346 51,-340 57,-340 57,-340 87,-340 87,-340 93,-340 99,-346 99,-352 99,-352 99,-364 99,-364 99,-370 93,-376 87,-376"/>
<text text-anchor="middle" x="72" y="-354.2" font-family="Helvetica,sans-Serif" font-size="16.00" fill="#e6edf3">Boot</text>
</g>
<!-- S_100 -->
<g id="node2" class="node">
<title>S_100</title>
<path fill="#1a2028" stroke="#9aa4b2" stroke-width="1.2" d="M132,-268C132,-268 12,-268 12,-268 6,-268 0,-262 0,-256 0,-256 0,-244 0,-244 0,-238 6,-232 12,-232 12,-232 132,-232 132,-232 138,-232 144,-238 144,-244 144,-244 144,-256 144,-256 144,-262 138,-268 132,-268"/>
<text text-anchor="middle" x="72" y="-246.2" font-family="Helvetica,sans-Serif" font-size="16.00" fill="#e6edf3">Sense Fall State</text>
</g>
<!-- S_INIT&#45;&gt;S_100 -->
<g id="edge4" class="edge">
<title>S_INIT&#45;&gt;S_100</title>
<path fill="none" stroke="#9aa4b2" d="M72,-339.97C72,-322.84 72,-296.22 72,-276.56"/>
<polygon fill="#9aa4b2" stroke="#9aa4b2" points="74.8,-276.34 72,-268.34 69.2,-276.34 74.8,-276.34"/>
<text text-anchor="middle" x="89.5" y="-300.6" font-family="Helvetica,sans-Serif" font-size="13.00" fill="#94a3b8">entry</text>
</g>
<!-- S_100_CHECK -->
<g id="node4" class="node">
<title>S_100_CHECK</title>
<path fill="#1a2028" stroke="#9aa4b2" stroke-width="1.2" d="M61.31,-154.55C61.31,-154.55 31.69,-139.45 31.69,-139.45 26.35,-136.73 26.35,-131.27 31.69,-128.55 31.69,-128.55 61.31,-113.45 61.31,-113.45 66.65,-110.73 77.35,-110.73 82.69,-113.45 82.69,-113.45 112.31,-128.55 112.31,-128.55 117.65,-131.27 117.65,-136.73 112.31,-139.45 112.31,-139.45 82.69,-154.55 82.69,-154.55 77.35,-157.27 66.65,-157.27 61.31,-154.55"/>
<text text-anchor="middle" x="72" y="-130.2" font-family="Helvetica,sans-Serif" font-size="16.00" fill="#e6edf3">Fall?</text>
</g>
<!-- S_100&#45;&gt;S_100_CHECK -->
<g id="edge1" class="edge">
<title>S_100&#45;&gt;S_100_CHECK</title>
<path fill="none" stroke="#9aa4b2" d="M68.72,-231.6C67.26,-223.02 65.72,-212.5 65,-203 64.09,-190.91 65.02,-177.63 66.47,-166.05"/>
<polygon fill="#9aa4b2" stroke="#9aa4b2" points="69.26,-166.26 67.59,-157.95 63.72,-165.49 69.26,-166.26"/>
</g>
<!-- S_200 -->
<g id="node3" class="node">
<title>S_200</title>
<path fill="#1a2028" stroke="#9aa4b2" stroke-width="1.2" d="M107.5,-36C107.5,-36 36.5,-36 36.5,-36 30.5,-36 24.5,-30 24.5,-24 24.5,-24 24.5,-12 24.5,-12 24.5,-6 30.5,0 36.5,0 36.5,0 107.5,0 107.5,0 113.5,0 119.5,-6 119.5,-12 119.5,-12 119.5,-24 119.5,-24 119.5,-30 113.5,-36 107.5,-36"/>
<text text-anchor="middle" x="72" y="-14.2" font-family="Helvetica,sans-Serif" font-size="16.00" fill="#e6edf3">State 200</text>
</g>
<!-- S_100_CHECK&#45;&gt;S_100 -->
<g id="edge3" class="edge">
<title>S_100_CHECK&#45;&gt;S_100</title>
<path fill="none" stroke="#9aa4b2" d="M72,-160.1C72,-178.93 72,-204.6 72,-223.52"/>
<polygon fill="#9aa4b2" stroke="#9aa4b2" points="69.2,-223.69 72,-231.69 74.8,-223.69 69.2,-223.69"/>
<text text-anchor="middle" x="96" y="-192.6" font-family="Helvetica,sans-Serif" font-size="13.00" fill="#94a3b8">upright</text>
</g>
<!-- S_100_CHECK&#45;&gt;S_200 -->
<g id="edge2" class="edge">
<title>S_100_CHECK&#45;&gt;S_200</title>
<path fill="none" stroke="#9aa4b2" d="M72,-107.98C72,-89.11 72,-63.33 72,-44.37"/>
<polygon fill="#9aa4b2" stroke="#9aa4b2" points="74.8,-44.19 72,-36.19 69.2,-44.19 74.8,-44.19"/>
<text text-anchor="middle" x="90.5" y="-68.6" font-family="Helvetica,sans-Serif" font-size="13.00" fill="#94a3b8">fallen</text>
</g>
</g>
</svg>
