<?xml version="1.0" encoding="UTF-8" standalone="no"?>
<!DOCTYPE svg PUBLIC "-//W3C//DTD SVG 1.1//EN"
 "http://www.w3.org/Graphics/SVG/1.1/DTD/svg11.dtd">
<!-- Generated by graphviz version 2.42.4 (0)
 -->
<!-- Title: G Pages: 1 -->
<svg width="212pt" height="396pt"
 viewBox="0.00 0.00 212.00 396.00" xmlns="http://www.w3.org/2000/svg" xmlns:xlink="http://www.w3.org/1999/xlink">
<g id="graph0" class="graph" transform="scale(1 1) rotate(0) translate(18 378)">
<title>G</title>
<polygon fill="#101418" stroke="transparent" points="-18,18 -18,-378 194,-378 194,18 -18,18"/>
<!-- A -->
<g id="node1" class="node">
<title>A</title>
<path fill="#1a2028" stroke="#9aa4b2" stroke-width="1.2" d="M103,-360C103,-360 73,-360 73,-360 67,-360 61,-354 61,-348 61,-348 61,-336 61,-336 61,-330 67,-324 73,-324 73,-324 103,-324 103,-324 109,-324 115,-330 115,-336 115,-336 115,-348 115,-348 115,-354 109,-360 103,-360"/>
<text text-anchor="middle" x="88" y="-338.2" font-family="Helvetica,sans-Serif" font-size="16.00" fill="#e6edf3">Boot</text>
</g>
<!-- B -->
<g id="node2" class="node">
<title>B</title>
<path fill="#1a2028" stroke="#9aa4b2" stroke-width="1.2" d="M158,-252C158,-252 18,-252 18,-252 12,-252 6,-246 6,-240 6,-240 6,-228 6,-228 6,-222 12,-216 18,-216 18,-216 158,-216 158,-216 164,-216 170,-222 170,-228 170,-228 170,-240 170,-240 170,-246 164,-252 158,-252"/>
<text text-anchor="middle" x="88" y="-230.2" font-family="Helvetica,sans-Serif" font-size="16.00" fill="#e6edf3">Assume Safe Pose</text>
</g>
<!-- A&#45;&gt;B -->
<g id="edge1" class="edge">
<title>A&#45;&gt;B</title>
<path fill="none" stroke="#9aa4b2" d="M88,-323.97C88,-306.84 88,-280.22 88,-260.56"/>
<polygon fill="#9aa4b2" stroke="#9aa4b2" points="90.8,-260.34 88,-252.34 85.2,-260.34 90.8,-260.34"/>
<text text-anchor="middle" x="105.5" y="-284.6" font-family="Helvetica,sans-Serif" font-size="13.00" fill="#94a3b8">entry</text>
</g>
<!-- C -->
<g id="node3" class="node">
<title>C</title>
<path fill="#1a2028" stroke="#9aa4b2" stroke-width="1.2" d="M148.5,-144C148.5,-144 27.5,-144 27.5,-144 21.5,-144 15.5,-138 15.5,-132 15.5,-132 15.5,-120 15.5,-120 15.5,-114 21.5,-108 27.5,-108 27.5,-108 148.5,-108 148.5,-108 154.5,-108 160.5,-114 160.5,-120 160.5,-120 160.5,-132 160.5,-132 160.5,-138 154.5,-144 148.5,-144"/>
<text text-anchor="middle" x="88" y="-122.2" font-family="Helvetica,sans-Serif" font-size="16.00" fill="#e6edf3">Set Target Color</text>
</g>
<!-- B&#45;&gt;C -->
<g id="edge2" class="edge">
<title>B&#45;&gt;C</title>
<path fill="none" stroke="#9aa4b2" d="M88,-215.97C88,-198.84 88,-172.22 88,-152.56"/>
<polygon fill="#9aa4b2" stroke="#9aa4b2" points="90.8,-152.34 88,-144.34 85.2,-152.34 90.8,-152.34"/>
<text text-anchor="middle" x="119.5" y="-176.6" font-family="Helvetica,sans-Serif" font-size="13.00" fill="#94a3b8">configure</text>
</g>
<!-- D -->
<g id="node4" class="node">
<title>D</title>
<path fill="#1a2028" stroke="#9aa4b2" stroke-width="1.2" d="M164,-36C164,-36 12,-36 12,-36 6,-36 0,-30 0,-24 0,-24 0,-12 0,-12 0,-6 6,0 12,0 12,0 164,0 164,0 170,0 176,-6 176,-12 176,-12 176,-24 176,-24 176,-30 170,-36 164,-36"/>
<text text-anchor="middle" x="88" y="-14.2" font-family="Helvetica,sans-Serif" font-size="16.00" fill="#e6edf3">Start Head Tracking</text>
</g>
<!-- C&#45;&gt;D -->
<g id="edge3" class="edge">
<title>C&#45;&gt;D</title>
<path fill="none" stroke="#9aa4b2" d="M88,-107.97C88,-90.84 88,-64.22 88,-44.56"/>
<polygon fill="#9aa4b2" stroke="#9aa4b2" points="90.8,-44.34 88,-36.34 85.2,-44.34 90.8,-44.34"/>
<text text-anchor="middle" x="115.5" y="-68.6" font-family="Helvetica,sans-Serif" font-size="13.00" fill="#94a3b8">activate</text>
</g>
</g>
</svg>
