<?xml version="1.0" encoding="UTF-8" standalone="no"?>
<!DOCTYPE svg PUBLIC "-//W3C//DTD SVG 1.1//EN"
 "http://www.w3.org/Graphics/SVG/1.1/DTD/svg11.dtd">
<!-- Generated by graphviz version 2.42.4 (0)
 -->
<!-- Title: G Pages: 1 -->
<svg width="294pt" height="396pt"
 viewBox="0.00 0.00 293.50 396.00" xmlns="http://www.w3.org/2000/svg" xmlns:xlink="http://www.w3.org/1999/xlink">
<g id="graph0" class="graph" transform="scale(1 1) rotate(0) translate(18 378)">
<title>G</title>
<polygon fill="#101418" stroke="transparent" points="-18,18 -18,-378 275.5,-378 275.5,18 -18,18"/>
<!-- S_INIT -->
<g id="node1" class="node">
<title>S_INIT</title>
<path fill="#1a2028" stroke="#9aa4b2" stroke-width="1.2" d="M218,-360C218,-360 95,-360 95,-360 89,-360 83,-354 83,-348 83,-348 83,-336 83,-336 83,-330 89,-324 95,-324 95,-324 218,-324 218,-324 224,-324 230,-330 230,-336 230,-336 230,-348 230,-348 230,-354 224,-360 218,-360"/>
<text text-anchor="middle" x="156.5" y="-338.2" font-family="Helvetica,sans-Serif" font-size="16.00" fill="#e6edf3">Boot / Safe Pose</text>
</g>
<!-- S_100 -->
<g id="node2" class="node">
<title>S_100</title>
<path fill="#1a2028" stroke="#9aa4b2" stroke-width="1.2" d="M226.5,-252C226.5,-252 86.5,-252 86.5,-252 80.5,-252 74.5,-246 74.5,-240 74.5,-240 74.5,-228 74.5,-228 74.5,-222 80.5,-216 86.5,-216 86.5,-216 226.5,-216 226.5,-216 232.5,-216 238.5,-222 238.5,-228 238.5,-228 238.5,-240 238.5,-240 238.5,-246 232.5,-252 226.5,-252"/>
<text text-anchor="middle" x="156.5" y="-230.2" font-family="Helvetica,sans-Serif" font-size="16.00" fill="#e6edf3">Start Ball Tracking</text>
</g>
<!-- S_INIT&#45;&gt;S_100 -->
<g id="edge1" class="edge">
<title>S_INIT&#45;&gt;S_100</title>
<path fill="none" stroke="#9aa4b2" d="M156.5,-323.97C156.5,-306.84 156.5,-280.22 156.5,-260.56"/>
<polygon fill="#9aa4b2" stroke="#9aa4b2" points="159.3,-260.34 156.5,-252.34 153.7,-260.34 159.3,-260.34"/>
<text text-anchor="middle" x="174" y="-284.6" font-family="Helvetica,sans-Serif" font-size="13.00" fill="#94a3b8">entry</text>
</g>
<!-- S_200 -->
<g id="node3" class="node">
<title>S_200</title>
<path fill="#1a2028" stroke="#9aa4b2" stroke-width="1.2" d="M125,-144C125,-144 12,-144 12,-144 6,-144 0,-138 0,-132 0,-132 0,-120 0,-120 0,-114 6,-108 12,-108 12,-108 125,-108 125,-108 131,-108 137,-114 137,-120 137,-120 137,-132 137,-132 137,-138 131,-144 125,-144"/>
<text text-anchor="middle" x="68.5" y="-122.2" font-family="Helvetica,sans-Serif" font-size="16.00" fill="#e6edf3">Sense / Decide</text>
</g>
<!-- S_100&#45;&gt;S_200 -->
<g id="edge2" class="edge">
<title>S_100&#45;&gt;S_200</title>
<path fill="none" stroke="#9aa4b2" d="M127,-215.81C115.71,-208.11 103.41,-198.23 94.5,-187 86.24,-176.59 80.1,-163.17 75.87,-151.65"/>
<polygon fill="#9aa4b2" stroke="#9aa4b2" points="78.5,-150.7 73.24,-144.05 73.21,-152.53 78.5,-150.7"/>
<text text-anchor="middle" x="155.5" y="-176.6" font-family="Helvetica,sans-Serif" font-size="13.00" fill="#94a3b8">next labeled block</text>
</g>
<!-- S_200&#45;&gt;S_200 -->
<g id="edge4" class="edge">
<title>S_200&#45;&gt;S_200</title>
<path fill="none" stroke="#9aa4b2" d="M137.34,-136.09C157.44,-135.75 173,-132.38 173,-126 173,-120.52 161.51,-117.26 145.52,-116.23"/>
<polygon fill="#9aa4b2" stroke="#9aa4b2" points="145.45,-113.43 137.34,-115.91 145.23,-119.02 145.45,-113.43"/>
<text text-anchor="middle" x="181.5" y="-122.6" font-family="Helvetica,sans-Serif" font-size="13.00" fill="#94a3b8">go</text>
</g>
<!-- S_300 -->
<g id="node4" class="node">
<title>S_300</title>
<path fill="#1a2028" stroke="#9aa4b2" stroke-width="1.2" d="M200,-36C200,-36 113,-36 113,-36 107,-36 101,-30 101,-24 101,-24 101,-12 101,-12 101,-6 107,0 113,0 113,0 200,0 200,0 206,0 212,-6 212,-12 212,-12 212,-24 212,-24 212,-30 206,-36 200,-36"/>
<text text-anchor="middle" x="156.5" y="-14.2" font-family="Helvetica,sans-Serif" font-size="16.00" fill="#e6edf3">Action Loop</text>
</g>
<!-- S_200&#45;&gt;S_300 -->
<g id="edge3" class="edge">
<title>S_200&#45;&gt;S_300</title>
<path fill="none" stroke="#9aa4b2" d="M68.33,-107.79C69.01,-94.94 71.71,-77.52 80.5,-65 87.55,-54.95 97.56,-46.71 108.01,-40.12"/>
<polygon fill="#9aa4b2" stroke="#9aa4b2" points="109.46,-42.51 114.91,-36.02 106.6,-37.7 109.46,-42.51"/>
<text text-anchor="middle" x="148.5" y="-68.6" font-family="Helvetica,sans-Serif" font-size="13.00" fill="#94a3b8">if Cdt_npixel &gt; 4000</text>
</g>
<!-- S_300&#45;&gt;S_100 -->
<g id="edge5" class="edge">
<title>S_300&#45;&gt;S_100</title>
<path fill="none" stroke="#9aa4b2" d="M193.1,-36.19C204.29,-43.41 215.27,-52.97 221.5,-65 246.42,-113.16 246.42,-138.84 221.5,-187 216.54,-196.59 208.56,-204.61 199.86,-211.12"/>
<polygon fill="#9aa4b2" stroke="#9aa4b2" points="198.08,-208.95 193.1,-215.81 201.27,-213.55 198.08,-208.95"/>
<text text-anchor="middle" x="249" y="-122.6" font-family="Helvetica,sans-Serif" font-size="13.00" fill="#94a3b8">go</text>
</g>
</g>
</svg>
