<?xml version="1.0" encoding="UTF-8" standalone="no"?>
<!DOCTYPE svg PUBLIC "-//W3C//DTD SVG 1.1//EN"
 "http://www.w3.org/Graphics/SVG/1.1/DTD/svg11.dtd">
<!-- Generated by graphviz version 2.42.4 (0)
 -->
<!-- Title: G Pages: 1 -->
<svg width="1044pt" height="865pt"
 viewBox="0.00 0.00 1043.50 865.00" xmlns="http://www.w3.org/2000/svg" xmlns:xlink="http://www.w3.org/1999/xlink">
<g id="graph0" class="graph" transform="scale(1 1) rotate(0) translate(18 847)">
<title>G</title>
<polygon fill="#101418" stroke="transparent" points="-18,18 -18,-847 1025.5,-847 1025.5,18 -18,18"/>
<!-- A -->
<g id="node1" class="node">
<title>A</title>
<path fill="#1a2028" stroke="#9aa4b2" stroke-width="1.2" d="M638,-829C638,-829 488,-829 488,-829 482,-829 476,-823 476,-817 476,-817 476,-805 476,-805 476,-799 482,-793 488,-793 488,-793 638,-793 638,-793 644,-793 650,-799 650,-805 650,-805 650,-817 650,-817 650,-823 644,-829 638,-829"/>
<text text-anchor="middle" x="563" y="-807.2" font-family="Helvetica,sans-Serif" font-size="16.00" fill="#e6edf3">Boot And Safe Pose</text>
</g>
<!-- B -->
<g id="node2" class="node">
<title>B</title>
<path fill="#1a2028" stroke="#9aa4b2" stroke-width="1.2" d="M667.5,-734C667.5,-734 458.5,-734 458.5,-734 452.5,-734 446.5,-728 446.5,-722 446.5,-722 446.5,-710 446.5,-710 446.5,-704 452.5,-698 458.5,-698 458.5,-698 667.5,-698 667.5,-698 673.5,-698 679.5,-704 679.5,-710 679.5,-710 679.5,-722 679.5,-722 679.5,-728 673.5,-734 667.5,-734"/>
<text text-anchor="middle" x="563" y="-712.2" font-family="Helvetica,sans-Serif" font-size="16.00" fill="#e6edf3">Embodied Monitoring Loop</text>
</g>
<!-- A&#45;&gt;B -->
<g id="edge1" class="edge">
<title>A&#45;&gt;B</title>
<path fill="none" stroke="#9aa4b2" d="M563,-792.94C563,-778.87 563,-758.69 563,-742.67"/>
<polygon fill="#9aa4b2" stroke="#9aa4b2" points="565.8,-742.26 563,-734.26 560.2,-742.26 565.8,-742.26"/>
</g>
<!-- C -->
<g id="node3" class="node">
<title>C</title>
<path fill="#1a2028" stroke="#9aa4b2" stroke-width="1.2" d="M551.11,-637.41C551.11,-637.41 380.89,-614.59 380.89,-614.59 374.95,-613.8 374.95,-612.2 380.89,-611.41 380.89,-611.41 551.11,-588.59 551.11,-588.59 557.05,-587.8 568.95,-587.8 574.89,-588.59 574.89,-588.59 745.11,-611.41 745.11,-611.41 751.05,-612.2 751.05,-613.8 745.11,-614.59 745.11,-614.59 574.89,-637.41 574.89,-637.41 568.95,-638.2 557.05,-638.2 551.11,-637.41"/>
<text text-anchor="middle" x="563" y="-609.2" font-family="Helvetica,sans-Serif" font-size="16.00" fill="#e6edf3">Body Or World Event?</text>
</g>
<!-- B&#45;&gt;C -->
<g id="edge2" class="edge">
<title>B&#45;&gt;C</title>
<path fill="none" stroke="#9aa4b2" d="M563,-697.87C563,-684.03 563,-664.16 563,-647.22"/>
<polygon fill="#9aa4b2" stroke="#9aa4b2" points="565.8,-647.19 563,-639.19 560.2,-647.19 565.8,-647.19"/>
</g>
<!-- D -->
<g id="node4" class="node">
<title>D</title>
<path fill="#1a2028" stroke="#9aa4b2" stroke-width="1.2" d="M134,-450C134,-450 12,-450 12,-450 6,-450 0,-444 0,-438 0,-438 0,-426 0,-426 0,-420 6,-414 12,-414 12,-414 134,-414 134,-414 140,-414 146,-420 146,-426 146,-426 146,-438 146,-438 146,-444 140,-450 134,-450"/>
<text text-anchor="middle" x="73" y="-428.2" font-family="Helvetica,sans-Serif" font-size="16.00" fill="#e6edf3">Recover Posture</text>
</g>
<!-- C&#45;&gt;D -->
<g id="edge3" class="edge">
<title>C&#45;&gt;D</title>
<path fill="none" stroke="#9aa4b2" d="M432.16,-604.49C335.87,-597.03 214.49,-582.98 171,-558 130.17,-534.55 100.21,-486.77 84.78,-457.55"/>
<polygon fill="#9aa4b2" stroke="#9aa4b2" points="87.15,-456.03 81,-450.2 82.17,-458.59 87.15,-456.03"/>
<text text-anchor="middle" x="237.5" y="-547.6" font-family="Helvetica,sans-Serif" font-size="13.00" fill="#94a3b8">fallen or overturned</text>
</g>
<!-- E -->
<g id="node5" class="node">
<title>E</title>
<path fill="#1a2028" stroke="#9aa4b2" stroke-width="1.2" d="M368.5,-515C368.5,-515 199.5,-515 199.5,-515 193.5,-515 187.5,-509 187.5,-503 187.5,-503 187.5,-491 187.5,-491 187.5,-485 193.5,-479 199.5,-479 199.5,-479 368.5,-479 368.5,-479 374.5,-479 380.5,-485 380.5,-491 380.5,-491 380.5,-503 380.5,-503 380.5,-509 374.5,-515 368.5,-515"/>
<text text-anchor="middle" x="284" y="-493.2" font-family="Helvetica,sans-Serif" font-size="16.00" fill="#e6edf3">Pause Forward Motion</text>
</g>
<!-- C&#45;&gt;E -->
<g id="edge4" class="edge">
<title>C&#45;&gt;E</title>
<path fill="none" stroke="#9aa4b2" d="M447.09,-602.44C406.54,-594.88 362.35,-581.51 327,-558 313.71,-549.16 303.17,-534.72 295.86,-522.22"/>
<polygon fill="#9aa4b2" stroke="#9aa4b2" points="298.26,-520.77 291.92,-515.14 293.36,-523.49 298.26,-520.77"/>
<text text-anchor="middle" x="378.5" y="-547.6" font-family="Helvetica,sans-Serif" font-size="13.00" fill="#94a3b8">obstacle ahead</text>
</g>
<!-- F -->
<g id="node6" class="node">
<title>F</title>
<path fill="#1a2028" stroke="#9aa4b2" stroke-width="1.2" d="M592.5,-320C592.5,-320 401.5,-320 401.5,-320 395.5,-320 389.5,-314 389.5,-308 389.5,-308 389.5,-296 389.5,-296 389.5,-290 395.5,-284 401.5,-284 401.5,-284 592.5,-284 592.5,-284 598.5,-284 604.5,-290 604.5,-296 604.5,-296 604.5,-308 604.5,-308 604.5,-314 598.5,-320 592.5,-320"/>
<text text-anchor="middle" x="497" y="-298.2" font-family="Helvetica,sans-Serif" font-size="16.00" fill="#e6edf3">Social Contact Response</text>
</g>
<!-- C&#45;&gt;F -->
<g id="edge5" class="edge">
<title>C&#45;&gt;F</title>
<path fill="none" stroke="#9aa4b2" d="M537.98,-590.15C519.38,-572.12 495.48,-544.76 485,-515 462.32,-450.59 478.74,-368.39 489.56,-327.88"/>
<polygon fill="#9aa4b2" stroke="#9aa4b2" points="492.27,-328.57 491.7,-320.11 486.87,-327.08 492.27,-328.57"/>
<text text-anchor="middle" x="563" y="-493.6" font-family="Helvetica,sans-Serif" font-size="13.00" fill="#94a3b8">touch or nearby person</text>
</g>
<!-- G -->
<g id="node7" class="node">
<title>G</title>
<path fill="#1a2028" stroke="#9aa4b2" stroke-width="1.2" d="M874,-515C874,-515 736,-515 736,-515 730,-515 724,-509 724,-503 724,-503 724,-491 724,-491 724,-485 730,-479 736,-479 736,-479 874,-479 874,-479 880,-479 886,-485 886,-491 886,-491 886,-503 886,-503 886,-509 880,-515 874,-515"/>
<text text-anchor="middle" x="805" y="-493.2" font-family="Helvetica,sans-Serif" font-size="16.00" fill="#e6edf3">Roam Or Advance</text>
</g>
<!-- C&#45;&gt;G -->
<g id="edge6" class="edge">
<title>C&#45;&gt;G</title>
<path fill="none" stroke="#9aa4b2" d="M612.95,-593.57C638.43,-583.74 669.72,-571.01 697,-558 721.76,-546.19 748.75,-531.2 769.55,-519.16"/>
<polygon fill="#9aa4b2" stroke="#9aa4b2" points="771.13,-521.48 776.63,-515.03 768.31,-516.64 771.13,-521.48"/>
<text text-anchor="middle" x="789.5" y="-547.6" font-family="Helvetica,sans-Serif" font-size="13.00" fill="#94a3b8">no immediate issue</text>
</g>
<!-- H -->
<g id="node8" class="node">
<title>H</title>
<path fill="#1a2028" stroke="#9aa4b2" stroke-width="1.2" d="M471,-36C471,-36 247,-36 247,-36 241,-36 235,-30 235,-24 235,-24 235,-12 235,-12 235,-6 241,0 247,0 247,0 471,0 471,0 477,0 483,-6 483,-12 483,-12 483,-24 483,-24 483,-30 477,-36 471,-36"/>
<text text-anchor="middle" x="359" y="-14.2" font-family="Helvetica,sans-Serif" font-size="16.00" fill="#e6edf3">Resume Ordinary Monitoring</text>
</g>
<!-- D&#45;&gt;H -->
<g id="edge7" class="edge">
<title>D&#45;&gt;H</title>
<path fill="none" stroke="#9aa4b2" d="M68.12,-413.77C61.64,-389.34 51,-343.14 51,-303 51,-303 51,-303 51,-112 51,-72.9 143.09,-48.76 226.56,-34.9"/>
<polygon fill="#9aa4b2" stroke="#9aa4b2" points="227.17,-37.64 234.61,-33.59 226.27,-32.11 227.17,-37.64"/>
</g>
<!-- I -->
<g id="node9" class="node">
<title>I</title>
<path fill="#1a2028" stroke="#9aa4b2" stroke-width="1.2" d="M359.5,-385C359.5,-385 206.5,-385 206.5,-385 200.5,-385 194.5,-379 194.5,-373 194.5,-373 194.5,-361 194.5,-361 194.5,-355 200.5,-349 206.5,-349 206.5,-349 359.5,-349 359.5,-349 365.5,-349 371.5,-355 371.5,-361 371.5,-361 371.5,-373 371.5,-373 371.5,-379 365.5,-385 359.5,-385"/>
<text text-anchor="middle" x="283" y="-363.2" font-family="Helvetica,sans-Serif" font-size="16.00" fill="#e6edf3">Scan Left And Right</text>
</g>
<!-- E&#45;&gt;I -->
<g id="edge8" class="edge">
<title>E&#45;&gt;I</title>
<path fill="none" stroke="#9aa4b2" d="M283.87,-478.74C283.69,-456.79 283.4,-418.72 283.2,-393.44"/>
<polygon fill="#9aa4b2" stroke="#9aa4b2" points="286,-393.38 283.14,-385.4 280.4,-393.42 286,-393.38"/>
</g>
<!-- F&#45;&gt;H -->
<g id="edge16" class="edge">
<title>F&#45;&gt;H</title>
<path fill="none" stroke="#9aa4b2" d="M511.2,-283.72C540.19,-246.25 599.99,-155.98 558,-95 538.97,-67.36 508.44,-49.77 476.94,-38.57"/>
<polygon fill="#9aa4b2" stroke="#9aa4b2" points="477.83,-35.92 469.35,-36 476.03,-41.22 477.83,-35.92"/>
</g>
<!-- N -->
<g id="node14" class="node">
<title>N</title>
<path fill="#1a2028" stroke="#9aa4b2" stroke-width="1.2" d="M995.5,-385C995.5,-385 796.5,-385 796.5,-385 790.5,-385 784.5,-379 784.5,-373 784.5,-373 784.5,-361 784.5,-361 784.5,-355 790.5,-349 796.5,-349 796.5,-349 995.5,-349 995.5,-349 1001.5,-349 1007.5,-355 1007.5,-361 1007.5,-361 1007.5,-373 1007.5,-373 1007.5,-379 1001.5,-385 995.5,-385"/>
<text text-anchor="middle" x="896" y="-363.2" font-family="Helvetica,sans-Serif" font-size="16.00" fill="#e6edf3">Check Posture And Space</text>
</g>
<!-- G&#45;&gt;N -->
<g id="edge17" class="edge">
<title>G&#45;&gt;N</title>
<path fill="none" stroke="#9aa4b2" d="M817.27,-478.74C833.15,-456.41 860.89,-417.39 878.84,-392.13"/>
<polygon fill="#9aa4b2" stroke="#9aa4b2" points="881.28,-393.54 883.63,-385.4 876.71,-390.3 881.28,-393.54"/>
</g>
<!-- H&#45;&gt;C -->
<g id="edge19" class="edge">
<title>H&#45;&gt;C</title>
<path fill="none" stroke="#9aa4b2" d="M483.3,-33.31C569.55,-46.84 669,-71.26 669,-112 669,-498 669,-498 669,-498 669,-536.53 636.12,-567.5 606.99,-587.38"/>
<polygon fill="#9aa4b2" stroke="#9aa4b2" points="605.21,-585.21 600.07,-591.95 608.29,-589.88 605.21,-585.21"/>
</g>
<!-- J -->
<g id="node10" class="node">
<title>J</title>
<path fill="#1a2028" stroke="#9aa4b2" stroke-width="1.2" d="M268.19,-252.9C268.19,-252.9 145.81,-231.1 145.81,-231.1 139.91,-230.05 139.91,-227.95 145.81,-226.9 145.81,-226.9 268.19,-205.1 268.19,-205.1 274.09,-204.05 285.91,-204.05 291.81,-205.1 291.81,-205.1 414.19,-226.9 414.19,-226.9 420.09,-227.95 420.09,-230.05 414.19,-231.1 414.19,-231.1 291.81,-252.9 291.81,-252.9 285.91,-253.95 274.09,-253.95 268.19,-252.9"/>
<text text-anchor="middle" x="280" y="-225.2" font-family="Helvetica,sans-Serif" font-size="16.00" fill="#e6edf3">Open Direction?</text>
</g>
<!-- I&#45;&gt;J -->
<g id="edge9" class="edge">
<title>I&#45;&gt;J</title>
<path fill="none" stroke="#9aa4b2" d="M282.62,-348.78C282.15,-327.27 281.32,-290.02 280.73,-262.96"/>
<polygon fill="#9aa4b2" stroke="#9aa4b2" points="283.53,-262.86 280.55,-254.92 277.93,-262.98 283.53,-262.86"/>
</g>
<!-- K -->
<g id="node11" class="node">
<title>K</title>
<path fill="#1a2028" stroke="#9aa4b2" stroke-width="1.2" d="M180,-131C180,-131 118,-131 118,-131 112,-131 106,-125 106,-119 106,-119 106,-107 106,-107 106,-101 112,-95 118,-95 118,-95 180,-95 180,-95 186,-95 192,-101 192,-107 192,-107 192,-119 192,-119 192,-125 186,-131 180,-131"/>
<text text-anchor="middle" x="149" y="-109.2" font-family="Helvetica,sans-Serif" font-size="16.00" fill="#e6edf3">Turn Left</text>
</g>
<!-- J&#45;&gt;K -->
<g id="edge10" class="edge">
<title>J&#45;&gt;K</title>
<path fill="none" stroke="#9aa4b2" d="M255.97,-207.09C232.92,-187.03 198.22,-156.83 174.64,-136.31"/>
<polygon fill="#9aa4b2" stroke="#9aa4b2" points="176.48,-134.2 168.6,-131.06 172.8,-138.42 176.48,-134.2"/>
<text text-anchor="middle" x="226" y="-163.6" font-family="Helvetica,sans-Serif" font-size="13.00" fill="#94a3b8">left</text>
</g>
<!-- L -->
<g id="node12" class="node">
<title>L</title>
<path fill="#1a2028" stroke="#9aa4b2" stroke-width="1.2" d="M315.5,-131C315.5,-131 240.5,-131 240.5,-131 234.5,-131 228.5,-125 228.5,-119 228.5,-119 228.5,-107 228.5,-107 228.5,-101 234.5,-95 240.5,-95 240.5,-95 315.5,-95 315.5,-95 321.5,-95 327.5,-101 327.5,-107 327.5,-107 327.5,-119 327.5,-119 327.5,-125 321.5,-131 315.5,-131"/>
<text text-anchor="middle" x="278" y="-109.2" font-family="Helvetica,sans-Serif" font-size="16.00" fill="#e6edf3">Turn Right</text>
</g>
<!-- J&#45;&gt;L -->
<g id="edge11" class="edge">
<title>J&#45;&gt;L</title>
<path fill="none" stroke="#9aa4b2" d="M279.56,-202.98C279.23,-184.11 278.78,-158.33 278.45,-139.37"/>
<polygon fill="#9aa4b2" stroke="#9aa4b2" points="281.24,-139.14 278.3,-131.19 275.64,-139.24 281.24,-139.14"/>
<text text-anchor="middle" x="294.5" y="-163.6" font-family="Helvetica,sans-Serif" font-size="13.00" fill="#94a3b8">right</text>
</g>
<!-- M -->
<g id="node13" class="node">
<title>M</title>
<path fill="#1a2028" stroke="#9aa4b2" stroke-width="1.2" d="M528,-131C528,-131 376,-131 376,-131 370,-131 364,-125 364,-119 364,-119 364,-107 364,-107 364,-101 370,-95 376,-95 376,-95 528,-95 528,-95 534,-95 540,-101 540,-107 540,-107 540,-119 540,-119 540,-125 534,-131 528,-131"/>
<text text-anchor="middle" x="452" y="-109.2" font-family="Helvetica,sans-Serif" font-size="16.00" fill="#e6edf3">Retry Or Back Away</text>
</g>
<!-- J&#45;&gt;M -->
<g id="edge12" class="edge">
<title>J&#45;&gt;M</title>
<path fill="none" stroke="#9aa4b2" d="M309.96,-208.14C340.56,-187.86 387.93,-156.46 419.44,-135.58"/>
<polygon fill="#9aa4b2" stroke="#9aa4b2" points="421.19,-137.78 426.31,-131.03 418.09,-133.11 421.19,-137.78"/>
<text text-anchor="middle" x="421.5" y="-163.6" font-family="Helvetica,sans-Serif" font-size="13.00" fill="#94a3b8">still blocked</text>
</g>
<!-- K&#45;&gt;H -->
<g id="edge13" class="edge">
<title>K&#45;&gt;H</title>
<path fill="none" stroke="#9aa4b2" d="M187.52,-94.94C222.78,-79.33 275.04,-56.18 312.59,-39.55"/>
<polygon fill="#9aa4b2" stroke="#9aa4b2" points="314.19,-41.91 320.37,-36.11 311.92,-36.79 314.19,-41.91"/>
</g>
<!-- L&#45;&gt;H -->
<g id="edge14" class="edge">
<title>L&#45;&gt;H</title>
<path fill="none" stroke="#9aa4b2" d="M292.86,-94.94C305.68,-80.22 324.33,-58.81 338.55,-42.47"/>
<polygon fill="#9aa4b2" stroke="#9aa4b2" points="340.82,-44.14 343.96,-36.26 336.6,-40.46 340.82,-44.14"/>
</g>
<!-- M&#45;&gt;H -->
<g id="edge15" class="edge">
<title>M&#45;&gt;H</title>
<path fill="none" stroke="#9aa4b2" d="M434.94,-94.94C420.09,-80.09 398.43,-58.43 382.04,-42.04"/>
<polygon fill="#9aa4b2" stroke="#9aa4b2" points="383.9,-39.94 376.26,-36.26 379.94,-43.9 383.9,-39.94"/>
</g>
<!-- N&#45;&gt;C -->
<g id="edge18" class="edge">
<title>N&#45;&gt;C</title>
<path fill="none" stroke="#9aa4b2" d="M901.37,-385.04C909.29,-413.21 921.4,-470.76 904,-515 894.45,-539.29 886.91,-545.5 864,-558 817.55,-583.35 761.64,-597.14 710.69,-604.54"/>
<polygon fill="#9aa4b2" stroke="#9aa4b2" points="710.09,-601.79 702.55,-605.67 710.86,-607.34 710.09,-601.79"/>
</g>
</g>
</svg>
