<?xml version="1.0" encoding="UTF-8" standalone="no"?>
<!DOCTYPE svg PUBLIC "-//W3C//DTD SVG 1.1//EN"
 "http://www.w3.org/Graphics/SVG/1.1/DTD/svg11.dtd">
<!-- Generated by graphviz version 2.42.4 (0)
 -->
<!-- Title: G Pages: 1 -->
<svg width="884pt" height="504pt"
 viewBox="0.00 0.00 884.21 504.00" xmlns="http://www.w3.org/2000/svg" xmlns:xlink="http://www.w3.org/1999/xlink">
<g id="graph0" class="graph" transform="scale(1 1) rotate(0) translate(18 486)">
<title>G</title>
<polygon fill="#101418" stroke="transparent" points="-18,18 -18,-486 866.21,-486 866.21,18 -18,18"/>
<!-- S_INIT -->
<g id="node1" class="node">
<title>S_INIT</title>
<path fill="#1a2028" stroke="#9aa4b2" stroke-width="1.2" d="M311.21,-468C311.21,-468 281.21,-468 281.21,-468 275.21,-468 269.21,-462 269.21,-456 269.21,-456 269.21,-444 269.21,-444 269.21,-438 275.21,-432 281.21,-432 281.21,-432 311.21,-432 311.21,-432 317.21,-432 323.21,-438 323.21,-444 323.21,-444 323.21,-456 323.21,-456 323.21,-462 317.21,-468 311.21,-468"/>
<text text-anchor="middle" x="296.21" y="-446.2" font-family="Helvetica,sans-Serif" font-size="16.00" fill="#e6edf3">Boot</text>
</g>
<!-- S_100 -->
<g id="node2" class="node">
<title>S_100</title>
<path fill="#1a2028" stroke="#9aa4b2" stroke-width="1.2" d="M356.21,-360C356.21,-360 236.21,-360 236.21,-360 230.21,-360 224.21,-354 224.21,-348 224.21,-348 224.21,-336 224.21,-336 224.21,-330 230.21,-324 236.21,-324 236.21,-324 356.21,-324 356.21,-324 362.21,-324 368.21,-330 368.21,-336 368.21,-336 368.21,-348 368.21,-348 368.21,-354 362.21,-360 356.21,-360"/>
<text text-anchor="middle" x="296.21" y="-338.2" font-family="Helvetica,sans-Serif" font-size="16.00" fill="#e6edf3">Sense Fall State</text>
</g>
<!-- S_INIT&#45;&gt;S_100 -->
<g id="edge1" class="edge">
<title>S_INIT&#45;&gt;S_100</title>
<path fill="none" stroke="#9aa4b2" d="M296.21,-431.97C296.21,-414.84 296.21,-388.22 296.21,-368.56"/>
<polygon fill="#9aa4b2" stroke="#9aa4b2" points="299.01,-368.34 296.21,-360.34 293.41,-368.34 299.01,-368.34"/>
<text text-anchor="middle" x="313.71" y="-392.6" font-family="Helvetica,sans-Serif" font-size="13.00" fill="#94a3b8">entry</text>
</g>
<!-- S_100&#45;&gt;S_100 -->
<g id="edge5" class="edge">
<title>S_100&#45;&gt;S_100</title>
<path fill="none" stroke="#9aa4b2" d="M368.38,-352.07C388.65,-351.63 404.21,-348.28 404.21,-342 404.21,-336.61 392.72,-333.37 376.62,-332.28"/>
<polygon fill="#9aa4b2" stroke="#9aa4b2" points="376.5,-329.48 368.38,-331.93 376.25,-335.07 376.5,-329.48"/>
<text text-anchor="middle" x="428.21" y="-338.6" font-family="Helvetica,sans-Serif" font-size="13.00" fill="#94a3b8">upright</text>
</g>
<!-- S_1000 -->
<g id="node3" class="node">
<title>S_1000</title>
<path fill="#1a2028" stroke="#9aa4b2" stroke-width="1.2" d="M128.71,-144C128.71,-144 41.71,-144 41.71,-144 35.71,-144 29.71,-138 29.71,-132 29.71,-132 29.71,-120 29.71,-120 29.71,-114 35.71,-108 41.71,-108 41.71,-108 128.71,-108 128.71,-108 134.71,-108 140.71,-114 140.71,-120 140.71,-120 140.71,-132 140.71,-132 140.71,-138 134.71,-144 128.71,-144"/>
<text text-anchor="middle" x="85.21" y="-122.2" font-family="Helvetica,sans-Serif" font-size="16.00" fill="#e6edf3">Action Loop</text>
</g>
<!-- S_100&#45;&gt;S_1000 -->
<g id="edge3" class="edge">
<title>S_100&#45;&gt;S_1000</title>
<path fill="none" stroke="#9aa4b2" d="M249.88,-323.97C233.71,-316.62 216.14,-306.94 202.21,-295 153.67,-253.38 115.57,-187.3 97.21,-151.68"/>
<polygon fill="#9aa4b2" stroke="#9aa4b2" points="99.51,-150.01 93.39,-144.15 94.51,-152.55 99.51,-150.01"/>
<text text-anchor="middle" x="199.71" y="-230.6" font-family="Helvetica,sans-Serif" font-size="13.00" fill="#94a3b8">if mode = 0</text>
</g>
<!-- S_2000 -->
<g id="node4" class="node">
<title>S_2000</title>
<path fill="#1a2028" stroke="#9aa4b2" stroke-width="1.2" d="M569.21,-252C569.21,-252 533.21,-252 533.21,-252 527.21,-252 521.21,-246 521.21,-240 521.21,-240 521.21,-228 521.21,-228 521.21,-222 527.21,-216 533.21,-216 533.21,-216 569.21,-216 569.21,-216 575.21,-216 581.21,-222 581.21,-228 581.21,-228 581.21,-240 581.21,-240 581.21,-246 575.21,-252 569.21,-252"/>
<text text-anchor="middle" x="551.21" y="-230.2" font-family="Helvetica,sans-Serif" font-size="16.00" fill="#e6edf3">Mode</text>
</g>
<!-- S_100&#45;&gt;S_2000 -->
<g id="edge4" class="edge">
<title>S_100&#45;&gt;S_2000</title>
<path fill="none" stroke="#9aa4b2" d="M368.32,-332.62C405.49,-326.13 450.59,-314.76 487.21,-295 504.37,-285.74 520.38,-270.73 532.09,-258.04"/>
<polygon fill="#9aa4b2" stroke="#9aa4b2" points="534.22,-259.86 537.48,-252.04 530.05,-256.12 534.22,-259.86"/>
<text text-anchor="middle" x="545.71" y="-284.6" font-family="Helvetica,sans-Serif" font-size="13.00" fill="#94a3b8">if mode = 1</text>
</g>
<!-- S_9000 -->
<g id="node9" class="node">
<title>S_9000</title>
<path fill="#1a2028" stroke="#9aa4b2" stroke-width="1.2" d="M374.21,-252C374.21,-252 316.21,-252 316.21,-252 310.21,-252 304.21,-246 304.21,-240 304.21,-240 304.21,-228 304.21,-228 304.21,-222 310.21,-216 316.21,-216 316.21,-216 374.21,-216 374.21,-216 380.21,-216 386.21,-222 386.21,-228 386.21,-228 386.21,-240 386.21,-240 386.21,-246 380.21,-252 374.21,-252"/>
<text text-anchor="middle" x="345.21" y="-230.2" font-family="Helvetica,sans-Serif" font-size="16.00" fill="#e6edf3">Recover</text>
</g>
<!-- S_100&#45;&gt;S_9000 -->
<g id="edge2" class="edge">
<title>S_100&#45;&gt;S_9000</title>
<path fill="none" stroke="#9aa4b2" d="M311.53,-323.69C318.11,-315.48 325.38,-305.24 330.21,-295 335.36,-284.09 338.87,-271.2 341.2,-260.17"/>
<polygon fill="#9aa4b2" stroke="#9aa4b2" points="343.98,-260.54 342.76,-252.16 338.48,-259.48 343.98,-260.54"/>
<text text-anchor="middle" x="407.21" y="-284.6" font-family="Helvetica,sans-Serif" font-size="13.00" fill="#94a3b8">if Gsensor_status &amp; 1</text>
</g>
<!-- S_1000&#45;&gt;S_100 -->
<g id="edge6" class="edge">
<title>S_1000&#45;&gt;S_100</title>
<path fill="none" stroke="#9aa4b2" d="M61.15,-144.16C29.56,-168.8 -18.87,-215.28 8.21,-252 33.09,-285.73 139.57,-312.09 215.8,-327.1"/>
<polygon fill="#9aa4b2" stroke="#9aa4b2" points="215.62,-329.92 224.01,-328.7 216.69,-324.42 215.62,-329.92"/>
<text text-anchor="middle" x="67.71" y="-230.6" font-family="Helvetica,sans-Serif" font-size="13.00" fill="#94a3b8">if Cdt_npixel &lt; 32</text>
</g>
<!-- S_2000&#45;&gt;S_1000 -->
<g id="edge7" class="edge">
<title>S_2000&#45;&gt;S_1000</title>
<path fill="none" stroke="#9aa4b2" d="M521,-229.42C469.79,-223.03 362.84,-208.31 274.21,-187 228.43,-175.99 177.62,-159.62 140.22,-146.76"/>
<polygon fill="#9aa4b2" stroke="#9aa4b2" points="140.92,-144.04 132.45,-144.07 139.09,-149.33 140.92,-144.04"/>
<text text-anchor="middle" x="333.71" y="-176.6" font-family="Helvetica,sans-Serif" font-size="13.00" fill="#94a3b8">if Cdt_npixel &lt; 32</text>
</g>
<!-- S_2210 -->
<g id="node5" class="node">
<title>S_2210</title>
<path fill="#1a2028" stroke="#9aa4b2" stroke-width="1.2" d="M666.71,-144C666.71,-144 605.71,-144 605.71,-144 599.71,-144 593.71,-138 593.71,-132 593.71,-132 593.71,-120 593.71,-120 593.71,-114 599.71,-108 605.71,-108 605.71,-108 666.71,-108 666.71,-108 672.71,-108 678.71,-114 678.71,-120 678.71,-120 678.71,-132 678.71,-132 678.71,-138 672.71,-144 666.71,-144"/>
<text text-anchor="middle" x="636.21" y="-122.2" font-family="Helvetica,sans-Serif" font-size="16.00" fill="#e6edf3">Left Kick</text>
</g>
<!-- S_2000&#45;&gt;S_2210 -->
<g id="edge9" class="edge">
<title>S_2000&#45;&gt;S_2210</title>
<path fill="none" stroke="#9aa4b2" d="M545.09,-215.97C541.63,-203.22 539.39,-185.84 547.21,-173 555.99,-158.57 570.92,-148.47 586.06,-141.49"/>
<polygon fill="#9aa4b2" stroke="#9aa4b2" points="587.24,-144.03 593.49,-138.31 585.03,-138.89 587.24,-144.03"/>
<text text-anchor="middle" x="601.21" y="-176.6" font-family="Helvetica,sans-Serif" font-size="13.00" fill="#94a3b8">if Head_pan &gt; 0</text>
</g>
<!-- S_2220 -->
<g id="node6" class="node">
<title>S_2220</title>
<path fill="#1a2028" stroke="#9aa4b2" stroke-width="1.2" d="M801.21,-144C801.21,-144 727.21,-144 727.21,-144 721.21,-144 715.21,-138 715.21,-132 715.21,-132 715.21,-120 715.21,-120 715.21,-114 721.21,-108 727.21,-108 727.21,-108 801.21,-108 801.21,-108 807.21,-108 813.21,-114 813.21,-120 813.21,-120 813.21,-132 813.21,-132 813.21,-138 807.21,-144 801.21,-144"/>
<text text-anchor="middle" x="764.21" y="-122.2" font-family="Helvetica,sans-Serif" font-size="16.00" fill="#e6edf3">Right Kick</text>
</g>
<!-- S_2000&#45;&gt;S_2220 -->
<g id="edge10" class="edge">
<title>S_2000&#45;&gt;S_2220</title>
<path fill="none" stroke="#9aa4b2" d="M581.27,-221.48C603.41,-212.72 634.09,-199.98 660.21,-187 683.82,-175.27 709.48,-160.48 729.41,-148.53"/>
<polygon fill="#9aa4b2" stroke="#9aa4b2" points="731.07,-150.79 736.47,-144.26 728.18,-146 731.07,-150.79"/>
<text text-anchor="middle" x="749.71" y="-176.6" font-family="Helvetica,sans-Serif" font-size="13.00" fill="#94a3b8">else Head_pan &gt; 0</text>
</g>
<!-- S_2300 -->
<g id="node7" class="node">
<title>S_2300</title>
<path fill="#1a2028" stroke="#9aa4b2" stroke-width="1.2" d="M545.71,-144C545.71,-144 188.71,-144 188.71,-144 182.71,-144 176.71,-138 176.71,-132 176.71,-132 176.71,-120 176.71,-120 176.71,-114 182.71,-108 188.71,-108 188.71,-108 545.71,-108 545.71,-108 551.71,-108 557.71,-114 557.71,-120 557.71,-120 557.71,-132 557.71,-132 557.71,-138 551.71,-144 545.71,-144"/>
<text text-anchor="middle" x="367.21" y="-122.2" font-family="Helvetica,sans-Serif" font-size="16.00" fill="#e6edf3">It approaches a ball by the angle of the head</text>
</g>
<!-- S_2000&#45;&gt;S_2300 -->
<g id="edge8" class="edge">
<title>S_2000&#45;&gt;S_2300</title>
<path fill="none" stroke="#9aa4b2" d="M521.13,-227.22C492.97,-220.76 450.64,-208.32 419.21,-187 405.06,-177.4 392.41,-163.02 383.14,-150.74"/>
<polygon fill="#9aa4b2" stroke="#9aa4b2" points="385.32,-148.99 378.34,-144.18 380.8,-152.29 385.32,-148.99"/>
<text text-anchor="middle" x="476.21" y="-176.6" font-family="Helvetica,sans-Serif" font-size="13.00" fill="#94a3b8">if Head_tilt &gt; &#45;58</text>
</g>
<!-- S_2900 -->
<g id="node8" class="node">
<title>S_2900</title>
<path fill="#1a2028" stroke="#9aa4b2" stroke-width="1.2" d="M762.21,-36C762.21,-36 670.21,-36 670.21,-36 664.21,-36 658.21,-30 658.21,-24 658.21,-24 658.21,-12 658.21,-12 658.21,-6 664.21,0 670.21,0 670.21,0 762.21,0 762.21,0 768.21,0 774.21,-6 774.21,-12 774.21,-12 774.21,-24 774.21,-24 774.21,-30 768.21,-36 762.21,-36"/>
<text text-anchor="middle" x="716.21" y="-14.2" font-family="Helvetica,sans-Serif" font-size="16.00" fill="#e6edf3">Synchronize</text>
</g>
<!-- S_2210&#45;&gt;S_2900 -->
<g id="edge11" class="edge">
<title>S_2210&#45;&gt;S_2900</title>
<path fill="none" stroke="#9aa4b2" d="M649.06,-107.97C662.4,-90.3 683.35,-62.54 698.3,-42.73"/>
<polygon fill="#9aa4b2" stroke="#9aa4b2" points="700.54,-44.41 703.12,-36.34 696.07,-41.04 700.54,-44.41"/>
<text text-anchor="middle" x="688.71" y="-68.6" font-family="Helvetica,sans-Serif" font-size="13.00" fill="#94a3b8">go</text>
</g>
<!-- S_2220&#45;&gt;S_2900 -->
<g id="edge12" class="edge">
<title>S_2220&#45;&gt;S_2900</title>
<path fill="none" stroke="#9aa4b2" d="M756.5,-107.97C748.64,-90.61 736.36,-63.5 727.42,-43.77"/>
<polygon fill="#9aa4b2" stroke="#9aa4b2" points="729.91,-42.47 724.06,-36.34 724.81,-44.78 729.91,-42.47"/>
<text text-anchor="middle" x="750.71" y="-68.6" font-family="Helvetica,sans-Serif" font-size="13.00" fill="#94a3b8">go</text>
</g>
<!-- S_2300&#45;&gt;S_2900 -->
<g id="edge13" class="edge">
<title>S_2300&#45;&gt;S_2900</title>
<path fill="none" stroke="#9aa4b2" d="M413.15,-107.97C447.83,-95.38 496.71,-78.21 540.21,-65 576.3,-54.04 617.02,-43.3 650.2,-34.95"/>
<polygon fill="#9aa4b2" stroke="#9aa4b2" points="650.94,-37.65 658.02,-32.99 649.58,-32.22 650.94,-37.65"/>
<text text-anchor="middle" x="601.21" y="-68.6" font-family="Helvetica,sans-Serif" font-size="13.00" fill="#94a3b8">next labeled block</text>
</g>
<!-- S_2900&#45;&gt;S_100 -->
<g id="edge14" class="edge">
<title>S_2900&#45;&gt;S_100</title>
<path fill="none" stroke="#9aa4b2" d="M753.23,-36.15C780.33,-50.95 815.09,-75.14 831.21,-108 846.77,-139.73 844.08,-159.24 822.21,-187 752.81,-275.07 701.4,-262.1 594.21,-295 522.25,-317.08 437.11,-328.87 376.3,-334.96"/>
<polygon fill="#9aa4b2" stroke="#9aa4b2" points="375.95,-332.18 368.26,-335.75 376.49,-337.76 375.95,-332.18"/>
<text text-anchor="middle" x="839.71" y="-176.6" font-family="Helvetica,sans-Serif" font-size="13.00" fill="#94a3b8">go</text>
</g>
<!-- S_9000&#45;&gt;S_100 -->
<g id="edge15" class="edge">
<title>S_9000&#45;&gt;S_100</title>
<path fill="none" stroke="#9aa4b2" d="M304.07,-237.5C274.02,-241.74 235.18,-252.75 215.21,-281 203.96,-296.91 217.82,-310.33 237.07,-320.41"/>
<polygon fill="#9aa4b2" stroke="#9aa4b2" points="235.95,-322.98 244.37,-323.98 238.4,-317.95 235.95,-322.98"/>
<text text-anchor="middle" x="268.21" y="-284.6" font-family="Helvetica,sans-Serif" font-size="13.00" fill="#94a3b8">resume monitor</text>
</g>
</g>
</svg>
