<?xml version="1.0" encoding="UTF-8" standalone="no"?>
<!DOCTYPE svg PUBLIC "-//W3C//DTD SVG 1.1//EN"
 "http://www.w3.org/Graphics/SVG/1.1/DTD/svg11.dtd">
<!-- Generated by graphviz version 2.42.4 (0)
 -->
<!-- Title: G Pages: 1 -->
<svg width="557pt" height="1288pt"
 viewBox="0.00 0.00 557.00 1288.00" xmlns="http://www.w3.org/2000/svg" xmlns:xlink="http://www.w3.org/1999/xlink">
<g id="graph0" class="graph" transform="scale(1 1) rotate(0) translate(18 1270)">
<title>G</title>
<polygon fill="#101418" stroke="transparent" points="-18,18 -18,-1270 539,-1270 539,18 -18,18"/>
<!-- A -->
<g id="node1" class="node">
<title>A</title>
<path fill="#1a2028" stroke="#9aa4b2" stroke-width="1.2" d="M420.5,-1252C420.5,-1252 181.5,-1252 181.5,-1252 175.5,-1252 169.5,-1246 169.5,-1240 169.5,-1240 169.5,-1228 169.5,-1228 169.5,-1222 175.5,-1216 181.5,-1216 181.5,-1216 420.5,-1216 420.5,-1216 426.5,-1216 432.5,-1222 432.5,-1228 432.5,-1228 432.5,-1240 432.5,-1240 432.5,-1246 426.5,-1252 420.5,-1252"/>
<text text-anchor="middle" x="301" y="-1230.2" font-family="Helvetica,sans-Serif" font-size="16.00" fill="#e6edf3">Boot / Initialize Mode Variables</text>
</g>
<!-- B -->
<g id="node2" class="node">
<title>B</title>
<path fill="#1a2028" stroke="#9aa4b2" stroke-width="1.2" d="M371.5,-1144C371.5,-1144 230.5,-1144 230.5,-1144 224.5,-1144 218.5,-1138 218.5,-1132 218.5,-1132 218.5,-1120 218.5,-1120 218.5,-1114 224.5,-1108 230.5,-1108 230.5,-1108 371.5,-1108 371.5,-1108 377.5,-1108 383.5,-1114 383.5,-1120 383.5,-1120 383.5,-1132 383.5,-1132 383.5,-1138 377.5,-1144 371.5,-1144"/>
<text text-anchor="middle" x="301" y="-1122.2" font-family="Helvetica,sans-Serif" font-size="16.00" fill="#e6edf3">Main Monitor Loop</text>
</g>
<!-- A&#45;&gt;B -->
<g id="edge1" class="edge">
<title>A&#45;&gt;B</title>
<path fill="none" stroke="#9aa4b2" d="M301,-1215.97C301,-1198.84 301,-1172.22 301,-1152.56"/>
<polygon fill="#9aa4b2" stroke="#9aa4b2" points="303.8,-1152.34 301,-1144.34 298.2,-1152.34 303.8,-1152.34"/>
<text text-anchor="middle" x="318.5" y="-1176.6" font-family="Helvetica,sans-Serif" font-size="13.00" fill="#94a3b8">entry</text>
</g>
<!-- C -->
<g id="node3" class="node">
<title>C</title>
<path fill="#1a2028" stroke="#9aa4b2" stroke-width="1.2" d="M167.31,-1043.55C167.31,-1043.55 137.69,-1028.45 137.69,-1028.45 132.35,-1025.73 132.35,-1020.27 137.69,-1017.55 137.69,-1017.55 167.31,-1002.45 167.31,-1002.45 172.65,-999.73 183.35,-999.73 188.69,-1002.45 188.69,-1002.45 218.31,-1017.55 218.31,-1017.55 223.65,-1020.27 223.65,-1025.73 218.31,-1028.45 218.31,-1028.45 188.69,-1043.55 188.69,-1043.55 183.35,-1046.27 172.65,-1046.27 167.31,-1043.55"/>
<text text-anchor="middle" x="178" y="-1019.2" font-family="Helvetica,sans-Serif" font-size="16.00" fill="#e6edf3">Fall?</text>
</g>
<!-- B&#45;&gt;C -->
<g id="edge2" class="edge">
<title>B&#45;&gt;C</title>
<path fill="none" stroke="#9aa4b2" d="M280.13,-1107.87C258.92,-1090.45 226.04,-1063.45 203.35,-1044.81"/>
<polygon fill="#9aa4b2" stroke="#9aa4b2" points="204.9,-1042.47 196.94,-1039.56 201.35,-1046.8 204.9,-1042.47"/>
</g>
<!-- R -->
<g id="node4" class="node">
<title>R</title>
<path fill="#1a2028" stroke="#9aa4b2" stroke-width="1.2" d="M327,-917C327,-917 269,-917 269,-917 263,-917 257,-911 257,-905 257,-905 257,-893 257,-893 257,-887 263,-881 269,-881 269,-881 327,-881 327,-881 333,-881 339,-887 339,-893 339,-893 339,-905 339,-905 339,-911 333,-917 327,-917"/>
<text text-anchor="middle" x="298" y="-895.2" font-family="Helvetica,sans-Serif" font-size="16.00" fill="#e6edf3">Recover</text>
</g>
<!-- C&#45;&gt;R -->
<g id="edge3" class="edge">
<title>C&#45;&gt;R</title>
<path fill="none" stroke="#9aa4b2" d="M192.1,-1004.04C203.44,-989.95 220.06,-970.1 236,-954 246.83,-943.06 259.53,-931.75 270.62,-922.33"/>
<polygon fill="#9aa4b2" stroke="#9aa4b2" points="272.61,-924.31 276.93,-917.02 269,-920.03 272.61,-924.31"/>
<text text-anchor="middle" x="254.5" y="-957.6" font-family="Helvetica,sans-Serif" font-size="13.00" fill="#94a3b8">fallen</text>
</g>
<!-- D -->
<g id="node5" class="node">
<title>D</title>
<path fill="#1a2028" stroke="#9aa4b2" stroke-width="1.2" d="M145.99,-920.23C145.99,-920.23 108.01,-903.77 108.01,-903.77 102.51,-901.39 102.51,-896.61 108.01,-894.23 108.01,-894.23 145.99,-877.77 145.99,-877.77 151.49,-875.39 162.51,-875.39 168.01,-877.77 168.01,-877.77 205.99,-894.23 205.99,-894.23 211.49,-896.61 211.49,-901.39 205.99,-903.77 205.99,-903.77 168.01,-920.23 168.01,-920.23 162.51,-922.61 151.49,-922.61 145.99,-920.23"/>
<text text-anchor="middle" x="157" y="-895.2" font-family="Helvetica,sans-Serif" font-size="16.00" fill="#e6edf3">Mode</text>
</g>
<!-- C&#45;&gt;D -->
<g id="edge4" class="edge">
<title>C&#45;&gt;D</title>
<path fill="none" stroke="#9aa4b2" d="M164.2,-1003.58C157.6,-993.6 150.4,-980.74 147,-968 143.73,-955.73 144.91,-941.91 147.4,-929.94"/>
<polygon fill="#9aa4b2" stroke="#9aa4b2" points="150.16,-930.43 149.3,-922 144.71,-929.13 150.16,-930.43"/>
<text text-anchor="middle" x="171" y="-957.6" font-family="Helvetica,sans-Serif" font-size="13.00" fill="#94a3b8">upright</text>
</g>
<!-- R&#45;&gt;B -->
<g id="edge5" class="edge">
<title>R&#45;&gt;B</title>
<path fill="none" stroke="#9aa4b2" d="M298.23,-917.03C298.75,-956.31 300.05,-1053.42 300.66,-1099.69"/>
<polygon fill="#9aa4b2" stroke="#9aa4b2" points="297.86,-1099.76 300.77,-1107.72 303.46,-1099.68 297.86,-1099.76"/>
<text text-anchor="middle" x="360.5" y="-1019.6" font-family="Helvetica,sans-Serif" font-size="13.00" fill="#94a3b8">resume main loop</text>
</g>
<!-- E -->
<g id="node6" class="node">
<title>E</title>
<path fill="#1a2028" stroke="#9aa4b2" stroke-width="1.2" d="M205.5,-801C205.5,-801 108.5,-801 108.5,-801 102.5,-801 96.5,-795 96.5,-789 96.5,-789 96.5,-777 96.5,-777 96.5,-771 102.5,-765 108.5,-765 108.5,-765 205.5,-765 205.5,-765 211.5,-765 217.5,-771 217.5,-777 217.5,-777 217.5,-789 217.5,-789 217.5,-795 211.5,-801 205.5,-801"/>
<text text-anchor="middle" x="157" y="-779.2" font-family="Helvetica,sans-Serif" font-size="16.00" fill="#e6edf3">Search Block</text>
</g>
<!-- D&#45;&gt;E -->
<g id="edge6" class="edge">
<title>D&#45;&gt;E</title>
<path fill="none" stroke="#9aa4b2" d="M157,-872.98C157,-854.11 157,-828.33 157,-809.37"/>
<polygon fill="#9aa4b2" stroke="#9aa4b2" points="159.8,-809.19 157,-801.19 154.2,-809.19 159.8,-809.19"/>
<text text-anchor="middle" x="179.5" y="-833.6" font-family="Helvetica,sans-Serif" font-size="13.00" fill="#94a3b8">search</text>
</g>
<!-- H -->
<g id="node9" class="node">
<title>H</title>
<path fill="#1a2028" stroke="#9aa4b2" stroke-width="1.2" d="M250.5,-474C250.5,-474 153.5,-474 153.5,-474 147.5,-474 141.5,-468 141.5,-462 141.5,-462 141.5,-450 141.5,-450 141.5,-444 147.5,-438 153.5,-438 153.5,-438 250.5,-438 250.5,-438 256.5,-438 262.5,-444 262.5,-450 262.5,-450 262.5,-462 262.5,-462 262.5,-468 256.5,-474 250.5,-474"/>
<text text-anchor="middle" x="202" y="-452.2" font-family="Helvetica,sans-Serif" font-size="16.00" fill="#e6edf3">Pursuit Block</text>
</g>
<!-- D&#45;&gt;H -->
<g id="edge7" class="edge">
<title>D&#45;&gt;H</title>
<path fill="none" stroke="#9aa4b2" d="M190.75,-887.58C250.81,-868.03 370,-824.16 370,-784 370,-784 370,-784 370,-571 370,-520.25 316.86,-490.52 270.35,-474.23"/>
<polygon fill="#9aa4b2" stroke="#9aa4b2" points="271.13,-471.54 262.65,-471.63 269.34,-476.84 271.13,-471.54"/>
<text text-anchor="middle" x="393" y="-671.6" font-family="Helvetica,sans-Serif" font-size="13.00" fill="#94a3b8">pursuit</text>
</g>
<!-- F -->
<g id="node7" class="node">
<title>F</title>
<path fill="#1a2028" stroke="#9aa4b2" stroke-width="1.2" d="M263.5,-693C263.5,-693 108.5,-693 108.5,-693 102.5,-693 96.5,-687 96.5,-681 96.5,-681 96.5,-669 96.5,-669 96.5,-663 102.5,-657 108.5,-657 108.5,-657 263.5,-657 263.5,-657 269.5,-657 275.5,-663 275.5,-669 275.5,-669 275.5,-681 275.5,-681 275.5,-687 269.5,-693 263.5,-693"/>
<text text-anchor="middle" x="186" y="-671.2" font-family="Helvetica,sans-Serif" font-size="16.00" fill="#e6edf3">Scan Head Positions</text>
</g>
<!-- E&#45;&gt;F -->
<g id="edge8" class="edge">
<title>E&#45;&gt;F</title>
<path fill="none" stroke="#9aa4b2" d="M161.66,-764.97C166.37,-747.76 173.69,-720.98 179.08,-701.29"/>
<polygon fill="#9aa4b2" stroke="#9aa4b2" points="181.85,-701.8 181.26,-693.34 176.44,-700.32 181.85,-701.8"/>
<text text-anchor="middle" x="227" y="-725.6" font-family="Helvetica,sans-Serif" font-size="13.00" fill="#94a3b8">rotate and scan</text>
</g>
<!-- G -->
<g id="node8" class="node">
<title>G</title>
<path fill="#1a2028" stroke="#9aa4b2" stroke-width="1.2" d="M190.31,-595.31C190.31,-595.31 100.69,-574.69 100.69,-574.69 94.85,-573.35 94.85,-570.65 100.69,-569.31 100.69,-569.31 190.31,-548.69 190.31,-548.69 196.15,-547.35 207.85,-547.35 213.69,-548.69 213.69,-548.69 303.31,-569.31 303.31,-569.31 309.15,-570.65 309.15,-573.35 303.31,-574.69 303.31,-574.69 213.69,-595.31 213.69,-595.31 207.85,-596.65 196.15,-596.65 190.31,-595.31"/>
<text text-anchor="middle" x="202" y="-568.2" font-family="Helvetica,sans-Serif" font-size="16.00" fill="#e6edf3">Ball Visible?</text>
</g>
<!-- F&#45;&gt;G -->
<g id="edge9" class="edge">
<title>F&#45;&gt;G</title>
<path fill="none" stroke="#9aa4b2" d="M188.71,-656.87C190.94,-642.84 194.14,-622.6 196.85,-605.51"/>
<polygon fill="#9aa4b2" stroke="#9aa4b2" points="199.64,-605.76 198.13,-597.42 194.11,-604.89 199.64,-605.76"/>
</g>
<!-- G&#45;&gt;H -->
<g id="edge11" class="edge">
<title>G&#45;&gt;H</title>
<path fill="none" stroke="#9aa4b2" d="M202,-545.98C202,-527.11 202,-501.33 202,-482.37"/>
<polygon fill="#9aa4b2" stroke="#9aa4b2" points="204.8,-482.19 202,-474.19 199.2,-482.19 204.8,-482.19"/>
<text text-anchor="middle" x="213.5" y="-506.6" font-family="Helvetica,sans-Serif" font-size="13.00" fill="#94a3b8">yes</text>
</g>
<!-- M -->
<g id="node14" class="node">
<title>M</title>
<path fill="#1a2028" stroke="#9aa4b2" stroke-width="1.2" d="M404,-36C404,-36 198,-36 198,-36 192,-36 186,-30 186,-24 186,-24 186,-12 186,-12 186,-6 192,0 198,0 198,0 404,0 404,0 410,0 416,-6 416,-12 416,-12 416,-24 416,-24 416,-30 410,-36 404,-36"/>
<text text-anchor="middle" x="301" y="-14.2" font-family="Helvetica,sans-Serif" font-size="16.00" fill="#e6edf3">Wait / Return To Main Loop</text>
</g>
<!-- G&#45;&gt;M -->
<g id="edge10" class="edge">
<title>G&#45;&gt;M</title>
<path fill="none" stroke="#9aa4b2" d="M239.95,-554.58C275.44,-536.37 323,-503.32 323,-457 323,-457 323,-457 323,-112 323,-88.44 316.23,-62.41 310.2,-43.89"/>
<polygon fill="#9aa4b2" stroke="#9aa4b2" points="312.82,-42.88 307.6,-36.2 307.51,-44.67 312.82,-42.88"/>
<text text-anchor="middle" x="331.5" y="-287.6" font-family="Helvetica,sans-Serif" font-size="13.00" fill="#94a3b8">no</text>
</g>
<!-- I -->
<g id="node10" class="node">
<title>I</title>
<path fill="#1a2028" stroke="#9aa4b2" stroke-width="1.2" d="M119.23,-376.66C119.23,-376.66 11.77,-355.34 11.77,-355.34 5.89,-354.17 5.89,-351.83 11.77,-350.66 11.77,-350.66 119.23,-329.34 119.23,-329.34 125.11,-328.17 136.89,-328.17 142.77,-329.34 142.77,-329.34 250.23,-350.66 250.23,-350.66 256.11,-351.83 256.11,-354.17 250.23,-355.34 250.23,-355.34 142.77,-376.66 142.77,-376.66 136.89,-377.83 125.11,-377.83 119.23,-376.66"/>
<text text-anchor="middle" x="131" y="-349.2" font-family="Helvetica,sans-Serif" font-size="16.00" fill="#e6edf3">Tracking Lost?</text>
</g>
<!-- H&#45;&gt;I -->
<g id="edge12" class="edge">
<title>H&#45;&gt;I</title>
<path fill="none" stroke="#9aa4b2" d="M189.96,-437.87C179.41,-422.86 163.86,-400.74 151.38,-382.99"/>
<polygon fill="#9aa4b2" stroke="#9aa4b2" points="153.48,-381.11 146.59,-376.17 148.9,-384.33 153.48,-381.11"/>
</g>
<!-- I&#45;&gt;E -->
<g id="edge13" class="edge">
<title>I&#45;&gt;E</title>
<path fill="none" stroke="#9aa4b2" d="M94.54,-371.8C65.61,-388.77 30,-417.31 30,-455 30,-676 30,-676 30,-676 30,-716.35 68.26,-744.34 102.78,-761.38"/>
<polygon fill="#9aa4b2" stroke="#9aa4b2" points="101.64,-763.94 110.07,-764.85 104.05,-758.89 101.64,-763.94"/>
<text text-anchor="middle" x="41.5" y="-568.6" font-family="Helvetica,sans-Serif" font-size="13.00" fill="#94a3b8">yes</text>
</g>
<!-- J -->
<g id="node11" class="node">
<title>J</title>
<path fill="#1a2028" stroke="#9aa4b2" stroke-width="1.2" d="M119.3,-252.33C119.3,-252.33 28.7,-231.67 28.7,-231.67 22.85,-230.33 22.85,-227.67 28.7,-226.33 28.7,-226.33 119.3,-205.67 119.3,-205.67 125.15,-204.33 136.85,-204.33 142.7,-205.67 142.7,-205.67 233.3,-226.33 233.3,-226.33 239.15,-227.67 239.15,-230.33 233.3,-231.67 233.3,-231.67 142.7,-252.33 142.7,-252.33 136.85,-253.67 125.15,-253.67 119.3,-252.33"/>
<text text-anchor="middle" x="131" y="-225.2" font-family="Helvetica,sans-Serif" font-size="16.00" fill="#e6edf3">Kick Range?</text>
</g>
<!-- I&#45;&gt;J -->
<g id="edge14" class="edge">
<title>I&#45;&gt;J</title>
<path fill="none" stroke="#9aa4b2" d="M131,-326.72C131,-308.4 131,-283.44 131,-263.47"/>
<polygon fill="#9aa4b2" stroke="#9aa4b2" points="133.8,-263.25 131,-255.25 128.2,-263.25 133.8,-263.25"/>
<text text-anchor="middle" x="139.5" y="-287.6" font-family="Helvetica,sans-Serif" font-size="13.00" fill="#94a3b8">no</text>
</g>
<!-- K -->
<g id="node12" class="node">
<title>K</title>
<path fill="#1a2028" stroke="#9aa4b2" stroke-width="1.2" d="M256,-131C256,-131 226,-131 226,-131 220,-131 214,-125 214,-119 214,-119 214,-107 214,-107 214,-101 220,-95 226,-95 226,-95 256,-95 256,-95 262,-95 268,-101 268,-107 268,-107 268,-119 268,-119 268,-125 262,-131 256,-131"/>
<text text-anchor="middle" x="241" y="-109.2" font-family="Helvetica,sans-Serif" font-size="16.00" fill="#e6edf3">Kick</text>
</g>
<!-- J&#45;&gt;K -->
<g id="edge15" class="edge">
<title>J&#45;&gt;K</title>
<path fill="none" stroke="#9aa4b2" d="M150.92,-207.36C170.08,-187.5 198.98,-157.54 218.86,-136.95"/>
<polygon fill="#9aa4b2" stroke="#9aa4b2" points="220.92,-138.84 224.46,-131.14 216.89,-134.95 220.92,-138.84"/>
<text text-anchor="middle" x="207.5" y="-163.6" font-family="Helvetica,sans-Serif" font-size="13.00" fill="#94a3b8">yes</text>
</g>
<!-- L -->
<g id="node13" class="node">
<title>L</title>
<path fill="#1a2028" stroke="#9aa4b2" stroke-width="1.2" d="M165.5,-131C165.5,-131 60.5,-131 60.5,-131 54.5,-131 48.5,-125 48.5,-119 48.5,-119 48.5,-107 48.5,-107 48.5,-101 54.5,-95 60.5,-95 60.5,-95 165.5,-95 165.5,-95 171.5,-95 177.5,-101 177.5,-107 177.5,-107 177.5,-119 177.5,-119 177.5,-125 171.5,-131 165.5,-131"/>
<text text-anchor="middle" x="113" y="-109.2" font-family="Helvetica,sans-Serif" font-size="16.00" fill="#e6edf3">Approach Ball</text>
</g>
<!-- J&#45;&gt;L -->
<g id="edge16" class="edge">
<title>J&#45;&gt;L</title>
<path fill="none" stroke="#9aa4b2" d="M127.18,-203.82C124.18,-184.81 120.01,-158.4 116.97,-139.14"/>
<polygon fill="#9aa4b2" stroke="#9aa4b2" points="119.71,-138.57 115.7,-131.11 114.18,-139.44 119.71,-138.57"/>
<text text-anchor="middle" x="130.5" y="-163.6" font-family="Helvetica,sans-Serif" font-size="13.00" fill="#94a3b8">no</text>
</g>
<!-- K&#45;&gt;M -->
<g id="edge17" class="edge">
<title>K&#45;&gt;M</title>
<path fill="none" stroke="#9aa4b2" d="M252,-94.94C261.33,-80.48 274.83,-59.57 285.29,-43.35"/>
<polygon fill="#9aa4b2" stroke="#9aa4b2" points="287.88,-44.5 289.86,-36.26 283.17,-41.47 287.88,-44.5"/>
</g>
<!-- L&#45;&gt;M -->
<g id="edge18" class="edge">
<title>L&#45;&gt;M</title>
<path fill="none" stroke="#9aa4b2" d="M147.48,-94.94C178.92,-79.39 225.45,-56.38 259.03,-39.76"/>
<polygon fill="#9aa4b2" stroke="#9aa4b2" points="260.49,-42.16 266.42,-36.11 258.01,-37.14 260.49,-42.16"/>
</g>
<!-- M&#45;&gt;B -->
<g id="edge19" class="edge">
<title>M&#45;&gt;B</title>
<path fill="none" stroke="#9aa4b2" d="M401.34,-36.05C440.86,-49.06 477,-71.91 477,-112 477,-1024 477,-1024 477,-1024 477,-1068.28 434.57,-1093.43 391.37,-1107.56"/>
<polygon fill="#9aa4b2" stroke="#9aa4b2" points="390.39,-1104.93 383.59,-1109.98 392.06,-1110.27 390.39,-1104.93"/>
<text text-anchor="middle" x="499" y="-568.6" font-family="Helvetica,sans-Serif" font-size="13.00" fill="#94a3b8">repeat</text>
</g>
</g>
</svg>
