<?xml version="1.0" encoding="UTF-8" standalone="no"?>
<!DOCTYPE svg PUBLIC "-//W3C//DTD SVG 1.1//EN"
 "http://www.w3.org/Graphics/SVG/1.1/DTD/svg11.dtd">
<!-- Generated by graphviz version 2.42.4 (0)
 -->
<!-- Title: G Pages: 1 -->
<svg width="266pt" height="288pt"
 viewBox="0.00 0.00 265.50 288.00" xmlns="http://www.w3.org/2000/svg" xmlns:xlink="http://www.w3.org/1999/xlink">
<g id="graph0" class="graph" transform="scale(1 1) rotate(0) translate(18 270)">
<title>G</title>
<polygon fill="#101418" stroke="transparent" points="-18,18 -18,-270 247.5,-270 247.5,18 -18,18"/>
<!-- S_INIT -->
<g id="node1" class="node">
<title>S_INIT</title>
<path fill="#1a2028" stroke="#9aa4b2" stroke-width="1.2" d="M135,-252C135,-252 12,-252 12,-252 6,-252 0,-246 0,-240 0,-240 0,-228 0,-228 0,-222 6,-216 12,-216 12,-216 135,-216 135,-216 141,-216 147,-222 147,-228 147,-228 147,-240 147,-240 147,-246 141,-252 135,-252"/>
<text text-anchor="middle" x="73.5" y="-230.2" font-family="Helvetica,sans-Serif" font-size="16.00" fill="#e6edf3">Boot / Safe Pose</text>
</g>
<!-- S_100 -->
<g id="node2" class="node">
<title>S_100</title>
<path fill="#1a2028" stroke="#9aa4b2" stroke-width="1.2" d="M133.5,-144C133.5,-144 13.5,-144 13.5,-144 7.5,-144 1.5,-138 1.5,-132 1.5,-132 1.5,-120 1.5,-120 1.5,-114 7.5,-108 13.5,-108 13.5,-108 133.5,-108 133.5,-108 139.5,-108 145.5,-114 145.5,-120 145.5,-120 145.5,-132 145.5,-132 145.5,-138 139.5,-144 133.5,-144"/>
<text text-anchor="middle" x="73.5" y="-122.2" font-family="Helvetica,sans-Serif" font-size="16.00" fill="#e6edf3">Sense Fall State</text>
</g>
<!-- S_INIT&#45;&gt;S_100 -->
<g id="edge1" class="edge">
<title>S_INIT&#45;&gt;S_100</title>
<path fill="none" stroke="#9aa4b2" d="M73.5,-215.97C73.5,-198.84 73.5,-172.22 73.5,-152.56"/>
<polygon fill="#9aa4b2" stroke="#9aa4b2" points="76.3,-152.34 73.5,-144.34 70.7,-152.34 76.3,-152.34"/>
<text text-anchor="middle" x="91" y="-176.6" font-family="Helvetica,sans-Serif" font-size="13.00" fill="#94a3b8">entry</text>
</g>
<!-- S_100&#45;&gt;S_100 -->
<g id="edge3" class="edge">
<title>S_100&#45;&gt;S_100</title>
<path fill="none" stroke="#9aa4b2" d="M145.67,-136.07C165.94,-135.63 181.5,-132.28 181.5,-126 181.5,-120.61 170.01,-117.37 153.92,-116.28"/>
<polygon fill="#9aa4b2" stroke="#9aa4b2" points="153.79,-113.48 145.67,-115.93 153.55,-119.07 153.79,-113.48"/>
<text text-anchor="middle" x="205.5" y="-122.6" font-family="Helvetica,sans-Serif" font-size="13.00" fill="#94a3b8">upright</text>
</g>
<!-- S_9000 -->
<g id="node3" class="node">
<title>S_9000</title>
<path fill="#1a2028" stroke="#9aa4b2" stroke-width="1.2" d="M114.5,-36C114.5,-36 32.5,-36 32.5,-36 26.5,-36 20.5,-30 20.5,-24 20.5,-24 20.5,-12 20.5,-12 20.5,-6 26.5,0 32.5,0 32.5,0 114.5,0 114.5,0 120.5,0 126.5,-6 126.5,-12 126.5,-12 126.5,-24 126.5,-24 126.5,-30 120.5,-36 114.5,-36"/>
<text text-anchor="middle" x="73.5" y="-14.2" font-family="Helvetica,sans-Serif" font-size="16.00" fill="#e6edf3">State 9000</text>
</g>
<!-- S_100&#45;&gt;S_9000 -->
<g id="edge2" class="edge">
<title>S_100&#45;&gt;S_9000</title>
<path fill="none" stroke="#9aa4b2" d="M73.5,-107.97C73.5,-90.84 73.5,-64.22 73.5,-44.56"/>
<polygon fill="#9aa4b2" stroke="#9aa4b2" points="76.3,-44.34 73.5,-36.34 70.7,-44.34 76.3,-44.34"/>
<text text-anchor="middle" x="113" y="-68.6" font-family="Helvetica,sans-Serif" font-size="13.00" fill="#94a3b8">if stat &lt;&gt; 0</text>
</g>
</g>
</svg>
