<?xml version="1.0" encoding="UTF-8" standalone="no"?>
<!DOCTYPE svg PUBLIC "-//W3C//DTD SVG 1.1//EN"
 "http://www.w3.org/Graphics/SVG/1.1/DTD/svg11.dtd">
<!-- Generated by graphviz version 2.42.4 (0)
 -->
<!-- Title: G Pages: 1 -->
<svg width="2120pt" height="1044pt"
 viewBox="0.00 0.00 2120.00 1044.00" xmlns="http://www.w3.org/2000/svg" xmlns:xlink="http://www.w3.org/1999/xlink">
<g id="graph0" class="graph" transform="scale(1 1) rotate(0) translate(18 1026)">
<title>G</title>
<polygon fill="#101418" stroke="transparent" points="-18,18 -18,-1026 2102,-1026 2102,18 -18,18"/>
<!-- S_INIT -->
<g id="node1" class="node">
<title>S_INIT</title>
<path fill="#1a2028" stroke="#9aa4b2" stroke-width="1.2" d="M1065.5,-1008C1065.5,-1008 942.5,-1008 942.5,-1008 936.5,-1008 930.5,-1002 930.5,-996 930.5,-996 930.5,-984 930.5,-984 930.5,-978 936.5,-972 942.5,-972 942.5,-972 1065.5,-972 1065.5,-972 1071.5,-972 1077.5,-978 1077.5,-984 1077.5,-984 1077.5,-996 1077.5,-996 1077.5,-1002 1071.5,-1008 1065.5,-1008"/>
<text text-anchor="middle" x="1004" y="-986.2" font-family="Helvetica,sans-Serif" font-size="16.00" fill="#e6edf3">Boot / Safe Pose</text>
</g>
<!-- S_100 -->
<g id="node2" class="node">
<title>S_100</title>
<path fill="#1a2028" stroke="#9aa4b2" stroke-width="1.2" d="M1064,-900C1064,-900 944,-900 944,-900 938,-900 932,-894 932,-888 932,-888 932,-876 932,-876 932,-870 938,-864 944,-864 944,-864 1064,-864 1064,-864 1070,-864 1076,-870 1076,-876 1076,-876 1076,-888 1076,-888 1076,-894 1070,-900 1064,-900"/>
<text text-anchor="middle" x="1004" y="-878.2" font-family="Helvetica,sans-Serif" font-size="16.00" fill="#e6edf3">Sense Fall State</text>
</g>
<!-- S_INIT&#45;&gt;S_100 -->
<g id="edge1" class="edge">
<title>S_INIT&#45;&gt;S_100</title>
<path fill="none" stroke="#9aa4b2" d="M1004,-971.97C1004,-954.84 1004,-928.22 1004,-908.56"/>
<polygon fill="#9aa4b2" stroke="#9aa4b2" points="1006.8,-908.34 1004,-900.34 1001.2,-908.34 1006.8,-908.34"/>
<text text-anchor="middle" x="1021.5" y="-932.6" font-family="Helvetica,sans-Serif" font-size="13.00" fill="#94a3b8">entry</text>
</g>
<!-- S_100&#45;&gt;S_100 -->
<g id="edge8" class="edge">
<title>S_100&#45;&gt;S_100</title>
<path fill="none" stroke="#9aa4b2" d="M1076.17,-892.07C1096.44,-891.63 1112,-888.28 1112,-882 1112,-876.61 1100.51,-873.37 1084.42,-872.28"/>
<polygon fill="#9aa4b2" stroke="#9aa4b2" points="1084.29,-869.48 1076.17,-871.93 1084.05,-875.07 1084.29,-869.48"/>
<text text-anchor="middle" x="1136" y="-878.6" font-family="Helvetica,sans-Serif" font-size="13.00" fill="#94a3b8">upright</text>
</g>
<!-- S_1000 -->
<g id="node3" class="node">
<title>S_1000</title>
<path fill="#1a2028" stroke="#9aa4b2" stroke-width="1.2" d="M686,-792C686,-792 594,-792 594,-792 588,-792 582,-786 582,-780 582,-780 582,-768 582,-768 582,-762 588,-756 594,-756 594,-756 686,-756 686,-756 692,-756 698,-762 698,-768 698,-768 698,-780 698,-780 698,-786 692,-792 686,-792"/>
<text text-anchor="middle" x="640" y="-770.2" font-family="Helvetica,sans-Serif" font-size="16.00" fill="#e6edf3">Synchronize</text>
</g>
<!-- S_100&#45;&gt;S_1000 -->
<g id="edge7" class="edge">
<title>S_100&#45;&gt;S_1000</title>
<path fill="none" stroke="#9aa4b2" d="M931.73,-880.24C842.93,-877.82 699.09,-868.65 659,-835 648.87,-826.5 644.07,-812.62 641.83,-800.35"/>
<polygon fill="#9aa4b2" stroke="#9aa4b2" points="644.56,-799.71 640.65,-792.2 639.02,-800.52 644.56,-799.71"/>
<text text-anchor="middle" x="692" y="-824.6" font-family="Helvetica,sans-Serif" font-size="13.00" fill="#94a3b8">if ball = 0</text>
</g>
<!-- S_2000 -->
<g id="node14" class="node">
<title>S_2000</title>
<path fill="#1a2028" stroke="#9aa4b2" stroke-width="1.2" d="M1176.5,-792C1176.5,-792 1063.5,-792 1063.5,-792 1057.5,-792 1051.5,-786 1051.5,-780 1051.5,-780 1051.5,-768 1051.5,-768 1051.5,-762 1057.5,-756 1063.5,-756 1063.5,-756 1176.5,-756 1176.5,-756 1182.5,-756 1188.5,-762 1188.5,-768 1188.5,-768 1188.5,-780 1188.5,-780 1188.5,-786 1182.5,-792 1176.5,-792"/>
<text text-anchor="middle" x="1120" y="-770.2" font-family="Helvetica,sans-Serif" font-size="16.00" fill="#e6edf3">Sense / Decide</text>
</g>
<!-- S_100&#45;&gt;S_2000 -->
<g id="edge3" class="edge">
<title>S_100&#45;&gt;S_2000</title>
<path fill="none" stroke="#9aa4b2" d="M1076.15,-873.83C1100.79,-867.53 1125.91,-855.98 1141,-835 1148.63,-824.39 1144.71,-810.76 1138.29,-799.17"/>
<polygon fill="#9aa4b2" stroke="#9aa4b2" points="1140.62,-797.61 1134.05,-792.26 1135.85,-800.54 1140.62,-797.61"/>
<text text-anchor="middle" x="1179" y="-824.6" font-family="Helvetica,sans-Serif" font-size="13.00" fill="#94a3b8">if ball = 1</text>
</g>
<!-- S_3000 -->
<g id="node17" class="node">
<title>S_3000</title>
<path fill="#1a2028" stroke="#9aa4b2" stroke-width="1.2" d="M1445.5,-792C1445.5,-792 1332.5,-792 1332.5,-792 1326.5,-792 1320.5,-786 1320.5,-780 1320.5,-780 1320.5,-768 1320.5,-768 1320.5,-762 1326.5,-756 1332.5,-756 1332.5,-756 1445.5,-756 1445.5,-756 1451.5,-756 1457.5,-762 1457.5,-768 1457.5,-768 1457.5,-780 1457.5,-780 1457.5,-786 1451.5,-792 1445.5,-792"/>
<text text-anchor="middle" x="1389" y="-770.2" font-family="Helvetica,sans-Serif" font-size="16.00" fill="#e6edf3">Sense / Decide</text>
</g>
<!-- S_100&#45;&gt;S_3000 -->
<g id="edge4" class="edge">
<title>S_100&#45;&gt;S_3000</title>
<path fill="none" stroke="#9aa4b2" d="M1076.05,-878.31C1163.51,-873.88 1304.78,-862.58 1349,-835 1362.32,-826.69 1372.19,-812.13 1378.79,-799.43"/>
<polygon fill="#9aa4b2" stroke="#9aa4b2" points="1381.31,-800.65 1382.3,-792.23 1376.28,-798.19 1381.31,-800.65"/>
<text text-anchor="middle" x="1401.5" y="-824.6" font-family="Helvetica,sans-Serif" font-size="13.00" fill="#94a3b8">if bang = 1</text>
</g>
<!-- S_4000 -->
<g id="node19" class="node">
<title>S_4000</title>
<path fill="#1a2028" stroke="#9aa4b2" stroke-width="1.2" d="M1687,-792C1687,-792 1595,-792 1595,-792 1589,-792 1583,-786 1583,-780 1583,-780 1583,-768 1583,-768 1583,-762 1589,-756 1595,-756 1595,-756 1687,-756 1687,-756 1693,-756 1699,-762 1699,-768 1699,-768 1699,-780 1699,-780 1699,-786 1693,-792 1687,-792"/>
<text text-anchor="middle" x="1641" y="-770.2" font-family="Helvetica,sans-Serif" font-size="16.00" fill="#e6edf3">Synchronize</text>
</g>
<!-- S_100&#45;&gt;S_4000 -->
<g id="edge5" class="edge">
<title>S_100&#45;&gt;S_4000</title>
<path fill="none" stroke="#9aa4b2" d="M1076.02,-880.94C1208.93,-879.89 1487.23,-873.05 1575,-835 1593.56,-826.95 1610.36,-811.5 1622.37,-798.29"/>
<polygon fill="#9aa4b2" stroke="#9aa4b2" points="1624.69,-799.89 1627.86,-792.03 1620.48,-796.19 1624.69,-799.89"/>
<text text-anchor="middle" x="1637.5" y="-824.6" font-family="Helvetica,sans-Serif" font-size="13.00" fill="#94a3b8">if amae = 1</text>
</g>
<!-- S_5000 -->
<g id="node20" class="node">
<title>S_5000</title>
<path fill="#1a2028" stroke="#9aa4b2" stroke-width="1.2" d="M1839,-792C1839,-792 1747,-792 1747,-792 1741,-792 1735,-786 1735,-780 1735,-780 1735,-768 1735,-768 1735,-762 1741,-756 1747,-756 1747,-756 1839,-756 1839,-756 1845,-756 1851,-762 1851,-768 1851,-768 1851,-780 1851,-780 1851,-786 1845,-792 1839,-792"/>
<text text-anchor="middle" x="1793" y="-770.2" font-family="Helvetica,sans-Serif" font-size="16.00" fill="#e6edf3">Synchronize</text>
</g>
<!-- S_100&#45;&gt;S_5000 -->
<g id="edge6" class="edge">
<title>S_100&#45;&gt;S_5000</title>
<path fill="none" stroke="#9aa4b2" d="M1076.05,-880.19C1252.36,-877.71 1695.3,-868.19 1753,-835 1766.7,-827.12 1776.61,-812.42 1783.14,-799.55"/>
<polygon fill="#9aa4b2" stroke="#9aa4b2" points="1785.71,-800.67 1786.6,-792.24 1780.65,-798.28 1785.71,-800.67"/>
<text text-anchor="middle" x="1807.5" y="-824.6" font-family="Helvetica,sans-Serif" font-size="13.00" fill="#94a3b8">if nade = 1</text>
</g>
<!-- S_9000 -->
<g id="node21" class="node">
<title>S_9000</title>
<path fill="#1a2028" stroke="#9aa4b2" stroke-width="1.2" d="M2021,-792C2021,-792 1963,-792 1963,-792 1957,-792 1951,-786 1951,-780 1951,-780 1951,-768 1951,-768 1951,-762 1957,-756 1963,-756 1963,-756 2021,-756 2021,-756 2027,-756 2033,-762 2033,-768 2033,-768 2033,-780 2033,-780 2033,-786 2027,-792 2021,-792"/>
<text text-anchor="middle" x="1992" y="-770.2" font-family="Helvetica,sans-Serif" font-size="16.00" fill="#e6edf3">Recover</text>
</g>
<!-- S_100&#45;&gt;S_9000 -->
<g id="edge2" class="edge">
<title>S_100&#45;&gt;S_9000</title>
<path fill="none" stroke="#9aa4b2" d="M1076.13,-880.42C1302.16,-878.25 1983.59,-868.91 2016,-835 2025.46,-825.1 2020.44,-811 2012.61,-798.96"/>
<polygon fill="#9aa4b2" stroke="#9aa4b2" points="2014.68,-797.04 2007.75,-792.15 2010.12,-800.29 2014.68,-797.04"/>
<text text-anchor="middle" x="2053" y="-824.6" font-family="Helvetica,sans-Serif" font-size="13.00" fill="#94a3b8">if fall = 1</text>
</g>
<!-- S_1100 -->
<g id="node4" class="node">
<title>S_1100</title>
<path fill="#1a2028" stroke="#9aa4b2" stroke-width="1.2" d="M608.5,-684C608.5,-684 495.5,-684 495.5,-684 489.5,-684 483.5,-678 483.5,-672 483.5,-672 483.5,-660 483.5,-660 483.5,-654 489.5,-648 495.5,-648 495.5,-648 608.5,-648 608.5,-648 614.5,-648 620.5,-654 620.5,-660 620.5,-660 620.5,-672 620.5,-672 620.5,-678 614.5,-684 608.5,-684"/>
<text text-anchor="middle" x="552" y="-662.2" font-family="Helvetica,sans-Serif" font-size="16.00" fill="#e6edf3">Sense / Decide</text>
</g>
<!-- S_1000&#45;&gt;S_1100 -->
<g id="edge9" class="edge">
<title>S_1000&#45;&gt;S_1100</title>
<path fill="none" stroke="#9aa4b2" d="M625.86,-755.97C611.19,-738.3 588.15,-710.54 571.7,-690.73"/>
<polygon fill="#9aa4b2" stroke="#9aa4b2" points="573.66,-688.71 566.4,-684.34 569.35,-692.28 573.66,-688.71"/>
<text text-anchor="middle" x="663" y="-716.6" font-family="Helvetica,sans-Serif" font-size="13.00" fill="#94a3b8">next labeled block</text>
</g>
<!-- S_1100&#45;&gt;S_100 -->
<g id="edge12" class="edge">
<title>S_1100&#45;&gt;S_100</title>
<path fill="none" stroke="#9aa4b2" d="M545.51,-684.37C537.09,-710.11 525.82,-758.88 547,-792 586.85,-854.33 803.35,-873.03 923.52,-878.62"/>
<polygon fill="#9aa4b2" stroke="#9aa4b2" points="923.53,-881.42 931.64,-878.99 923.78,-875.83 923.53,-881.42"/>
<text text-anchor="middle" x="555.5" y="-770.6" font-family="Helvetica,sans-Serif" font-size="13.00" fill="#94a3b8">go</text>
</g>
<!-- S_1200 -->
<g id="node5" class="node">
<title>S_1200</title>
<path fill="#1a2028" stroke="#9aa4b2" stroke-width="1.2" d="M410.5,-576C410.5,-576 297.5,-576 297.5,-576 291.5,-576 285.5,-570 285.5,-564 285.5,-564 285.5,-552 285.5,-552 285.5,-546 291.5,-540 297.5,-540 297.5,-540 410.5,-540 410.5,-540 416.5,-540 422.5,-546 422.5,-552 422.5,-552 422.5,-564 422.5,-564 422.5,-570 416.5,-576 410.5,-576"/>
<text text-anchor="middle" x="354" y="-554.2" font-family="Helvetica,sans-Serif" font-size="16.00" fill="#e6edf3">Sense / Decide</text>
</g>
<!-- S_1100&#45;&gt;S_1200 -->
<g id="edge11" class="edge">
<title>S_1100&#45;&gt;S_1200</title>
<path fill="none" stroke="#9aa4b2" d="M483.29,-657.16C434.62,-650.1 375.22,-637.87 359,-619 350.94,-609.62 349.26,-596.1 349.79,-584.27"/>
<polygon fill="#9aa4b2" stroke="#9aa4b2" points="352.6,-584.24 350.5,-576.03 347.02,-583.76 352.6,-584.24"/>
<text text-anchor="middle" x="448" y="-608.6" font-family="Helvetica,sans-Serif" font-size="13.00" fill="#94a3b8">if Touch_head_press &lt; 300</text>
</g>
<!-- S_1300 -->
<g id="node6" class="node">
<title>S_1300</title>
<path fill="#1a2028" stroke="#9aa4b2" stroke-width="1.2" d="M357.5,-468C357.5,-468 244.5,-468 244.5,-468 238.5,-468 232.5,-462 232.5,-456 232.5,-456 232.5,-444 232.5,-444 232.5,-438 238.5,-432 244.5,-432 244.5,-432 357.5,-432 357.5,-432 363.5,-432 369.5,-438 369.5,-444 369.5,-444 369.5,-456 369.5,-456 369.5,-462 363.5,-468 357.5,-468"/>
<text text-anchor="middle" x="301" y="-446.2" font-family="Helvetica,sans-Serif" font-size="16.00" fill="#e6edf3">Sense / Decide</text>
</g>
<!-- S_1100&#45;&gt;S_1300 -->
<g id="edge10" class="edge">
<title>S_1100&#45;&gt;S_1300</title>
<path fill="none" stroke="#9aa4b2" d="M551.14,-647.91C550.05,-635.6 547.58,-618.8 542,-605 536.13,-590.49 530.63,-589.06 522,-576 499.09,-541.33 505.46,-521.64 472,-497 444.73,-476.92 409.26,-465.6 377.7,-459.23"/>
<polygon fill="#9aa4b2" stroke="#9aa4b2" points="378.15,-456.46 369.77,-457.71 377.1,-461.96 378.15,-456.46"/>
<text text-anchor="middle" x="615.5" y="-554.6" font-family="Helvetica,sans-Serif" font-size="13.00" fill="#94a3b8">if head = Touch_head_press</text>
</g>
<!-- S_1200&#45;&gt;S_100 -->
<g id="edge14" class="edge">
<title>S_1200&#45;&gt;S_100</title>
<path fill="none" stroke="#9aa4b2" d="M346.19,-576.17C341.74,-588.51 338.11,-605.32 344,-619 402.83,-755.57 510.35,-806.13 577,-835 637.43,-861.18 817.78,-873.13 923.77,-878.03"/>
<polygon fill="#9aa4b2" stroke="#9aa4b2" points="923.78,-880.83 931.9,-878.39 924.04,-875.24 923.78,-880.83"/>
<text text-anchor="middle" x="422.5" y="-716.6" font-family="Helvetica,sans-Serif" font-size="13.00" fill="#94a3b8">go</text>
</g>
<!-- S_1200&#45;&gt;S_1300 -->
<g id="edge13" class="edge">
<title>S_1200&#45;&gt;S_1300</title>
<path fill="none" stroke="#9aa4b2" d="M323.01,-539.79C312.78,-532.38 302.59,-522.7 297,-511 291.91,-500.34 292.1,-487.38 293.9,-476.24"/>
<polygon fill="#9aa4b2" stroke="#9aa4b2" points="296.69,-476.54 295.52,-468.14 291.2,-475.43 296.69,-476.54"/>
<text text-anchor="middle" x="382" y="-500.6" font-family="Helvetica,sans-Serif" font-size="13.00" fill="#94a3b8">if Touch_head_press &lt; 30</text>
</g>
<!-- S_1300&#45;&gt;S_100 -->
<g id="edge16" class="edge">
<title>S_1300&#45;&gt;S_100</title>
<path fill="none" stroke="#9aa4b2" d="M290.43,-468.01C276.83,-492.08 256.16,-537.46 267,-576 299.94,-693.07 334.83,-723.03 435,-792 476.2,-820.37 490.48,-822.85 539,-835 671.29,-868.12 830.34,-877.58 923.97,-880.17"/>
<polygon fill="#9aa4b2" stroke="#9aa4b2" points="923.92,-882.97 931.99,-880.38 924.06,-877.37 923.92,-882.97"/>
<text text-anchor="middle" x="321.5" y="-662.6" font-family="Helvetica,sans-Serif" font-size="13.00" fill="#94a3b8">go</text>
</g>
<!-- S_1400 -->
<g id="node7" class="node">
<title>S_1400</title>
<path fill="#1a2028" stroke="#9aa4b2" stroke-width="1.2" d="M357.5,-360C357.5,-360 244.5,-360 244.5,-360 238.5,-360 232.5,-354 232.5,-348 232.5,-348 232.5,-336 232.5,-336 232.5,-330 238.5,-324 244.5,-324 244.5,-324 357.5,-324 357.5,-324 363.5,-324 369.5,-330 369.5,-336 369.5,-336 369.5,-348 369.5,-348 369.5,-354 363.5,-360 357.5,-360"/>
<text text-anchor="middle" x="301" y="-338.2" font-family="Helvetica,sans-Serif" font-size="16.00" fill="#e6edf3">Sense / Decide</text>
</g>
<!-- S_1300&#45;&gt;S_1400 -->
<g id="edge15" class="edge">
<title>S_1300&#45;&gt;S_1400</title>
<path fill="none" stroke="#9aa4b2" d="M301,-431.97C301,-414.84 301,-388.22 301,-368.56"/>
<polygon fill="#9aa4b2" stroke="#9aa4b2" points="303.8,-368.34 301,-360.34 298.2,-368.34 303.8,-368.34"/>
<text text-anchor="middle" x="359" y="-392.6" font-family="Helvetica,sans-Serif" font-size="13.00" fill="#94a3b8">if Distance &gt; 200</text>
</g>
<!-- S_1400&#45;&gt;S_100 -->
<g id="edge18" class="edge">
<title>S_1400&#45;&gt;S_100</title>
<path fill="none" stroke="#9aa4b2" d="M237,-360.04C195.07,-375.52 148,-403.11 148,-449 148,-775 148,-775 148,-775 148,-852.71 710.82,-874.09 923.72,-879.4"/>
<polygon fill="#9aa4b2" stroke="#9aa4b2" points="923.69,-882.2 931.76,-879.6 923.83,-876.6 923.69,-882.2"/>
<text text-anchor="middle" x="156.5" y="-608.6" font-family="Helvetica,sans-Serif" font-size="13.00" fill="#94a3b8">go</text>
</g>
<!-- S_1500 -->
<g id="node8" class="node">
<title>S_1500</title>
<path fill="#1a2028" stroke="#9aa4b2" stroke-width="1.2" d="M490.5,-252C490.5,-252 377.5,-252 377.5,-252 371.5,-252 365.5,-246 365.5,-240 365.5,-240 365.5,-228 365.5,-228 365.5,-222 371.5,-216 377.5,-216 377.5,-216 490.5,-216 490.5,-216 496.5,-216 502.5,-222 502.5,-228 502.5,-228 502.5,-240 502.5,-240 502.5,-246 496.5,-252 490.5,-252"/>
<text text-anchor="middle" x="434" y="-230.2" font-family="Helvetica,sans-Serif" font-size="16.00" fill="#e6edf3">Sense / Decide</text>
</g>
<!-- S_1400&#45;&gt;S_1500 -->
<g id="edge17" class="edge">
<title>S_1400&#45;&gt;S_1500</title>
<path fill="none" stroke="#9aa4b2" d="M322.37,-323.97C345.02,-305.92 380.89,-277.33 405.83,-257.45"/>
<polygon fill="#9aa4b2" stroke="#9aa4b2" points="407.73,-259.52 412.24,-252.34 404.24,-255.14 407.73,-259.52"/>
<text text-anchor="middle" x="444" y="-284.6" font-family="Helvetica,sans-Serif" font-size="13.00" fill="#94a3b8">if Cdt_npixel &lt; 1000</text>
</g>
<!-- S_1500&#45;&gt;S_100 -->
<g id="edge23" class="edge">
<title>S_1500&#45;&gt;S_100</title>
<path fill="none" stroke="#9aa4b2" d="M475.32,-252.17C490.62,-259.68 507.51,-269.44 521,-281 630.02,-374.4 650.21,-411.4 714,-540 774.63,-662.23 699.68,-741.45 799,-835 817.14,-852.09 874.32,-864.04 923.7,-871.47"/>
<polygon fill="#9aa4b2" stroke="#9aa4b2" points="923.54,-874.28 931.86,-872.67 924.35,-868.74 923.54,-874.28"/>
<text text-anchor="middle" x="737.5" y="-554.6" font-family="Helvetica,sans-Serif" font-size="13.00" fill="#94a3b8">go</text>
</g>
<!-- S_1510 -->
<g id="node9" class="node">
<title>S_1510</title>
<path fill="#1a2028" stroke="#9aa4b2" stroke-width="1.2" d="M567,-144C567,-144 475,-144 475,-144 469,-144 463,-138 463,-132 463,-132 463,-120 463,-120 463,-114 469,-108 475,-108 475,-108 567,-108 567,-108 573,-108 579,-114 579,-120 579,-120 579,-132 579,-132 579,-138 573,-144 567,-144"/>
<text text-anchor="middle" x="521" y="-122.2" font-family="Helvetica,sans-Serif" font-size="16.00" fill="#e6edf3">Synchronize</text>
</g>
<!-- S_1500&#45;&gt;S_1510 -->
<g id="edge19" class="edge">
<title>S_1500&#45;&gt;S_1510</title>
<path fill="none" stroke="#9aa4b2" d="M447.98,-215.97C462.48,-198.3 485.26,-170.54 501.52,-150.73"/>
<polygon fill="#9aa4b2" stroke="#9aa4b2" points="503.86,-152.3 506.77,-144.34 499.53,-148.75 503.86,-152.3"/>
<text text-anchor="middle" x="521" y="-176.6" font-family="Helvetica,sans-Serif" font-size="13.00" fill="#94a3b8">if cntr &gt; 10</text>
</g>
<!-- S_1530 -->
<g id="node11" class="node">
<title>S_1530</title>
<path fill="#1a2028" stroke="#9aa4b2" stroke-width="1.2" d="M178,-144C178,-144 96,-144 96,-144 90,-144 84,-138 84,-132 84,-132 84,-120 84,-120 84,-114 90,-108 96,-108 96,-108 178,-108 178,-108 184,-108 190,-114 190,-120 190,-120 190,-132 190,-132 190,-138 184,-144 178,-144"/>
<text text-anchor="middle" x="137" y="-122.2" font-family="Helvetica,sans-Serif" font-size="16.00" fill="#e6edf3">State 1530</text>
</g>
<!-- S_1500&#45;&gt;S_1530 -->
<g id="edge20" class="edge">
<title>S_1500&#45;&gt;S_1530</title>
<path fill="none" stroke="#9aa4b2" d="M384.03,-215.95C359.06,-207.37 328.39,-196.75 301,-187 263.98,-173.83 222.41,-158.61 190.38,-146.8"/>
<polygon fill="#9aa4b2" stroke="#9aa4b2" points="191.35,-144.17 182.87,-144.03 189.41,-149.43 191.35,-144.17"/>
<text text-anchor="middle" x="337" y="-176.6" font-family="Helvetica,sans-Serif" font-size="13.00" fill="#94a3b8">if rand = 1</text>
</g>
<!-- S_1540 -->
<g id="node12" class="node">
<title>S_1540</title>
<path fill="#1a2028" stroke="#9aa4b2" stroke-width="1.2" d="M388,-144C388,-144 306,-144 306,-144 300,-144 294,-138 294,-132 294,-132 294,-120 294,-120 294,-114 300,-108 306,-108 306,-108 388,-108 388,-108 394,-108 400,-114 400,-120 400,-120 400,-132 400,-132 400,-138 394,-144 388,-144"/>
<text text-anchor="middle" x="347" y="-122.2" font-family="Helvetica,sans-Serif" font-size="16.00" fill="#e6edf3">State 1540</text>
</g>
<!-- S_1500&#45;&gt;S_1540 -->
<g id="edge21" class="edge">
<title>S_1500&#45;&gt;S_1540</title>
<path fill="none" stroke="#9aa4b2" d="M417.64,-215.88C409.7,-207.37 400.14,-196.83 392,-187 382.37,-175.37 372.23,-161.97 364.02,-150.79"/>
<polygon fill="#9aa4b2" stroke="#9aa4b2" points="366.16,-148.96 359.18,-144.15 361.63,-152.26 366.16,-148.96"/>
<text text-anchor="middle" x="428" y="-176.6" font-family="Helvetica,sans-Serif" font-size="13.00" fill="#94a3b8">if rand = 2</text>
</g>
<!-- S_1550 -->
<g id="node13" class="node">
<title>S_1550</title>
<path fill="#1a2028" stroke="#9aa4b2" stroke-width="1.2" d="M743,-144C743,-144 661,-144 661,-144 655,-144 649,-138 649,-132 649,-132 649,-120 649,-120 649,-114 655,-108 661,-108 661,-108 743,-108 743,-108 749,-108 755,-114 755,-120 755,-120 755,-132 755,-132 755,-138 749,-144 743,-144"/>
<text text-anchor="middle" x="702" y="-122.2" font-family="Helvetica,sans-Serif" font-size="16.00" fill="#e6edf3">State 1550</text>
</g>
<!-- S_1500&#45;&gt;S_1550 -->
<g id="edge22" class="edge">
<title>S_1500&#45;&gt;S_1550</title>
<path fill="none" stroke="#9aa4b2" d="M487.23,-215.96C511.98,-207.72 541.69,-197.38 568,-187 598.75,-174.87 632.74,-159.63 658.79,-147.54"/>
<polygon fill="#9aa4b2" stroke="#9aa4b2" points="660.19,-149.98 666.26,-144.06 657.83,-144.9 660.19,-149.98"/>
<text text-anchor="middle" x="638" y="-176.6" font-family="Helvetica,sans-Serif" font-size="13.00" fill="#94a3b8">if rand = 3</text>
</g>
<!-- S_1520 -->
<g id="node10" class="node">
<title>S_1520</title>
<path fill="#1a2028" stroke="#9aa4b2" stroke-width="1.2" d="M730.5,-36C730.5,-36 617.5,-36 617.5,-36 611.5,-36 605.5,-30 605.5,-24 605.5,-24 605.5,-12 605.5,-12 605.5,-6 611.5,0 617.5,0 617.5,0 730.5,0 730.5,0 736.5,0 742.5,-6 742.5,-12 742.5,-12 742.5,-24 742.5,-24 742.5,-30 736.5,-36 730.5,-36"/>
<text text-anchor="middle" x="674" y="-14.2" font-family="Helvetica,sans-Serif" font-size="16.00" fill="#e6edf3">Sense / Decide</text>
</g>
<!-- S_1510&#45;&gt;S_1520 -->
<g id="edge24" class="edge">
<title>S_1510&#45;&gt;S_1520</title>
<path fill="none" stroke="#9aa4b2" d="M545.58,-107.97C571.94,-89.71 613.86,-60.67 642.58,-40.76"/>
<polygon fill="#9aa4b2" stroke="#9aa4b2" points="644.24,-43.02 649.23,-36.16 641.05,-38.42 644.24,-43.02"/>
<text text-anchor="middle" x="668" y="-68.6" font-family="Helvetica,sans-Serif" font-size="13.00" fill="#94a3b8">next labeled block</text>
</g>
<!-- S_1520&#45;&gt;S_100 -->
<g id="edge25" class="edge">
<title>S_1520&#45;&gt;S_100</title>
<path fill="none" stroke="#9aa4b2" d="M738,-36.04C779.93,-51.52 827,-79.11 827,-125 827,-775 827,-775 827,-775 827,-823.77 877.08,-850.65 923.96,-865.13"/>
<polygon fill="#9aa4b2" stroke="#9aa4b2" points="923.29,-867.85 931.75,-867.43 924.87,-862.48 923.29,-867.85"/>
<text text-anchor="middle" x="909.5" y="-446.6" font-family="Helvetica,sans-Serif" font-size="13.00" fill="#94a3b8">if Touch_head_time &gt; 80</text>
</g>
<!-- S_1520&#45;&gt;S_1520 -->
<g id="edge26" class="edge">
<title>S_1520&#45;&gt;S_1520</title>
<path fill="none" stroke="#9aa4b2" d="M742.84,-28.09C762.94,-27.75 778.5,-24.38 778.5,-18 778.5,-12.52 767.01,-9.26 751.02,-8.23"/>
<polygon fill="#9aa4b2" stroke="#9aa4b2" points="750.95,-5.43 742.84,-7.91 750.73,-11.02 750.95,-5.43"/>
<text text-anchor="middle" x="787" y="-14.6" font-family="Helvetica,sans-Serif" font-size="13.00" fill="#94a3b8">go</text>
</g>
<!-- S_1530&#45;&gt;S_100 -->
<g id="edge27" class="edge">
<title>S_1530&#45;&gt;S_100</title>
<path fill="none" stroke="#9aa4b2" d="M84.03,-144.08C45.48,-160.21 0,-188.64 0,-233 0,-775 0,-775 0,-775 0,-867.67 685.24,-879.57 923.51,-880.91"/>
<polygon fill="#9aa4b2" stroke="#9aa4b2" points="923.78,-883.71 931.79,-880.95 923.81,-878.11 923.78,-883.71"/>
<text text-anchor="middle" x="8.5" y="-500.6" font-family="Helvetica,sans-Serif" font-size="13.00" fill="#94a3b8">go</text>
</g>
<!-- S_1540&#45;&gt;S_100 -->
<g id="edge28" class="edge">
<title>S_1540&#45;&gt;S_100</title>
<path fill="none" stroke="#9aa4b2" d="M293.71,-136.47C214.27,-152.12 74,-186.35 74,-233 74,-775 74,-775 74,-775 74,-860.18 697.78,-876.93 923.61,-880.21"/>
<polygon fill="#9aa4b2" stroke="#9aa4b2" points="923.76,-883.01 931.8,-880.33 923.84,-877.41 923.76,-883.01"/>
<text text-anchor="middle" x="82.5" y="-500.6" font-family="Helvetica,sans-Serif" font-size="13.00" fill="#94a3b8">go</text>
</g>
<!-- S_1550&#45;&gt;S_100 -->
<g id="edge29" class="edge">
<title>S_1550&#45;&gt;S_100</title>
<path fill="none" stroke="#9aa4b2" d="M755.15,-132.2C851.93,-143.14 1047,-172.69 1047,-233 1047,-397 1047,-397 1047,-397 1047,-514.5 982.68,-532 964,-648 961.46,-663.8 963.47,-668.01 964,-684 966.22,-751.22 952.71,-771.2 974,-835 976.53,-842.57 980.61,-850.11 984.96,-856.83"/>
<polygon fill="#9aa4b2" stroke="#9aa4b2" points="982.88,-858.75 989.72,-863.76 987.5,-855.58 982.88,-858.75"/>
<text text-anchor="middle" x="1034.5" y="-500.6" font-family="Helvetica,sans-Serif" font-size="13.00" fill="#94a3b8">go</text>
</g>
<!-- S_2000&#45;&gt;S_100 -->
<g id="edge30" class="edge">
<title>S_2000&#45;&gt;S_100</title>
<path fill="none" stroke="#9aa4b2" d="M1051.29,-784.83C1030.03,-791.46 1008.85,-802.53 996,-821 988.93,-831.16 990.06,-844.68 993.34,-856.31"/>
<polygon fill="#9aa4b2" stroke="#9aa4b2" points="990.71,-857.28 995.88,-864 996.03,-855.52 990.71,-857.28"/>
<text text-anchor="middle" x="1064" y="-824.6" font-family="Helvetica,sans-Serif" font-size="13.00" fill="#94a3b8">if Cdt_npixel &lt; 1000</text>
</g>
<!-- S_2100 -->
<g id="node15" class="node">
<title>S_2100</title>
<path fill="#1a2028" stroke="#9aa4b2" stroke-width="1.2" d="M1076,-684C1076,-684 994,-684 994,-684 988,-684 982,-678 982,-672 982,-672 982,-660 982,-660 982,-654 988,-648 994,-648 994,-648 1076,-648 1076,-648 1082,-648 1088,-654 1088,-660 1088,-660 1088,-672 1088,-672 1088,-678 1082,-684 1076,-684"/>
<text text-anchor="middle" x="1035" y="-662.2" font-family="Helvetica,sans-Serif" font-size="16.00" fill="#e6edf3">State 2100</text>
</g>
<!-- S_2000&#45;&gt;S_2100 -->
<g id="edge31" class="edge">
<title>S_2000&#45;&gt;S_2100</title>
<path fill="none" stroke="#9aa4b2" d="M1065.28,-755.86C1052.13,-749.03 1039.68,-739.68 1032,-727 1025.74,-716.66 1025.76,-703.39 1027.66,-691.96"/>
<polygon fill="#9aa4b2" stroke="#9aa4b2" points="1030.42,-692.43 1029.31,-684.03 1024.94,-691.29 1030.42,-692.43"/>
<text text-anchor="middle" x="1086" y="-716.6" font-family="Helvetica,sans-Serif" font-size="13.00" fill="#94a3b8">if Head_pan &gt; 0</text>
</g>
<!-- S_2200 -->
<g id="node16" class="node">
<title>S_2200</title>
<path fill="#1a2028" stroke="#9aa4b2" stroke-width="1.2" d="M1323,-684C1323,-684 1241,-684 1241,-684 1235,-684 1229,-678 1229,-672 1229,-672 1229,-660 1229,-660 1229,-654 1235,-648 1241,-648 1241,-648 1323,-648 1323,-648 1329,-648 1335,-654 1335,-660 1335,-660 1335,-672 1335,-672 1335,-678 1329,-684 1323,-684"/>
<text text-anchor="middle" x="1282" y="-662.2" font-family="Helvetica,sans-Serif" font-size="16.00" fill="#e6edf3">State 2200</text>
</g>
<!-- S_2000&#45;&gt;S_2200 -->
<g id="edge32" class="edge">
<title>S_2000&#45;&gt;S_2200</title>
<path fill="none" stroke="#9aa4b2" d="M1134.45,-755.82C1146.04,-742.83 1163.25,-725.2 1181,-713 1195.4,-703.1 1212.26,-694.45 1228.04,-687.39"/>
<polygon fill="#9aa4b2" stroke="#9aa4b2" points="1229.48,-689.83 1235.69,-684.06 1227.24,-684.69 1229.48,-689.83"/>
<text text-anchor="middle" x="1244.5" y="-716.6" font-family="Helvetica,sans-Serif" font-size="13.00" fill="#94a3b8">else Head_pan &gt; 0</text>
</g>
<!-- S_2100&#45;&gt;S_100 -->
<g id="edge33" class="edge">
<title>S_2100&#45;&gt;S_100</title>
<path fill="none" stroke="#9aa4b2" d="M1027.15,-684.07C1014.79,-711.99 991.36,-769.47 983,-821 981.05,-833.01 984.68,-845.8 989.43,-856.48"/>
<polygon fill="#9aa4b2" stroke="#9aa4b2" points="987,-857.88 993.04,-863.83 992.03,-855.42 987,-857.88"/>
<text text-anchor="middle" x="1008.5" y="-770.6" font-family="Helvetica,sans-Serif" font-size="13.00" fill="#94a3b8">go</text>
</g>
<!-- S_2200&#45;&gt;S_100 -->
<g id="edge34" class="edge">
<title>S_2200&#45;&gt;S_100</title>
<path fill="none" stroke="#9aa4b2" d="M1299.77,-684.19C1309.72,-695.97 1319.02,-712.11 1313,-727 1306.29,-743.61 1296.87,-742.58 1285,-756 1255.06,-789.84 1259.54,-811.4 1221,-835 1180.04,-860.08 1127.49,-871.64 1084.36,-876.9"/>
<polygon fill="#9aa4b2" stroke="#9aa4b2" points="1083.77,-874.15 1076.15,-877.84 1084.41,-879.71 1083.77,-874.15"/>
<text text-anchor="middle" x="1293.5" y="-770.6" font-family="Helvetica,sans-Serif" font-size="13.00" fill="#94a3b8">go</text>
</g>
<!-- S_3000&#45;&gt;S_100 -->
<g id="edge36" class="edge">
<title>S_3000&#45;&gt;S_100</title>
<path fill="none" stroke="#9aa4b2" d="M1366.94,-792C1347.89,-805.81 1319.07,-824.62 1291,-835 1223.87,-859.82 1143.03,-871.26 1084.28,-876.52"/>
<polygon fill="#9aa4b2" stroke="#9aa4b2" points="1083.87,-873.75 1076.14,-877.23 1084.35,-879.33 1083.87,-873.75"/>
<text text-anchor="middle" x="1328.5" y="-824.6" font-family="Helvetica,sans-Serif" font-size="13.00" fill="#94a3b8">go</text>
</g>
<!-- S_3100 -->
<g id="node18" class="node">
<title>S_3100</title>
<path fill="#1a2028" stroke="#9aa4b2" stroke-width="1.2" d="M1502,-684C1502,-684 1410,-684 1410,-684 1404,-684 1398,-678 1398,-672 1398,-672 1398,-660 1398,-660 1398,-654 1404,-648 1410,-648 1410,-648 1502,-648 1502,-648 1508,-648 1514,-654 1514,-660 1514,-660 1514,-672 1514,-672 1514,-678 1508,-684 1502,-684"/>
<text text-anchor="middle" x="1456" y="-662.2" font-family="Helvetica,sans-Serif" font-size="16.00" fill="#e6edf3">Synchronize</text>
</g>
<!-- S_3000&#45;&gt;S_3100 -->
<g id="edge35" class="edge">
<title>S_3000&#45;&gt;S_3100</title>
<path fill="none" stroke="#9aa4b2" d="M1399.76,-755.97C1410.83,-738.46 1428.17,-711.02 1440.67,-691.25"/>
<polygon fill="#9aa4b2" stroke="#9aa4b2" points="1443.13,-692.6 1445.04,-684.34 1438.4,-689.61 1443.13,-692.6"/>
<text text-anchor="middle" x="1462.5" y="-716.6" font-family="Helvetica,sans-Serif" font-size="13.00" fill="#94a3b8">if cntb &gt; 3</text>
</g>
<!-- S_3100&#45;&gt;S_100 -->
<g id="edge37" class="edge">
<title>S_3100&#45;&gt;S_100</title>
<path fill="none" stroke="#9aa4b2" d="M1482.99,-684.19C1492.42,-691.77 1501.91,-701.56 1507,-713 1531.47,-768.03 1499.14,-803.18 1448,-835 1389.11,-871.65 1195.46,-879.54 1084.32,-880.97"/>
<polygon fill="#9aa4b2" stroke="#9aa4b2" points="1084.1,-878.17 1076.14,-881.06 1084.17,-883.77 1084.1,-878.17"/>
<text text-anchor="middle" x="1523.5" y="-770.6" font-family="Helvetica,sans-Serif" font-size="13.00" fill="#94a3b8">go</text>
</g>
<!-- S_4000&#45;&gt;S_100 -->
<g id="edge38" class="edge">
<title>S_4000&#45;&gt;S_100</title>
<path fill="none" stroke="#9aa4b2" d="M1607.21,-792.13C1573.8,-808.93 1526.36,-832.41 1517,-835 1437.81,-856.92 1207.94,-871.07 1084.54,-877.32"/>
<polygon fill="#9aa4b2" stroke="#9aa4b2" points="1084.06,-874.54 1076.21,-877.73 1084.34,-880.13 1084.06,-874.54"/>
<text text-anchor="middle" x="1556.5" y="-824.6" font-family="Helvetica,sans-Serif" font-size="13.00" fill="#94a3b8">go</text>
</g>
<!-- S_5000&#45;&gt;S_100 -->
<g id="edge39" class="edge">
<title>S_5000&#45;&gt;S_100</title>
<path fill="none" stroke="#9aa4b2" d="M1769.73,-792.09C1748.93,-806.35 1717.03,-825.77 1686,-835 1575.44,-867.9 1239.53,-877.36 1084.26,-880.01"/>
<polygon fill="#9aa4b2" stroke="#9aa4b2" points="1084.06,-877.21 1076.11,-880.14 1084.15,-882.81 1084.06,-877.21"/>
<text text-anchor="middle" x="1729.5" y="-824.6" font-family="Helvetica,sans-Serif" font-size="13.00" fill="#94a3b8">go</text>
</g>
<!-- S_9000&#45;&gt;S_100 -->
<g id="edge40" class="edge">
<title>S_9000&#45;&gt;S_100</title>
<path fill="none" stroke="#9aa4b2" d="M1961.31,-792.14C1934.05,-806.43 1892.65,-825.87 1854,-835 1709.34,-869.19 1267.2,-878.05 1084.4,-880.28"/>
<polygon fill="#9aa4b2" stroke="#9aa4b2" points="1084.12,-877.48 1076.15,-880.38 1084.19,-883.08 1084.12,-877.48"/>
<text text-anchor="middle" x="1951" y="-824.6" font-family="Helvetica,sans-Serif" font-size="13.00" fill="#94a3b8">resume monitor</text>
</g>
</g>
</svg>
