<?xml version="1.0" encoding="UTF-8" standalone="no"?>
<!DOCTYPE svg PUBLIC "-//W3C//DTD SVG 1.1//EN"
 "http://www.w3.org/Graphics/SVG/1.1/DTD/svg11.dtd">
<!-- Generated by graphviz version 2.42.4 (0)
 -->
<!-- Title: G Pages: 1 -->
<svg width="1279pt" height="520pt"
 viewBox="0.00 0.00 1279.00 520.00" xmlns="http://www.w3.org/2000/svg" xmlns:xlink="http://www.w3.org/1999/xlink">
<g id="graph0" class="graph" transform="scale(1 1) rotate(0) translate(18 502)">
<title>G</title>
<polygon fill="#101418" stroke="transparent" points="-18,18 -18,-502 1261,-502 1261,18 -18,18"/>
<!-- S_INIT -->
<g id="node1" class="node">
<title>S_INIT</title>
<path fill="#1a2028" stroke="#9aa4b2" stroke-width="1.2" d="M1014.5,-484C1014.5,-484 891.5,-484 891.5,-484 885.5,-484 879.5,-478 879.5,-472 879.5,-472 879.5,-460 879.5,-460 879.5,-454 885.5,-448 891.5,-448 891.5,-448 1014.5,-448 1014.5,-448 1020.5,-448 1026.5,-454 1026.5,-460 1026.5,-460 1026.5,-472 1026.5,-472 1026.5,-478 1020.5,-484 1014.5,-484"/>
<text text-anchor="middle" x="953" y="-462.2" font-family="Helvetica,sans-Serif" font-size="16.00" fill="#e6edf3">Boot / Safe Pose</text>
</g>
<!-- S_100 -->
<g id="node2" class="node">
<title>S_100</title>
<path fill="#1a2028" stroke="#9aa4b2" stroke-width="1.2" d="M1013,-376C1013,-376 893,-376 893,-376 887,-376 881,-370 881,-364 881,-364 881,-352 881,-352 881,-346 887,-340 893,-340 893,-340 1013,-340 1013,-340 1019,-340 1025,-346 1025,-352 1025,-352 1025,-364 1025,-364 1025,-370 1019,-376 1013,-376"/>
<text text-anchor="middle" x="953" y="-354.2" font-family="Helvetica,sans-Serif" font-size="16.00" fill="#e6edf3">Sense Fall State</text>
</g>
<!-- S_INIT&#45;&gt;S_100 -->
<g id="edge4" class="edge">
<title>S_INIT&#45;&gt;S_100</title>
<path fill="none" stroke="#9aa4b2" d="M953,-447.97C953,-430.84 953,-404.22 953,-384.56"/>
<polygon fill="#9aa4b2" stroke="#9aa4b2" points="955.8,-384.34 953,-376.34 950.2,-384.34 955.8,-384.34"/>
<text text-anchor="middle" x="970.5" y="-408.6" font-family="Helvetica,sans-Serif" font-size="13.00" fill="#94a3b8">entry</text>
</g>
<!-- S_1000 -->
<g id="node3" class="node">
<title>S_1000</title>
<path fill="#1a2028" stroke="#9aa4b2" stroke-width="1.2" d="M853.5,-144C853.5,-144 766.5,-144 766.5,-144 760.5,-144 754.5,-138 754.5,-132 754.5,-132 754.5,-120 754.5,-120 754.5,-114 760.5,-108 766.5,-108 766.5,-108 853.5,-108 853.5,-108 859.5,-108 865.5,-114 865.5,-120 865.5,-120 865.5,-132 865.5,-132 865.5,-138 859.5,-144 853.5,-144"/>
<text text-anchor="middle" x="810" y="-122.2" font-family="Helvetica,sans-Serif" font-size="16.00" fill="#e6edf3">Action Loop</text>
</g>
<!-- S_100&#45;&gt;S_1000 -->
<g id="edge5" class="edge">
<title>S_100&#45;&gt;S_1000</title>
<path fill="none" stroke="#9aa4b2" d="M935.79,-339.7C919.32,-322.53 894.46,-294.94 877,-268 852.2,-229.75 831.07,-180.9 819.49,-151.89"/>
<polygon fill="#9aa4b2" stroke="#9aa4b2" points="822.02,-150.67 816.48,-144.26 816.81,-152.73 822.02,-150.67"/>
<text text-anchor="middle" x="916.5" y="-238.6" font-family="Helvetica,sans-Serif" font-size="13.00" fill="#94a3b8">if mode = 0</text>
</g>
<!-- S_2000 -->
<g id="node4" class="node">
<title>S_2000</title>
<path fill="#1a2028" stroke="#9aa4b2" stroke-width="1.2" d="M426.5,-260C426.5,-260 313.5,-260 313.5,-260 307.5,-260 301.5,-254 301.5,-248 301.5,-248 301.5,-236 301.5,-236 301.5,-230 307.5,-224 313.5,-224 313.5,-224 426.5,-224 426.5,-224 432.5,-224 438.5,-230 438.5,-236 438.5,-236 438.5,-248 438.5,-248 438.5,-254 432.5,-260 426.5,-260"/>
<text text-anchor="middle" x="370" y="-238.2" font-family="Helvetica,sans-Serif" font-size="16.00" fill="#e6edf3">Sense / Decide</text>
</g>
<!-- S_100&#45;&gt;S_2000 -->
<g id="edge6" class="edge">
<title>S_100&#45;&gt;S_2000</title>
<path fill="none" stroke="#9aa4b2" d="M880.99,-353.42C801.72,-348.35 670.93,-336.67 561,-311 510.76,-299.27 455.44,-278.68 417.32,-263.22"/>
<polygon fill="#9aa4b2" stroke="#9aa4b2" points="417.92,-260.44 409.46,-260 415.8,-265.62 417.92,-260.44"/>
<text text-anchor="middle" x="600.5" y="-300.6" font-family="Helvetica,sans-Serif" font-size="13.00" fill="#94a3b8">if mode = 1</text>
</g>
<!-- S_100_CHECK -->
<g id="node10" class="node">
<title>S_100_CHECK</title>
<path fill="#1a2028" stroke="#9aa4b2" stroke-width="1.2" d="M1014.31,-262.55C1014.31,-262.55 984.69,-247.45 984.69,-247.45 979.35,-244.73 979.35,-239.27 984.69,-236.55 984.69,-236.55 1014.31,-221.45 1014.31,-221.45 1019.65,-218.73 1030.35,-218.73 1035.69,-221.45 1035.69,-221.45 1065.31,-236.55 1065.31,-236.55 1070.65,-239.27 1070.65,-244.73 1065.31,-247.45 1065.31,-247.45 1035.69,-262.55 1035.69,-262.55 1030.35,-265.27 1019.65,-265.27 1014.31,-262.55"/>
<text text-anchor="middle" x="1025" y="-238.2" font-family="Helvetica,sans-Serif" font-size="16.00" fill="#e6edf3">Fall?</text>
</g>
<!-- S_100&#45;&gt;S_100_CHECK -->
<g id="edge1" class="edge">
<title>S_100&#45;&gt;S_100_CHECK</title>
<path fill="none" stroke="#9aa4b2" d="M975.61,-339.93C984.85,-331.99 994.99,-321.89 1002,-311 1009.3,-299.65 1014.54,-285.74 1018.16,-273.46"/>
<polygon fill="#9aa4b2" stroke="#9aa4b2" points="1020.88,-274.12 1020.3,-265.67 1015.48,-272.64 1020.88,-274.12"/>
</g>
<!-- S_1000&#45;&gt;S_100 -->
<g id="edge7" class="edge">
<title>S_1000&#45;&gt;S_100</title>
<path fill="none" stroke="#9aa4b2" d="M784.87,-144.18C748.8,-170.98 689.86,-224.23 720,-268 754.1,-317.53 819.77,-339.51 872.72,-349.26"/>
<polygon fill="#9aa4b2" stroke="#9aa4b2" points="872.41,-352.05 880.77,-350.67 873.37,-346.53 872.41,-352.05"/>
<text text-anchor="middle" x="779.5" y="-238.6" font-family="Helvetica,sans-Serif" font-size="13.00" fill="#94a3b8">if Cdt_npixel &lt; 32</text>
</g>
<!-- S_2000&#45;&gt;S_1000 -->
<g id="edge8" class="edge">
<title>S_2000&#45;&gt;S_1000</title>
<path fill="none" stroke="#9aa4b2" d="M406.42,-223.93C447.26,-204.91 509.32,-176.34 521,-173 613.7,-146.48 641.14,-161.26 736,-144 739.36,-143.39 742.79,-142.73 746.25,-142.03"/>
<polygon fill="#9aa4b2" stroke="#9aa4b2" points="747.08,-144.72 754.35,-140.36 745.95,-139.24 747.08,-144.72"/>
<text text-anchor="middle" x="580.5" y="-176.6" font-family="Helvetica,sans-Serif" font-size="13.00" fill="#94a3b8">if Cdt_npixel &lt; 32</text>
</g>
<!-- S_2210 -->
<g id="node5" class="node">
<title>S_2210</title>
<path fill="#1a2028" stroke="#9aa4b2" stroke-width="1.2" d="M94,-144C94,-144 12,-144 12,-144 6,-144 0,-138 0,-132 0,-132 0,-120 0,-120 0,-114 6,-108 12,-108 12,-108 94,-108 94,-108 100,-108 106,-114 106,-120 106,-120 106,-132 106,-132 106,-138 100,-144 94,-144"/>
<text text-anchor="middle" x="53" y="-122.2" font-family="Helvetica,sans-Serif" font-size="16.00" fill="#e6edf3">State 2210</text>
</g>
<!-- S_2000&#45;&gt;S_2210 -->
<g id="edge10" class="edge">
<title>S_2000&#45;&gt;S_2210</title>
<path fill="none" stroke="#9aa4b2" d="M301.25,-240.98C242.75,-237.95 158.65,-226.23 97,-187 83.43,-178.36 72.64,-163.93 65.15,-151.38"/>
<polygon fill="#9aa4b2" stroke="#9aa4b2" points="67.5,-149.85 61.12,-144.27 62.63,-152.61 67.5,-149.85"/>
<text text-anchor="middle" x="151" y="-176.6" font-family="Helvetica,sans-Serif" font-size="13.00" fill="#94a3b8">if Head_pan &gt; 0</text>
</g>
<!-- S_2220 -->
<g id="node6" class="node">
<title>S_2220</title>
<path fill="#1a2028" stroke="#9aa4b2" stroke-width="1.2" d="M236,-144C236,-144 154,-144 154,-144 148,-144 142,-138 142,-132 142,-132 142,-120 142,-120 142,-114 148,-108 154,-108 154,-108 236,-108 236,-108 242,-108 248,-114 248,-120 248,-120 248,-132 248,-132 248,-138 242,-144 236,-144"/>
<text text-anchor="middle" x="195" y="-122.2" font-family="Helvetica,sans-Serif" font-size="16.00" fill="#e6edf3">State 2220</text>
</g>
<!-- S_2000&#45;&gt;S_2220 -->
<g id="edge11" class="edge">
<title>S_2000&#45;&gt;S_2220</title>
<path fill="none" stroke="#9aa4b2" d="M301.18,-226.82C274.95,-218.67 246.28,-206.12 225,-187 214.55,-177.62 207.29,-163.76 202.53,-151.73"/>
<polygon fill="#9aa4b2" stroke="#9aa4b2" points="205.14,-150.7 199.76,-144.15 199.88,-152.62 205.14,-150.7"/>
<text text-anchor="middle" x="288.5" y="-176.6" font-family="Helvetica,sans-Serif" font-size="13.00" fill="#94a3b8">else Head_pan &gt; 0</text>
</g>
<!-- S_2300 -->
<g id="node7" class="node">
<title>S_2300</title>
<path fill="#1a2028" stroke="#9aa4b2" stroke-width="1.2" d="M706,-144C706,-144 296,-144 296,-144 290,-144 284,-138 284,-132 284,-132 284,-120 284,-120 284,-114 290,-108 296,-108 296,-108 706,-108 706,-108 712,-108 718,-114 718,-120 718,-120 718,-132 718,-132 718,-138 712,-144 706,-144"/>
<text text-anchor="middle" x="501" y="-122.2" font-family="Helvetica,sans-Serif" font-size="16.00" fill="#e6edf3">2300 It approaches a ball by the angle of the head.</text>
</g>
<!-- S_2000&#45;&gt;S_2300 -->
<g id="edge9" class="edge">
<title>S_2000&#45;&gt;S_2300</title>
<path fill="none" stroke="#9aa4b2" d="M363.46,-223.98C358.95,-209.13 355.47,-187.71 366,-173 373.64,-162.33 383.9,-154.1 395.37,-147.77"/>
<polygon fill="#9aa4b2" stroke="#9aa4b2" points="396.79,-150.19 402.66,-144.07 394.26,-145.2 396.79,-150.19"/>
<text text-anchor="middle" x="423" y="-176.6" font-family="Helvetica,sans-Serif" font-size="13.00" fill="#94a3b8">if Head_tilt &gt; &#45;58</text>
</g>
<!-- S_2900 -->
<g id="node8" class="node">
<title>S_2900</title>
<path fill="#1a2028" stroke="#9aa4b2" stroke-width="1.2" d="M432,-36C432,-36 340,-36 340,-36 334,-36 328,-30 328,-24 328,-24 328,-12 328,-12 328,-6 334,0 340,0 340,0 432,0 432,0 438,0 444,-6 444,-12 444,-12 444,-24 444,-24 444,-30 438,-36 432,-36"/>
<text text-anchor="middle" x="386" y="-14.2" font-family="Helvetica,sans-Serif" font-size="16.00" fill="#e6edf3">Synchronize</text>
</g>
<!-- S_2210&#45;&gt;S_2900 -->
<g id="edge12" class="edge">
<title>S_2210&#45;&gt;S_2900</title>
<path fill="none" stroke="#9aa4b2" d="M106.13,-108.09C165.65,-89.14 261.98,-58.48 324.65,-38.53"/>
<polygon fill="#9aa4b2" stroke="#9aa4b2" points="325.73,-41.12 332.51,-36.03 324.03,-35.79 325.73,-41.12"/>
<text text-anchor="middle" x="248.5" y="-68.6" font-family="Helvetica,sans-Serif" font-size="13.00" fill="#94a3b8">go</text>
</g>
<!-- S_2220&#45;&gt;S_2900 -->
<g id="edge13" class="edge">
<title>S_2220&#45;&gt;S_2900</title>
<path fill="none" stroke="#9aa4b2" d="M225.69,-107.97C258.86,-89.56 311.8,-60.18 347.69,-40.26"/>
<polygon fill="#9aa4b2" stroke="#9aa4b2" points="349.44,-42.49 355.07,-36.16 346.72,-37.6 349.44,-42.49"/>
<text text-anchor="middle" x="310.5" y="-68.6" font-family="Helvetica,sans-Serif" font-size="13.00" fill="#94a3b8">go</text>
</g>
<!-- S_2300&#45;&gt;S_2900 -->
<g id="edge14" class="edge">
<title>S_2300&#45;&gt;S_2900</title>
<path fill="none" stroke="#9aa4b2" d="M482.52,-107.97C463.11,-90.07 432.45,-61.81 410.91,-41.96"/>
<polygon fill="#9aa4b2" stroke="#9aa4b2" points="412.59,-39.7 404.81,-36.34 408.8,-43.82 412.59,-39.7"/>
<text text-anchor="middle" x="512" y="-68.6" font-family="Helvetica,sans-Serif" font-size="13.00" fill="#94a3b8">next labeled block</text>
</g>
<!-- S_2900&#45;&gt;S_100 -->
<g id="edge15" class="edge">
<title>S_2900&#45;&gt;S_100</title>
<path fill="none" stroke="#9aa4b2" d="M444.01,-19.41C602.82,-21.51 1040.84,-34.03 1161,-108 1163.45,-109.51 1276.18,-207.53 1232,-268 1186.91,-329.71 1098.58,-349.64 1033.33,-355.57"/>
<polygon fill="#9aa4b2" stroke="#9aa4b2" points="1032.83,-352.8 1025.09,-356.26 1033.29,-358.38 1032.83,-352.8"/>
<text text-anchor="middle" x="1234.5" y="-176.6" font-family="Helvetica,sans-Serif" font-size="13.00" fill="#94a3b8">go</text>
</g>
<!-- S_9000 -->
<g id="node9" class="node">
<title>S_9000</title>
<path fill="#1a2028" stroke="#9aa4b2" stroke-width="1.2" d="M1131,-144C1131,-144 1073,-144 1073,-144 1067,-144 1061,-138 1061,-132 1061,-132 1061,-120 1061,-120 1061,-114 1067,-108 1073,-108 1073,-108 1131,-108 1131,-108 1137,-108 1143,-114 1143,-120 1143,-120 1143,-132 1143,-132 1143,-138 1137,-144 1131,-144"/>
<text text-anchor="middle" x="1102" y="-122.2" font-family="Helvetica,sans-Serif" font-size="16.00" fill="#e6edf3">Recover</text>
</g>
<!-- S_9000&#45;&gt;S_100 -->
<g id="edge16" class="edge">
<title>S_9000&#45;&gt;S_100</title>
<path fill="none" stroke="#9aa4b2" d="M1108.55,-144.2C1111.46,-152.72 1114.55,-163.26 1116,-173 1122.38,-215.87 1118.72,-232.4 1094,-268 1072.38,-299.12 1036,-321.69 1005.61,-336.31"/>
<polygon fill="#9aa4b2" stroke="#9aa4b2" points="1004.09,-333.93 998.03,-339.86 1006.46,-339 1004.09,-333.93"/>
<text text-anchor="middle" x="1170" y="-238.6" font-family="Helvetica,sans-Serif" font-size="13.00" fill="#94a3b8">resume monitor</text>
</g>
<!-- S_100_CHECK&#45;&gt;S_100 -->
<g id="edge3" class="edge">
<title>S_100_CHECK&#45;&gt;S_100</title>
<path fill="none" stroke="#9aa4b2" d="M996.6,-253.83C978.25,-262.48 955.85,-276.58 945,-297 939.36,-307.6 940.35,-320.69 943.18,-331.94"/>
<polygon fill="#9aa4b2" stroke="#9aa4b2" points="940.53,-332.87 945.49,-339.74 945.9,-331.28 940.53,-332.87"/>
<text text-anchor="middle" x="969" y="-300.6" font-family="Helvetica,sans-Serif" font-size="13.00" fill="#94a3b8">upright</text>
</g>
<!-- S_100_CHECK&#45;&gt;S_9000 -->
<g id="edge2" class="edge">
<title>S_100_CHECK&#45;&gt;S_9000</title>
<path fill="none" stroke="#9aa4b2" d="M1037.71,-222.18C1050.84,-202.74 1071.36,-172.36 1085.68,-151.16"/>
<polygon fill="#9aa4b2" stroke="#9aa4b2" points="1088.12,-152.55 1090.28,-144.36 1083.48,-149.42 1088.12,-152.55"/>
<text text-anchor="middle" x="1088.5" y="-176.6" font-family="Helvetica,sans-Serif" font-size="13.00" fill="#94a3b8">fallen</text>
</g>
</g>
</svg>
