<?xml version="1.0" encoding="UTF-8" standalone="no"?>
<!DOCTYPE svg PUBLIC "-//W3C//DTD SVG 1.1//EN"
 "http://www.w3.org/Graphics/SVG/1.1/DTD/svg11.dtd">
<!-- Generated by graphviz version 2.42.4 (0)
 -->
<!-- Title: G Pages: 1 -->
<svg width="200pt" height="180pt"
 viewBox="0.00 0.00 200.00 180.00" xmlns="http://www.w3.org/2000/svg" xmlns:xlink="http://www.w3.org/1999/xlink">
<g id="graph0" class="graph" transform="scale(1 1) rotate(0) translate(18 162)">
<title>G</title>
<polygon fill="#101418" stroke="transparent" points="-18,18 -18,-162 182,-162 182,18 -18,18"/>
<!-- S_INIT -->
<g id="node1" class="node">
<title>S_INIT</title>
<path fill="#1a2028" stroke="#9aa4b2" stroke-width="1.2" d="M70.5,-144C70.5,-144 40.5,-144 40.5,-144 34.5,-144 28.5,-138 28.5,-132 28.5,-132 28.5,-120 28.5,-120 28.5,-114 34.5,-108 40.5,-108 40.5,-108 70.5,-108 70.5,-108 76.5,-108 82.5,-114 82.5,-120 82.5,-120 82.5,-132 82.5,-132 82.5,-138 76.5,-144 70.5,-144"/>
<text text-anchor="middle" x="55.5" y="-122.2" font-family="Helvetica,sans-Serif" font-size="16.00" fill="#e6edf3">Boot</text>
</g>
<!-- S_100 -->
<g id="node2" class="node">
<title>S_100</title>
<path fill="#1a2028" stroke="#9aa4b2" stroke-width="1.2" d="M99,-36C99,-36 12,-36 12,-36 6,-36 0,-30 0,-24 0,-24 0,-12 0,-12 0,-6 6,0 12,0 12,0 99,0 99,0 105,0 111,-6 111,-12 111,-12 111,-24 111,-24 111,-30 105,-36 99,-36"/>
<text text-anchor="middle" x="55.5" y="-14.2" font-family="Helvetica,sans-Serif" font-size="16.00" fill="#e6edf3">Action Loop</text>
</g>
<!-- S_INIT&#45;&gt;S_100 -->
<g id="edge1" class="edge">
<title>S_INIT&#45;&gt;S_100</title>
<path fill="none" stroke="#9aa4b2" d="M55.5,-107.97C55.5,-90.84 55.5,-64.22 55.5,-44.56"/>
<polygon fill="#9aa4b2" stroke="#9aa4b2" points="58.3,-44.34 55.5,-36.34 52.7,-44.34 58.3,-44.34"/>
<text text-anchor="middle" x="73" y="-68.6" font-family="Helvetica,sans-Serif" font-size="13.00" fill="#94a3b8">entry</text>
</g>
<!-- S_100&#45;&gt;S_100 -->
<g id="edge2" class="edge">
<title>S_100&#45;&gt;S_100</title>
<path fill="none" stroke="#9aa4b2" d="M111.34,-28.12C131.03,-28.28 147,-24.91 147,-18 147,-12.06 135.2,-8.74 119.39,-8.02"/>
<polygon fill="#9aa4b2" stroke="#9aa4b2" points="119.39,-5.22 111.34,-7.88 119.29,-10.82 119.39,-5.22"/>
<text text-anchor="middle" x="155.5" y="-14.6" font-family="Helvetica,sans-Serif" font-size="13.00" fill="#94a3b8">go</text>
</g>
</g>
</svg>
