<?xml version="1.0" encoding="UTF-8" standalone="no"?>
<!DOCTYPE svg PUBLIC "-//W3C//DTD SVG 1.1//EN"
 "http://www.w3.org/Graphics/SVG/1.1/DTD/svg11.dtd">
<!-- Generated by graphviz version 2.42.4 (0)
 -->
<!-- Title: G Pages: 1 -->
<svg width="1890pt" height="1606pt"
 viewBox="0.00 0.00 1889.65 1606.00" xmlns="http://www.w3.org/2000/svg" xmlns:xlink="http://www.w3.org/1999/xlink">
<g id="graph0" class="graph" transform="scale(1 1) rotate(0) translate(18 1588)">
<title>G</title>
<polygon fill="#101418" stroke="transparent" points="-18,18 -18,-1588 1871.65,-1588 1871.65,18 -18,18"/>
<!-- S_INIT -->
<g id="node1" class="node">
<title>S_INIT</title>
<path fill="#1a2028" stroke="#9aa4b2" stroke-width="1.2" d="M496.15,-1570C496.15,-1570 373.15,-1570 373.15,-1570 367.15,-1570 361.15,-1564 361.15,-1558 361.15,-1558 361.15,-1546 361.15,-1546 361.15,-1540 367.15,-1534 373.15,-1534 373.15,-1534 496.15,-1534 496.15,-1534 502.15,-1534 508.15,-1540 508.15,-1546 508.15,-1546 508.15,-1558 508.15,-1558 508.15,-1564 502.15,-1570 496.15,-1570"/>
<text text-anchor="middle" x="434.65" y="-1548.2" font-family="Helvetica,sans-Serif" font-size="16.00" fill="#e6edf3">Boot / Safe Pose</text>
</g>
<!-- S_9000 -->
<g id="node30" class="node">
<title>S_9000</title>
<path fill="#1a2028" stroke="#9aa4b2" stroke-width="1.2" d="M463.65,-1462C463.65,-1462 405.65,-1462 405.65,-1462 399.65,-1462 393.65,-1456 393.65,-1450 393.65,-1450 393.65,-1438 393.65,-1438 393.65,-1432 399.65,-1426 405.65,-1426 405.65,-1426 463.65,-1426 463.65,-1426 469.65,-1426 475.65,-1432 475.65,-1438 475.65,-1438 475.65,-1450 475.65,-1450 475.65,-1456 469.65,-1462 463.65,-1462"/>
<text text-anchor="middle" x="434.65" y="-1440.2" font-family="Helvetica,sans-Serif" font-size="16.00" fill="#e6edf3">Recover</text>
</g>
<!-- S_INIT&#45;&gt;S_9000 -->
<g id="edge1" class="edge">
<title>S_INIT&#45;&gt;S_9000</title>
<path fill="none" stroke="#9aa4b2" d="M434.65,-1533.97C434.65,-1516.84 434.65,-1490.22 434.65,-1470.56"/>
<polygon fill="#9aa4b2" stroke="#9aa4b2" points="437.45,-1470.34 434.65,-1462.34 431.85,-1470.34 437.45,-1470.34"/>
<text text-anchor="middle" x="509.65" y="-1494.6" font-family="Helvetica,sans-Serif" font-size="13.00" fill="#94a3b8">on Gsensor_status &amp; 1</text>
</g>
<!-- S_100 -->
<g id="node2" class="node">
<title>S_100</title>
<path fill="#1a2028" stroke="#9aa4b2" stroke-width="1.2" d="M1041.65,-1354C1041.65,-1354 879.65,-1354 879.65,-1354 873.65,-1354 867.65,-1348 867.65,-1342 867.65,-1342 867.65,-1330 867.65,-1330 867.65,-1324 873.65,-1318 879.65,-1318 879.65,-1318 1041.65,-1318 1041.65,-1318 1047.65,-1318 1053.65,-1324 1053.65,-1330 1053.65,-1330 1053.65,-1342 1053.65,-1342 1053.65,-1348 1047.65,-1354 1041.65,-1354"/>
<text text-anchor="middle" x="960.65" y="-1332.2" font-family="Helvetica,sans-Serif" font-size="16.00" fill="#e6edf3">Repeat Forward Walk</text>
</g>
<!-- S_110 -->
<g id="node3" class="node">
<title>S_110</title>
<path fill="#1a2028" stroke="#9aa4b2" stroke-width="1.2" d="M1141.15,-1224C1141.15,-1224 1028.15,-1224 1028.15,-1224 1022.15,-1224 1016.15,-1218 1016.15,-1212 1016.15,-1212 1016.15,-1200 1016.15,-1200 1016.15,-1194 1022.15,-1188 1028.15,-1188 1028.15,-1188 1141.15,-1188 1141.15,-1188 1147.15,-1188 1153.15,-1194 1153.15,-1200 1153.15,-1200 1153.15,-1212 1153.15,-1212 1153.15,-1218 1147.15,-1224 1141.15,-1224"/>
<text text-anchor="middle" x="1084.65" y="-1202.2" font-family="Helvetica,sans-Serif" font-size="16.00" fill="#e6edf3">Sense / Decide</text>
</g>
<!-- S_100&#45;&gt;S_110 -->
<g id="edge2" class="edge">
<title>S_100&#45;&gt;S_110</title>
<path fill="none" stroke="#9aa4b2" d="M977.37,-1317.74C999.28,-1295.12 1037.78,-1255.38 1062.21,-1230.17"/>
<polygon fill="#9aa4b2" stroke="#9aa4b2" points="1064.24,-1232.09 1067.79,-1224.4 1060.22,-1228.2 1064.24,-1232.09"/>
<text text-anchor="middle" x="1103.15" y="-1267.6" font-family="Helvetica,sans-Serif" font-size="13.00" fill="#94a3b8">continue to monitor</text>
</g>
<!-- S_110&#45;&gt;S_110 -->
<g id="edge5" class="edge">
<title>S_110&#45;&gt;S_110</title>
<path fill="none" stroke="#9aa4b2" d="M1153.49,-1216.09C1173.58,-1215.75 1189.15,-1212.38 1189.15,-1206 1189.15,-1200.52 1177.65,-1197.26 1161.67,-1196.23"/>
<polygon fill="#9aa4b2" stroke="#9aa4b2" points="1161.6,-1193.43 1153.49,-1195.91 1161.37,-1199.02 1161.6,-1193.43"/>
<text text-anchor="middle" x="1197.65" y="-1202.6" font-family="Helvetica,sans-Serif" font-size="13.00" fill="#94a3b8">go</text>
</g>
<!-- S_120 -->
<g id="node4" class="node">
<title>S_120</title>
<path fill="#1a2028" stroke="#9aa4b2" stroke-width="1.2" d="M1311.65,-1116C1311.65,-1116 1027.65,-1116 1027.65,-1116 1021.65,-1116 1015.65,-1110 1015.65,-1104 1015.65,-1104 1015.65,-1092 1015.65,-1092 1015.65,-1086 1021.65,-1080 1027.65,-1080 1027.65,-1080 1311.65,-1080 1311.65,-1080 1317.65,-1080 1323.65,-1086 1323.65,-1092 1323.65,-1092 1323.65,-1104 1323.65,-1104 1323.65,-1110 1317.65,-1116 1311.65,-1116"/>
<text text-anchor="middle" x="1169.65" y="-1094.2" font-family="Helvetica,sans-Serif" font-size="16.00" fill="#e6edf3">When there was an obstacle in front</text>
</g>
<!-- S_110&#45;&gt;S_120 -->
<g id="edge3" class="edge">
<title>S_110&#45;&gt;S_120</title>
<path fill="none" stroke="#9aa4b2" d="M1063.22,-1187.83C1050.66,-1175.63 1038.99,-1159 1048.65,-1145 1056.04,-1134.28 1066.3,-1126.05 1077.73,-1119.74"/>
<polygon fill="#9aa4b2" stroke="#9aa4b2" points="1079.12,-1122.17 1084.99,-1116.05 1076.59,-1117.18 1079.12,-1122.17"/>
<text text-anchor="middle" x="1106.65" y="-1148.6" font-family="Helvetica,sans-Serif" font-size="13.00" fill="#94a3b8">if Distance &lt; 300</text>
</g>
<!-- S_110&#45;&gt;S_120 -->
<g id="edge4" class="edge">
<title>S_110&#45;&gt;S_120</title>
<path fill="none" stroke="#9aa4b2" d="M1136.66,-1187.96C1149.68,-1181.08 1162.09,-1171.68 1169.65,-1159 1175.83,-1148.63 1176.41,-1135.36 1175.2,-1123.93"/>
<polygon fill="#9aa4b2" stroke="#9aa4b2" points="1177.97,-1123.52 1174.06,-1116.01 1172.43,-1124.32 1177.97,-1123.52"/>
<text text-anchor="middle" x="1205.65" y="-1148.6" font-family="Helvetica,sans-Serif" font-size="13.00" fill="#94a3b8">if t &gt; 100</text>
</g>
<!-- S_130 -->
<g id="node5" class="node">
<title>S_130</title>
<path fill="#1a2028" stroke="#9aa4b2" stroke-width="1.2" d="M1243.15,-1008C1243.15,-1008 1096.15,-1008 1096.15,-1008 1090.15,-1008 1084.15,-1002 1084.15,-996 1084.15,-996 1084.15,-984 1084.15,-984 1084.15,-978 1090.15,-972 1096.15,-972 1096.15,-972 1243.15,-972 1243.15,-972 1249.15,-972 1255.15,-978 1255.15,-984 1255.15,-984 1255.15,-996 1255.15,-996 1255.15,-1002 1249.15,-1008 1243.15,-1008"/>
<text text-anchor="middle" x="1169.65" y="-986.2" font-family="Helvetica,sans-Serif" font-size="16.00" fill="#e6edf3">Head Scan Position</text>
</g>
<!-- S_120&#45;&gt;S_130 -->
<g id="edge6" class="edge">
<title>S_120&#45;&gt;S_130</title>
<path fill="none" stroke="#9aa4b2" d="M1169.65,-1079.97C1169.65,-1062.84 1169.65,-1036.22 1169.65,-1016.56"/>
<polygon fill="#9aa4b2" stroke="#9aa4b2" points="1172.45,-1016.34 1169.65,-1008.34 1166.85,-1016.34 1172.45,-1016.34"/>
<text text-anchor="middle" x="1230.65" y="-1040.6" font-family="Helvetica,sans-Serif" font-size="13.00" fill="#94a3b8">next labeled block</text>
</g>
<!-- S_1010 -->
<g id="node6" class="node">
<title>S_1010</title>
<path fill="#1a2028" stroke="#9aa4b2" stroke-width="1.2" d="M830.15,-900C830.15,-900 717.15,-900 717.15,-900 711.15,-900 705.15,-894 705.15,-888 705.15,-888 705.15,-876 705.15,-876 705.15,-870 711.15,-864 717.15,-864 717.15,-864 830.15,-864 830.15,-864 836.15,-864 842.15,-870 842.15,-876 842.15,-876 842.15,-888 842.15,-888 842.15,-894 836.15,-900 830.15,-900"/>
<text text-anchor="middle" x="773.65" y="-878.2" font-family="Helvetica,sans-Serif" font-size="16.00" fill="#e6edf3">Sense / Decide</text>
</g>
<!-- S_130&#45;&gt;S_1010 -->
<g id="edge7" class="edge">
<title>S_130&#45;&gt;S_1010</title>
<path fill="none" stroke="#9aa4b2" d="M1106.02,-971.97C1034.83,-952.91 919.75,-922.11 845.4,-902.21"/>
<polygon fill="#9aa4b2" stroke="#9aa4b2" points="845.89,-899.44 837.44,-900.08 844.45,-904.85 845.89,-899.44"/>
<text text-anchor="middle" x="1055.65" y="-932.6" font-family="Helvetica,sans-Serif" font-size="13.00" fill="#94a3b8">next labeled block</text>
</g>
<!-- S_1100 -->
<g id="node13" class="node">
<title>S_1100</title>
<path fill="#1a2028" stroke="#9aa4b2" stroke-width="1.2" d="M825.65,-792C825.65,-792 721.65,-792 721.65,-792 715.65,-792 709.65,-786 709.65,-780 709.65,-780 709.65,-768 709.65,-768 709.65,-762 715.65,-756 721.65,-756 721.65,-756 825.65,-756 825.65,-756 831.65,-756 837.65,-762 837.65,-768 837.65,-768 837.65,-780 837.65,-780 837.65,-786 831.65,-792 825.65,-792"/>
<text text-anchor="middle" x="773.65" y="-770.2" font-family="Helvetica,sans-Serif" font-size="16.00" fill="#e6edf3">Wait loop end</text>
</g>
<!-- S_1010&#45;&gt;S_1100 -->
<g id="edge8" class="edge">
<title>S_1010&#45;&gt;S_1100</title>
<path fill="none" stroke="#9aa4b2" d="M773.65,-863.97C773.65,-846.84 773.65,-820.22 773.65,-800.56"/>
<polygon fill="#9aa4b2" stroke="#9aa4b2" points="776.45,-800.34 773.65,-792.34 770.85,-800.34 776.45,-800.34"/>
<text text-anchor="middle" x="809.15" y="-824.6" font-family="Helvetica,sans-Serif" font-size="13.00" fill="#94a3b8">if Wait = 0</text>
</g>
<!-- S_1011 -->
<g id="node7" class="node">
<title>S_1011</title>
<path fill="#1a2028" stroke="#9aa4b2" stroke-width="1.2" d="M726.65,-1570C726.65,-1570 570.65,-1570 570.65,-1570 564.65,-1570 558.65,-1564 558.65,-1558 558.65,-1558 558.65,-1546 558.65,-1546 558.65,-1540 564.65,-1534 570.65,-1534 570.65,-1534 726.65,-1534 726.65,-1534 732.65,-1534 738.65,-1540 738.65,-1546 738.65,-1546 738.65,-1558 738.65,-1558 738.65,-1564 732.65,-1570 726.65,-1570"/>
<text text-anchor="middle" x="648.65" y="-1548.2" font-family="Helvetica,sans-Serif" font-size="16.00" fill="#e6edf3">Reset Sample Count</text>
</g>
<!-- S_1020 -->
<g id="node8" class="node">
<title>S_1020</title>
<path fill="#1a2028" stroke="#9aa4b2" stroke-width="1.2" d="M705.15,-1462C705.15,-1462 592.15,-1462 592.15,-1462 586.15,-1462 580.15,-1456 580.15,-1450 580.15,-1450 580.15,-1438 580.15,-1438 580.15,-1432 586.15,-1426 592.15,-1426 592.15,-1426 705.15,-1426 705.15,-1426 711.15,-1426 717.15,-1432 717.15,-1438 717.15,-1438 717.15,-1450 717.15,-1450 717.15,-1456 711.15,-1462 705.15,-1462"/>
<text text-anchor="middle" x="648.65" y="-1440.2" font-family="Helvetica,sans-Serif" font-size="16.00" fill="#e6edf3">Sense / Decide</text>
</g>
<!-- S_1011&#45;&gt;S_1020 -->
<g id="edge9" class="edge">
<title>S_1011&#45;&gt;S_1020</title>
<path fill="none" stroke="#9aa4b2" d="M648.65,-1533.97C648.65,-1516.84 648.65,-1490.22 648.65,-1470.56"/>
<polygon fill="#9aa4b2" stroke="#9aa4b2" points="651.45,-1470.34 648.65,-1462.34 645.85,-1470.34 651.45,-1470.34"/>
<text text-anchor="middle" x="709.65" y="-1494.6" font-family="Helvetica,sans-Serif" font-size="13.00" fill="#94a3b8">next labeled block</text>
</g>
<!-- S_1020&#45;&gt;S_100 -->
<g id="edge11" class="edge">
<title>S_1020&#45;&gt;S_100</title>
<path fill="none" stroke="#9aa4b2" d="M698.78,-1425.97C754.41,-1407.07 844.07,-1376.61 902.68,-1356.69"/>
<polygon fill="#9aa4b2" stroke="#9aa4b2" points="903.71,-1359.3 910.39,-1354.08 901.91,-1354 903.71,-1359.3"/>
<text text-anchor="middle" x="859.15" y="-1386.6" font-family="Helvetica,sans-Serif" font-size="13.00" fill="#94a3b8">if Wait = 0</text>
</g>
<!-- S_1020&#45;&gt;S_1020 -->
<g id="edge12" class="edge">
<title>S_1020&#45;&gt;S_1020</title>
<path fill="none" stroke="#9aa4b2" d="M717.49,-1454.09C737.58,-1453.75 753.15,-1450.38 753.15,-1444 753.15,-1438.52 741.65,-1435.26 725.67,-1434.23"/>
<polygon fill="#9aa4b2" stroke="#9aa4b2" points="725.6,-1431.43 717.49,-1433.91 725.37,-1437.02 725.6,-1431.43"/>
<text text-anchor="middle" x="761.65" y="-1440.6" font-family="Helvetica,sans-Serif" font-size="13.00" fill="#94a3b8">go</text>
</g>
<!-- S_1040 -->
<g id="node9" class="node">
<title>S_1040</title>
<path fill="#1a2028" stroke="#9aa4b2" stroke-width="1.2" d="M337.15,-1289C337.15,-1289 38.15,-1289 38.15,-1289 32.15,-1289 26.15,-1283 26.15,-1277 26.15,-1277 26.15,-1265 26.15,-1265 26.15,-1259 32.15,-1253 38.15,-1253 38.15,-1253 337.15,-1253 337.15,-1253 343.15,-1253 349.15,-1259 349.15,-1265 349.15,-1265 349.15,-1277 349.15,-1277 349.15,-1283 343.15,-1289 337.15,-1289"/>
<text text-anchor="middle" x="187.65" y="-1267.2" font-family="Helvetica,sans-Serif" font-size="16.00" fill="#e6edf3">When Distance became less than 300</text>
</g>
<!-- S_1020&#45;&gt;S_1040 -->
<g id="edge10" class="edge">
<title>S_1020&#45;&gt;S_1040</title>
<path fill="none" stroke="#9aa4b2" d="M602.76,-1425.98C517.01,-1394.17 332.88,-1325.87 241.45,-1291.96"/>
<polygon fill="#9aa4b2" stroke="#9aa4b2" points="242.17,-1289.24 233.69,-1289.08 240.22,-1294.49 242.17,-1289.24"/>
<text text-anchor="middle" x="581.65" y="-1386.6" font-family="Helvetica,sans-Serif" font-size="13.00" fill="#94a3b8">if Distance &lt; 300</text>
</g>
<!-- S_1040&#45;&gt;S_1010 -->
<g id="edge13" class="edge">
<title>S_1040&#45;&gt;S_1010</title>
<path fill="none" stroke="#9aa4b2" d="M189.07,-1252.96C190.84,-1230.2 193.65,-1188.59 193.65,-1153 193.65,-1153 193.65,-1153 193.65,-989 193.65,-938.44 539.17,-902.78 696.84,-889.14"/>
<polygon fill="#9aa4b2" stroke="#9aa4b2" points="697.39,-891.9 705.12,-888.43 696.91,-886.32 697.39,-891.9"/>
<text text-anchor="middle" x="233.15" y="-1094.6" font-family="Helvetica,sans-Serif" font-size="13.00" fill="#94a3b8">if count = 0</text>
</g>
<!-- S_1041 -->
<g id="node10" class="node">
<title>S_1041</title>
<path fill="#1a2028" stroke="#9aa4b2" stroke-width="1.2" d="M640.15,-1116C640.15,-1116 527.15,-1116 527.15,-1116 521.15,-1116 515.15,-1110 515.15,-1104 515.15,-1104 515.15,-1092 515.15,-1092 515.15,-1086 521.15,-1080 527.15,-1080 527.15,-1080 640.15,-1080 640.15,-1080 646.15,-1080 652.15,-1086 652.15,-1092 652.15,-1092 652.15,-1104 652.15,-1104 652.15,-1110 646.15,-1116 640.15,-1116"/>
<text text-anchor="middle" x="583.65" y="-1094.2" font-family="Helvetica,sans-Serif" font-size="16.00" fill="#e6edf3">Sense / Decide</text>
</g>
<!-- S_1043 -->
<g id="node12" class="node">
<title>S_1043</title>
<path fill="#1a2028" stroke="#9aa4b2" stroke-width="1.2" d="M683.65,-1008C683.65,-1008 483.65,-1008 483.65,-1008 477.65,-1008 471.65,-1002 471.65,-996 471.65,-996 471.65,-984 471.65,-984 471.65,-978 477.65,-972 483.65,-972 483.65,-972 683.65,-972 683.65,-972 689.65,-972 695.65,-978 695.65,-984 695.65,-984 695.65,-996 695.65,-996 695.65,-1002 689.65,-1008 683.65,-1008"/>
<text text-anchor="middle" x="583.65" y="-986.2" font-family="Helvetica,sans-Serif" font-size="16.00" fill="#e6edf3">At the time of loop_cnt=2</text>
</g>
<!-- S_1041&#45;&gt;S_1043 -->
<g id="edge14" class="edge">
<title>S_1041&#45;&gt;S_1043</title>
<path fill="none" stroke="#9aa4b2" d="M583.65,-1079.97C583.65,-1062.84 583.65,-1036.22 583.65,-1016.56"/>
<polygon fill="#9aa4b2" stroke="#9aa4b2" points="586.45,-1016.34 583.65,-1008.34 580.85,-1016.34 586.45,-1016.34"/>
<text text-anchor="middle" x="632.65" y="-1040.6" font-family="Helvetica,sans-Serif" font-size="13.00" fill="#94a3b8">if loop_cnt = 2</text>
</g>
<!-- S_1042 -->
<g id="node11" class="node">
<title>S_1042</title>
<path fill="#1a2028" stroke="#9aa4b2" stroke-width="1.2" d="M943.65,-1008C943.65,-1008 743.65,-1008 743.65,-1008 737.65,-1008 731.65,-1002 731.65,-996 731.65,-996 731.65,-984 731.65,-984 731.65,-978 737.65,-972 743.65,-972 743.65,-972 943.65,-972 943.65,-972 949.65,-972 955.65,-978 955.65,-984 955.65,-984 955.65,-996 955.65,-996 955.65,-1002 949.65,-1008 943.65,-1008"/>
<text text-anchor="middle" x="843.65" y="-986.2" font-family="Helvetica,sans-Serif" font-size="16.00" fill="#e6edf3">At the time of loop_cnt=1</text>
</g>
<!-- S_1042&#45;&gt;S_1010 -->
<g id="edge15" class="edge">
<title>S_1042&#45;&gt;S_1010</title>
<path fill="none" stroke="#9aa4b2" d="M826.05,-971.6C818.3,-963.37 809.42,-953.14 802.65,-943 795.28,-931.98 788.7,-918.81 783.68,-907.62"/>
<polygon fill="#9aa4b2" stroke="#9aa4b2" points="786.22,-906.45 780.46,-900.23 781.09,-908.69 786.22,-906.45"/>
<text text-anchor="middle" x="811.15" y="-932.6" font-family="Helvetica,sans-Serif" font-size="13.00" fill="#94a3b8">go</text>
</g>
<!-- S_1043&#45;&gt;S_1010 -->
<g id="edge16" class="edge">
<title>S_1043&#45;&gt;S_1010</title>
<path fill="none" stroke="#9aa4b2" d="M614.17,-971.97C647.18,-953.56 699.84,-924.18 735.54,-904.26"/>
<polygon fill="#9aa4b2" stroke="#9aa4b2" points="737.26,-906.51 742.88,-900.16 734.53,-901.62 737.26,-906.51"/>
<text text-anchor="middle" x="699.15" y="-932.6" font-family="Helvetica,sans-Serif" font-size="13.00" fill="#94a3b8">go</text>
</g>
<!-- S_1110 -->
<g id="node14" class="node">
<title>S_1110</title>
<path fill="#1a2028" stroke="#9aa4b2" stroke-width="1.2" d="M811.65,-684C811.65,-684 659.65,-684 659.65,-684 653.65,-684 647.65,-678 647.65,-672 647.65,-672 647.65,-660 647.65,-660 647.65,-654 653.65,-648 659.65,-648 659.65,-648 811.65,-648 811.65,-648 817.65,-648 823.65,-654 823.65,-660 823.65,-660 823.65,-672 823.65,-672 823.65,-678 817.65,-684 811.65,-684"/>
<text text-anchor="middle" x="735.65" y="-662.2" font-family="Helvetica,sans-Serif" font-size="16.00" fill="#e6edf3">Select First Average</text>
</g>
<!-- S_1100&#45;&gt;S_1110 -->
<g id="edge17" class="edge">
<title>S_1100&#45;&gt;S_1110</title>
<path fill="none" stroke="#9aa4b2" d="M767.54,-755.97C761.35,-738.69 751.69,-711.74 744.62,-692.03"/>
<polygon fill="#9aa4b2" stroke="#9aa4b2" points="747.2,-690.93 741.86,-684.34 741.93,-692.82 747.2,-690.93"/>
<text text-anchor="middle" x="806.65" y="-716.6" font-family="Helvetica,sans-Serif" font-size="13.00" fill="#94a3b8">if loop_cnt = 1</text>
</g>
<!-- S_1100&#45;&gt;S_1110 -->
<g id="edge18" class="edge">
<title>S_1100&#45;&gt;S_1110</title>
<path fill="none" stroke="#9aa4b2" d="M709.2,-764.04C666.11,-756.57 614.97,-744.35 601.65,-727 584.26,-704.35 607.75,-690.04 639.67,-681.1"/>
<polygon fill="#9aa4b2" stroke="#9aa4b2" points="640.46,-683.78 647.49,-679.05 639.04,-678.37 640.46,-683.78"/>
<text text-anchor="middle" x="672.65" y="-716.6" font-family="Helvetica,sans-Serif" font-size="13.00" fill="#94a3b8">if ave2 &lt;= temp_ave</text>
</g>
<!-- S_1200 -->
<g id="node15" class="node">
<title>S_1200</title>
<path fill="#1a2028" stroke="#9aa4b2" stroke-width="1.2" d="M937.65,-576C937.65,-576 785.65,-576 785.65,-576 779.65,-576 773.65,-570 773.65,-564 773.65,-564 773.65,-552 773.65,-552 773.65,-546 779.65,-540 785.65,-540 785.65,-540 937.65,-540 937.65,-540 943.65,-540 949.65,-546 949.65,-552 949.65,-552 949.65,-564 949.65,-564 949.65,-570 943.65,-576 937.65,-576"/>
<text text-anchor="middle" x="861.65" y="-554.2" font-family="Helvetica,sans-Serif" font-size="16.00" fill="#e6edf3">Reset Scan Counter</text>
</g>
<!-- S_1100&#45;&gt;S_1200 -->
<g id="edge19" class="edge">
<title>S_1100&#45;&gt;S_1200</title>
<path fill="none" stroke="#9aa4b2" d="M831.14,-755.76C844.38,-748.97 856.86,-739.67 864.65,-727 891.81,-682.83 879.81,-619.01 869.93,-584.11"/>
<polygon fill="#9aa4b2" stroke="#9aa4b2" points="872.58,-583.18 867.62,-576.3 867.21,-584.77 872.58,-583.18"/>
<text text-anchor="middle" x="890.15" y="-662.6" font-family="Helvetica,sans-Serif" font-size="13.00" fill="#94a3b8">go</text>
</g>
<!-- S_1110&#45;&gt;S_1200 -->
<g id="edge20" class="edge">
<title>S_1110&#45;&gt;S_1200</title>
<path fill="none" stroke="#9aa4b2" d="M755.89,-647.97C777.26,-630 811.04,-601.57 834.66,-581.7"/>
<polygon fill="#9aa4b2" stroke="#9aa4b2" points="836.72,-583.63 841.04,-576.34 833.11,-579.35 836.72,-583.63"/>
<text text-anchor="middle" x="815.15" y="-608.6" font-family="Helvetica,sans-Serif" font-size="13.00" fill="#94a3b8">go</text>
</g>
<!-- S_2000 -->
<g id="node16" class="node">
<title>S_2000</title>
<path fill="#1a2028" stroke="#9aa4b2" stroke-width="1.2" d="M918.15,-468C918.15,-468 805.15,-468 805.15,-468 799.15,-468 793.15,-462 793.15,-456 793.15,-456 793.15,-444 793.15,-444 793.15,-438 799.15,-432 805.15,-432 805.15,-432 918.15,-432 918.15,-432 924.15,-432 930.15,-438 930.15,-444 930.15,-444 930.15,-456 930.15,-456 930.15,-462 924.15,-468 918.15,-468"/>
<text text-anchor="middle" x="861.65" y="-446.2" font-family="Helvetica,sans-Serif" font-size="16.00" fill="#e6edf3">Sense / Decide</text>
</g>
<!-- S_1200&#45;&gt;S_2000 -->
<g id="edge21" class="edge">
<title>S_1200&#45;&gt;S_2000</title>
<path fill="none" stroke="#9aa4b2" d="M861.19,-539.96C860.98,-531.29 860.75,-520.59 860.65,-511 860.52,-499.57 860.69,-486.93 860.92,-476.2"/>
<polygon fill="#9aa4b2" stroke="#9aa4b2" points="863.72,-476.13 861.11,-468.07 858.12,-476 863.72,-476.13"/>
<text text-anchor="middle" x="921.65" y="-500.6" font-family="Helvetica,sans-Serif" font-size="13.00" fill="#94a3b8">next labeled block</text>
</g>
<!-- S_2000&#45;&gt;S_100 -->
<g id="edge29" class="edge">
<title>S_2000&#45;&gt;S_100</title>
<path fill="none" stroke="#9aa4b2" d="M930.42,-464.5C950.91,-471.37 972.05,-481.65 987.65,-497 1008,-517.03 1010.65,-528.44 1010.65,-557 1010.65,-937 1010.65,-937 1010.65,-937 1010.65,-974.29 975.64,-1227.81 964.21,-1309.61"/>
<polygon fill="#9aa4b2" stroke="#9aa4b2" points="961.4,-1309.54 963.06,-1317.85 966.94,-1310.31 961.4,-1309.54"/>
<text text-anchor="middle" x="1019.15" y="-878.6" font-family="Helvetica,sans-Serif" font-size="13.00" fill="#94a3b8">go</text>
</g>
<!-- S_133 -->
<g id="node17" class="node">
<title>S_133</title>
<path fill="#1a2028" stroke="#9aa4b2" stroke-width="1.2" d="M1309.15,-360C1309.15,-360 1222.15,-360 1222.15,-360 1216.15,-360 1210.15,-354 1210.15,-348 1210.15,-348 1210.15,-336 1210.15,-336 1210.15,-330 1216.15,-324 1222.15,-324 1222.15,-324 1309.15,-324 1309.15,-324 1315.15,-324 1321.15,-330 1321.15,-336 1321.15,-336 1321.15,-348 1321.15,-348 1321.15,-354 1315.15,-360 1309.15,-360"/>
<text text-anchor="middle" x="1265.65" y="-338.2" font-family="Helvetica,sans-Serif" font-size="16.00" fill="#e6edf3">Action Loop</text>
</g>
<!-- S_2000&#45;&gt;S_133 -->
<g id="edge28" class="edge">
<title>S_2000&#45;&gt;S_133</title>
<path fill="none" stroke="#9aa4b2" d="M930.32,-439.73C980.54,-432.12 1050.02,-419.84 1109.65,-403 1115.05,-401.47 1170.9,-379.88 1214.25,-363.03"/>
<polygon fill="#9aa4b2" stroke="#9aa4b2" points="1215.46,-365.56 1221.9,-360.05 1213.43,-360.34 1215.46,-365.56"/>
<text text-anchor="middle" x="1200.65" y="-392.6" font-family="Helvetica,sans-Serif" font-size="13.00" fill="#94a3b8">if Distance &lt; 300</text>
</g>
<!-- S_2010 -->
<g id="node18" class="node">
<title>S_2010</title>
<path fill="#1a2028" stroke="#9aa4b2" stroke-width="1.2" d="M571.15,-360C571.15,-360 484.15,-360 484.15,-360 478.15,-360 472.15,-354 472.15,-348 472.15,-348 472.15,-336 472.15,-336 472.15,-330 478.15,-324 484.15,-324 484.15,-324 571.15,-324 571.15,-324 577.15,-324 583.15,-330 583.15,-336 583.15,-336 583.15,-348 583.15,-348 583.15,-354 577.15,-360 571.15,-360"/>
<text text-anchor="middle" x="527.65" y="-338.2" font-family="Helvetica,sans-Serif" font-size="16.00" fill="#e6edf3">Action Loop</text>
</g>
<!-- S_2000&#45;&gt;S_2010 -->
<g id="edge27" class="edge">
<title>S_2000&#45;&gt;S_2010</title>
<path fill="none" stroke="#9aa4b2" d="M793.08,-442.64C723.08,-435.26 619.85,-421.68 584.65,-403 568.44,-394.4 554.21,-379.44 544.03,-366.62"/>
<polygon fill="#9aa4b2" stroke="#9aa4b2" points="546.16,-364.8 539.08,-360.15 541.72,-368.2 546.16,-364.8"/>
<text text-anchor="middle" x="624.15" y="-392.6" font-family="Helvetica,sans-Serif" font-size="13.00" fill="#94a3b8">if pan &gt; &#45;90</text>
</g>
<!-- S_2020 -->
<g id="node20" class="node">
<title>S_2020</title>
<path fill="#1a2028" stroke="#9aa4b2" stroke-width="1.2" d="M718.15,-360C718.15,-360 631.15,-360 631.15,-360 625.15,-360 619.15,-354 619.15,-348 619.15,-348 619.15,-336 619.15,-336 619.15,-330 625.15,-324 631.15,-324 631.15,-324 718.15,-324 718.15,-324 724.15,-324 730.15,-330 730.15,-336 730.15,-336 730.15,-348 730.15,-348 730.15,-354 724.15,-360 718.15,-360"/>
<text text-anchor="middle" x="674.65" y="-338.2" font-family="Helvetica,sans-Serif" font-size="16.00" fill="#e6edf3">Action Loop</text>
</g>
<!-- S_2000&#45;&gt;S_2020 -->
<g id="edge26" class="edge">
<title>S_2000&#45;&gt;S_2020</title>
<path fill="none" stroke="#9aa4b2" d="M793,-440.23C747.46,-432.88 693.45,-420.73 678.65,-403 670.79,-393.58 669.3,-380.17 669.99,-368.42"/>
<polygon fill="#9aa4b2" stroke="#9aa4b2" points="672.8,-368.47 670.82,-360.23 667.23,-367.91 672.8,-368.47"/>
<text text-anchor="middle" x="718.15" y="-392.6" font-family="Helvetica,sans-Serif" font-size="13.00" fill="#94a3b8">if pan &gt; &#45;50</text>
</g>
<!-- S_2030 -->
<g id="node22" class="node">
<title>S_2030</title>
<path fill="#1a2028" stroke="#9aa4b2" stroke-width="1.2" d="M406.15,-144C406.15,-144 319.15,-144 319.15,-144 313.15,-144 307.15,-138 307.15,-132 307.15,-132 307.15,-120 307.15,-120 307.15,-114 313.15,-108 319.15,-108 319.15,-108 406.15,-108 406.15,-108 412.15,-108 418.15,-114 418.15,-120 418.15,-120 418.15,-132 418.15,-132 418.15,-138 412.15,-144 406.15,-144"/>
<text text-anchor="middle" x="362.65" y="-122.2" font-family="Helvetica,sans-Serif" font-size="16.00" fill="#e6edf3">Action Loop</text>
</g>
<!-- S_2000&#45;&gt;S_2030 -->
<g id="edge25" class="edge">
<title>S_2000&#45;&gt;S_2030</title>
<path fill="none" stroke="#9aa4b2" d="M846.99,-431.97C825.73,-407.49 784.79,-361.2 747.65,-324 727.64,-303.96 724.26,-296.62 700.65,-281 609.11,-220.47 489.89,-172.36 420.26,-146.9"/>
<polygon fill="#9aa4b2" stroke="#9aa4b2" points="420.91,-144.16 412.44,-144.06 419,-149.43 420.91,-144.16"/>
<text text-anchor="middle" x="759.15" y="-284.6" font-family="Helvetica,sans-Serif" font-size="13.00" fill="#94a3b8">if pan &gt; &#45;20</text>
</g>
<!-- S_3010 -->
<g id="node24" class="node">
<title>S_3010</title>
<path fill="#1a2028" stroke="#9aa4b2" stroke-width="1.2" d="M1015.15,-360C1015.15,-360 928.15,-360 928.15,-360 922.15,-360 916.15,-354 916.15,-348 916.15,-348 916.15,-336 916.15,-336 916.15,-330 922.15,-324 928.15,-324 928.15,-324 1015.15,-324 1015.15,-324 1021.15,-324 1027.15,-330 1027.15,-336 1027.15,-336 1027.15,-348 1027.15,-348 1027.15,-354 1021.15,-360 1015.15,-360"/>
<text text-anchor="middle" x="971.65" y="-338.2" font-family="Helvetica,sans-Serif" font-size="16.00" fill="#e6edf3">Action Loop</text>
</g>
<!-- S_2000&#45;&gt;S_3010 -->
<g id="edge22" class="edge">
<title>S_2000&#45;&gt;S_3010</title>
<path fill="none" stroke="#9aa4b2" d="M875.9,-431.82C886.43,-419.47 901.36,-402.65 915.65,-389 924.14,-380.89 933.88,-372.57 942.84,-365.28"/>
<polygon fill="#9aa4b2" stroke="#9aa4b2" points="944.71,-367.37 949.19,-360.18 941.2,-363.01 944.71,-367.37"/>
<text text-anchor="middle" x="953.15" y="-392.6" font-family="Helvetica,sans-Serif" font-size="13.00" fill="#94a3b8">if pan &gt; 50</text>
</g>
<!-- S_3020 -->
<g id="node26" class="node">
<title>S_3020</title>
<path fill="#1a2028" stroke="#9aa4b2" stroke-width="1.2" d="M1162.15,-360C1162.15,-360 1075.15,-360 1075.15,-360 1069.15,-360 1063.15,-354 1063.15,-348 1063.15,-348 1063.15,-336 1063.15,-336 1063.15,-330 1069.15,-324 1075.15,-324 1075.15,-324 1162.15,-324 1162.15,-324 1168.15,-324 1174.15,-330 1174.15,-336 1174.15,-336 1174.15,-348 1174.15,-348 1174.15,-354 1168.15,-360 1162.15,-360"/>
<text text-anchor="middle" x="1118.65" y="-338.2" font-family="Helvetica,sans-Serif" font-size="16.00" fill="#e6edf3">Action Loop</text>
</g>
<!-- S_2000&#45;&gt;S_3020 -->
<g id="edge23" class="edge">
<title>S_2000&#45;&gt;S_3020</title>
<path fill="none" stroke="#9aa4b2" d="M916.33,-431.92C940.85,-423.83 969.97,-413.63 995.65,-403 1024.2,-391.19 1055.48,-375.89 1079.36,-363.7"/>
<polygon fill="#9aa4b2" stroke="#9aa4b2" points="1080.68,-366.17 1086.52,-360.03 1078.12,-361.19 1080.68,-366.17"/>
<text text-anchor="middle" x="1063.15" y="-392.6" font-family="Helvetica,sans-Serif" font-size="13.00" fill="#94a3b8">if pan &gt; 20</text>
</g>
<!-- S_3030 -->
<g id="node28" class="node">
<title>S_3030</title>
<path fill="#1a2028" stroke="#9aa4b2" stroke-width="1.2" d="M1422.15,-144C1422.15,-144 1335.15,-144 1335.15,-144 1329.15,-144 1323.15,-138 1323.15,-132 1323.15,-132 1323.15,-120 1323.15,-120 1323.15,-114 1329.15,-108 1335.15,-108 1335.15,-108 1422.15,-108 1422.15,-108 1428.15,-108 1434.15,-114 1434.15,-120 1434.15,-120 1434.15,-132 1434.15,-132 1434.15,-138 1428.15,-144 1422.15,-144"/>
<text text-anchor="middle" x="1378.65" y="-122.2" font-family="Helvetica,sans-Serif" font-size="16.00" fill="#e6edf3">Action Loop</text>
</g>
<!-- S_2000&#45;&gt;S_3030 -->
<g id="edge24" class="edge">
<title>S_2000&#45;&gt;S_3030</title>
<path fill="none" stroke="#9aa4b2" d="M862.03,-431.81C863.51,-405.42 870.05,-354.76 897.65,-324 1009.42,-199.42 1211.72,-151.95 1314.7,-135.25"/>
<polygon fill="#9aa4b2" stroke="#9aa4b2" points="1315.38,-137.98 1322.84,-133.96 1314.5,-132.45 1315.38,-137.98"/>
<text text-anchor="middle" x="974.15" y="-284.6" font-family="Helvetica,sans-Serif" font-size="13.00" fill="#94a3b8">if pan &gt; 0</text>
</g>
<!-- S_133&#45;&gt;S_130 -->
<g id="edge30" class="edge">
<title>S_133&#45;&gt;S_130</title>
<path fill="none" stroke="#9aa4b2" d="M1267.27,-360.1C1268.15,-372.11 1268.85,-388.56 1267.65,-403 1249.45,-622.19 1193.58,-882.79 1175.42,-963.75"/>
<polygon fill="#9aa4b2" stroke="#9aa4b2" points="1172.61,-963.45 1173.58,-971.87 1178.08,-964.69 1172.61,-963.45"/>
<text text-anchor="middle" x="1244.15" y="-662.6" font-family="Helvetica,sans-Serif" font-size="13.00" fill="#94a3b8">go</text>
</g>
<!-- S_2011 -->
<g id="node19" class="node">
<title>S_2011</title>
<path fill="#1a2028" stroke="#9aa4b2" stroke-width="1.2" d="M332.15,-252C332.15,-252 245.15,-252 245.15,-252 239.15,-252 233.15,-246 233.15,-240 233.15,-240 233.15,-228 233.15,-228 233.15,-222 239.15,-216 245.15,-216 245.15,-216 332.15,-216 332.15,-216 338.15,-216 344.15,-222 344.15,-228 344.15,-228 344.15,-240 344.15,-240 344.15,-246 338.15,-252 332.15,-252"/>
<text text-anchor="middle" x="288.65" y="-230.2" font-family="Helvetica,sans-Serif" font-size="16.00" fill="#e6edf3">Action Loop</text>
</g>
<!-- S_2010&#45;&gt;S_2011 -->
<g id="edge31" class="edge">
<title>S_2010&#45;&gt;S_2011</title>
<path fill="none" stroke="#9aa4b2" d="M472.08,-324.99C447.05,-317.08 417.4,-306.71 391.65,-295 367.32,-283.94 341.33,-268.77 321.54,-256.45"/>
<polygon fill="#9aa4b2" stroke="#9aa4b2" points="322.81,-253.94 314.54,-252.05 319.83,-258.68 322.81,-253.94"/>
<text text-anchor="middle" x="452.65" y="-284.6" font-family="Helvetica,sans-Serif" font-size="13.00" fill="#94a3b8">next labeled block</text>
</g>
<!-- S_2011&#45;&gt;S_100 -->
<g id="edge32" class="edge">
<title>S_2011&#45;&gt;S_100</title>
<path fill="none" stroke="#9aa4b2" d="M271.62,-252.08C253.88,-271.75 228.65,-305.9 228.65,-341 228.65,-721 228.65,-721 228.65,-721 228.65,-1099.35 378.06,-1246.11 445.65,-1289 479.67,-1310.59 719.3,-1324.52 859.39,-1330.92"/>
<polygon fill="#9aa4b2" stroke="#9aa4b2" points="859.53,-1333.73 867.64,-1331.29 859.78,-1328.13 859.53,-1333.73"/>
<text text-anchor="middle" x="288.65" y="-770.6" font-family="Helvetica,sans-Serif" font-size="13.00" fill="#94a3b8">if Distance &gt; 300</text>
</g>
<!-- S_2011&#45;&gt;S_2030 -->
<g id="edge33" class="edge">
<title>S_2011&#45;&gt;S_2030</title>
<path fill="none" stroke="#9aa4b2" d="M300.54,-215.97C312.82,-198.38 332.08,-170.78 345.9,-150.99"/>
<polygon fill="#9aa4b2" stroke="#9aa4b2" points="348.26,-152.5 350.54,-144.34 343.67,-149.3 348.26,-152.5"/>
<text text-anchor="middle" x="339.15" y="-176.6" font-family="Helvetica,sans-Serif" font-size="13.00" fill="#94a3b8">go</text>
</g>
<!-- S_2021 -->
<g id="node21" class="node">
<title>S_2021</title>
<path fill="#1a2028" stroke="#9aa4b2" stroke-width="1.2" d="M479.15,-252C479.15,-252 392.15,-252 392.15,-252 386.15,-252 380.15,-246 380.15,-240 380.15,-240 380.15,-228 380.15,-228 380.15,-222 386.15,-216 392.15,-216 392.15,-216 479.15,-216 479.15,-216 485.15,-216 491.15,-222 491.15,-228 491.15,-228 491.15,-240 491.15,-240 491.15,-246 485.15,-252 479.15,-252"/>
<text text-anchor="middle" x="435.65" y="-230.2" font-family="Helvetica,sans-Serif" font-size="16.00" fill="#e6edf3">Action Loop</text>
</g>
<!-- S_2020&#45;&gt;S_2021 -->
<g id="edge34" class="edge">
<title>S_2020&#45;&gt;S_2021</title>
<path fill="none" stroke="#9aa4b2" d="M636.25,-323.97C594.21,-305.33 526.83,-275.44 481.91,-255.52"/>
<polygon fill="#9aa4b2" stroke="#9aa4b2" points="482.8,-252.85 474.35,-252.16 480.53,-257.97 482.8,-252.85"/>
<text text-anchor="middle" x="630.65" y="-284.6" font-family="Helvetica,sans-Serif" font-size="13.00" fill="#94a3b8">next labeled block</text>
</g>
<!-- S_2021&#45;&gt;S_100 -->
<g id="edge35" class="edge">
<title>S_2021&#45;&gt;S_100</title>
<path fill="none" stroke="#9aa4b2" d="M432.25,-252.2C426.79,-281.43 416.65,-342.69 416.65,-395 416.65,-1207 416.65,-1207 416.65,-1207 416.65,-1296.9 701.69,-1323.72 859.12,-1331.67"/>
<polygon fill="#9aa4b2" stroke="#9aa4b2" points="859.31,-1334.49 867.44,-1332.08 859.59,-1328.89 859.31,-1334.49"/>
<text text-anchor="middle" x="474.65" y="-770.6" font-family="Helvetica,sans-Serif" font-size="13.00" fill="#94a3b8">if Distance &gt; 300</text>
</g>
<!-- S_2021&#45;&gt;S_2030 -->
<g id="edge36" class="edge">
<title>S_2021&#45;&gt;S_2030</title>
<path fill="none" stroke="#9aa4b2" d="M423.92,-215.97C411.81,-198.38 392.8,-170.78 379.17,-150.99"/>
<polygon fill="#9aa4b2" stroke="#9aa4b2" points="381.43,-149.34 374.59,-144.34 376.82,-152.52 381.43,-149.34"/>
<text text-anchor="middle" x="412.15" y="-176.6" font-family="Helvetica,sans-Serif" font-size="13.00" fill="#94a3b8">go</text>
</g>
<!-- S_2031 -->
<g id="node23" class="node">
<title>S_2031</title>
<path fill="#1a2028" stroke="#9aa4b2" stroke-width="1.2" d="M243.15,-36C243.15,-36 156.15,-36 156.15,-36 150.15,-36 144.15,-30 144.15,-24 144.15,-24 144.15,-12 144.15,-12 144.15,-6 150.15,0 156.15,0 156.15,0 243.15,0 243.15,0 249.15,0 255.15,-6 255.15,-12 255.15,-12 255.15,-24 255.15,-24 255.15,-30 249.15,-36 243.15,-36"/>
<text text-anchor="middle" x="199.65" y="-14.2" font-family="Helvetica,sans-Serif" font-size="16.00" fill="#e6edf3">Action Loop</text>
</g>
<!-- S_2030&#45;&gt;S_2031 -->
<g id="edge37" class="edge">
<title>S_2030&#45;&gt;S_2031</title>
<path fill="none" stroke="#9aa4b2" d="M307.06,-117.02C263.94,-109.57 209.27,-96.88 195.65,-79 188.19,-69.22 188.45,-55.73 190.89,-44.02"/>
<polygon fill="#9aa4b2" stroke="#9aa4b2" points="193.61,-44.71 192.87,-36.27 188.18,-43.33 193.61,-44.71"/>
<text text-anchor="middle" x="256.65" y="-68.6" font-family="Helvetica,sans-Serif" font-size="13.00" fill="#94a3b8">next labeled block</text>
</g>
<!-- S_2031&#45;&gt;S_100 -->
<g id="edge38" class="edge">
<title>S_2031&#45;&gt;S_100</title>
<path fill="none" stroke="#9aa4b2" d="M143.97,-25C85.4,-34.77 1.65,-60.08 1.65,-125 1.65,-1207 1.65,-1207 1.65,-1207 1.65,-1244.85 -4.94,-1265.4 24.65,-1289 56.84,-1314.67 623.62,-1328.51 859.22,-1333.18"/>
<polygon fill="#9aa4b2" stroke="#9aa4b2" points="859.41,-1335.98 867.46,-1333.34 859.52,-1330.38 859.41,-1335.98"/>
<text text-anchor="middle" x="59.65" y="-662.6" font-family="Helvetica,sans-Serif" font-size="13.00" fill="#94a3b8">if Distance &gt; 300</text>
</g>
<!-- S_2031&#45;&gt;S_2030 -->
<g id="edge39" class="edge">
<title>S_2031&#45;&gt;S_2030</title>
<path fill="none" stroke="#9aa4b2" d="M255.17,-31.71C277.75,-38.83 303.09,-49.49 322.65,-65 334.59,-74.47 344.22,-88.5 351.04,-100.61"/>
<polygon fill="#9aa4b2" stroke="#9aa4b2" points="348.67,-102.12 354.91,-107.85 353.6,-99.47 348.67,-102.12"/>
<text text-anchor="middle" x="345.15" y="-68.6" font-family="Helvetica,sans-Serif" font-size="13.00" fill="#94a3b8">go</text>
</g>
<!-- S_3011 -->
<g id="node25" class="node">
<title>S_3011</title>
<path fill="#1a2028" stroke="#9aa4b2" stroke-width="1.2" d="M1360.15,-252C1360.15,-252 1273.15,-252 1273.15,-252 1267.15,-252 1261.15,-246 1261.15,-240 1261.15,-240 1261.15,-228 1261.15,-228 1261.15,-222 1267.15,-216 1273.15,-216 1273.15,-216 1360.15,-216 1360.15,-216 1366.15,-216 1372.15,-222 1372.15,-228 1372.15,-228 1372.15,-240 1372.15,-240 1372.15,-246 1366.15,-252 1360.15,-252"/>
<text text-anchor="middle" x="1316.65" y="-230.2" font-family="Helvetica,sans-Serif" font-size="16.00" fill="#e6edf3">Action Loop</text>
</g>
<!-- S_3010&#45;&gt;S_3011 -->
<g id="edge40" class="edge">
<title>S_3010&#45;&gt;S_3011</title>
<path fill="none" stroke="#9aa4b2" d="M1027.08,-323.97C1088.85,-304.99 1188.55,-274.36 1253.35,-254.45"/>
<polygon fill="#9aa4b2" stroke="#9aa4b2" points="1254.24,-257.1 1261.07,-252.08 1252.6,-251.75 1254.24,-257.1"/>
<text text-anchor="middle" x="1225.65" y="-284.6" font-family="Helvetica,sans-Serif" font-size="13.00" fill="#94a3b8">next labeled block</text>
</g>
<!-- S_3011&#45;&gt;S_100 -->
<g id="edge41" class="edge">
<title>S_3011&#45;&gt;S_100</title>
<path fill="none" stroke="#9aa4b2" d="M1327.93,-252.43C1345.31,-281 1376.65,-340.12 1376.65,-395 1376.65,-667 1376.65,-667 1376.65,-667 1376.65,-738.12 1378.65,-755.88 1378.65,-827 1378.65,-1207 1378.65,-1207 1378.65,-1207 1378.65,-1273.05 1185.42,-1308.45 1061.72,-1324.35"/>
<polygon fill="#9aa4b2" stroke="#9aa4b2" points="1061.26,-1321.59 1053.68,-1325.37 1061.96,-1327.14 1061.26,-1321.59"/>
<text text-anchor="middle" x="1435.65" y="-770.6" font-family="Helvetica,sans-Serif" font-size="13.00" fill="#94a3b8">if Distance &gt; 300</text>
</g>
<!-- S_3011&#45;&gt;S_3030 -->
<g id="edge42" class="edge">
<title>S_3011&#45;&gt;S_3030</title>
<path fill="none" stroke="#9aa4b2" d="M1326.61,-215.97C1336.85,-198.46 1352.9,-171.02 1364.47,-151.25"/>
<polygon fill="#9aa4b2" stroke="#9aa4b2" points="1366.88,-152.66 1368.51,-144.34 1362.05,-149.83 1366.88,-152.66"/>
<text text-anchor="middle" x="1359.15" y="-176.6" font-family="Helvetica,sans-Serif" font-size="13.00" fill="#94a3b8">go</text>
</g>
<!-- S_3021 -->
<g id="node27" class="node">
<title>S_3021</title>
<path fill="#1a2028" stroke="#9aa4b2" stroke-width="1.2" d="M1507.15,-252C1507.15,-252 1420.15,-252 1420.15,-252 1414.15,-252 1408.15,-246 1408.15,-240 1408.15,-240 1408.15,-228 1408.15,-228 1408.15,-222 1414.15,-216 1420.15,-216 1420.15,-216 1507.15,-216 1507.15,-216 1513.15,-216 1519.15,-222 1519.15,-228 1519.15,-228 1519.15,-240 1519.15,-240 1519.15,-246 1513.15,-252 1507.15,-252"/>
<text text-anchor="middle" x="1463.65" y="-230.2" font-family="Helvetica,sans-Serif" font-size="16.00" fill="#e6edf3">Action Loop</text>
</g>
<!-- S_3020&#45;&gt;S_3021 -->
<g id="edge43" class="edge">
<title>S_3020&#45;&gt;S_3021</title>
<path fill="none" stroke="#9aa4b2" d="M1174.41,-327.85C1209.44,-319.27 1255.44,-307.38 1295.65,-295 1334.97,-282.89 1378.72,-267.19 1411.72,-254.89"/>
<polygon fill="#9aa4b2" stroke="#9aa4b2" points="1412.93,-257.43 1419.44,-252 1410.97,-252.18 1412.93,-257.43"/>
<text text-anchor="middle" x="1397.65" y="-284.6" font-family="Helvetica,sans-Serif" font-size="13.00" fill="#94a3b8">next labeled block</text>
</g>
<!-- S_3021&#45;&gt;S_100 -->
<g id="edge44" class="edge">
<title>S_3021&#45;&gt;S_100</title>
<path fill="none" stroke="#9aa4b2" d="M1497.66,-252.05C1527.66,-269.78 1566.65,-300.59 1566.65,-341 1566.65,-1207 1566.65,-1207 1566.65,-1207 1566.65,-1308.95 1234.19,-1330.1 1061.76,-1334.21"/>
<polygon fill="#9aa4b2" stroke="#9aa4b2" points="1061.61,-1331.41 1053.68,-1334.39 1061.74,-1337.01 1061.61,-1331.41"/>
<text text-anchor="middle" x="1624.65" y="-770.6" font-family="Helvetica,sans-Serif" font-size="13.00" fill="#94a3b8">if Distance &gt; 300</text>
</g>
<!-- S_3021&#45;&gt;S_3030 -->
<g id="edge45" class="edge">
<title>S_3021&#45;&gt;S_3030</title>
<path fill="none" stroke="#9aa4b2" d="M1449.99,-215.97C1435.82,-198.3 1413.56,-170.54 1397.68,-150.73"/>
<polygon fill="#9aa4b2" stroke="#9aa4b2" points="1399.74,-148.83 1392.55,-144.34 1395.37,-152.33 1399.74,-148.83"/>
<text text-anchor="middle" x="1434.15" y="-176.6" font-family="Helvetica,sans-Serif" font-size="13.00" fill="#94a3b8">go</text>
</g>
<!-- S_3031 -->
<g id="node29" class="node">
<title>S_3031</title>
<path fill="#1a2028" stroke="#9aa4b2" stroke-width="1.2" d="M1585.15,-36C1585.15,-36 1498.15,-36 1498.15,-36 1492.15,-36 1486.15,-30 1486.15,-24 1486.15,-24 1486.15,-12 1486.15,-12 1486.15,-6 1492.15,0 1498.15,0 1498.15,0 1585.15,0 1585.15,0 1591.15,0 1597.15,-6 1597.15,-12 1597.15,-12 1597.15,-24 1597.15,-24 1597.15,-30 1591.15,-36 1585.15,-36"/>
<text text-anchor="middle" x="1541.65" y="-14.2" font-family="Helvetica,sans-Serif" font-size="16.00" fill="#e6edf3">Action Loop</text>
</g>
<!-- S_3030&#45;&gt;S_3031 -->
<g id="edge46" class="edge">
<title>S_3030&#45;&gt;S_3031</title>
<path fill="none" stroke="#9aa4b2" d="M1371.87,-107.73C1367.98,-94.69 1365.47,-77.04 1374.65,-65 1387.45,-48.2 1436.47,-35.99 1478.11,-28.39"/>
<polygon fill="#9aa4b2" stroke="#9aa4b2" points="1478.67,-31.13 1486.06,-26.98 1477.69,-25.62 1478.67,-31.13"/>
<text text-anchor="middle" x="1435.65" y="-68.6" font-family="Helvetica,sans-Serif" font-size="13.00" fill="#94a3b8">next labeled block</text>
</g>
<!-- S_3031&#45;&gt;S_100 -->
<g id="edge47" class="edge">
<title>S_3031&#45;&gt;S_100</title>
<path fill="none" stroke="#9aa4b2" d="M1597.29,-25.28C1655.24,-35.28 1737.65,-60.78 1737.65,-125 1737.65,-1207 1737.65,-1207 1737.65,-1207 1737.65,-1307.2 1625.28,-1266.49 1527.65,-1289 1367.65,-1325.89 1176.32,-1334.27 1061.84,-1335.61"/>
<polygon fill="#9aa4b2" stroke="#9aa4b2" points="1061.7,-1332.81 1053.73,-1335.69 1061.76,-1338.41 1061.7,-1332.81"/>
<text text-anchor="middle" x="1795.65" y="-662.6" font-family="Helvetica,sans-Serif" font-size="13.00" fill="#94a3b8">if Distance &gt; 300</text>
</g>
<!-- S_3031&#45;&gt;S_3030 -->
<g id="edge48" class="edge">
<title>S_3031&#45;&gt;S_3030</title>
<path fill="none" stroke="#9aa4b2" d="M1533.91,-36.15C1527.12,-49.48 1516.07,-67.57 1501.65,-79 1484.3,-92.75 1462.42,-102.69 1441.94,-109.73"/>
<polygon fill="#9aa4b2" stroke="#9aa4b2" points="1440.89,-107.12 1434.17,-112.29 1442.64,-112.44 1440.89,-107.12"/>
<text text-anchor="middle" x="1523.15" y="-68.6" font-family="Helvetica,sans-Serif" font-size="13.00" fill="#94a3b8">go</text>
</g>
<!-- S_9000&#45;&gt;S_9000 -->
<g id="edge49" class="edge">
<title>S_9000&#45;&gt;S_9000</title>
<path fill="none" stroke="#9aa4b2" d="M475.84,-1453.92C494.95,-1455.01 511.65,-1451.7 511.65,-1444 511.65,-1437.44 499.54,-1434.07 484.15,-1433.88"/>
<polygon fill="#9aa4b2" stroke="#9aa4b2" points="483.78,-1431.09 475.84,-1434.08 483.9,-1436.69 483.78,-1431.09"/>
<text text-anchor="middle" x="536.65" y="-1440.6" font-family="Helvetica,sans-Serif" font-size="13.00" fill="#94a3b8">resume</text>
</g>
</g>
</svg>
