<?xml version="1.0" encoding="UTF-8" standalone="no"?>
<!DOCTYPE svg PUBLIC "-//W3C//DTD SVG 1.1//EN"
 "http://www.w3.org/Graphics/SVG/1.1/DTD/svg11.dtd">
<!-- Generated by graphviz version 2.42.4 (0)
 -->
<!-- Title: G Pages: 1 -->
<svg width="767pt" height="752pt"
 viewBox="0.00 0.00 766.50 752.00" xmlns="http://www.w3.org/2000/svg" xmlns:xlink="http://www.w3.org/1999/xlink">
<g id="graph0" class="graph" transform="scale(1 1) rotate(0) translate(18 734)">
<title>G</title>
<polygon fill="#101418" stroke="transparent" points="-18,18 -18,-734 748.5,-734 748.5,18 -18,18"/>
<!-- A -->
<g id="node1" class="node">
<title>A</title>
<path fill="#1a2028" stroke="#9aa4b2" stroke-width="1.2" d="M300.5,-716C300.5,-716 270.5,-716 270.5,-716 264.5,-716 258.5,-710 258.5,-704 258.5,-704 258.5,-692 258.5,-692 258.5,-686 264.5,-680 270.5,-680 270.5,-680 300.5,-680 300.5,-680 306.5,-680 312.5,-686 312.5,-692 312.5,-692 312.5,-704 312.5,-704 312.5,-710 306.5,-716 300.5,-716"/>
<text text-anchor="middle" x="285.5" y="-694.2" font-family="Helvetica,sans-Serif" font-size="16.00" fill="#e6edf3">Boot</text>
</g>
<!-- B -->
<g id="node2" class="node">
<title>B</title>
<path fill="#1a2028" stroke="#9aa4b2" stroke-width="1.2" d="M384,-608C384,-608 187,-608 187,-608 181,-608 175,-602 175,-596 175,-596 175,-584 175,-584 175,-578 181,-572 187,-572 187,-572 384,-572 384,-572 390,-572 396,-578 396,-584 396,-584 396,-596 396,-596 396,-602 390,-608 384,-608"/>
<text text-anchor="middle" x="285.5" y="-586.2" font-family="Helvetica,sans-Serif" font-size="16.00" fill="#e6edf3">Stand And Start Advance</text>
</g>
<!-- A&#45;&gt;B -->
<g id="edge1" class="edge">
<title>A&#45;&gt;B</title>
<path fill="none" stroke="#9aa4b2" d="M285.5,-679.97C285.5,-662.84 285.5,-636.22 285.5,-616.56"/>
<polygon fill="#9aa4b2" stroke="#9aa4b2" points="288.3,-616.34 285.5,-608.34 282.7,-616.34 288.3,-616.34"/>
<text text-anchor="middle" x="303" y="-640.6" font-family="Helvetica,sans-Serif" font-size="13.00" fill="#94a3b8">entry</text>
</g>
<!-- C -->
<g id="node3" class="node">
<title>C</title>
<path fill="#1a2028" stroke="#9aa4b2" stroke-width="1.2" d="M273.66,-498.05C273.66,-498.05 139.34,-475.95 139.34,-475.95 133.42,-474.97 133.42,-473.03 139.34,-472.05 139.34,-472.05 273.66,-449.95 273.66,-449.95 279.58,-448.97 291.42,-448.97 297.34,-449.95 297.34,-449.95 431.66,-472.05 431.66,-472.05 437.58,-473.03 437.58,-474.97 431.66,-475.95 431.66,-475.95 297.34,-498.05 297.34,-498.05 291.42,-499.03 279.58,-499.03 273.66,-498.05"/>
<text text-anchor="middle" x="285.5" y="-470.2" font-family="Helvetica,sans-Serif" font-size="16.00" fill="#e6edf3">Forward Blocked?</text>
</g>
<!-- B&#45;&gt;C -->
<g id="edge2" class="edge">
<title>B&#45;&gt;C</title>
<path fill="none" stroke="#9aa4b2" d="M285.5,-571.69C285.5,-554.93 285.5,-529.1 285.5,-508.35"/>
<polygon fill="#9aa4b2" stroke="#9aa4b2" points="288.3,-508.1 285.5,-500.1 282.7,-508.1 288.3,-508.1"/>
<text text-anchor="middle" x="347.5" y="-532.6" font-family="Helvetica,sans-Serif" font-size="13.00" fill="#94a3b8">enter sensing loop</text>
</g>
<!-- C&#45;&gt;C -->
<g id="edge3" class="edge">
<title>C&#45;&gt;C</title>
<path fill="none" stroke="#9aa4b2" d="M377.06,-484.98C430.08,-487.24 479.5,-483.58 479.5,-474 479.5,-464.91 434.97,-461.15 385.1,-462.73"/>
<polygon fill="#9aa4b2" stroke="#9aa4b2" points="384.95,-459.93 377.06,-463.02 385.16,-465.52 384.95,-459.93"/>
<text text-anchor="middle" x="496.5" y="-470.6" font-family="Helvetica,sans-Serif" font-size="13.00" fill="#94a3b8">clear</text>
</g>
<!-- D -->
<g id="node4" class="node">
<title>D</title>
<path fill="#1a2028" stroke="#9aa4b2" stroke-width="1.2" d="M364.5,-376C364.5,-376 206.5,-376 206.5,-376 200.5,-376 194.5,-370 194.5,-364 194.5,-364 194.5,-352 194.5,-352 194.5,-346 200.5,-340 206.5,-340 206.5,-340 364.5,-340 364.5,-340 370.5,-340 376.5,-346 376.5,-352 376.5,-352 376.5,-364 376.5,-364 376.5,-370 370.5,-376 364.5,-376"/>
<text text-anchor="middle" x="285.5" y="-354.2" font-family="Helvetica,sans-Serif" font-size="16.00" fill="#e6edf3">Stop Forward Motion</text>
</g>
<!-- C&#45;&gt;D -->
<g id="edge4" class="edge">
<title>C&#45;&gt;D</title>
<path fill="none" stroke="#9aa4b2" d="M285.5,-447.98C285.5,-429.11 285.5,-403.33 285.5,-384.37"/>
<polygon fill="#9aa4b2" stroke="#9aa4b2" points="288.3,-384.19 285.5,-376.19 282.7,-384.19 288.3,-384.19"/>
<text text-anchor="middle" x="311.5" y="-408.6" font-family="Helvetica,sans-Serif" font-size="13.00" fill="#94a3b8">blocked</text>
</g>
<!-- E -->
<g id="node5" class="node">
<title>E</title>
<path fill="#1a2028" stroke="#9aa4b2" stroke-width="1.2" d="M362,-268C362,-268 209,-268 209,-268 203,-268 197,-262 197,-256 197,-256 197,-244 197,-244 197,-238 203,-232 209,-232 209,-232 362,-232 362,-232 368,-232 374,-238 374,-244 374,-244 374,-256 374,-256 374,-262 368,-268 362,-268"/>
<text text-anchor="middle" x="285.5" y="-246.2" font-family="Helvetica,sans-Serif" font-size="16.00" fill="#e6edf3">Scan Left And Right</text>
</g>
<!-- D&#45;&gt;E -->
<g id="edge5" class="edge">
<title>D&#45;&gt;E</title>
<path fill="none" stroke="#9aa4b2" d="M285.5,-339.97C285.5,-322.84 285.5,-296.22 285.5,-276.56"/>
<polygon fill="#9aa4b2" stroke="#9aa4b2" points="288.3,-276.34 285.5,-268.34 282.7,-276.34 288.3,-276.34"/>
<text text-anchor="middle" x="322" y="-300.6" font-family="Helvetica,sans-Serif" font-size="13.00" fill="#94a3b8">begin scan</text>
</g>
<!-- F -->
<g id="node6" class="node">
<title>F</title>
<path fill="#1a2028" stroke="#9aa4b2" stroke-width="1.2" d="M332.71,-157.76C332.71,-157.76 219.29,-136.24 219.29,-136.24 213.39,-135.12 213.39,-132.88 219.29,-131.76 219.29,-131.76 332.71,-110.24 332.71,-110.24 338.61,-109.12 350.39,-109.12 356.29,-110.24 356.29,-110.24 469.71,-131.76 469.71,-131.76 475.61,-132.88 475.61,-135.12 469.71,-136.24 469.71,-136.24 356.29,-157.76 356.29,-157.76 350.39,-158.88 338.61,-158.88 332.71,-157.76"/>
<text text-anchor="middle" x="344.5" y="-130.2" font-family="Helvetica,sans-Serif" font-size="16.00" fill="#e6edf3">Best Direction?</text>
</g>
<!-- E&#45;&gt;F -->
<g id="edge6" class="edge">
<title>E&#45;&gt;F</title>
<path fill="none" stroke="#9aa4b2" d="M294.46,-231.69C303.57,-214.08 317.88,-186.44 328.86,-165.22"/>
<polygon fill="#9aa4b2" stroke="#9aa4b2" points="331.4,-166.4 332.59,-158.01 326.43,-163.82 331.4,-166.4"/>
<text text-anchor="middle" x="376.5" y="-192.6" font-family="Helvetica,sans-Serif" font-size="13.00" fill="#94a3b8">compare openings</text>
</g>
<!-- G -->
<g id="node7" class="node">
<title>G</title>
<path fill="#1a2028" stroke="#9aa4b2" stroke-width="1.2" d="M87,-36C87,-36 12,-36 12,-36 6,-36 0,-30 0,-24 0,-24 0,-12 0,-12 0,-6 6,0 12,0 12,0 87,0 87,0 93,0 99,-6 99,-12 99,-12 99,-24 99,-24 99,-30 93,-36 87,-36"/>
<text text-anchor="middle" x="49.5" y="-14.2" font-family="Helvetica,sans-Serif" font-size="16.00" fill="#e6edf3">Turn Right</text>
</g>
<!-- F&#45;&gt;G -->
<g id="edge7" class="edge">
<title>F&#45;&gt;G</title>
<path fill="none" stroke="#9aa4b2" d="M286.86,-118.88C250.81,-109.3 203.73,-95.41 163.5,-79 136.52,-68 107.48,-52.66 85.46,-40.24"/>
<polygon fill="#9aa4b2" stroke="#9aa4b2" points="86.61,-37.67 78.27,-36.15 83.84,-42.54 86.61,-37.67"/>
<text text-anchor="middle" x="220.5" y="-68.6" font-family="Helvetica,sans-Serif" font-size="13.00" fill="#94a3b8">right side clearer</text>
</g>
<!-- H -->
<g id="node8" class="node">
<title>H</title>
<path fill="#1a2028" stroke="#9aa4b2" stroke-width="1.2" d="M585.5,-36C585.5,-36 523.5,-36 523.5,-36 517.5,-36 511.5,-30 511.5,-24 511.5,-24 511.5,-12 511.5,-12 511.5,-6 517.5,0 523.5,0 523.5,0 585.5,0 585.5,0 591.5,0 597.5,-6 597.5,-12 597.5,-12 597.5,-24 597.5,-24 597.5,-30 591.5,-36 585.5,-36"/>
<text text-anchor="middle" x="554.5" y="-14.2" font-family="Helvetica,sans-Serif" font-size="16.00" fill="#e6edf3">Turn Left</text>
</g>
<!-- F&#45;&gt;H -->
<g id="edge8" class="edge">
<title>F&#45;&gt;H</title>
<path fill="none" stroke="#9aa4b2" d="M378.71,-114.43C416.35,-94 476.7,-61.23 515.98,-39.91"/>
<polygon fill="#9aa4b2" stroke="#9aa4b2" points="517.36,-42.35 523.05,-36.07 514.69,-37.43 517.36,-42.35"/>
<text text-anchor="middle" x="520" y="-68.6" font-family="Helvetica,sans-Serif" font-size="13.00" fill="#94a3b8">left side clearer</text>
</g>
<!-- I -->
<g id="node9" class="node">
<title>I</title>
<path fill="#1a2028" stroke="#9aa4b2" stroke-width="1.2" d="M311.5,-36C311.5,-36 183.5,-36 183.5,-36 177.5,-36 171.5,-30 171.5,-24 171.5,-24 171.5,-12 171.5,-12 171.5,-6 177.5,0 183.5,0 183.5,0 311.5,0 311.5,0 317.5,0 323.5,-6 323.5,-12 323.5,-12 323.5,-24 323.5,-24 323.5,-30 317.5,-36 311.5,-36"/>
<text text-anchor="middle" x="247.5" y="-14.2" font-family="Helvetica,sans-Serif" font-size="16.00" fill="#e6edf3">Signal And Retry</text>
</g>
<!-- F&#45;&gt;I -->
<g id="edge9" class="edge">
<title>F&#45;&gt;I</title>
<path fill="none" stroke="#9aa4b2" d="M326.03,-111.29C309.26,-91.59 284.61,-62.61 267.41,-42.4"/>
<polygon fill="#9aa4b2" stroke="#9aa4b2" points="269.42,-40.44 262.11,-36.17 265.16,-44.07 269.42,-40.44"/>
<text text-anchor="middle" x="360.5" y="-68.6" font-family="Helvetica,sans-Serif" font-size="13.00" fill="#94a3b8">still blocked nearby</text>
</g>
<!-- G&#45;&gt;B -->
<g id="edge10" class="edge">
<title>G&#45;&gt;B</title>
<path fill="none" stroke="#9aa4b2" d="M40.42,-36.24C29.75,-58.11 13.5,-97.3 13.5,-133 13.5,-475 13.5,-475 13.5,-475 13.5,-546.14 93.62,-573.64 166.89,-583.91"/>
<polygon fill="#9aa4b2" stroke="#9aa4b2" points="166.57,-586.7 174.87,-584.97 167.3,-581.14 166.57,-586.7"/>
<text text-anchor="middle" x="69" y="-300.6" font-family="Helvetica,sans-Serif" font-size="13.00" fill="#94a3b8">resume advance</text>
</g>
<!-- H&#45;&gt;B -->
<g id="edge11" class="edge">
<title>H&#45;&gt;B</title>
<path fill="none" stroke="#9aa4b2" d="M571.92,-36.21C591.17,-57.15 619.5,-94.5 619.5,-133 619.5,-475 619.5,-475 619.5,-475 619.5,-521.86 500.28,-553.42 404.29,-571.23"/>
<polygon fill="#9aa4b2" stroke="#9aa4b2" points="403.62,-568.51 396.25,-572.7 404.63,-574.02 403.62,-568.51"/>
<text text-anchor="middle" x="675" y="-300.6" font-family="Helvetica,sans-Serif" font-size="13.00" fill="#94a3b8">resume advance</text>
</g>
<!-- I&#45;&gt;E -->
<g id="edge12" class="edge">
<title>I&#45;&gt;E</title>
<path fill="none" stroke="#9aa4b2" d="M171.48,-34.09C154.67,-40.88 138.58,-50.73 127.5,-65 101.57,-98.39 100.93,-123.64 122.5,-160 142.46,-193.64 180.11,-215.39 214.2,-228.95"/>
<polygon fill="#9aa4b2" stroke="#9aa4b2" points="213.4,-231.64 221.87,-231.89 215.4,-226.41 213.4,-231.64"/>
<text text-anchor="middle" x="156" y="-130.6" font-family="Helvetica,sans-Serif" font-size="13.00" fill="#94a3b8">retry scan</text>
</g>
</g>
</svg>
