<?xml version="1.0" encoding="UTF-8" standalone="no"?>
<!DOCTYPE svg PUBLIC "-//W3C//DTD SVG 1.1//EN"
 "http://www.w3.org/Graphics/SVG/1.1/DTD/svg11.dtd">
<!-- Generated by graphviz version 2.42.4 (0)
 -->
<!-- Title: G Pages: 1 -->
<svg width="1891pt" height="1606pt"
 viewBox="0.00 0.00 1890.65 1606.00" xmlns="http://www.w3.org/2000/svg" xmlns:xlink="http://www.w3.org/1999/xlink">
<g id="graph0" class="graph" transform="scale(1 1) rotate(0) translate(18 1588)">
<title>G</title>
<polygon fill="#101418" stroke="transparent" points="-18,18 -18,-1588 1872.65,-1588 1872.65,18 -18,18"/>
<!-- S_INIT -->
<g id="node1" class="node">
<title>S_INIT</title>
<path fill="#1a2028" stroke="#9aa4b2" stroke-width="1.2" d="M496.15,-1570C496.15,-1570 373.15,-1570 373.15,-1570 367.15,-1570 361.15,-1564 361.15,-1558 361.15,-1558 361.15,-1546 361.15,-1546 361.15,-1540 367.15,-1534 373.15,-1534 373.15,-1534 496.15,-1534 496.15,-1534 502.15,-1534 508.15,-1540 508.15,-1546 508.15,-1546 508.15,-1558 508.15,-1558 508.15,-1564 502.15,-1570 496.15,-1570"/>
<text text-anchor="middle" x="434.65" y="-1548.2" font-family="Helvetica,sans-Serif" font-size="16.00" fill="#e6edf3">Boot / Safe Pose</text>
</g>
<!-- S_9000 -->
<g id="node30" class="node">
<title>S_9000</title>
<path fill="#1a2028" stroke="#9aa4b2" stroke-width="1.2" d="M463.65,-1462C463.65,-1462 405.65,-1462 405.65,-1462 399.65,-1462 393.65,-1456 393.65,-1450 393.65,-1450 393.65,-1438 393.65,-1438 393.65,-1432 399.65,-1426 405.65,-1426 405.65,-1426 463.65,-1426 463.65,-1426 469.65,-1426 475.65,-1432 475.65,-1438 475.65,-1438 475.65,-1450 475.65,-1450 475.65,-1456 469.65,-1462 463.65,-1462"/>
<text text-anchor="middle" x="434.65" y="-1440.2" font-family="Helvetica,sans-Serif" font-size="16.00" fill="#e6edf3">Recover</text>
</g>
<!-- S_INIT&#45;&gt;S_9000 -->
<g id="edge1" class="edge">
<title>S_INIT&#45;&gt;S_9000</title>
<path fill="none" stroke="#9aa4b2" d="M434.65,-1533.97C434.65,-1516.84 434.65,-1490.22 434.65,-1470.56"/>
<polygon fill="#9aa4b2" stroke="#9aa4b2" points="437.45,-1470.34 434.65,-1462.34 431.85,-1470.34 437.45,-1470.34"/>
<text text-anchor="middle" x="509.65" y="-1494.6" font-family="Helvetica,sans-Serif" font-size="13.00" fill="#94a3b8">on Gsensor_status &amp; 1</text>
</g>
<!-- S_100 -->
<g id="node2" class="node">
<title>S_100</title>
<path fill="#1a2028" stroke="#9aa4b2" stroke-width="1.2" d="M1042.65,-1354C1042.65,-1354 880.65,-1354 880.65,-1354 874.65,-1354 868.65,-1348 868.65,-1342 868.65,-1342 868.65,-1330 868.65,-1330 868.65,-1324 874.65,-1318 880.65,-1318 880.65,-1318 1042.65,-1318 1042.65,-1318 1048.65,-1318 1054.65,-1324 1054.65,-1330 1054.65,-1330 1054.65,-1342 1054.65,-1342 1054.65,-1348 1048.65,-1354 1042.65,-1354"/>
<text text-anchor="middle" x="961.65" y="-1332.2" font-family="Helvetica,sans-Serif" font-size="16.00" fill="#e6edf3">Repeat Forward Walk</text>
</g>
<!-- S_110 -->
<g id="node3" class="node">
<title>S_110</title>
<path fill="#1a2028" stroke="#9aa4b2" stroke-width="1.2" d="M1142.15,-1224C1142.15,-1224 1029.15,-1224 1029.15,-1224 1023.15,-1224 1017.15,-1218 1017.15,-1212 1017.15,-1212 1017.15,-1200 1017.15,-1200 1017.15,-1194 1023.15,-1188 1029.15,-1188 1029.15,-1188 1142.15,-1188 1142.15,-1188 1148.15,-1188 1154.15,-1194 1154.15,-1200 1154.15,-1200 1154.15,-1212 1154.15,-1212 1154.15,-1218 1148.15,-1224 1142.15,-1224"/>
<text text-anchor="middle" x="1085.65" y="-1202.2" font-family="Helvetica,sans-Serif" font-size="16.00" fill="#e6edf3">Sense / Decide</text>
</g>
<!-- S_100&#45;&gt;S_110 -->
<g id="edge2" class="edge">
<title>S_100&#45;&gt;S_110</title>
<path fill="none" stroke="#9aa4b2" d="M978.37,-1317.74C1000.28,-1295.12 1038.78,-1255.38 1063.21,-1230.17"/>
<polygon fill="#9aa4b2" stroke="#9aa4b2" points="1065.24,-1232.09 1068.79,-1224.4 1061.22,-1228.2 1065.24,-1232.09"/>
<text text-anchor="middle" x="1104.15" y="-1267.6" font-family="Helvetica,sans-Serif" font-size="13.00" fill="#94a3b8">continue to monitor</text>
</g>
<!-- S_110&#45;&gt;S_110 -->
<g id="edge5" class="edge">
<title>S_110&#45;&gt;S_110</title>
<path fill="none" stroke="#9aa4b2" d="M1154.49,-1216.09C1174.58,-1215.75 1190.15,-1212.38 1190.15,-1206 1190.15,-1200.52 1178.65,-1197.26 1162.67,-1196.23"/>
<polygon fill="#9aa4b2" stroke="#9aa4b2" points="1162.6,-1193.43 1154.49,-1195.91 1162.37,-1199.02 1162.6,-1193.43"/>
<text text-anchor="middle" x="1198.65" y="-1202.6" font-family="Helvetica,sans-Serif" font-size="13.00" fill="#94a3b8">go</text>
</g>
<!-- S_120 -->
<g id="node4" class="node">
<title>S_120</title>
<path fill="#1a2028" stroke="#9aa4b2" stroke-width="1.2" d="M1312.65,-1116C1312.65,-1116 1028.65,-1116 1028.65,-1116 1022.65,-1116 1016.65,-1110 1016.65,-1104 1016.65,-1104 1016.65,-1092 1016.65,-1092 1016.65,-1086 1022.65,-1080 1028.65,-1080 1028.65,-1080 1312.65,-1080 1312.65,-1080 1318.65,-1080 1324.65,-1086 1324.65,-1092 1324.65,-1092 1324.65,-1104 1324.65,-1104 1324.65,-1110 1318.65,-1116 1312.65,-1116"/>
<text text-anchor="middle" x="1170.65" y="-1094.2" font-family="Helvetica,sans-Serif" font-size="16.00" fill="#e6edf3">When there was an obstacle in front</text>
</g>
<!-- S_110&#45;&gt;S_120 -->
<g id="edge3" class="edge">
<title>S_110&#45;&gt;S_120</title>
<path fill="none" stroke="#9aa4b2" d="M1064.22,-1187.83C1051.66,-1175.63 1039.99,-1159 1049.65,-1145 1057.04,-1134.28 1067.3,-1126.05 1078.73,-1119.74"/>
<polygon fill="#9aa4b2" stroke="#9aa4b2" points="1080.12,-1122.17 1085.99,-1116.05 1077.59,-1117.18 1080.12,-1122.17"/>
<text text-anchor="middle" x="1107.65" y="-1148.6" font-family="Helvetica,sans-Serif" font-size="13.00" fill="#94a3b8">if Distance &lt; 300</text>
</g>
<!-- S_110&#45;&gt;S_120 -->
<g id="edge4" class="edge">
<title>S_110&#45;&gt;S_120</title>
<path fill="none" stroke="#9aa4b2" d="M1137.66,-1187.96C1150.68,-1181.08 1163.09,-1171.68 1170.65,-1159 1176.83,-1148.63 1177.41,-1135.36 1176.2,-1123.93"/>
<polygon fill="#9aa4b2" stroke="#9aa4b2" points="1178.97,-1123.52 1175.06,-1116.01 1173.43,-1124.32 1178.97,-1123.52"/>
<text text-anchor="middle" x="1206.65" y="-1148.6" font-family="Helvetica,sans-Serif" font-size="13.00" fill="#94a3b8">if t &gt; 100</text>
</g>
<!-- S_130 -->
<g id="node5" class="node">
<title>S_130</title>
<path fill="#1a2028" stroke="#9aa4b2" stroke-width="1.2" d="M1244.15,-1008C1244.15,-1008 1097.15,-1008 1097.15,-1008 1091.15,-1008 1085.15,-1002 1085.15,-996 1085.15,-996 1085.15,-984 1085.15,-984 1085.15,-978 1091.15,-972 1097.15,-972 1097.15,-972 1244.15,-972 1244.15,-972 1250.15,-972 1256.15,-978 1256.15,-984 1256.15,-984 1256.15,-996 1256.15,-996 1256.15,-1002 1250.15,-1008 1244.15,-1008"/>
<text text-anchor="middle" x="1170.65" y="-986.2" font-family="Helvetica,sans-Serif" font-size="16.00" fill="#e6edf3">Head Scan Position</text>
</g>
<!-- S_120&#45;&gt;S_130 -->
<g id="edge6" class="edge">
<title>S_120&#45;&gt;S_130</title>
<path fill="none" stroke="#9aa4b2" d="M1170.65,-1079.97C1170.65,-1062.84 1170.65,-1036.22 1170.65,-1016.56"/>
<polygon fill="#9aa4b2" stroke="#9aa4b2" points="1173.45,-1016.34 1170.65,-1008.34 1167.85,-1016.34 1173.45,-1016.34"/>
<text text-anchor="middle" x="1231.65" y="-1040.6" font-family="Helvetica,sans-Serif" font-size="13.00" fill="#94a3b8">next labeled block</text>
</g>
<!-- S_1010 -->
<g id="node6" class="node">
<title>S_1010</title>
<path fill="#1a2028" stroke="#9aa4b2" stroke-width="1.2" d="M832.15,-900C832.15,-900 719.15,-900 719.15,-900 713.15,-900 707.15,-894 707.15,-888 707.15,-888 707.15,-876 707.15,-876 707.15,-870 713.15,-864 719.15,-864 719.15,-864 832.15,-864 832.15,-864 838.15,-864 844.15,-870 844.15,-876 844.15,-876 844.15,-888 844.15,-888 844.15,-894 838.15,-900 832.15,-900"/>
<text text-anchor="middle" x="775.65" y="-878.2" font-family="Helvetica,sans-Serif" font-size="16.00" fill="#e6edf3">Sense / Decide</text>
</g>
<!-- S_130&#45;&gt;S_1010 -->
<g id="edge7" class="edge">
<title>S_130&#45;&gt;S_1010</title>
<path fill="none" stroke="#9aa4b2" d="M1107.18,-971.97C1036.17,-952.91 921.38,-922.11 847.22,-902.21"/>
<polygon fill="#9aa4b2" stroke="#9aa4b2" points="847.73,-899.45 839.28,-900.08 846.28,-904.85 847.73,-899.45"/>
<text text-anchor="middle" x="1057.65" y="-932.6" font-family="Helvetica,sans-Serif" font-size="13.00" fill="#94a3b8">next labeled block</text>
</g>
<!-- S_1100 -->
<g id="node13" class="node">
<title>S_1100</title>
<path fill="#1a2028" stroke="#9aa4b2" stroke-width="1.2" d="M827.65,-792C827.65,-792 723.65,-792 723.65,-792 717.65,-792 711.65,-786 711.65,-780 711.65,-780 711.65,-768 711.65,-768 711.65,-762 717.65,-756 723.65,-756 723.65,-756 827.65,-756 827.65,-756 833.65,-756 839.65,-762 839.65,-768 839.65,-768 839.65,-780 839.65,-780 839.65,-786 833.65,-792 827.65,-792"/>
<text text-anchor="middle" x="775.65" y="-770.2" font-family="Helvetica,sans-Serif" font-size="16.00" fill="#e6edf3">Wait loop end</text>
</g>
<!-- S_1010&#45;&gt;S_1100 -->
<g id="edge8" class="edge">
<title>S_1010&#45;&gt;S_1100</title>
<path fill="none" stroke="#9aa4b2" d="M775.65,-863.97C775.65,-846.84 775.65,-820.22 775.65,-800.56"/>
<polygon fill="#9aa4b2" stroke="#9aa4b2" points="778.45,-800.34 775.65,-792.34 772.85,-800.34 778.45,-800.34"/>
<text text-anchor="middle" x="811.15" y="-824.6" font-family="Helvetica,sans-Serif" font-size="13.00" fill="#94a3b8">if Wait = 0</text>
</g>
<!-- S_1011 -->
<g id="node7" class="node">
<title>S_1011</title>
<path fill="#1a2028" stroke="#9aa4b2" stroke-width="1.2" d="M689.65,-1570C689.65,-1570 607.65,-1570 607.65,-1570 601.65,-1570 595.65,-1564 595.65,-1558 595.65,-1558 595.65,-1546 595.65,-1546 595.65,-1540 601.65,-1534 607.65,-1534 607.65,-1534 689.65,-1534 689.65,-1534 695.65,-1534 701.65,-1540 701.65,-1546 701.65,-1546 701.65,-1558 701.65,-1558 701.65,-1564 695.65,-1570 689.65,-1570"/>
<text text-anchor="middle" x="648.65" y="-1548.2" font-family="Helvetica,sans-Serif" font-size="16.00" fill="#e6edf3">State 1011</text>
</g>
<!-- S_1020 -->
<g id="node8" class="node">
<title>S_1020</title>
<path fill="#1a2028" stroke="#9aa4b2" stroke-width="1.2" d="M705.15,-1462C705.15,-1462 592.15,-1462 592.15,-1462 586.15,-1462 580.15,-1456 580.15,-1450 580.15,-1450 580.15,-1438 580.15,-1438 580.15,-1432 586.15,-1426 592.15,-1426 592.15,-1426 705.15,-1426 705.15,-1426 711.15,-1426 717.15,-1432 717.15,-1438 717.15,-1438 717.15,-1450 717.15,-1450 717.15,-1456 711.15,-1462 705.15,-1462"/>
<text text-anchor="middle" x="648.65" y="-1440.2" font-family="Helvetica,sans-Serif" font-size="16.00" fill="#e6edf3">Sense / Decide</text>
</g>
<!-- S_1011&#45;&gt;S_1020 -->
<g id="edge9" class="edge">
<title>S_1011&#45;&gt;S_1020</title>
<path fill="none" stroke="#9aa4b2" d="M648.65,-1533.97C648.65,-1516.84 648.65,-1490.22 648.65,-1470.56"/>
<polygon fill="#9aa4b2" stroke="#9aa4b2" points="651.45,-1470.34 648.65,-1462.34 645.85,-1470.34 651.45,-1470.34"/>
<text text-anchor="middle" x="709.65" y="-1494.6" font-family="Helvetica,sans-Serif" font-size="13.00" fill="#94a3b8">next labeled block</text>
</g>
<!-- S_1020&#45;&gt;S_100 -->
<g id="edge11" class="edge">
<title>S_1020&#45;&gt;S_100</title>
<path fill="none" stroke="#9aa4b2" d="M698.94,-1425.97C754.75,-1407.07 844.7,-1376.61 903.5,-1356.69"/>
<polygon fill="#9aa4b2" stroke="#9aa4b2" points="904.55,-1359.29 911.22,-1354.08 902.75,-1353.99 904.55,-1359.29"/>
<text text-anchor="middle" x="860.15" y="-1386.6" font-family="Helvetica,sans-Serif" font-size="13.00" fill="#94a3b8">if Wait = 0</text>
</g>
<!-- S_1020&#45;&gt;S_1020 -->
<g id="edge12" class="edge">
<title>S_1020&#45;&gt;S_1020</title>
<path fill="none" stroke="#9aa4b2" d="M717.49,-1454.09C737.58,-1453.75 753.15,-1450.38 753.15,-1444 753.15,-1438.52 741.65,-1435.26 725.67,-1434.23"/>
<polygon fill="#9aa4b2" stroke="#9aa4b2" points="725.6,-1431.43 717.49,-1433.91 725.37,-1437.02 725.6,-1431.43"/>
<text text-anchor="middle" x="761.65" y="-1440.6" font-family="Helvetica,sans-Serif" font-size="13.00" fill="#94a3b8">go</text>
</g>
<!-- S_1040 -->
<g id="node9" class="node">
<title>S_1040</title>
<path fill="#1a2028" stroke="#9aa4b2" stroke-width="1.2" d="M337.15,-1289C337.15,-1289 38.15,-1289 38.15,-1289 32.15,-1289 26.15,-1283 26.15,-1277 26.15,-1277 26.15,-1265 26.15,-1265 26.15,-1259 32.15,-1253 38.15,-1253 38.15,-1253 337.15,-1253 337.15,-1253 343.15,-1253 349.15,-1259 349.15,-1265 349.15,-1265 349.15,-1277 349.15,-1277 349.15,-1283 343.15,-1289 337.15,-1289"/>
<text text-anchor="middle" x="187.65" y="-1267.2" font-family="Helvetica,sans-Serif" font-size="16.00" fill="#e6edf3">When Distance became less than 300</text>
</g>
<!-- S_1020&#45;&gt;S_1040 -->
<g id="edge10" class="edge">
<title>S_1020&#45;&gt;S_1040</title>
<path fill="none" stroke="#9aa4b2" d="M602.76,-1425.98C517.01,-1394.17 332.88,-1325.87 241.45,-1291.96"/>
<polygon fill="#9aa4b2" stroke="#9aa4b2" points="242.17,-1289.24 233.69,-1289.08 240.22,-1294.49 242.17,-1289.24"/>
<text text-anchor="middle" x="581.65" y="-1386.6" font-family="Helvetica,sans-Serif" font-size="13.00" fill="#94a3b8">if Distance &lt; 300</text>
</g>
<!-- S_1040&#45;&gt;S_1010 -->
<g id="edge13" class="edge">
<title>S_1040&#45;&gt;S_1010</title>
<path fill="none" stroke="#9aa4b2" d="M187.89,-1252.95C188.18,-1230.17 188.65,-1188.55 188.65,-1153 188.65,-1153 188.65,-1153 188.65,-989 188.65,-937.78 539.21,-902.42 698.51,-889"/>
<polygon fill="#9aa4b2" stroke="#9aa4b2" points="699.14,-891.75 706.87,-888.3 698.67,-886.17 699.14,-891.75"/>
<text text-anchor="middle" x="228.15" y="-1094.6" font-family="Helvetica,sans-Serif" font-size="13.00" fill="#94a3b8">if count = 0</text>
</g>
<!-- S_1041 -->
<g id="node10" class="node">
<title>S_1041</title>
<path fill="#1a2028" stroke="#9aa4b2" stroke-width="1.2" d="M640.15,-1116C640.15,-1116 527.15,-1116 527.15,-1116 521.15,-1116 515.15,-1110 515.15,-1104 515.15,-1104 515.15,-1092 515.15,-1092 515.15,-1086 521.15,-1080 527.15,-1080 527.15,-1080 640.15,-1080 640.15,-1080 646.15,-1080 652.15,-1086 652.15,-1092 652.15,-1092 652.15,-1104 652.15,-1104 652.15,-1110 646.15,-1116 640.15,-1116"/>
<text text-anchor="middle" x="583.65" y="-1094.2" font-family="Helvetica,sans-Serif" font-size="16.00" fill="#e6edf3">Sense / Decide</text>
</g>
<!-- S_1043 -->
<g id="node12" class="node">
<title>S_1043</title>
<path fill="#1a2028" stroke="#9aa4b2" stroke-width="1.2" d="M683.65,-1008C683.65,-1008 483.65,-1008 483.65,-1008 477.65,-1008 471.65,-1002 471.65,-996 471.65,-996 471.65,-984 471.65,-984 471.65,-978 477.65,-972 483.65,-972 483.65,-972 683.65,-972 683.65,-972 689.65,-972 695.65,-978 695.65,-984 695.65,-984 695.65,-996 695.65,-996 695.65,-1002 689.65,-1008 683.65,-1008"/>
<text text-anchor="middle" x="583.65" y="-986.2" font-family="Helvetica,sans-Serif" font-size="16.00" fill="#e6edf3">At the time of loop_cnt=2</text>
</g>
<!-- S_1041&#45;&gt;S_1043 -->
<g id="edge14" class="edge">
<title>S_1041&#45;&gt;S_1043</title>
<path fill="none" stroke="#9aa4b2" d="M583.65,-1079.97C583.65,-1062.84 583.65,-1036.22 583.65,-1016.56"/>
<polygon fill="#9aa4b2" stroke="#9aa4b2" points="586.45,-1016.34 583.65,-1008.34 580.85,-1016.34 586.45,-1016.34"/>
<text text-anchor="middle" x="632.65" y="-1040.6" font-family="Helvetica,sans-Serif" font-size="13.00" fill="#94a3b8">if loop_cnt = 2</text>
</g>
<!-- S_1042 -->
<g id="node11" class="node">
<title>S_1042</title>
<path fill="#1a2028" stroke="#9aa4b2" stroke-width="1.2" d="M943.65,-1008C943.65,-1008 743.65,-1008 743.65,-1008 737.65,-1008 731.65,-1002 731.65,-996 731.65,-996 731.65,-984 731.65,-984 731.65,-978 737.65,-972 743.65,-972 743.65,-972 943.65,-972 943.65,-972 949.65,-972 955.65,-978 955.65,-984 955.65,-984 955.65,-996 955.65,-996 955.65,-1002 949.65,-1008 943.65,-1008"/>
<text text-anchor="middle" x="843.65" y="-986.2" font-family="Helvetica,sans-Serif" font-size="16.00" fill="#e6edf3">At the time of loop_cnt=1</text>
</g>
<!-- S_1042&#45;&gt;S_1010 -->
<g id="edge15" class="edge">
<title>S_1042&#45;&gt;S_1010</title>
<path fill="none" stroke="#9aa4b2" d="M825.92,-971.69C818.14,-963.47 809.28,-953.23 802.65,-943 795.55,-932.05 789.4,-918.92 784.78,-907.74"/>
<polygon fill="#9aa4b2" stroke="#9aa4b2" points="787.26,-906.39 781.69,-900 782.06,-908.47 787.26,-906.39"/>
<text text-anchor="middle" x="811.15" y="-932.6" font-family="Helvetica,sans-Serif" font-size="13.00" fill="#94a3b8">go</text>
</g>
<!-- S_1043&#45;&gt;S_1010 -->
<g id="edge16" class="edge">
<title>S_1043&#45;&gt;S_1010</title>
<path fill="none" stroke="#9aa4b2" d="M614.5,-971.97C647.85,-953.56 701.06,-924.18 737.13,-904.26"/>
<polygon fill="#9aa4b2" stroke="#9aa4b2" points="738.91,-906.48 744.56,-900.16 736.2,-901.58 738.91,-906.48"/>
<text text-anchor="middle" x="700.15" y="-932.6" font-family="Helvetica,sans-Serif" font-size="13.00" fill="#94a3b8">go</text>
</g>
<!-- S_1110 -->
<g id="node14" class="node">
<title>S_1110</title>
<path fill="#1a2028" stroke="#9aa4b2" stroke-width="1.2" d="M813.65,-684C813.65,-684 731.65,-684 731.65,-684 725.65,-684 719.65,-678 719.65,-672 719.65,-672 719.65,-660 719.65,-660 719.65,-654 725.65,-648 731.65,-648 731.65,-648 813.65,-648 813.65,-648 819.65,-648 825.65,-654 825.65,-660 825.65,-660 825.65,-672 825.65,-672 825.65,-678 819.65,-684 813.65,-684"/>
<text text-anchor="middle" x="772.65" y="-662.2" font-family="Helvetica,sans-Serif" font-size="16.00" fill="#e6edf3">State 1110</text>
</g>
<!-- S_1100&#45;&gt;S_1110 -->
<g id="edge17" class="edge">
<title>S_1100&#45;&gt;S_1110</title>
<path fill="none" stroke="#9aa4b2" d="M773.81,-755.98C772.97,-747.32 772.07,-736.61 771.65,-727 771.15,-715.58 771.27,-702.94 771.56,-692.21"/>
<polygon fill="#9aa4b2" stroke="#9aa4b2" points="774.36,-692.16 771.82,-684.08 768.76,-691.98 774.36,-692.16"/>
<text text-anchor="middle" x="820.65" y="-716.6" font-family="Helvetica,sans-Serif" font-size="13.00" fill="#94a3b8">if loop_cnt = 1</text>
</g>
<!-- S_1100&#45;&gt;S_1110 -->
<g id="edge18" class="edge">
<title>S_1100&#45;&gt;S_1110</title>
<path fill="none" stroke="#9aa4b2" d="M711.52,-771.23C678.78,-766.65 641.55,-755.01 620.65,-727 593.77,-690.99 658.32,-676.57 711.46,-670.81"/>
<polygon fill="#9aa4b2" stroke="#9aa4b2" points="711.87,-673.59 719.54,-669.99 711.3,-668.01 711.87,-673.59"/>
<text text-anchor="middle" x="691.65" y="-716.6" font-family="Helvetica,sans-Serif" font-size="13.00" fill="#94a3b8">if ave2 &lt;= temp_ave</text>
</g>
<!-- S_1200 -->
<g id="node15" class="node">
<title>S_1200</title>
<path fill="#1a2028" stroke="#9aa4b2" stroke-width="1.2" d="M902.65,-576C902.65,-576 820.65,-576 820.65,-576 814.65,-576 808.65,-570 808.65,-564 808.65,-564 808.65,-552 808.65,-552 808.65,-546 814.65,-540 820.65,-540 820.65,-540 902.65,-540 902.65,-540 908.65,-540 914.65,-546 914.65,-552 914.65,-552 914.65,-564 914.65,-564 914.65,-570 908.65,-576 902.65,-576"/>
<text text-anchor="middle" x="861.65" y="-554.2" font-family="Helvetica,sans-Serif" font-size="16.00" fill="#e6edf3">State 1200</text>
</g>
<!-- S_1100&#45;&gt;S_1200 -->
<g id="edge19" class="edge">
<title>S_1100&#45;&gt;S_1200</title>
<path fill="none" stroke="#9aa4b2" d="M839.87,-755.92C853.61,-749.18 866.44,-739.86 874.65,-727 902.62,-683.16 885.48,-619.21 872.39,-584.21"/>
<polygon fill="#9aa4b2" stroke="#9aa4b2" points="874.85,-582.81 869.34,-576.37 869.63,-584.84 874.85,-582.81"/>
<text text-anchor="middle" x="899.15" y="-662.6" font-family="Helvetica,sans-Serif" font-size="13.00" fill="#94a3b8">go</text>
</g>
<!-- S_1110&#45;&gt;S_1200 -->
<g id="edge20" class="edge">
<title>S_1110&#45;&gt;S_1200</title>
<path fill="none" stroke="#9aa4b2" d="M786.95,-647.97C801.85,-630.23 825.29,-602.3 841.94,-582.47"/>
<polygon fill="#9aa4b2" stroke="#9aa4b2" points="844.09,-584.27 847.09,-576.34 839.8,-580.67 844.09,-584.27"/>
<text text-anchor="middle" x="831.15" y="-608.6" font-family="Helvetica,sans-Serif" font-size="13.00" fill="#94a3b8">go</text>
</g>
<!-- S_2000 -->
<g id="node16" class="node">
<title>S_2000</title>
<path fill="#1a2028" stroke="#9aa4b2" stroke-width="1.2" d="M918.15,-468C918.15,-468 805.15,-468 805.15,-468 799.15,-468 793.15,-462 793.15,-456 793.15,-456 793.15,-444 793.15,-444 793.15,-438 799.15,-432 805.15,-432 805.15,-432 918.15,-432 918.15,-432 924.15,-432 930.15,-438 930.15,-444 930.15,-444 930.15,-456 930.15,-456 930.15,-462 924.15,-468 918.15,-468"/>
<text text-anchor="middle" x="861.65" y="-446.2" font-family="Helvetica,sans-Serif" font-size="16.00" fill="#e6edf3">Sense / Decide</text>
</g>
<!-- S_1200&#45;&gt;S_2000 -->
<g id="edge21" class="edge">
<title>S_1200&#45;&gt;S_2000</title>
<path fill="none" stroke="#9aa4b2" d="M861.19,-539.96C860.98,-531.29 860.75,-520.59 860.65,-511 860.52,-499.57 860.69,-486.93 860.92,-476.2"/>
<polygon fill="#9aa4b2" stroke="#9aa4b2" points="863.72,-476.13 861.11,-468.07 858.12,-476 863.72,-476.13"/>
<text text-anchor="middle" x="921.65" y="-500.6" font-family="Helvetica,sans-Serif" font-size="13.00" fill="#94a3b8">next labeled block</text>
</g>
<!-- S_2000&#45;&gt;S_100 -->
<g id="edge29" class="edge">
<title>S_2000&#45;&gt;S_100</title>
<path fill="none" stroke="#9aa4b2" d="M930.42,-464.5C950.91,-471.37 972.05,-481.65 987.65,-497 1008,-517.03 1010.65,-528.44 1010.65,-557 1010.65,-937 1010.65,-937 1010.65,-937 1010.65,-1010.57 977.25,-1233.95 965.6,-1309.62"/>
<polygon fill="#9aa4b2" stroke="#9aa4b2" points="962.81,-1309.36 964.35,-1317.69 968.34,-1310.22 962.81,-1309.36"/>
<text text-anchor="middle" x="1019.15" y="-878.6" font-family="Helvetica,sans-Serif" font-size="13.00" fill="#94a3b8">go</text>
</g>
<!-- S_133 -->
<g id="node17" class="node">
<title>S_133</title>
<path fill="#1a2028" stroke="#9aa4b2" stroke-width="1.2" d="M1309.15,-360C1309.15,-360 1222.15,-360 1222.15,-360 1216.15,-360 1210.15,-354 1210.15,-348 1210.15,-348 1210.15,-336 1210.15,-336 1210.15,-330 1216.15,-324 1222.15,-324 1222.15,-324 1309.15,-324 1309.15,-324 1315.15,-324 1321.15,-330 1321.15,-336 1321.15,-336 1321.15,-348 1321.15,-348 1321.15,-354 1315.15,-360 1309.15,-360"/>
<text text-anchor="middle" x="1265.65" y="-338.2" font-family="Helvetica,sans-Serif" font-size="16.00" fill="#e6edf3">Action Loop</text>
</g>
<!-- S_2000&#45;&gt;S_133 -->
<g id="edge28" class="edge">
<title>S_2000&#45;&gt;S_133</title>
<path fill="none" stroke="#9aa4b2" d="M930.32,-439.73C980.54,-432.12 1050.02,-419.84 1109.65,-403 1115.05,-401.47 1170.9,-379.88 1214.25,-363.03"/>
<polygon fill="#9aa4b2" stroke="#9aa4b2" points="1215.46,-365.56 1221.9,-360.05 1213.43,-360.34 1215.46,-365.56"/>
<text text-anchor="middle" x="1200.65" y="-392.6" font-family="Helvetica,sans-Serif" font-size="13.00" fill="#94a3b8">if Distance &lt; 300</text>
</g>
<!-- S_2010 -->
<g id="node18" class="node">
<title>S_2010</title>
<path fill="#1a2028" stroke="#9aa4b2" stroke-width="1.2" d="M571.15,-360C571.15,-360 484.15,-360 484.15,-360 478.15,-360 472.15,-354 472.15,-348 472.15,-348 472.15,-336 472.15,-336 472.15,-330 478.15,-324 484.15,-324 484.15,-324 571.15,-324 571.15,-324 577.15,-324 583.15,-330 583.15,-336 583.15,-336 583.15,-348 583.15,-348 583.15,-354 577.15,-360 571.15,-360"/>
<text text-anchor="middle" x="527.65" y="-338.2" font-family="Helvetica,sans-Serif" font-size="16.00" fill="#e6edf3">Action Loop</text>
</g>
<!-- S_2000&#45;&gt;S_2010 -->
<g id="edge27" class="edge">
<title>S_2000&#45;&gt;S_2010</title>
<path fill="none" stroke="#9aa4b2" d="M793.08,-442.64C723.08,-435.26 619.85,-421.68 584.65,-403 568.44,-394.4 554.21,-379.44 544.03,-366.62"/>
<polygon fill="#9aa4b2" stroke="#9aa4b2" points="546.16,-364.8 539.08,-360.15 541.72,-368.2 546.16,-364.8"/>
<text text-anchor="middle" x="624.15" y="-392.6" font-family="Helvetica,sans-Serif" font-size="13.00" fill="#94a3b8">if pan &gt; &#45;90</text>
</g>
<!-- S_2020 -->
<g id="node20" class="node">
<title>S_2020</title>
<path fill="#1a2028" stroke="#9aa4b2" stroke-width="1.2" d="M718.15,-360C718.15,-360 631.15,-360 631.15,-360 625.15,-360 619.15,-354 619.15,-348 619.15,-348 619.15,-336 619.15,-336 619.15,-330 625.15,-324 631.15,-324 631.15,-324 718.15,-324 718.15,-324 724.15,-324 730.15,-330 730.15,-336 730.15,-336 730.15,-348 730.15,-348 730.15,-354 724.15,-360 718.15,-360"/>
<text text-anchor="middle" x="674.65" y="-338.2" font-family="Helvetica,sans-Serif" font-size="16.00" fill="#e6edf3">Action Loop</text>
</g>
<!-- S_2000&#45;&gt;S_2020 -->
<g id="edge26" class="edge">
<title>S_2000&#45;&gt;S_2020</title>
<path fill="none" stroke="#9aa4b2" d="M793,-440.23C747.46,-432.88 693.45,-420.73 678.65,-403 670.79,-393.58 669.3,-380.17 669.99,-368.42"/>
<polygon fill="#9aa4b2" stroke="#9aa4b2" points="672.8,-368.47 670.82,-360.23 667.23,-367.91 672.8,-368.47"/>
<text text-anchor="middle" x="718.15" y="-392.6" font-family="Helvetica,sans-Serif" font-size="13.00" fill="#94a3b8">if pan &gt; &#45;50</text>
</g>
<!-- S_2030 -->
<g id="node22" class="node">
<title>S_2030</title>
<path fill="#1a2028" stroke="#9aa4b2" stroke-width="1.2" d="M384.15,-144C384.15,-144 297.15,-144 297.15,-144 291.15,-144 285.15,-138 285.15,-132 285.15,-132 285.15,-120 285.15,-120 285.15,-114 291.15,-108 297.15,-108 297.15,-108 384.15,-108 384.15,-108 390.15,-108 396.15,-114 396.15,-120 396.15,-120 396.15,-132 396.15,-132 396.15,-138 390.15,-144 384.15,-144"/>
<text text-anchor="middle" x="340.65" y="-122.2" font-family="Helvetica,sans-Serif" font-size="16.00" fill="#e6edf3">Action Loop</text>
</g>
<!-- S_2000&#45;&gt;S_2030 -->
<g id="edge25" class="edge">
<title>S_2000&#45;&gt;S_2030</title>
<path fill="none" stroke="#9aa4b2" d="M846.99,-431.97C825.73,-407.49 784.79,-361.2 747.65,-324 727.64,-303.96 724.44,-296.34 700.65,-281 604.04,-218.72 478,-171.53 403.55,-146.66"/>
<polygon fill="#9aa4b2" stroke="#9aa4b2" points="404.09,-143.89 395.62,-144.03 402.33,-149.21 404.09,-143.89"/>
<text text-anchor="middle" x="759.15" y="-284.6" font-family="Helvetica,sans-Serif" font-size="13.00" fill="#94a3b8">if pan &gt; &#45;20</text>
</g>
<!-- S_3010 -->
<g id="node24" class="node">
<title>S_3010</title>
<path fill="#1a2028" stroke="#9aa4b2" stroke-width="1.2" d="M1015.15,-360C1015.15,-360 928.15,-360 928.15,-360 922.15,-360 916.15,-354 916.15,-348 916.15,-348 916.15,-336 916.15,-336 916.15,-330 922.15,-324 928.15,-324 928.15,-324 1015.15,-324 1015.15,-324 1021.15,-324 1027.15,-330 1027.15,-336 1027.15,-336 1027.15,-348 1027.15,-348 1027.15,-354 1021.15,-360 1015.15,-360"/>
<text text-anchor="middle" x="971.65" y="-338.2" font-family="Helvetica,sans-Serif" font-size="16.00" fill="#e6edf3">Action Loop</text>
</g>
<!-- S_2000&#45;&gt;S_3010 -->
<g id="edge22" class="edge">
<title>S_2000&#45;&gt;S_3010</title>
<path fill="none" stroke="#9aa4b2" d="M875.9,-431.82C886.43,-419.47 901.36,-402.65 915.65,-389 924.14,-380.89 933.88,-372.57 942.84,-365.28"/>
<polygon fill="#9aa4b2" stroke="#9aa4b2" points="944.71,-367.37 949.19,-360.18 941.2,-363.01 944.71,-367.37"/>
<text text-anchor="middle" x="953.15" y="-392.6" font-family="Helvetica,sans-Serif" font-size="13.00" fill="#94a3b8">if pan &gt; 50</text>
</g>
<!-- S_3020 -->
<g id="node26" class="node">
<title>S_3020</title>
<path fill="#1a2028" stroke="#9aa4b2" stroke-width="1.2" d="M1162.15,-360C1162.15,-360 1075.15,-360 1075.15,-360 1069.15,-360 1063.15,-354 1063.15,-348 1063.15,-348 1063.15,-336 1063.15,-336 1063.15,-330 1069.15,-324 1075.15,-324 1075.15,-324 1162.15,-324 1162.15,-324 1168.15,-324 1174.15,-330 1174.15,-336 1174.15,-336 1174.15,-348 1174.15,-348 1174.15,-354 1168.15,-360 1162.15,-360"/>
<text text-anchor="middle" x="1118.65" y="-338.2" font-family="Helvetica,sans-Serif" font-size="16.00" fill="#e6edf3">Action Loop</text>
</g>
<!-- S_2000&#45;&gt;S_3020 -->
<g id="edge23" class="edge">
<title>S_2000&#45;&gt;S_3020</title>
<path fill="none" stroke="#9aa4b2" d="M916.33,-431.92C940.85,-423.83 969.97,-413.63 995.65,-403 1024.2,-391.19 1055.48,-375.89 1079.36,-363.7"/>
<polygon fill="#9aa4b2" stroke="#9aa4b2" points="1080.68,-366.17 1086.52,-360.03 1078.12,-361.19 1080.68,-366.17"/>
<text text-anchor="middle" x="1063.15" y="-392.6" font-family="Helvetica,sans-Serif" font-size="13.00" fill="#94a3b8">if pan &gt; 20</text>
</g>
<!-- S_3030 -->
<g id="node28" class="node">
<title>S_3030</title>
<path fill="#1a2028" stroke="#9aa4b2" stroke-width="1.2" d="M1423.15,-144C1423.15,-144 1336.15,-144 1336.15,-144 1330.15,-144 1324.15,-138 1324.15,-132 1324.15,-132 1324.15,-120 1324.15,-120 1324.15,-114 1330.15,-108 1336.15,-108 1336.15,-108 1423.15,-108 1423.15,-108 1429.15,-108 1435.15,-114 1435.15,-120 1435.15,-120 1435.15,-132 1435.15,-132 1435.15,-138 1429.15,-144 1423.15,-144"/>
<text text-anchor="middle" x="1379.65" y="-122.2" font-family="Helvetica,sans-Serif" font-size="16.00" fill="#e6edf3">Action Loop</text>
</g>
<!-- S_2000&#45;&gt;S_3030 -->
<g id="edge24" class="edge">
<title>S_2000&#45;&gt;S_3030</title>
<path fill="none" stroke="#9aa4b2" d="M862.03,-431.81C863.51,-405.41 870.04,-354.75 897.65,-324 1009.81,-199.07 1212.91,-151.72 1315.97,-135.14"/>
<polygon fill="#9aa4b2" stroke="#9aa4b2" points="1316.65,-137.87 1324.12,-133.86 1315.79,-132.34 1316.65,-137.87"/>
<text text-anchor="middle" x="974.15" y="-284.6" font-family="Helvetica,sans-Serif" font-size="13.00" fill="#94a3b8">if pan &gt; 0</text>
</g>
<!-- S_133&#45;&gt;S_130 -->
<g id="edge30" class="edge">
<title>S_133&#45;&gt;S_130</title>
<path fill="none" stroke="#9aa4b2" d="M1272.62,-360.31C1280.32,-381.04 1291.65,-416.98 1291.65,-449 1291.65,-667 1291.65,-667 1291.65,-667 1291.65,-785.07 1219.48,-912.82 1186.62,-964.88"/>
<polygon fill="#9aa4b2" stroke="#9aa4b2" points="1184.2,-963.46 1182.25,-971.71 1188.92,-966.48 1184.2,-963.46"/>
<text text-anchor="middle" x="1300.15" y="-662.6" font-family="Helvetica,sans-Serif" font-size="13.00" fill="#94a3b8">go</text>
</g>
<!-- S_2011 -->
<g id="node19" class="node">
<title>S_2011</title>
<path fill="#1a2028" stroke="#9aa4b2" stroke-width="1.2" d="M332.15,-252C332.15,-252 245.15,-252 245.15,-252 239.15,-252 233.15,-246 233.15,-240 233.15,-240 233.15,-228 233.15,-228 233.15,-222 239.15,-216 245.15,-216 245.15,-216 332.15,-216 332.15,-216 338.15,-216 344.15,-222 344.15,-228 344.15,-228 344.15,-240 344.15,-240 344.15,-246 338.15,-252 332.15,-252"/>
<text text-anchor="middle" x="288.65" y="-230.2" font-family="Helvetica,sans-Serif" font-size="16.00" fill="#e6edf3">Action Loop</text>
</g>
<!-- S_2010&#45;&gt;S_2011 -->
<g id="edge31" class="edge">
<title>S_2010&#45;&gt;S_2011</title>
<path fill="none" stroke="#9aa4b2" d="M472.08,-324.99C447.05,-317.08 417.4,-306.71 391.65,-295 367.32,-283.94 341.33,-268.77 321.54,-256.45"/>
<polygon fill="#9aa4b2" stroke="#9aa4b2" points="322.81,-253.94 314.54,-252.05 319.83,-258.68 322.81,-253.94"/>
<text text-anchor="middle" x="452.65" y="-284.6" font-family="Helvetica,sans-Serif" font-size="13.00" fill="#94a3b8">next labeled block</text>
</g>
<!-- S_2011&#45;&gt;S_100 -->
<g id="edge32" class="edge">
<title>S_2011&#45;&gt;S_100</title>
<path fill="none" stroke="#9aa4b2" d="M271.62,-252.08C253.88,-271.75 228.65,-305.9 228.65,-341 228.65,-721 228.65,-721 228.65,-721 228.65,-1099.4 378.06,-1246.12 445.65,-1289 479.74,-1310.63 719.83,-1324.54 860.2,-1330.93"/>
<polygon fill="#9aa4b2" stroke="#9aa4b2" points="860.35,-1333.74 868.46,-1331.3 860.6,-1328.14 860.35,-1333.74"/>
<text text-anchor="middle" x="288.65" y="-770.6" font-family="Helvetica,sans-Serif" font-size="13.00" fill="#94a3b8">if Distance &gt; 300</text>
</g>
<!-- S_2011&#45;&gt;S_2030 -->
<g id="edge33" class="edge">
<title>S_2011&#45;&gt;S_2030</title>
<path fill="none" stroke="#9aa4b2" d="M297,-215.97C305.52,-198.61 318.82,-171.5 328.5,-151.77"/>
<polygon fill="#9aa4b2" stroke="#9aa4b2" points="331.13,-152.76 332.14,-144.34 326.1,-150.29 331.13,-152.76"/>
<text text-anchor="middle" x="327.15" y="-176.6" font-family="Helvetica,sans-Serif" font-size="13.00" fill="#94a3b8">go</text>
</g>
<!-- S_2021 -->
<g id="node21" class="node">
<title>S_2021</title>
<path fill="#1a2028" stroke="#9aa4b2" stroke-width="1.2" d="M479.15,-252C479.15,-252 392.15,-252 392.15,-252 386.15,-252 380.15,-246 380.15,-240 380.15,-240 380.15,-228 380.15,-228 380.15,-222 386.15,-216 392.15,-216 392.15,-216 479.15,-216 479.15,-216 485.15,-216 491.15,-222 491.15,-228 491.15,-228 491.15,-240 491.15,-240 491.15,-246 485.15,-252 479.15,-252"/>
<text text-anchor="middle" x="435.65" y="-230.2" font-family="Helvetica,sans-Serif" font-size="16.00" fill="#e6edf3">Action Loop</text>
</g>
<!-- S_2020&#45;&gt;S_2021 -->
<g id="edge34" class="edge">
<title>S_2020&#45;&gt;S_2021</title>
<path fill="none" stroke="#9aa4b2" d="M636.25,-323.97C594.21,-305.33 526.83,-275.44 481.91,-255.52"/>
<polygon fill="#9aa4b2" stroke="#9aa4b2" points="482.8,-252.85 474.35,-252.16 480.53,-257.97 482.8,-252.85"/>
<text text-anchor="middle" x="630.65" y="-284.6" font-family="Helvetica,sans-Serif" font-size="13.00" fill="#94a3b8">next labeled block</text>
</g>
<!-- S_2021&#45;&gt;S_100 -->
<g id="edge35" class="edge">
<title>S_2021&#45;&gt;S_100</title>
<path fill="none" stroke="#9aa4b2" d="M432.25,-252.2C426.79,-281.43 416.65,-342.69 416.65,-395 416.65,-1207 416.65,-1207 416.65,-1207 416.65,-1297.11 702.6,-1323.84 860.24,-1331.73"/>
<polygon fill="#9aa4b2" stroke="#9aa4b2" points="860.45,-1334.54 868.58,-1332.13 860.72,-1328.95 860.45,-1334.54"/>
<text text-anchor="middle" x="474.65" y="-770.6" font-family="Helvetica,sans-Serif" font-size="13.00" fill="#94a3b8">if Distance &gt; 300</text>
</g>
<!-- S_2021&#45;&gt;S_2030 -->
<g id="edge36" class="edge">
<title>S_2021&#45;&gt;S_2030</title>
<path fill="none" stroke="#9aa4b2" d="M420.38,-215.97C404.48,-198.23 379.45,-170.3 361.68,-150.47"/>
<polygon fill="#9aa4b2" stroke="#9aa4b2" points="363.61,-148.43 356.19,-144.34 359.44,-152.17 363.61,-148.43"/>
<text text-anchor="middle" x="403.15" y="-176.6" font-family="Helvetica,sans-Serif" font-size="13.00" fill="#94a3b8">go</text>
</g>
<!-- S_2031 -->
<g id="node23" class="node">
<title>S_2031</title>
<path fill="#1a2028" stroke="#9aa4b2" stroke-width="1.2" d="M221.15,-36C221.15,-36 134.15,-36 134.15,-36 128.15,-36 122.15,-30 122.15,-24 122.15,-24 122.15,-12 122.15,-12 122.15,-6 128.15,0 134.15,0 134.15,0 221.15,0 221.15,0 227.15,0 233.15,-6 233.15,-12 233.15,-12 233.15,-24 233.15,-24 233.15,-30 227.15,-36 221.15,-36"/>
<text text-anchor="middle" x="177.65" y="-14.2" font-family="Helvetica,sans-Serif" font-size="16.00" fill="#e6edf3">Action Loop</text>
</g>
<!-- S_2030&#45;&gt;S_2031 -->
<g id="edge37" class="edge">
<title>S_2030&#45;&gt;S_2031</title>
<path fill="none" stroke="#9aa4b2" d="M285.06,-117.02C241.94,-109.57 187.27,-96.88 173.65,-79 166.2,-69.22 166.45,-55.73 168.89,-44.02"/>
<polygon fill="#9aa4b2" stroke="#9aa4b2" points="171.61,-44.71 170.87,-36.27 166.18,-43.33 171.61,-44.71"/>
<text text-anchor="middle" x="234.65" y="-68.6" font-family="Helvetica,sans-Serif" font-size="13.00" fill="#94a3b8">next labeled block</text>
</g>
<!-- S_2031&#45;&gt;S_100 -->
<g id="edge38" class="edge">
<title>S_2031&#45;&gt;S_100</title>
<path fill="none" stroke="#9aa4b2" d="M121.96,-28.46C70.4,-40.79 1.65,-67.93 1.65,-125 1.65,-1207 1.65,-1207 1.65,-1207 1.65,-1244.85 -4.94,-1265.4 24.65,-1289 56.88,-1314.7 624.26,-1328.52 860.12,-1333.18"/>
<polygon fill="#9aa4b2" stroke="#9aa4b2" points="860.31,-1335.98 868.37,-1333.34 860.42,-1330.38 860.31,-1335.98"/>
<text text-anchor="middle" x="59.65" y="-662.6" font-family="Helvetica,sans-Serif" font-size="13.00" fill="#94a3b8">if Distance &gt; 300</text>
</g>
<!-- S_2031&#45;&gt;S_2030 -->
<g id="edge39" class="edge">
<title>S_2031&#45;&gt;S_2030</title>
<path fill="none" stroke="#9aa4b2" d="M233.17,-31.71C255.75,-38.83 281.09,-49.49 300.65,-65 312.59,-74.47 322.22,-88.5 329.04,-100.61"/>
<polygon fill="#9aa4b2" stroke="#9aa4b2" points="326.67,-102.12 332.91,-107.85 331.6,-99.47 326.67,-102.12"/>
<text text-anchor="middle" x="323.15" y="-68.6" font-family="Helvetica,sans-Serif" font-size="13.00" fill="#94a3b8">go</text>
</g>
<!-- S_3011 -->
<g id="node25" class="node">
<title>S_3011</title>
<path fill="#1a2028" stroke="#9aa4b2" stroke-width="1.2" d="M1361.15,-252C1361.15,-252 1274.15,-252 1274.15,-252 1268.15,-252 1262.15,-246 1262.15,-240 1262.15,-240 1262.15,-228 1262.15,-228 1262.15,-222 1268.15,-216 1274.15,-216 1274.15,-216 1361.15,-216 1361.15,-216 1367.15,-216 1373.15,-222 1373.15,-228 1373.15,-228 1373.15,-240 1373.15,-240 1373.15,-246 1367.15,-252 1361.15,-252"/>
<text text-anchor="middle" x="1317.65" y="-230.2" font-family="Helvetica,sans-Serif" font-size="16.00" fill="#e6edf3">Action Loop</text>
</g>
<!-- S_3010&#45;&gt;S_3011 -->
<g id="edge40" class="edge">
<title>S_3010&#45;&gt;S_3011</title>
<path fill="none" stroke="#9aa4b2" d="M1027.24,-323.97C1089.19,-304.99 1189.18,-274.36 1254.16,-254.45"/>
<polygon fill="#9aa4b2" stroke="#9aa4b2" points="1255.08,-257.1 1261.91,-252.08 1253.44,-251.74 1255.08,-257.1"/>
<text text-anchor="middle" x="1225.65" y="-284.6" font-family="Helvetica,sans-Serif" font-size="13.00" fill="#94a3b8">next labeled block</text>
</g>
<!-- S_3011&#45;&gt;S_100 -->
<g id="edge41" class="edge">
<title>S_3011&#45;&gt;S_100</title>
<path fill="none" stroke="#9aa4b2" d="M1328.75,-252.46C1345.84,-281.06 1376.65,-340.23 1376.65,-395 1376.65,-559 1376.65,-559 1376.65,-559 1376.65,-654.12 1379.65,-677.88 1379.65,-773 1379.65,-1207 1379.65,-1207 1379.65,-1207 1379.65,-1273.05 1186.42,-1308.45 1062.72,-1324.35"/>
<polygon fill="#9aa4b2" stroke="#9aa4b2" points="1062.26,-1321.59 1054.68,-1325.37 1062.96,-1327.14 1062.26,-1321.59"/>
<text text-anchor="middle" x="1437.65" y="-770.6" font-family="Helvetica,sans-Serif" font-size="13.00" fill="#94a3b8">if Distance &gt; 300</text>
</g>
<!-- S_3011&#45;&gt;S_3030 -->
<g id="edge42" class="edge">
<title>S_3011&#45;&gt;S_3030</title>
<path fill="none" stroke="#9aa4b2" d="M1327.61,-215.97C1337.85,-198.46 1353.9,-171.02 1365.47,-151.25"/>
<polygon fill="#9aa4b2" stroke="#9aa4b2" points="1367.88,-152.66 1369.51,-144.34 1363.05,-149.83 1367.88,-152.66"/>
<text text-anchor="middle" x="1360.15" y="-176.6" font-family="Helvetica,sans-Serif" font-size="13.00" fill="#94a3b8">go</text>
</g>
<!-- S_3021 -->
<g id="node27" class="node">
<title>S_3021</title>
<path fill="#1a2028" stroke="#9aa4b2" stroke-width="1.2" d="M1508.15,-252C1508.15,-252 1421.15,-252 1421.15,-252 1415.15,-252 1409.15,-246 1409.15,-240 1409.15,-240 1409.15,-228 1409.15,-228 1409.15,-222 1415.15,-216 1421.15,-216 1421.15,-216 1508.15,-216 1508.15,-216 1514.15,-216 1520.15,-222 1520.15,-228 1520.15,-228 1520.15,-240 1520.15,-240 1520.15,-246 1514.15,-252 1508.15,-252"/>
<text text-anchor="middle" x="1464.65" y="-230.2" font-family="Helvetica,sans-Serif" font-size="16.00" fill="#e6edf3">Action Loop</text>
</g>
<!-- S_3020&#45;&gt;S_3021 -->
<g id="edge43" class="edge">
<title>S_3020&#45;&gt;S_3021</title>
<path fill="none" stroke="#9aa4b2" d="M1174.4,-327.83C1209.43,-319.23 1255.43,-307.34 1295.65,-295 1335.05,-282.91 1378.9,-267.28 1412.05,-255"/>
<polygon fill="#9aa4b2" stroke="#9aa4b2" points="1413.29,-257.53 1419.81,-252.12 1411.34,-252.28 1413.29,-257.53"/>
<text text-anchor="middle" x="1398.65" y="-284.6" font-family="Helvetica,sans-Serif" font-size="13.00" fill="#94a3b8">next labeled block</text>
</g>
<!-- S_3021&#45;&gt;S_100 -->
<g id="edge44" class="edge">
<title>S_3021&#45;&gt;S_100</title>
<path fill="none" stroke="#9aa4b2" d="M1498.66,-252.05C1528.66,-269.78 1567.65,-300.59 1567.65,-341 1567.65,-1207 1567.65,-1207 1567.65,-1207 1567.65,-1308.95 1235.19,-1330.1 1062.76,-1334.21"/>
<polygon fill="#9aa4b2" stroke="#9aa4b2" points="1062.61,-1331.41 1054.68,-1334.39 1062.74,-1337.01 1062.61,-1331.41"/>
<text text-anchor="middle" x="1625.65" y="-770.6" font-family="Helvetica,sans-Serif" font-size="13.00" fill="#94a3b8">if Distance &gt; 300</text>
</g>
<!-- S_3021&#45;&gt;S_3030 -->
<g id="edge45" class="edge">
<title>S_3021&#45;&gt;S_3030</title>
<path fill="none" stroke="#9aa4b2" d="M1450.99,-215.97C1436.82,-198.3 1414.56,-170.54 1398.68,-150.73"/>
<polygon fill="#9aa4b2" stroke="#9aa4b2" points="1400.74,-148.83 1393.55,-144.34 1396.37,-152.33 1400.74,-148.83"/>
<text text-anchor="middle" x="1435.15" y="-176.6" font-family="Helvetica,sans-Serif" font-size="13.00" fill="#94a3b8">go</text>
</g>
<!-- S_3031 -->
<g id="node29" class="node">
<title>S_3031</title>
<path fill="#1a2028" stroke="#9aa4b2" stroke-width="1.2" d="M1586.15,-36C1586.15,-36 1499.15,-36 1499.15,-36 1493.15,-36 1487.15,-30 1487.15,-24 1487.15,-24 1487.15,-12 1487.15,-12 1487.15,-6 1493.15,0 1499.15,0 1499.15,0 1586.15,0 1586.15,0 1592.15,0 1598.15,-6 1598.15,-12 1598.15,-12 1598.15,-24 1598.15,-24 1598.15,-30 1592.15,-36 1586.15,-36"/>
<text text-anchor="middle" x="1542.65" y="-14.2" font-family="Helvetica,sans-Serif" font-size="16.00" fill="#e6edf3">Action Loop</text>
</g>
<!-- S_3030&#45;&gt;S_3031 -->
<g id="edge46" class="edge">
<title>S_3030&#45;&gt;S_3031</title>
<path fill="none" stroke="#9aa4b2" d="M1372.87,-107.73C1368.98,-94.69 1366.48,-77.04 1375.65,-65 1388.45,-48.2 1437.47,-35.99 1479.11,-28.39"/>
<polygon fill="#9aa4b2" stroke="#9aa4b2" points="1479.67,-31.13 1487.06,-26.98 1478.69,-25.62 1479.67,-31.13"/>
<text text-anchor="middle" x="1436.65" y="-68.6" font-family="Helvetica,sans-Serif" font-size="13.00" fill="#94a3b8">next labeled block</text>
</g>
<!-- S_3031&#45;&gt;S_100 -->
<g id="edge47" class="edge">
<title>S_3031&#45;&gt;S_100</title>
<path fill="none" stroke="#9aa4b2" d="M1598.29,-25.28C1656.24,-35.28 1738.65,-60.78 1738.65,-125 1738.65,-1207 1738.65,-1207 1738.65,-1207 1738.65,-1307.2 1626.28,-1266.49 1528.65,-1289 1368.65,-1325.89 1177.32,-1334.27 1062.84,-1335.61"/>
<polygon fill="#9aa4b2" stroke="#9aa4b2" points="1062.7,-1332.81 1054.73,-1335.69 1062.76,-1338.41 1062.7,-1332.81"/>
<text text-anchor="middle" x="1796.65" y="-662.6" font-family="Helvetica,sans-Serif" font-size="13.00" fill="#94a3b8">if Distance &gt; 300</text>
</g>
<!-- S_3031&#45;&gt;S_3030 -->
<g id="edge48" class="edge">
<title>S_3031&#45;&gt;S_3030</title>
<path fill="none" stroke="#9aa4b2" d="M1534.91,-36.15C1528.12,-49.48 1517.07,-67.57 1502.65,-79 1485.3,-92.75 1463.42,-102.69 1442.94,-109.73"/>
<polygon fill="#9aa4b2" stroke="#9aa4b2" points="1441.89,-107.12 1435.17,-112.29 1443.64,-112.44 1441.89,-107.12"/>
<text text-anchor="middle" x="1524.15" y="-68.6" font-family="Helvetica,sans-Serif" font-size="13.00" fill="#94a3b8">go</text>
</g>
<!-- S_9000&#45;&gt;S_9000 -->
<g id="edge49" class="edge">
<title>S_9000&#45;&gt;S_9000</title>
<path fill="none" stroke="#9aa4b2" d="M475.84,-1453.92C494.95,-1455.01 511.65,-1451.7 511.65,-1444 511.65,-1437.44 499.54,-1434.07 484.15,-1433.88"/>
<polygon fill="#9aa4b2" stroke="#9aa4b2" points="483.78,-1431.09 475.84,-1434.08 483.9,-1436.69 483.78,-1431.09"/>
<text text-anchor="middle" x="536.65" y="-1440.6" font-family="Helvetica,sans-Serif" font-size="13.00" fill="#94a3b8">resume</text>
</g>
</g>
</svg>
