<?xml version="1.0" encoding="UTF-8" standalone="no"?>
<!DOCTYPE svg PUBLIC "-//W3C//DTD SVG 1.1//EN"
 "http://www.w3.org/Graphics/SVG/1.1/DTD/svg11.dtd">
<!-- Generated by graphviz version 2.42.4 (0)
 -->
<!-- Title: G Pages: 1 -->
<svg width="297pt" height="520pt"
 viewBox="0.00 0.00 297.00 520.00" xmlns="http://www.w3.org/2000/svg" xmlns:xlink="http://www.w3.org/1999/xlink">
<g id="graph0" class="graph" transform="scale(1 1) rotate(0) translate(18 502)">
<title>G</title>
<polygon fill="#101418" stroke="transparent" points="-18,18 -18,-502 279,-502 279,18 -18,18"/>
<!-- S_INIT -->
<g id="node1" class="node">
<title>S_INIT</title>
<path fill="#1a2028" stroke="#9aa4b2" stroke-width="1.2" d="M163.5,-484C163.5,-484 40.5,-484 40.5,-484 34.5,-484 28.5,-478 28.5,-472 28.5,-472 28.5,-460 28.5,-460 28.5,-454 34.5,-448 40.5,-448 40.5,-448 163.5,-448 163.5,-448 169.5,-448 175.5,-454 175.5,-460 175.5,-460 175.5,-472 175.5,-472 175.5,-478 169.5,-484 163.5,-484"/>
<text text-anchor="middle" x="102" y="-462.2" font-family="Helvetica,sans-Serif" font-size="16.00" fill="#e6edf3">Boot / Safe Pose</text>
</g>
<!-- S_100 -->
<g id="node2" class="node">
<title>S_100</title>
<path fill="#1a2028" stroke="#9aa4b2" stroke-width="1.2" d="M183,-376C183,-376 21,-376 21,-376 15,-376 9,-370 9,-364 9,-364 9,-352 9,-352 9,-346 15,-340 21,-340 21,-340 183,-340 183,-340 189,-340 195,-346 195,-352 195,-352 195,-364 195,-364 195,-370 189,-376 183,-376"/>
<text text-anchor="middle" x="102" y="-354.2" font-family="Helvetica,sans-Serif" font-size="16.00" fill="#e6edf3">Repeat Forward Walk</text>
</g>
<!-- S_INIT&#45;&gt;S_100 -->
<g id="edge4" class="edge">
<title>S_INIT&#45;&gt;S_100</title>
<path fill="none" stroke="#9aa4b2" d="M102,-447.97C102,-430.84 102,-404.22 102,-384.56"/>
<polygon fill="#9aa4b2" stroke="#9aa4b2" points="104.8,-384.34 102,-376.34 99.2,-384.34 104.8,-384.34"/>
<text text-anchor="middle" x="119.5" y="-408.6" font-family="Helvetica,sans-Serif" font-size="13.00" fill="#94a3b8">entry</text>
</g>
<!-- S_200 -->
<g id="node3" class="node">
<title>S_200</title>
<path fill="#1a2028" stroke="#9aa4b2" stroke-width="1.2" d="M162,-268C162,-268 42,-268 42,-268 36,-268 30,-262 30,-256 30,-256 30,-244 30,-244 30,-238 36,-232 42,-232 42,-232 162,-232 162,-232 168,-232 174,-238 174,-244 174,-244 174,-256 174,-256 174,-262 168,-268 162,-268"/>
<text text-anchor="middle" x="102" y="-246.2" font-family="Helvetica,sans-Serif" font-size="16.00" fill="#e6edf3">Sense Fall State</text>
</g>
<!-- S_100&#45;&gt;S_200 -->
<g id="edge5" class="edge">
<title>S_100&#45;&gt;S_200</title>
<path fill="none" stroke="#9aa4b2" d="M102,-339.97C102,-322.84 102,-296.22 102,-276.56"/>
<polygon fill="#9aa4b2" stroke="#9aa4b2" points="104.8,-276.34 102,-268.34 99.2,-276.34 104.8,-276.34"/>
<text text-anchor="middle" x="168.5" y="-300.6" font-family="Helvetica,sans-Serif" font-size="13.00" fill="#94a3b8">continue to monitor</text>
</g>
<!-- S_200_CHECK -->
<g id="node5" class="node">
<title>S_200_CHECK</title>
<path fill="#1a2028" stroke="#9aa4b2" stroke-width="1.2" d="M40.31,-154.55C40.31,-154.55 10.69,-139.45 10.69,-139.45 5.35,-136.73 5.35,-131.27 10.69,-128.55 10.69,-128.55 40.31,-113.45 40.31,-113.45 45.65,-110.73 56.35,-110.73 61.69,-113.45 61.69,-113.45 91.31,-128.55 91.31,-128.55 96.65,-131.27 96.65,-136.73 91.31,-139.45 91.31,-139.45 61.69,-154.55 61.69,-154.55 56.35,-157.27 45.65,-157.27 40.31,-154.55"/>
<text text-anchor="middle" x="51" y="-130.2" font-family="Helvetica,sans-Serif" font-size="16.00" fill="#e6edf3">Fall?</text>
</g>
<!-- S_200&#45;&gt;S_200_CHECK -->
<g id="edge1" class="edge">
<title>S_200&#45;&gt;S_200_CHECK</title>
<path fill="none" stroke="#9aa4b2" d="M85.07,-232C77.86,-223.85 69.98,-213.57 65,-203 59.79,-191.94 56.51,-178.98 54.45,-167.35"/>
<polygon fill="#9aa4b2" stroke="#9aa4b2" points="57.17,-166.63 53.16,-159.17 51.64,-167.51 57.17,-166.63"/>
</g>
<!-- S_9000 -->
<g id="node4" class="node">
<title>S_9000</title>
<path fill="#1a2028" stroke="#9aa4b2" stroke-width="1.2" d="M141,-36C141,-36 83,-36 83,-36 77,-36 71,-30 71,-24 71,-24 71,-12 71,-12 71,-6 77,0 83,0 83,0 141,0 141,0 147,0 153,-6 153,-12 153,-12 153,-24 153,-24 153,-30 147,-36 141,-36"/>
<text text-anchor="middle" x="112" y="-14.2" font-family="Helvetica,sans-Serif" font-size="16.00" fill="#e6edf3">Recover</text>
</g>
<!-- S_9000&#45;&gt;S_200 -->
<g id="edge6" class="edge">
<title>S_9000&#45;&gt;S_200</title>
<path fill="none" stroke="#9aa4b2" d="M121.82,-36.35C126.06,-44.73 130.6,-55.1 133,-65 199.09,-337.07 147.39,-179.18 139,-203 136.14,-211.12 131.17,-218.86 125.79,-225.6"/>
<polygon fill="#9aa4b2" stroke="#9aa4b2" points="123.4,-224.09 120.33,-231.99 127.66,-227.73 123.4,-224.09"/>
<text text-anchor="middle" x="208" y="-130.6" font-family="Helvetica,sans-Serif" font-size="13.00" fill="#94a3b8">resume monitor</text>
</g>
<!-- S_200_CHECK&#45;&gt;S_200 -->
<g id="edge3" class="edge">
<title>S_200_CHECK&#45;&gt;S_200</title>
<path fill="none" stroke="#9aa4b2" d="M60.2,-155.57C68.83,-174.86 81.74,-203.72 90.93,-224.26"/>
<polygon fill="#9aa4b2" stroke="#9aa4b2" points="88.43,-225.53 94.25,-231.69 93.54,-223.24 88.43,-225.53"/>
<text text-anchor="middle" x="106" y="-192.6" font-family="Helvetica,sans-Serif" font-size="13.00" fill="#94a3b8">upright</text>
</g>
<!-- S_200_CHECK&#45;&gt;S_9000 -->
<g id="edge2" class="edge">
<title>S_200_CHECK&#45;&gt;S_9000</title>
<path fill="none" stroke="#9aa4b2" d="M61.63,-113.14C72.02,-93.71 87.88,-64.08 99.02,-43.26"/>
<polygon fill="#9aa4b2" stroke="#9aa4b2" points="101.58,-44.4 102.89,-36.03 96.65,-41.76 101.58,-44.4"/>
<text text-anchor="middle" x="105.5" y="-68.6" font-family="Helvetica,sans-Serif" font-size="13.00" fill="#94a3b8">fallen</text>
</g>
</g>
</svg>
