<?xml version="1.0" encoding="UTF-8" standalone="no"?>
<!DOCTYPE svg PUBLIC "-//W3C//DTD SVG 1.1//EN"
 "http://www.w3.org/Graphics/SVG/1.1/DTD/svg11.dtd">
<!-- Generated by graphviz version 2.42.4 (0)
 -->
<!-- Title: G Pages: 1 -->
<svg width="635pt" height="288pt"
 viewBox="0.00 0.00 635.00 288.00" xmlns="http://www.w3.org/2000/svg" xmlns:xlink="http://www.w3.org/1999/xlink">
<g id="graph0" class="graph" transform="scale(1 1) rotate(0) translate(18 270)">
<title>G</title>
<polygon fill="#101418" stroke="transparent" points="-18,18 -18,-270 617,-270 617,18 -18,18"/>
<!-- S_INIT -->
<g id="node1" class="node">
<title>S_INIT</title>
<path fill="#1a2028" stroke="#9aa4b2" stroke-width="1.2" d="M343,-252C343,-252 220,-252 220,-252 214,-252 208,-246 208,-240 208,-240 208,-228 208,-228 208,-222 214,-216 220,-216 220,-216 343,-216 343,-216 349,-216 355,-222 355,-228 355,-228 355,-240 355,-240 355,-246 349,-252 343,-252"/>
<text text-anchor="middle" x="281.5" y="-230.2" font-family="Helvetica,sans-Serif" font-size="16.00" fill="#e6edf3">Boot / Safe Pose</text>
</g>
<!-- S_100 -->
<g id="node2" class="node">
<title>S_100</title>
<path fill="#1a2028" stroke="#9aa4b2" stroke-width="1.2" d="M338,-144C338,-144 225,-144 225,-144 219,-144 213,-138 213,-132 213,-132 213,-120 213,-120 213,-114 219,-108 225,-108 225,-108 338,-108 338,-108 344,-108 350,-114 350,-120 350,-120 350,-132 350,-132 350,-138 344,-144 338,-144"/>
<text text-anchor="middle" x="281.5" y="-122.2" font-family="Helvetica,sans-Serif" font-size="16.00" fill="#e6edf3">Sense / Decide</text>
</g>
<!-- S_INIT&#45;&gt;S_100 -->
<g id="edge1" class="edge">
<title>S_INIT&#45;&gt;S_100</title>
<path fill="none" stroke="#9aa4b2" d="M281.5,-215.97C281.5,-198.84 281.5,-172.22 281.5,-152.56"/>
<polygon fill="#9aa4b2" stroke="#9aa4b2" points="284.3,-152.34 281.5,-144.34 278.7,-152.34 284.3,-152.34"/>
<text text-anchor="middle" x="299" y="-176.6" font-family="Helvetica,sans-Serif" font-size="13.00" fill="#94a3b8">entry</text>
</g>
<!-- S_100&#45;&gt;S_100 -->
<g id="edge5" class="edge">
<title>S_100&#45;&gt;S_100</title>
<path fill="none" stroke="#9aa4b2" d="M350.34,-136.09C370.44,-135.75 386,-132.38 386,-126 386,-120.52 374.51,-117.26 358.52,-116.23"/>
<polygon fill="#9aa4b2" stroke="#9aa4b2" points="358.45,-113.43 350.34,-115.91 358.23,-119.02 358.45,-113.43"/>
<text text-anchor="middle" x="394.5" y="-122.6" font-family="Helvetica,sans-Serif" font-size="13.00" fill="#94a3b8">go</text>
</g>
<!-- S_120 -->
<g id="node3" class="node">
<title>S_120</title>
<path fill="#1a2028" stroke="#9aa4b2" stroke-width="1.2" d="M83,-36C83,-36 12,-36 12,-36 6,-36 0,-30 0,-24 0,-24 0,-12 0,-12 0,-6 6,0 12,0 12,0 83,0 83,0 89,0 95,-6 95,-12 95,-12 95,-24 95,-24 95,-30 89,-36 83,-36"/>
<text text-anchor="middle" x="47.5" y="-14.2" font-family="Helvetica,sans-Serif" font-size="16.00" fill="#e6edf3">State 120</text>
</g>
<!-- S_100&#45;&gt;S_120 -->
<g id="edge2" class="edge">
<title>S_100&#45;&gt;S_120</title>
<path fill="none" stroke="#9aa4b2" d="M212.79,-122.89C142.25,-119.11 39.39,-108.54 14.5,-79 5.26,-68.03 12.06,-54.07 21.83,-42.38"/>
<polygon fill="#9aa4b2" stroke="#9aa4b2" points="24.18,-43.96 27.48,-36.15 20.04,-40.19 24.18,-43.96"/>
<text text-anchor="middle" x="70.5" y="-68.6" font-family="Helvetica,sans-Serif" font-size="13.00" fill="#94a3b8">if Light_busy &gt; 0</text>
</g>
<!-- S_1000 -->
<g id="node4" class="node">
<title>S_1000</title>
<path fill="#1a2028" stroke="#9aa4b2" stroke-width="1.2" d="M337,-36C337,-36 224,-36 224,-36 218,-36 212,-30 212,-24 212,-24 212,-12 212,-12 212,-6 218,0 224,0 224,0 337,0 337,0 343,0 349,-6 349,-12 349,-12 349,-24 349,-24 349,-30 343,-36 337,-36"/>
<text text-anchor="middle" x="280.5" y="-14.2" font-family="Helvetica,sans-Serif" font-size="16.00" fill="#e6edf3">Sense / Decide</text>
</g>
<!-- S_100&#45;&gt;S_1000 -->
<g id="edge3" class="edge">
<title>S_100&#45;&gt;S_1000</title>
<path fill="none" stroke="#9aa4b2" d="M251.34,-107.9C241.19,-100.45 231.04,-90.72 225.5,-79 218.75,-64.73 228.37,-51.49 241.35,-41.09"/>
<polygon fill="#9aa4b2" stroke="#9aa4b2" points="243.17,-43.23 247.94,-36.23 239.84,-38.73 243.17,-43.23"/>
<text text-anchor="middle" x="257.5" y="-68.6" font-family="Helvetica,sans-Serif" font-size="13.00" fill="#94a3b8">if ote = 0</text>
</g>
<!-- S_2000 -->
<g id="node5" class="node">
<title>S_2000</title>
<path fill="#1a2028" stroke="#9aa4b2" stroke-width="1.2" d="M587,-36C587,-36 500,-36 500,-36 494,-36 488,-30 488,-24 488,-24 488,-12 488,-12 488,-6 494,0 500,0 500,0 587,0 587,0 593,0 599,-6 599,-12 599,-12 599,-24 599,-24 599,-30 593,-36 587,-36"/>
<text text-anchor="middle" x="543.5" y="-14.2" font-family="Helvetica,sans-Serif" font-size="16.00" fill="#e6edf3">Action Loop</text>
</g>
<!-- S_100&#45;&gt;S_2000 -->
<g id="edge4" class="edge">
<title>S_100&#45;&gt;S_2000</title>
<path fill="none" stroke="#9aa4b2" d="M338.16,-107.93C363.34,-99.88 393.18,-89.7 419.5,-79 448.31,-67.28 479.85,-51.99 503.91,-39.77"/>
<polygon fill="#9aa4b2" stroke="#9aa4b2" points="505.27,-42.22 511.13,-36.09 502.73,-37.23 505.27,-42.22"/>
<text text-anchor="middle" x="482.5" y="-68.6" font-family="Helvetica,sans-Serif" font-size="13.00" fill="#94a3b8">if ote = 1</text>
</g>
<!-- S_120&#45;&gt;S_100 -->
<g id="edge6" class="edge">
<title>S_120&#45;&gt;S_100</title>
<path fill="none" stroke="#9aa4b2" d="M85.39,-36.16C126.67,-54.86 192.65,-84.75 236.52,-104.62"/>
<polygon fill="#9aa4b2" stroke="#9aa4b2" points="235.46,-107.22 243.9,-107.97 237.77,-102.12 235.46,-107.22"/>
<text text-anchor="middle" x="188" y="-68.6" font-family="Helvetica,sans-Serif" font-size="13.00" fill="#94a3b8">go</text>
</g>
<!-- S_1000&#45;&gt;S_100 -->
<g id="edge7" class="edge">
<title>S_1000&#45;&gt;S_100</title>
<path fill="none" stroke="#9aa4b2" d="M287.05,-36.2C289.96,-44.72 293.05,-55.26 294.5,-65 296.23,-76.59 294.07,-89.3 291.05,-100.02"/>
<polygon fill="#9aa4b2" stroke="#9aa4b2" points="288.34,-99.31 288.62,-107.78 293.68,-100.98 288.34,-99.31"/>
<text text-anchor="middle" x="352.5" y="-68.6" font-family="Helvetica,sans-Serif" font-size="13.00" fill="#94a3b8">if Distance &gt; 500</text>
</g>
<!-- S_2000&#45;&gt;S_100 -->
<g id="edge8" class="edge">
<title>S_2000&#45;&gt;S_100</title>
<path fill="none" stroke="#9aa4b2" d="M542.39,-36.04C540.57,-49.67 535.82,-68.23 523.5,-79 499.24,-100.22 419.65,-112.39 358.3,-118.82"/>
<polygon fill="#9aa4b2" stroke="#9aa4b2" points="357.82,-116.06 350.15,-119.66 358.39,-121.63 357.82,-116.06"/>
<text text-anchor="middle" x="542" y="-68.6" font-family="Helvetica,sans-Serif" font-size="13.00" fill="#94a3b8">go</text>
</g>
</g>
</svg>
