<?xml version="1.0" encoding="UTF-8" standalone="no"?>
<!DOCTYPE svg PUBLIC "-//W3C//DTD SVG 1.1//EN"
 "http://www.w3.org/Graphics/SVG/1.1/DTD/svg11.dtd">
<!-- Generated by graphviz version 2.42.4 (0)
 -->
<!-- Title: G Pages: 1 -->
<svg width="152pt" height="180pt"
 viewBox="0.00 0.00 152.00 180.00" xmlns="http://www.w3.org/2000/svg" xmlns:xlink="http://www.w3.org/1999/xlink">
<g id="graph0" class="graph" transform="scale(1 1) rotate(0) translate(18 162)">
<title>G</title>
<polygon fill="#101418" stroke="transparent" points="-18,18 -18,-162 134,-162 134,18 -18,18"/>
<!-- S_INIT -->
<g id="node1" class="node">
<title>S_INIT</title>
<path fill="#1a2028" stroke="#9aa4b2" stroke-width="1.2" d="M73,-144C73,-144 43,-144 43,-144 37,-144 31,-138 31,-132 31,-132 31,-120 31,-120 31,-114 37,-108 43,-108 43,-108 73,-108 73,-108 79,-108 85,-114 85,-120 85,-120 85,-132 85,-132 85,-138 79,-144 73,-144"/>
<text text-anchor="middle" x="58" y="-122.2" font-family="Helvetica,sans-Serif" font-size="16.00" fill="#e6edf3">Boot</text>
</g>
<!-- S_100 -->
<g id="node2" class="node">
<title>S_100</title>
<path fill="#1a2028" stroke="#9aa4b2" stroke-width="1.2" d="M104,-36C104,-36 12,-36 12,-36 6,-36 0,-30 0,-24 0,-24 0,-12 0,-12 0,-6 6,0 12,0 12,0 104,0 104,0 110,0 116,-6 116,-12 116,-12 116,-24 116,-24 116,-30 110,-36 104,-36"/>
<text text-anchor="middle" x="58" y="-14.2" font-family="Helvetica,sans-Serif" font-size="16.00" fill="#e6edf3">Synchronize</text>
</g>
<!-- S_INIT&#45;&gt;S_100 -->
<g id="edge1" class="edge">
<title>S_INIT&#45;&gt;S_100</title>
<path fill="none" stroke="#9aa4b2" d="M58,-107.97C58,-90.84 58,-64.22 58,-44.56"/>
<polygon fill="#9aa4b2" stroke="#9aa4b2" points="60.8,-44.34 58,-36.34 55.2,-44.34 60.8,-44.34"/>
<text text-anchor="middle" x="75.5" y="-68.6" font-family="Helvetica,sans-Serif" font-size="13.00" fill="#94a3b8">entry</text>
</g>
</g>
</svg>
