<?xml version="1.0" encoding="UTF-8" standalone="no"?>
<!DOCTYPE svg PUBLIC "-//W3C//DTD SVG 1.1//EN"
 "http://www.w3.org/Graphics/SVG/1.1/DTD/svg11.dtd">
<!-- Generated by graphviz version 2.42.4 (0)
 -->
<!-- Title: G Pages: 1 -->
<svg width="359pt" height="396pt"
 viewBox="0.00 0.00 359.00 396.00" xmlns="http://www.w3.org/2000/svg" xmlns:xlink="http://www.w3.org/1999/xlink">
<g id="graph0" class="graph" transform="scale(1 1) rotate(0) translate(18 378)">
<title>G</title>
<polygon fill="#101418" stroke="transparent" points="-18,18 -18,-378 341,-378 341,18 -18,18"/>
<!-- S_INIT -->
<g id="node1" class="node">
<title>S_INIT</title>
<path fill="#1a2028" stroke="#9aa4b2" stroke-width="1.2" d="M145,-360C145,-360 22,-360 22,-360 16,-360 10,-354 10,-348 10,-348 10,-336 10,-336 10,-330 16,-324 22,-324 22,-324 145,-324 145,-324 151,-324 157,-330 157,-336 157,-336 157,-348 157,-348 157,-354 151,-360 145,-360"/>
<text text-anchor="middle" x="83.5" y="-338.2" font-family="Helvetica,sans-Serif" font-size="16.00" fill="#e6edf3">Boot / Safe Pose</text>
</g>
<!-- S_100 -->
<g id="node2" class="node">
<title>S_100</title>
<path fill="#1a2028" stroke="#9aa4b2" stroke-width="1.2" d="M155,-252C155,-252 12,-252 12,-252 6,-252 0,-246 0,-240 0,-240 0,-228 0,-228 0,-222 6,-216 12,-216 12,-216 155,-216 155,-216 161,-216 167,-222 167,-228 167,-228 167,-240 167,-240 167,-246 161,-252 155,-252"/>
<text text-anchor="middle" x="83.5" y="-230.2" font-family="Helvetica,sans-Serif" font-size="16.00" fill="#e6edf3">Slow Forward Walk</text>
</g>
<!-- S_INIT&#45;&gt;S_100 -->
<g id="edge1" class="edge">
<title>S_INIT&#45;&gt;S_100</title>
<path fill="none" stroke="#9aa4b2" d="M83.5,-323.97C83.5,-306.84 83.5,-280.22 83.5,-260.56"/>
<polygon fill="#9aa4b2" stroke="#9aa4b2" points="86.3,-260.34 83.5,-252.34 80.7,-260.34 86.3,-260.34"/>
<text text-anchor="middle" x="101" y="-284.6" font-family="Helvetica,sans-Serif" font-size="13.00" fill="#94a3b8">entry</text>
</g>
<!-- S_200 -->
<g id="node3" class="node">
<title>S_200</title>
<path fill="#1a2028" stroke="#9aa4b2" stroke-width="1.2" d="M140,-144C140,-144 27,-144 27,-144 21,-144 15,-138 15,-132 15,-132 15,-120 15,-120 15,-114 21,-108 27,-108 27,-108 140,-108 140,-108 146,-108 152,-114 152,-120 152,-120 152,-132 152,-132 152,-138 146,-144 140,-144"/>
<text text-anchor="middle" x="83.5" y="-122.2" font-family="Helvetica,sans-Serif" font-size="16.00" fill="#e6edf3">Sense / Decide</text>
</g>
<!-- S_100&#45;&gt;S_200 -->
<g id="edge2" class="edge">
<title>S_100&#45;&gt;S_200</title>
<path fill="none" stroke="#9aa4b2" d="M83.5,-215.97C83.5,-198.84 83.5,-172.22 83.5,-152.56"/>
<polygon fill="#9aa4b2" stroke="#9aa4b2" points="86.3,-152.34 83.5,-144.34 80.7,-152.34 86.3,-152.34"/>
<text text-anchor="middle" x="144.5" y="-176.6" font-family="Helvetica,sans-Serif" font-size="13.00" fill="#94a3b8">next labeled block</text>
</g>
<!-- S_200&#45;&gt;S_200 -->
<g id="edge4" class="edge">
<title>S_200&#45;&gt;S_200</title>
<path fill="none" stroke="#9aa4b2" d="M152.34,-136.09C172.44,-135.75 188,-132.38 188,-126 188,-120.52 176.51,-117.26 160.52,-116.23"/>
<polygon fill="#9aa4b2" stroke="#9aa4b2" points="160.45,-113.43 152.34,-115.91 160.23,-119.02 160.45,-113.43"/>
<text text-anchor="middle" x="255.5" y="-122.6" font-family="Helvetica,sans-Serif" font-size="13.00" fill="#94a3b8">else Distance &lt; 500</text>
</g>
<!-- S_300 -->
<g id="node4" class="node">
<title>S_300</title>
<path fill="#1a2028" stroke="#9aa4b2" stroke-width="1.2" d="M129.5,-36C129.5,-36 37.5,-36 37.5,-36 31.5,-36 25.5,-30 25.5,-24 25.5,-24 25.5,-12 25.5,-12 25.5,-6 31.5,0 37.5,0 37.5,0 129.5,0 129.5,0 135.5,0 141.5,-6 141.5,-12 141.5,-12 141.5,-24 141.5,-24 141.5,-30 135.5,-36 129.5,-36"/>
<text text-anchor="middle" x="83.5" y="-14.2" font-family="Helvetica,sans-Serif" font-size="16.00" fill="#e6edf3">Synchronize</text>
</g>
<!-- S_200&#45;&gt;S_300 -->
<g id="edge3" class="edge">
<title>S_200&#45;&gt;S_300</title>
<path fill="none" stroke="#9aa4b2" d="M83.5,-107.97C83.5,-90.84 83.5,-64.22 83.5,-44.56"/>
<polygon fill="#9aa4b2" stroke="#9aa4b2" points="86.3,-44.34 83.5,-36.34 80.7,-44.34 86.3,-44.34"/>
<text text-anchor="middle" x="141.5" y="-68.6" font-family="Helvetica,sans-Serif" font-size="13.00" fill="#94a3b8">if Distance &lt; 500</text>
</g>
</g>
</svg>
