<?xml version="1.0" encoding="UTF-8" standalone="no"?>
<!DOCTYPE svg PUBLIC "-//W3C//DTD SVG 1.1//EN"
 "http://www.w3.org/Graphics/SVG/1.1/DTD/svg11.dtd">
<!-- Generated by graphviz version 2.42.4 (0)
 -->
<!-- Title: G Pages: 1 -->
<svg width="349pt" height="396pt"
 viewBox="0.00 0.00 349.00 396.00" xmlns="http://www.w3.org/2000/svg" xmlns:xlink="http://www.w3.org/1999/xlink">
<g id="graph0" class="graph" transform="scale(1 1) rotate(0) translate(18 378)">
<title>G</title>
<polygon fill="#101418" stroke="transparent" points="-18,18 -18,-378 331,-378 331,18 -18,18"/>
<!-- S_INIT -->
<g id="node1" class="node">
<title>S_INIT</title>
<path fill="#1a2028" stroke="#9aa4b2" stroke-width="1.2" d="M135,-360C135,-360 12,-360 12,-360 6,-360 0,-354 0,-348 0,-348 0,-336 0,-336 0,-330 6,-324 12,-324 12,-324 135,-324 135,-324 141,-324 147,-330 147,-336 147,-336 147,-348 147,-348 147,-354 141,-360 135,-360"/>
<text text-anchor="middle" x="73.5" y="-338.2" font-family="Helvetica,sans-Serif" font-size="16.00" fill="#e6edf3">Boot / Safe Pose</text>
</g>
<!-- S_100 -->
<g id="node2" class="node">
<title>S_100</title>
<path fill="#1a2028" stroke="#9aa4b2" stroke-width="1.2" d="M109,-252C109,-252 38,-252 38,-252 32,-252 26,-246 26,-240 26,-240 26,-228 26,-228 26,-222 32,-216 38,-216 38,-216 109,-216 109,-216 115,-216 121,-222 121,-228 121,-228 121,-240 121,-240 121,-246 115,-252 109,-252"/>
<text text-anchor="middle" x="73.5" y="-230.2" font-family="Helvetica,sans-Serif" font-size="16.00" fill="#e6edf3">State 100</text>
</g>
<!-- S_INIT&#45;&gt;S_100 -->
<g id="edge1" class="edge">
<title>S_INIT&#45;&gt;S_100</title>
<path fill="none" stroke="#9aa4b2" d="M73.5,-323.97C73.5,-306.84 73.5,-280.22 73.5,-260.56"/>
<polygon fill="#9aa4b2" stroke="#9aa4b2" points="76.3,-260.34 73.5,-252.34 70.7,-260.34 76.3,-260.34"/>
<text text-anchor="middle" x="91" y="-284.6" font-family="Helvetica,sans-Serif" font-size="13.00" fill="#94a3b8">entry</text>
</g>
<!-- S_200 -->
<g id="node3" class="node">
<title>S_200</title>
<path fill="#1a2028" stroke="#9aa4b2" stroke-width="1.2" d="M130,-144C130,-144 17,-144 17,-144 11,-144 5,-138 5,-132 5,-132 5,-120 5,-120 5,-114 11,-108 17,-108 17,-108 130,-108 130,-108 136,-108 142,-114 142,-120 142,-120 142,-132 142,-132 142,-138 136,-144 130,-144"/>
<text text-anchor="middle" x="73.5" y="-122.2" font-family="Helvetica,sans-Serif" font-size="16.00" fill="#e6edf3">Sense / Decide</text>
</g>
<!-- S_100&#45;&gt;S_200 -->
<g id="edge2" class="edge">
<title>S_100&#45;&gt;S_200</title>
<path fill="none" stroke="#9aa4b2" d="M73.5,-215.97C73.5,-198.84 73.5,-172.22 73.5,-152.56"/>
<polygon fill="#9aa4b2" stroke="#9aa4b2" points="76.3,-152.34 73.5,-144.34 70.7,-152.34 76.3,-152.34"/>
<text text-anchor="middle" x="134.5" y="-176.6" font-family="Helvetica,sans-Serif" font-size="13.00" fill="#94a3b8">next labeled block</text>
</g>
<!-- S_200&#45;&gt;S_200 -->
<g id="edge4" class="edge">
<title>S_200&#45;&gt;S_200</title>
<path fill="none" stroke="#9aa4b2" d="M142.34,-136.09C162.44,-135.75 178,-132.38 178,-126 178,-120.52 166.51,-117.26 150.52,-116.23"/>
<polygon fill="#9aa4b2" stroke="#9aa4b2" points="150.45,-113.43 142.34,-115.91 150.23,-119.02 150.45,-113.43"/>
<text text-anchor="middle" x="245.5" y="-122.6" font-family="Helvetica,sans-Serif" font-size="13.00" fill="#94a3b8">else Distance &lt; 500</text>
</g>
<!-- S_300 -->
<g id="node4" class="node">
<title>S_300</title>
<path fill="#1a2028" stroke="#9aa4b2" stroke-width="1.2" d="M119.5,-36C119.5,-36 27.5,-36 27.5,-36 21.5,-36 15.5,-30 15.5,-24 15.5,-24 15.5,-12 15.5,-12 15.5,-6 21.5,0 27.5,0 27.5,0 119.5,0 119.5,0 125.5,0 131.5,-6 131.5,-12 131.5,-12 131.5,-24 131.5,-24 131.5,-30 125.5,-36 119.5,-36"/>
<text text-anchor="middle" x="73.5" y="-14.2" font-family="Helvetica,sans-Serif" font-size="16.00" fill="#e6edf3">Synchronize</text>
</g>
<!-- S_200&#45;&gt;S_300 -->
<g id="edge3" class="edge">
<title>S_200&#45;&gt;S_300</title>
<path fill="none" stroke="#9aa4b2" d="M73.5,-107.97C73.5,-90.84 73.5,-64.22 73.5,-44.56"/>
<polygon fill="#9aa4b2" stroke="#9aa4b2" points="76.3,-44.34 73.5,-36.34 70.7,-44.34 76.3,-44.34"/>
<text text-anchor="middle" x="131.5" y="-68.6" font-family="Helvetica,sans-Serif" font-size="13.00" fill="#94a3b8">if Distance &lt; 500</text>
</g>
</g>
</svg>
