<?xml version="1.0" encoding="UTF-8" standalone="no"?>
<!DOCTYPE svg PUBLIC "-//W3C//DTD SVG 1.1//EN"
 "http://www.w3.org/Graphics/SVG/1.1/DTD/svg11.dtd">
<!-- Generated by graphviz version 2.42.4 (0)
 -->
<!-- Title: G Pages: 1 -->
<svg width="413pt" height="396pt"
 viewBox="0.00 0.00 412.50 396.00" xmlns="http://www.w3.org/2000/svg" xmlns:xlink="http://www.w3.org/1999/xlink">
<g id="graph0" class="graph" transform="scale(1 1) rotate(0) translate(18 378)">
<title>G</title>
<polygon fill="#101418" stroke="transparent" points="-18,18 -18,-378 394.5,-378 394.5,18 -18,18"/>
<!-- S_INIT -->
<g id="node1" class="node">
<title>S_INIT</title>
<path fill="#1a2028" stroke="#9aa4b2" stroke-width="1.2" d="M187,-360C187,-360 64,-360 64,-360 58,-360 52,-354 52,-348 52,-348 52,-336 52,-336 52,-330 58,-324 64,-324 64,-324 187,-324 187,-324 193,-324 199,-330 199,-336 199,-336 199,-348 199,-348 199,-354 193,-360 187,-360"/>
<text text-anchor="middle" x="125.5" y="-338.2" font-family="Helvetica,sans-Serif" font-size="16.00" fill="#e6edf3">Boot / Safe Pose</text>
</g>
<!-- S_100 -->
<g id="node2" class="node">
<title>S_100</title>
<path fill="#1a2028" stroke="#9aa4b2" stroke-width="1.2" d="M195,-252C195,-252 82,-252 82,-252 76,-252 70,-246 70,-240 70,-240 70,-228 70,-228 70,-222 76,-216 82,-216 82,-216 195,-216 195,-216 201,-216 207,-222 207,-228 207,-228 207,-240 207,-240 207,-246 201,-252 195,-252"/>
<text text-anchor="middle" x="138.5" y="-230.2" font-family="Helvetica,sans-Serif" font-size="16.00" fill="#e6edf3">Sense / Decide</text>
</g>
<!-- S_INIT&#45;&gt;S_100 -->
<g id="edge1" class="edge">
<title>S_INIT&#45;&gt;S_100</title>
<path fill="none" stroke="#9aa4b2" d="M127.59,-323.97C129.7,-306.76 132.98,-279.98 135.4,-260.29"/>
<polygon fill="#9aa4b2" stroke="#9aa4b2" points="138.18,-260.62 136.37,-252.34 132.62,-259.94 138.18,-260.62"/>
<text text-anchor="middle" x="151" y="-284.6" font-family="Helvetica,sans-Serif" font-size="13.00" fill="#94a3b8">entry</text>
</g>
<!-- S_110 -->
<g id="node3" class="node">
<title>S_110</title>
<path fill="#1a2028" stroke="#9aa4b2" stroke-width="1.2" d="M125,-144C125,-144 12,-144 12,-144 6,-144 0,-138 0,-132 0,-132 0,-120 0,-120 0,-114 6,-108 12,-108 12,-108 125,-108 125,-108 131,-108 137,-114 137,-120 137,-120 137,-132 137,-132 137,-138 131,-144 125,-144"/>
<text text-anchor="middle" x="68.5" y="-122.2" font-family="Helvetica,sans-Serif" font-size="16.00" fill="#e6edf3">Sense / Decide</text>
</g>
<!-- S_100&#45;&gt;S_110 -->
<g id="edge2" class="edge">
<title>S_100&#45;&gt;S_110</title>
<path fill="none" stroke="#9aa4b2" d="M93.87,-216C81.5,-208.98 69.54,-199.5 62.5,-187 56.59,-176.51 57.2,-163.32 59.67,-151.99"/>
<polygon fill="#9aa4b2" stroke="#9aa4b2" points="62.41,-152.58 61.73,-144.13 56.99,-151.16 62.41,-152.58"/>
<text text-anchor="middle" x="122.5" y="-176.6" font-family="Helvetica,sans-Serif" font-size="13.00" fill="#94a3b8">if Sounc_busy &gt; 0</text>
</g>
<!-- S_120 -->
<g id="node4" class="node">
<title>S_120</title>
<path fill="#1a2028" stroke="#9aa4b2" stroke-width="1.2" d="M197,-36C197,-36 84,-36 84,-36 78,-36 72,-30 72,-24 72,-24 72,-12 72,-12 72,-6 78,0 84,0 84,0 197,0 197,0 203,0 209,-6 209,-12 209,-12 209,-24 209,-24 209,-30 203,-36 197,-36"/>
<text text-anchor="middle" x="140.5" y="-14.2" font-family="Helvetica,sans-Serif" font-size="16.00" fill="#e6edf3">Sense / Decide</text>
</g>
<!-- S_110&#45;&gt;S_120 -->
<g id="edge3" class="edge">
<title>S_110&#45;&gt;S_120</title>
<path fill="none" stroke="#9aa4b2" d="M65.06,-107.85C63.44,-95.2 63.21,-78 70.5,-65 76,-55.2 84.55,-47.13 93.82,-40.63"/>
<polygon fill="#9aa4b2" stroke="#9aa4b2" points="95.48,-42.89 100.65,-36.18 92.42,-38.2 95.48,-42.89"/>
<text text-anchor="middle" x="126.5" y="-68.6" font-family="Helvetica,sans-Serif" font-size="13.00" fill="#94a3b8">if Light_busy &gt; 0</text>
</g>
<!-- S_120&#45;&gt;S_100 -->
<g id="edge4" class="edge">
<title>S_120&#45;&gt;S_100</title>
<path fill="none" stroke="#9aa4b2" d="M165.17,-36.38C173.94,-44.04 182.81,-53.84 187.5,-65 208.52,-114.98 209.04,-137.24 187.5,-187 183.74,-195.69 177.44,-203.49 170.59,-210.1"/>
<polygon fill="#9aa4b2" stroke="#9aa4b2" points="168.29,-208.4 164.19,-215.82 172.02,-212.57 168.29,-208.4"/>
<text text-anchor="middle" x="290" y="-122.6" font-family="Helvetica,sans-Serif" font-size="13.00" fill="#94a3b8">if Touch_head_time &lt; 200</text>
</g>
<!-- S_200 -->
<g id="node5" class="node">
<title>S_200</title>
<path fill="#1a2028" stroke="#9aa4b2" stroke-width="1.2" d="M360,-360C360,-360 247,-360 247,-360 241,-360 235,-354 235,-348 235,-348 235,-336 235,-336 235,-330 241,-324 247,-324 247,-324 360,-324 360,-324 366,-324 372,-330 372,-336 372,-336 372,-348 372,-348 372,-354 366,-360 360,-360"/>
<text text-anchor="middle" x="303.5" y="-338.2" font-family="Helvetica,sans-Serif" font-size="16.00" fill="#e6edf3">Sense / Decide</text>
</g>
<!-- S_200&#45;&gt;S_100 -->
<g id="edge6" class="edge">
<title>S_200&#45;&gt;S_100</title>
<path fill="none" stroke="#9aa4b2" d="M276.99,-323.97C248.45,-305.63 202.98,-276.42 171.99,-256.51"/>
<polygon fill="#9aa4b2" stroke="#9aa4b2" points="173.46,-254.13 165.22,-252.16 170.44,-258.84 173.46,-254.13"/>
<text text-anchor="middle" x="240" y="-284.6" font-family="Helvetica,sans-Serif" font-size="13.00" fill="#94a3b8">go</text>
</g>
<!-- S_300 -->
<g id="node6" class="node">
<title>S_300</title>
<path fill="#1a2028" stroke="#9aa4b2" stroke-width="1.2" d="M339,-252C339,-252 268,-252 268,-252 262,-252 256,-246 256,-240 256,-240 256,-228 256,-228 256,-222 262,-216 268,-216 268,-216 339,-216 339,-216 345,-216 351,-222 351,-228 351,-228 351,-240 351,-240 351,-246 345,-252 339,-252"/>
<text text-anchor="middle" x="303.5" y="-230.2" font-family="Helvetica,sans-Serif" font-size="16.00" fill="#e6edf3">State 300</text>
</g>
<!-- S_200&#45;&gt;S_300 -->
<g id="edge5" class="edge">
<title>S_200&#45;&gt;S_300</title>
<path fill="none" stroke="#9aa4b2" d="M303.5,-323.97C303.5,-306.84 303.5,-280.22 303.5,-260.56"/>
<polygon fill="#9aa4b2" stroke="#9aa4b2" points="306.3,-260.34 303.5,-252.34 300.7,-260.34 306.3,-260.34"/>
<text text-anchor="middle" x="339" y="-284.6" font-family="Helvetica,sans-Serif" font-size="13.00" fill="#94a3b8">if cont &gt; 5</text>
</g>
</g>
</svg>
